<svg xmlns="http://www.w3.org/2000/svg" viewBox="0 0 800 500" font-family="var(--label-font,'Space Grotesk','IBM Plex Sans',ui-sans-serif,sans-serif)">
<!-- u_1061_e1 three-step PE diagram shown-state | chem row 1061 | 3 humps + 2 valleys, no numbers (counting steps and intermediates IS the task) -->
<defs><marker id="ax" viewBox="0 0 10 10" refX="8" refY="5" markerWidth="7" markerHeight="7" orient="auto-start-reverse"><path d="M0,0 L10,5 L0,10 z" fill="var(--muted,#606b84)"/></marker></defs>
<line x1="140" y1="420" x2="700" y2="420" stroke="var(--ink,#18213a)" stroke-width="2.5" marker-end="url(#ax)"/><line x1="140" y1="420" x2="140" y2="100" stroke="var(--ink,#18213a)" stroke-width="2.5" marker-end="url(#ax)"/>
<path d="M165,340 L230,340 C260,340 260,230 280,230 C300,230 305,300 330,300 C355,300 385,170 420,170 C455,170 460,310 480,310 C505,310 510,250 540,250 C570,250 575,380 600,380 L680,380" fill="none" stroke="var(--indigo,#5545e8)" stroke-width="4" stroke-linecap="round"/>
<text x="500" y="468" font-size="15" fill="var(--ink,#18213a)" text-anchor="middle" font-weight="500" paint-order="stroke" stroke="var(--surface,#ffffff)" stroke-width="4" stroke-linejoin="round" >reaction coordinate</text>
<text x="60" y="260" font-size="15" fill="var(--ink,#18213a)" text-anchor="middle" font-weight="500" paint-order="stroke" stroke="var(--surface,#ffffff)" stroke-width="4" stroke-linejoin="round" transform="rotate(-90 60 260)">potential energy (kJ)</text>
</svg>
