<svg xmlns="http://www.w3.org/2000/svg" viewBox="0 0 800 500" font-family="var(--label-font,'Space Grotesk','IBM Plex Sans',ui-sans-serif,sans-serif)">
<!-- u_1044_e1 two-step PE diagram shown-state | chem rows 1044/1058/1063 | react 0 -> TS1 60 -> Int 30 -> TS2 120 -> prod -20 (verbatim cell values, readable off y-ticks); NO RDS marker, NO Ea arrows, NO exo/endo verdict -->
<defs><marker id="ax" viewBox="0 0 10 10" refX="8" refY="5" markerWidth="7" markerHeight="7" orient="auto-start-reverse"><path d="M0,0 L10,5 L0,10 z" fill="var(--muted,#606b84)"/></marker></defs>
<line x1="140" y1="435" x2="700" y2="435" stroke="var(--ink,#18213a)" stroke-width="2.5" marker-end="url(#ax)"/><line x1="140" y1="435" x2="140" y2="100" stroke="var(--ink,#18213a)" stroke-width="2.5" marker-end="url(#ax)"/>
<line x1="134" y1="405" x2="140" y2="405" stroke="var(--ink,#18213a)" stroke-width="2"/>
<line x1="140" y1="405" x2="690" y2="405" stroke="var(--line,#e5eaf2)" stroke-width="1"/>
<text x="126" y="410" font-size="13" fill="var(--muted,#606b84)" text-anchor="end" font-weight="500" paint-order="stroke" stroke="var(--surface,#ffffff)" stroke-width="4" stroke-linejoin="round" >-20</text>
<line x1="134" y1="370" x2="140" y2="370" stroke="var(--ink,#18213a)" stroke-width="2"/>
<line x1="140" y1="370" x2="690" y2="370" stroke="var(--line,#e5eaf2)" stroke-width="1"/>
<text x="126" y="375" font-size="13" fill="var(--muted,#606b84)" text-anchor="end" font-weight="500" paint-order="stroke" stroke="var(--surface,#ffffff)" stroke-width="4" stroke-linejoin="round" >0</text>
<line x1="134" y1="318" x2="140" y2="318" stroke="var(--ink,#18213a)" stroke-width="2"/>
<line x1="140" y1="318" x2="690" y2="318" stroke="var(--line,#e5eaf2)" stroke-width="1"/>
<text x="126" y="323" font-size="13" fill="var(--muted,#606b84)" text-anchor="end" font-weight="500" paint-order="stroke" stroke="var(--surface,#ffffff)" stroke-width="4" stroke-linejoin="round" >30</text>
<line x1="134" y1="265" x2="140" y2="265" stroke="var(--ink,#18213a)" stroke-width="2"/>
<line x1="140" y1="265" x2="690" y2="265" stroke="var(--line,#e5eaf2)" stroke-width="1"/>
<text x="126" y="270" font-size="13" fill="var(--muted,#606b84)" text-anchor="end" font-weight="500" paint-order="stroke" stroke="var(--surface,#ffffff)" stroke-width="4" stroke-linejoin="round" >60</text>
<line x1="134" y1="160" x2="140" y2="160" stroke="var(--ink,#18213a)" stroke-width="2"/>
<line x1="140" y1="160" x2="690" y2="160" stroke="var(--line,#e5eaf2)" stroke-width="1"/>
<text x="126" y="165" font-size="13" fill="var(--muted,#606b84)" text-anchor="end" font-weight="500" paint-order="stroke" stroke="var(--surface,#ffffff)" stroke-width="4" stroke-linejoin="round" >120</text>
<path d="M165,370 L240,370 C270,370 275,265 300,265 C325,265 335,318 360,318 L385,318 C415,318 430,160 470,160 C510,160 520,405 560,405 L670,405" fill="none" stroke="var(--indigo,#5545e8)" stroke-width="4" stroke-linecap="round"/>
<text x="500" y="478" font-size="15" fill="var(--ink,#18213a)" text-anchor="middle" font-weight="500" paint-order="stroke" stroke="var(--surface,#ffffff)" stroke-width="4" stroke-linejoin="round" >reaction coordinate</text>
<text x="60" y="260" font-size="15" fill="var(--ink,#18213a)" text-anchor="middle" font-weight="500" paint-order="stroke" stroke="var(--surface,#ffffff)" stroke-width="4" stroke-linejoin="round" transform="rotate(-90 60 260)">potential energy (kJ)</text>
</svg>
