<svg xmlns="http://www.w3.org/2000/svg" viewBox="0 0 800 500" font-family="var(--label-font,'Space Grotesk','IBM Plex Sans',ui-sans-serif,sans-serif)">
<!-- u_1054_e1 single-step PE diagram shown-state | chem rows 1054/1055 (J+K) | react 50 kJ, TS 130 kJ, prod 20 kJ readable off y-ticks; NO dH/Ea arrows or labels (drawing+labeling them IS the task) -->
<defs><marker id="ax" viewBox="0 0 10 10" refX="8" refY="5" markerWidth="7" markerHeight="7" orient="auto-start-reverse"><path d="M0,0 L10,5 L0,10 z" fill="var(--muted,#606b84)"/></marker></defs>
<line x1="140" y1="420" x2="700" y2="420" stroke="var(--ink,#18213a)" stroke-width="2.5" marker-end="url(#ax)"/><line x1="140" y1="420" x2="140" y2="100" stroke="var(--ink,#18213a)" stroke-width="2.5" marker-end="url(#ax)"/>
<line x1="134" y1="365" x2="140" y2="365" stroke="var(--ink,#18213a)" stroke-width="2"/>
<line x1="140" y1="365" x2="690" y2="365" stroke="var(--line,#e5eaf2)" stroke-width="1"/>
<text x="126" y="370" font-size="13" fill="var(--muted,#606b84)" text-anchor="end" font-weight="500" paint-order="stroke" stroke="var(--surface,#ffffff)" stroke-width="4" stroke-linejoin="round" >20</text>
<line x1="134" y1="312" x2="140" y2="312" stroke="var(--ink,#18213a)" stroke-width="2"/>
<line x1="140" y1="312" x2="690" y2="312" stroke="var(--line,#e5eaf2)" stroke-width="1"/>
<text x="126" y="317" font-size="13" fill="var(--muted,#606b84)" text-anchor="end" font-weight="500" paint-order="stroke" stroke="var(--surface,#ffffff)" stroke-width="4" stroke-linejoin="round" >50</text>
<line x1="134" y1="172" x2="140" y2="172" stroke="var(--ink,#18213a)" stroke-width="2"/>
<line x1="140" y1="172" x2="690" y2="172" stroke="var(--line,#e5eaf2)" stroke-width="1"/>
<text x="126" y="177" font-size="13" fill="var(--muted,#606b84)" text-anchor="end" font-weight="500" paint-order="stroke" stroke="var(--surface,#ffffff)" stroke-width="4" stroke-linejoin="round" >130</text>
<path d="M170,312 L280,312 C340,312 360,172 410,172 C460,172 480,365 540,365 L660,365" fill="none" stroke="var(--indigo,#5545e8)" stroke-width="4" stroke-linecap="round"/>
<text x="500" y="468" font-size="15" fill="var(--ink,#18213a)" text-anchor="middle" font-weight="500" paint-order="stroke" stroke="var(--surface,#ffffff)" stroke-width="4" stroke-linejoin="round" >reaction coordinate</text>
<text x="60" y="260" font-size="15" fill="var(--ink,#18213a)" text-anchor="middle" font-weight="500" paint-order="stroke" stroke="var(--surface,#ffffff)" stroke-width="4" stroke-linejoin="round" transform="rotate(-90 60 260)">potential energy (kJ)</text>
</svg>
