<svg xmlns="http://www.w3.org/2000/svg" viewBox="0 0 800 500" font-family="var(--label-font,'Space Grotesk','IBM Plex Sans',ui-sans-serif,sans-serif)">
<!-- u_1133_e1 P-t NH3 system shown-state | chem row 1133 | P(N2)/P(H2) fall from initial values, P(NH3) rises from 0, all plateau (1:3:2 deltas, mirrors u_1126 family); NO total-pressure line (describing total P IS the task) -->
<defs><marker id="ax" viewBox="0 0 10 10" refX="8" refY="5" markerWidth="7" markerHeight="7" orient="auto-start-reverse"><path d="M0,0 L10,5 L0,10 z" fill="var(--muted,#606b84)"/></marker></defs>
<line x1="140" y1="420" x2="700" y2="420" stroke="var(--ink,#18213a)" stroke-width="2.5" marker-end="url(#ax)"/><line x1="140" y1="420" x2="140" y2="100" stroke="var(--ink,#18213a)" stroke-width="2.5" marker-end="url(#ax)"/>
<line x1="134" y1="350" x2="140" y2="350" stroke="var(--ink,#18213a)" stroke-width="2"/><line x1="140" y1="350" x2="690" y2="350" stroke="var(--line,#e5eaf2)" stroke-width="1"/><text x="126" y="355" font-size="13" fill="var(--muted,#606b84)" text-anchor="end" font-weight="500" paint-order="stroke" stroke="var(--surface,#ffffff)" stroke-width="4" stroke-linejoin="round" >0.50</text>
<line x1="134" y1="280" x2="140" y2="280" stroke="var(--ink,#18213a)" stroke-width="2"/><line x1="140" y1="280" x2="690" y2="280" stroke="var(--line,#e5eaf2)" stroke-width="1"/><text x="126" y="285" font-size="13" fill="var(--muted,#606b84)" text-anchor="end" font-weight="500" paint-order="stroke" stroke="var(--surface,#ffffff)" stroke-width="4" stroke-linejoin="round" >1.00</text>
<line x1="134" y1="210" x2="140" y2="210" stroke="var(--ink,#18213a)" stroke-width="2"/><line x1="140" y1="210" x2="690" y2="210" stroke="var(--line,#e5eaf2)" stroke-width="1"/><text x="126" y="215" font-size="13" fill="var(--muted,#606b84)" text-anchor="end" font-weight="500" paint-order="stroke" stroke="var(--surface,#ffffff)" stroke-width="4" stroke-linejoin="round" >1.50</text>
<path d="M145,350 C240,354 300,372 380,376 C430,378 460,378 640,378" fill="none" stroke="var(--indigo,#5545e8)" stroke-width="4" stroke-linecap="round"/>
<text x="668" y="384" font-size="14" fill="var(--indigo,#5545e8)" text-anchor="middle" font-weight="700" paint-order="stroke" stroke="var(--surface,#ffffff)" stroke-width="4" stroke-linejoin="round" >N₂</text>
<path d="M145,210 C240,222 300,276 380,288 C430,293 460,294 640,294" fill="none" stroke="var(--amber,#f5b526)" stroke-width="4" stroke-linecap="round"/>
<text x="668" y="299" font-size="14" fill="var(--amber,#f5b526)" text-anchor="middle" font-weight="700" paint-order="stroke" stroke="var(--surface,#ffffff)" stroke-width="4" stroke-linejoin="round" >H₂</text>
<path d="M145,418 C240,410 300,374 380,368 C430,365 460,364 640,364" fill="none" stroke="var(--rose,#e8548c)" stroke-width="4" stroke-linecap="round"/>
<text x="670" y="359" font-size="14" fill="var(--rose,#e8548c)" text-anchor="middle" font-weight="700" paint-order="stroke" stroke="var(--surface,#ffffff)" stroke-width="4" stroke-linejoin="round" >NH₃</text>
<text x="640" y="468" font-size="15" fill="var(--ink,#18213a)" text-anchor="middle" font-weight="500" paint-order="stroke" stroke="var(--surface,#ffffff)" stroke-width="4" stroke-linejoin="round" >time</text>
<text x="60" y="260" font-size="15" fill="var(--ink,#18213a)" text-anchor="middle" font-weight="500" paint-order="stroke" stroke="var(--surface,#ffffff)" stroke-width="4" stroke-linejoin="round" transform="rotate(-90 60 260)">partial pressure (atm)</text>
</svg>
