<svg xmlns="http://www.w3.org/2000/svg" viewBox="0 0 800 500" font-family="var(--label-font,'Space Grotesk','IBM Plex Sans',ui-sans-serif,sans-serif)">
<!-- u_1125_e1 A+B<=>C approach shown-state | chem row 1125 | [A],[B] fall from different initials, [C] rises from 0, all plateau together; NO t_eq marker, NO up/down annotations -->
<defs><marker id="ax" viewBox="0 0 10 10" refX="8" refY="5" markerWidth="7" markerHeight="7" orient="auto-start-reverse"><path d="M0,0 L10,5 L0,10 z" fill="var(--muted,#606b84)"/></marker></defs>
<line x1="140" y1="420" x2="700" y2="420" stroke="var(--ink,#18213a)" stroke-width="2.5" marker-end="url(#ax)"/><line x1="140" y1="420" x2="140" y2="100" stroke="var(--ink,#18213a)" stroke-width="2.5" marker-end="url(#ax)"/>
<path d="M145,190 C260,200 320,285 400,296 C450,300 480,300 650,300" fill="none" stroke="var(--indigo,#5545e8)" stroke-width="4" stroke-linecap="round"/>
<text x="675" y="304" font-size="14" fill="var(--indigo,#5545e8)" text-anchor="middle" font-weight="700" paint-order="stroke" stroke="var(--surface,#ffffff)" stroke-width="4" stroke-linejoin="round" >[A]</text>
<path d="M145,240 C260,250 320,330 400,341 C450,345 480,345 650,345" fill="none" stroke="var(--amber,#f5b526)" stroke-width="4" stroke-linecap="round"/>
<text x="675" y="349" font-size="14" fill="var(--amber,#f5b526)" text-anchor="middle" font-weight="700" paint-order="stroke" stroke="var(--surface,#ffffff)" stroke-width="4" stroke-linejoin="round" >[B]</text>
<path d="M145,418 C260,408 320,265 400,248 C450,242 480,240 650,240" fill="none" stroke="var(--rose,#e8548c)" stroke-width="4" stroke-linecap="round"/>
<text x="675" y="244" font-size="14" fill="var(--rose,#e8548c)" text-anchor="middle" font-weight="700" paint-order="stroke" stroke="var(--surface,#ffffff)" stroke-width="4" stroke-linejoin="round" >[C]</text>
<text x="640" y="468" font-size="15" fill="var(--ink,#18213a)" text-anchor="middle" font-weight="500" paint-order="stroke" stroke="var(--surface,#ffffff)" stroke-width="4" stroke-linejoin="round" >time</text>
<text x="60" y="260" font-size="15" fill="var(--ink,#18213a)" text-anchor="middle" font-weight="500" paint-order="stroke" stroke="var(--surface,#ffffff)" stroke-width="4" stroke-linejoin="round" transform="rotate(-90 60 260)">concentration (M)</text>
</svg>
