<svg xmlns="http://www.w3.org/2000/svg" viewBox="0 0 800 500" font-family="var(--label-font,'Space Grotesk','IBM Plex Sans',ui-sans-serif,sans-serif)">
<!-- u_658_e1 same dye two concentrations shown-state | chem rows 658 e1 (+658 e2 per A5) | both curves peak at the SAME lambda; 0.02 M above 0.01 M everywhere; concentrations labeled (given); lambda-max NOT marked -->
<defs><marker id="ax" viewBox="0 0 10 10" refX="8" refY="5" markerWidth="7" markerHeight="7" orient="auto-start-reverse"><path d="M0,0 L10,5 L0,10 z" fill="var(--muted,#606b84)"/></marker></defs>
<line x1="140" y1="420" x2="700" y2="420" stroke="var(--ink,#18213a)" stroke-width="2.5" marker-end="url(#ax)"/><line x1="140" y1="420" x2="140" y2="100" stroke="var(--ink,#18213a)" stroke-width="2.5" marker-end="url(#ax)"/>
<path d="M160,408 C250,402 330,385 365,320 C388,270 392,255 400,250 C408,255 412,270 435,320 C470,385 550,402 660,408" fill="none" stroke="var(--indigo,#5545e8)" stroke-width="4" stroke-linecap="round"/>
<path d="M160,398 C250,390 320,360 358,270 C384,200 390,180 400,175 C410,180 416,200 442,270 C480,360 550,390 660,398" fill="none" stroke="var(--amber,#f5b526)" stroke-width="4" stroke-linecap="round" stroke-dasharray="10 7"/>
<text x="330" y="160" font-size="14" fill="var(--amber,#f5b526)" text-anchor="middle" font-weight="700" paint-order="stroke" stroke="var(--surface,#ffffff)" stroke-width="4" stroke-linejoin="round" >0.02 M</text>
<text x="308" y="248" font-size="14" fill="var(--indigo,#5545e8)" text-anchor="middle" font-weight="700" paint-order="stroke" stroke="var(--surface,#ffffff)" stroke-width="4" stroke-linejoin="round" >0.01 M</text>
<text x="480" y="468" font-size="15" fill="var(--ink,#18213a)" text-anchor="middle" font-weight="500" paint-order="stroke" stroke="var(--surface,#ffffff)" stroke-width="4" stroke-linejoin="round" >wavelength (nm)</text>
<text x="60" y="260" font-size="15" fill="var(--ink,#18213a)" text-anchor="middle" font-weight="500" paint-order="stroke" stroke="var(--surface,#ffffff)" stroke-width="4" stroke-linejoin="round" transform="rotate(-90 60 260)">absorbance</text>
</svg>
