<svg xmlns="http://www.w3.org/2000/svg" viewBox="0 0 480 320"><rect width="480" height="320" fill="#ffffff"/><line x1="60" y1="280" x2="60" y2="40" stroke="#333" stroke-width="2"/><line x1="60" y1="280" x2="440" y2="280" stroke="#333" stroke-width="2"/><text x="440" y="298" font-family="sans-serif" font-size="12" fill="#555" text-anchor="end">Time</text><text x="24" y="160" font-family="sans-serif" font-size="13" fill="#555" text-anchor="middle" transform="rotate(-90 24 160)">Concentration</text><line x1="71.1" y1="81.1" x2="115.5" y2="144.4" stroke="#b91c1c" stroke-width="2.5"/><line x1="115.5" y1="144.4" x2="171.0" y2="189.6" stroke="#b91c1c" stroke-width="2.5"/><line x1="171.0" y1="189.6" x2="245.0" y2="225.8" stroke="#b91c1c" stroke-width="2.5"/><line x1="245.0" y1="225.8" x2="337.5" y2="248.4" stroke="#b91c1c" stroke-width="2.5"/><line x1="337.5" y1="248.4" x2="411.5" y2="257.4" stroke="#b91c1c" stroke-width="2.5"/><line x1="71.1" y1="261.9" x2="115.5" y2="198.6" stroke="#1d4ed8" stroke-width="2.5"/><line x1="115.5" y1="198.6" x2="171.0" y2="153.4" stroke="#1d4ed8" stroke-width="2.5"/><line x1="171.0" y1="153.4" x2="245.0" y2="117.3" stroke="#1d4ed8" stroke-width="2.5"/><line x1="245.0" y1="117.3" x2="337.5" y2="94.7" stroke="#1d4ed8" stroke-width="2.5"/><line x1="337.5" y1="94.7" x2="411.5" y2="85.6" stroke="#1d4ed8" stroke-width="2.5"/><text x="348.6" y="230.3" font-family="sans-serif" font-size="12" fill="#b91c1c" text-anchor="start" font-weight="700">[reactant]</text><text x="348.6" y="112.8" font-family="sans-serif" font-size="12" fill="#1d4ed8" text-anchor="start" font-weight="700">[product]</text></svg>