<svg xmlns="http://www.w3.org/2000/svg" viewBox="0 0 480 320"><rect width="480" height="320" fill="#ffffff"/><line x1="60" y1="280" x2="60" y2="40" stroke="#333" stroke-width="2"/><line x1="60" y1="280" x2="440" y2="280" stroke="#333" stroke-width="2"/><text x="440" y="298" font-family="sans-serif" font-size="12" fill="#555" text-anchor="end">Volume</text><text x="24" y="160" font-family="sans-serif" font-size="13" fill="#555" text-anchor="middle" transform="rotate(-90 24 160)">Pressure</text><line x1="97.0" y1="76.6" x2="98.1" y2="79.3" stroke="#b91c1c" stroke-width="2.5"/><line x1="98.1" y1="79.3" x2="99.2" y2="82.1" stroke="#b91c1c" stroke-width="2.5"/><line x1="99.2" y1="82.1" x2="100.3" y2="84.8" stroke="#b91c1c" stroke-width="2.5"/><line x1="100.3" y1="84.8" x2="101.3" y2="87.6" stroke="#b91c1c" stroke-width="2.5"/><line x1="101.3" y1="87.6" x2="102.4" y2="90.4" stroke="#b91c1c" stroke-width="2.5"/><line x1="102.4" y1="90.4" x2="103.4" y2="93.2" stroke="#b91c1c" stroke-width="2.5"/><line x1="103.4" y1="93.2" x2="104.5" y2="95.9" stroke="#b91c1c" stroke-width="2.5"/><line x1="104.5" y1="95.9" x2="105.5" y2="98.7" stroke="#b91c1c" stroke-width="2.5"/><line x1="105.5" y1="98.7" x2="106.6" y2="101.5" stroke="#b91c1c" stroke-width="2.5"/><line x1="106.6" y1="101.5" x2="107.6" y2="104.3" stroke="#b91c1c" stroke-width="2.5"/><line x1="107.6" y1="104.3" x2="108.7" y2="107.0" stroke="#b91c1c" stroke-width="2.5"/><line x1="108.7" y1="107.0" x2="109.8" y2="109.8" stroke="#b91c1c" stroke-width="2.5"/><line x1="109.8" y1="109.8" x2="110.9" y2="112.5" stroke="#b91c1c" stroke-width="2.5"/><line x1="110.9" y1="112.5" x2="112.0" y2="115.2" stroke="#b91c1c" stroke-width="2.5"/><line x1="112.0" y1="115.2" x2="113.1" y2="117.9" stroke="#b91c1c" stroke-width="2.5"/><line x1="113.1" y1="117.9" x2="114.3" y2="120.6" stroke="#b91c1c" stroke-width="2.5"/><line x1="114.3" y1="120.6" x2="115.5" y2="123.2" stroke="#b91c1c" stroke-width="2.5"/><line x1="115.5" y1="123.2" x2="116.7" y2="125.8" stroke="#b91c1c" stroke-width="2.5"/><line x1="116.7" y1="125.8" x2="117.9" y2="128.3" stroke="#b91c1c" stroke-width="2.5"/><line x1="117.9" y1="128.3" x2="119.2" y2="130.8" stroke="#b91c1c" stroke-width="2.5"/><line x1="119.2" y1="130.8" x2="120.5" y2="133.3" stroke="#b91c1c" stroke-width="2.5"/><line x1="120.5" y1="133.3" x2="121.8" y2="135.8" stroke="#b91c1c" stroke-width="2.5"/><line x1="121.8" y1="135.8" x2="123.1" y2="138.2" stroke="#b91c1c" stroke-width="2.5"/><line x1="123.1" y1="138.2" x2="124.4" y2="140.6" stroke="#b91c1c" stroke-width="2.5"/><line x1="124.4" y1="140.6" x2="125.7" y2="143.0" stroke="#b91c1c" stroke-width="2.5"/><line x1="125.7" y1="143.0" x2="127.1" y2="145.3" stroke="#b91c1c" stroke-width="2.5"/><line x1="127.1" y1="145.3" x2="128.4" y2="147.7" stroke="#b91c1c" stroke-width="2.5"/><line x1="128.4" y1="147.7" x2="129.8" y2="150.0" stroke="#b91c1c" stroke-width="2.5"/><line x1="129.8" y1="150.0" x2="131.2" y2="152.3" stroke="#b91c1c" stroke-width="2.5"/><line x1="131.2" y1="152.3" x2="132.6" y2="154.6" stroke="#b91c1c" stroke-width="2.5"/><line x1="132.6" y1="154.6" x2="134.1" y2="156.8" stroke="#b91c1c" stroke-width="2.5"/><line x1="134.1" y1="156.8" x2="135.5" y2="159.0" stroke="#b91c1c" stroke-width="2.5"/><line x1="135.5" y1="159.0" x2="137.1" y2="161.2" stroke="#b91c1c" stroke-width="2.5"/><line x1="137.1" y1="161.2" x2="138.6" y2="163.4" stroke="#b91c1c" stroke-width="2.5"/><line x1="138.6" y1="163.4" x2="140.2" y2="165.6" stroke="#b91c1c" stroke-width="2.5"/><line x1="140.2" y1="165.6" x2="141.8" y2="167.7" stroke="#b91c1c" stroke-width="2.5"/><line x1="141.8" y1="167.7" x2="143.5" y2="169.8" stroke="#b91c1c" stroke-width="2.5"/><line x1="143.5" y1="169.8" x2="145.2" y2="171.9" stroke="#b91c1c" stroke-width="2.5"/><line x1="145.2" y1="171.9" x2="147.0" y2="174.0" stroke="#b91c1c" stroke-width="2.5"/><line x1="147.0" y1="174.0" x2="148.8" y2="176.0" stroke="#b91c1c" stroke-width="2.5"/><line x1="148.8" y1="176.0" x2="150.7" y2="178.1" stroke="#b91c1c" stroke-width="2.5"/><line x1="150.7" y1="178.1" x2="152.6" y2="180.1" stroke="#b91c1c" stroke-width="2.5"/><line x1="152.6" y1="180.1" x2="154.5" y2="182.1" stroke="#b91c1c" stroke-width="2.5"/><line x1="154.5" y1="182.1" x2="156.5" y2="184.1" stroke="#b91c1c" stroke-width="2.5"/><line x1="156.5" y1="184.1" x2="158.5" y2="186.1" stroke="#b91c1c" stroke-width="2.5"/><line x1="158.5" y1="186.1" x2="160.6" y2="188.1" stroke="#b91c1c" stroke-width="2.5"/><line x1="160.6" y1="188.1" x2="162.7" y2="190.0" stroke="#b91c1c" stroke-width="2.5"/><line x1="162.7" y1="190.0" x2="164.8" y2="191.9" stroke="#b91c1c" stroke-width="2.5"/><line x1="164.8" y1="191.9" x2="166.9" y2="193.8" stroke="#b91c1c" stroke-width="2.5"/><line x1="166.9" y1="193.8" x2="169.2" y2="195.7" stroke="#b91c1c" stroke-width="2.5"/><line x1="169.2" y1="195.7" x2="171.4" y2="197.5" stroke="#b91c1c" stroke-width="2.5"/><line x1="171.4" y1="197.5" x2="173.7" y2="199.3" stroke="#b91c1c" stroke-width="2.5"/><line x1="173.7" y1="199.3" x2="176.0" y2="201.1" stroke="#b91c1c" stroke-width="2.5"/><line x1="176.0" y1="201.1" x2="178.3" y2="202.8" stroke="#b91c1c" stroke-width="2.5"/><line x1="178.3" y1="202.8" x2="180.7" y2="204.5" stroke="#b91c1c" stroke-width="2.5"/><line x1="180.7" y1="204.5" x2="183.1" y2="206.1" stroke="#b91c1c" stroke-width="2.5"/><line x1="183.1" y1="206.1" x2="185.6" y2="207.7" stroke="#b91c1c" stroke-width="2.5"/><line x1="185.6" y1="207.7" x2="188.1" y2="209.3" stroke="#b91c1c" stroke-width="2.5"/><line x1="188.1" y1="209.3" x2="190.6" y2="210.8" stroke="#b91c1c" stroke-width="2.5"/><line x1="190.6" y1="210.8" x2="193.2" y2="212.2" stroke="#b91c1c" stroke-width="2.5"/><line x1="193.2" y1="212.2" x2="195.8" y2="213.6" stroke="#b91c1c" stroke-width="2.5"/><line x1="195.8" y1="213.6" x2="198.5" y2="214.9" stroke="#b91c1c" stroke-width="2.5"/><line x1="198.5" y1="214.9" x2="201.1" y2="216.2" stroke="#b91c1c" stroke-width="2.5"/><line x1="201.1" y1="216.2" x2="203.9" y2="217.4" stroke="#b91c1c" stroke-width="2.5"/><line x1="203.9" y1="217.4" x2="206.6" y2="218.6" stroke="#b91c1c" stroke-width="2.5"/><line x1="206.6" y1="218.6" x2="209.4" y2="219.7" stroke="#b91c1c" stroke-width="2.5"/><line x1="209.4" y1="219.7" x2="212.2" y2="220.8" stroke="#b91c1c" stroke-width="2.5"/><line x1="212.2" y1="220.8" x2="215.1" y2="221.8" stroke="#b91c1c" stroke-width="2.5"/><line x1="215.1" y1="221.8" x2="218.0" y2="222.8" stroke="#b91c1c" stroke-width="2.5"/><line x1="218.0" y1="222.8" x2="220.9" y2="223.8" stroke="#b91c1c" stroke-width="2.5"/><line x1="220.9" y1="223.8" x2="223.9" y2="224.7" stroke="#b91c1c" stroke-width="2.5"/><line x1="223.9" y1="224.7" x2="226.9" y2="225.7" stroke="#b91c1c" stroke-width="2.5"/><line x1="226.9" y1="225.7" x2="230.0" y2="226.6" stroke="#b91c1c" stroke-width="2.5"/><line x1="230.0" y1="226.6" x2="233.1" y2="227.4" stroke="#b91c1c" stroke-width="2.5"/><line x1="233.1" y1="227.4" x2="236.2" y2="228.3" stroke="#b91c1c" stroke-width="2.5"/><line x1="236.2" y1="228.3" x2="239.4" y2="229.2" stroke="#b91c1c" stroke-width="2.5"/><line x1="239.4" y1="229.2" x2="242.6" y2="230.0" stroke="#b91c1c" stroke-width="2.5"/><line x1="242.6" y1="230.0" x2="245.8" y2="230.9" stroke="#b91c1c" stroke-width="2.5"/><line x1="245.8" y1="230.9" x2="249.1" y2="231.7" stroke="#b91c1c" stroke-width="2.5"/><line x1="249.1" y1="231.7" x2="252.4" y2="232.5" stroke="#b91c1c" stroke-width="2.5"/><line x1="252.4" y1="232.5" x2="255.8" y2="233.4" stroke="#b91c1c" stroke-width="2.5"/><line x1="255.8" y1="233.4" x2="259.2" y2="234.2" stroke="#b91c1c" stroke-width="2.5"/><line x1="259.2" y1="234.2" x2="262.7" y2="235.0" stroke="#b91c1c" stroke-width="2.5"/><line x1="262.7" y1="235.0" x2="266.3" y2="235.8" stroke="#b91c1c" stroke-width="2.5"/><line x1="266.3" y1="235.8" x2="269.9" y2="236.6" stroke="#b91c1c" stroke-width="2.5"/><line x1="269.9" y1="236.6" x2="273.5" y2="237.3" stroke="#b91c1c" stroke-width="2.5"/><line x1="273.5" y1="237.3" x2="277.2" y2="238.1" stroke="#b91c1c" stroke-width="2.5"/><line x1="277.2" y1="238.1" x2="280.9" y2="238.8" stroke="#b91c1c" stroke-width="2.5"/><line x1="280.9" y1="238.8" x2="284.7" y2="239.5" stroke="#b91c1c" stroke-width="2.5"/><line x1="284.7" y1="239.5" x2="288.5" y2="240.2" stroke="#b91c1c" stroke-width="2.5"/><line x1="288.5" y1="240.2" x2="292.3" y2="240.8" stroke="#b91c1c" stroke-width="2.5"/><line x1="292.3" y1="240.8" x2="296.1" y2="241.5" stroke="#b91c1c" stroke-width="2.5"/><line x1="296.1" y1="241.5" x2="299.9" y2="242.1" stroke="#b91c1c" stroke-width="2.5"/><line x1="299.9" y1="242.1" x2="303.7" y2="242.7" stroke="#b91c1c" stroke-width="2.5"/><line x1="303.7" y1="242.7" x2="307.6" y2="243.3" stroke="#b91c1c" stroke-width="2.5"/><line x1="307.6" y1="243.3" x2="311.4" y2="243.9" stroke="#b91c1c" stroke-width="2.5"/><line x1="311.4" y1="243.9" x2="315.2" y2="244.5" stroke="#b91c1c" stroke-width="2.5"/><line x1="315.2" y1="244.5" x2="318.9" y2="245.0" stroke="#b91c1c" stroke-width="2.5"/><line x1="318.9" y1="245.0" x2="322.7" y2="245.6" stroke="#b91c1c" stroke-width="2.5"/><line x1="322.7" y1="245.6" x2="326.4" y2="246.1" stroke="#b91c1c" stroke-width="2.5"/><line x1="326.4" y1="246.1" x2="330.1" y2="246.6" stroke="#b91c1c" stroke-width="2.5"/><line x1="330.1" y1="246.6" x2="333.8" y2="247.1" stroke="#b91c1c" stroke-width="2.5"/><line x1="333.8" y1="247.1" x2="337.5" y2="247.5" stroke="#b91c1c" stroke-width="2.5"/><line x1="337.5" y1="247.5" x2="341.2" y2="247.9" stroke="#b91c1c" stroke-width="2.5"/><line x1="341.2" y1="247.9" x2="344.9" y2="248.3" stroke="#b91c1c" stroke-width="2.5"/><line x1="344.9" y1="248.3" x2="348.6" y2="248.6" stroke="#b91c1c" stroke-width="2.5"/><line x1="348.6" y1="248.6" x2="352.3" y2="249.0" stroke="#b91c1c" stroke-width="2.5"/><line x1="352.3" y1="249.0" x2="356.0" y2="249.3" stroke="#b91c1c" stroke-width="2.5"/><line x1="356.0" y1="249.3" x2="359.7" y2="249.6" stroke="#b91c1c" stroke-width="2.5"/><line x1="359.7" y1="249.6" x2="363.4" y2="249.9" stroke="#b91c1c" stroke-width="2.5"/><line x1="363.4" y1="249.9" x2="367.1" y2="250.2" stroke="#b91c1c" stroke-width="2.5"/><line x1="367.1" y1="250.2" x2="370.8" y2="250.5" stroke="#b91c1c" stroke-width="2.5"/><line x1="370.8" y1="250.5" x2="374.5" y2="250.8" stroke="#b91c1c" stroke-width="2.5"/><line x1="374.5" y1="250.8" x2="378.2" y2="251.1" stroke="#b91c1c" stroke-width="2.5"/><line x1="378.2" y1="251.1" x2="381.9" y2="251.3" stroke="#b91c1c" stroke-width="2.5"/><line x1="381.9" y1="251.3" x2="385.6" y2="251.6" stroke="#b91c1c" stroke-width="2.5"/><line x1="385.6" y1="251.6" x2="389.3" y2="251.9" stroke="#b91c1c" stroke-width="2.5"/><line x1="389.3" y1="251.9" x2="393.0" y2="252.2" stroke="#b91c1c" stroke-width="2.5"/><line x1="393.0" y1="252.2" x2="396.7" y2="252.5" stroke="#b91c1c" stroke-width="2.5"/><line x1="396.7" y1="252.5" x2="400.4" y2="252.9" stroke="#b91c1c" stroke-width="2.5"/><text x="289.4" y="117.3" font-family="sans-serif" font-size="13" fill="#b91c1c" text-anchor="middle" font-weight="700">PV = constant (Boyle's law)</text><text x="289.4" y="148.9" font-family="sans-serif" font-size="12" fill="#333" text-anchor="middle" font-weight="700">P ∝ 1/V</text></svg>