<svg xmlns="http://www.w3.org/2000/svg" viewBox="0 0 480 320"><rect width="480" height="320" fill="#ffffff"/><line x1="89.6" y1="155.7" x2="89.6" y2="257.4" stroke="#333" stroke-width="2"/><line x1="89.6" y1="257.4" x2="171.0" y2="257.4" stroke="#333" stroke-width="2"/><line x1="171.0" y1="257.4" x2="171.0" y2="155.7" stroke="#333" stroke-width="2"/><line x1="319.0" y1="155.7" x2="319.0" y2="257.4" stroke="#333" stroke-width="2"/><line x1="319.0" y1="257.4" x2="400.4" y2="257.4" stroke="#333" stroke-width="2"/><line x1="400.4" y1="257.4" x2="400.4" y2="155.7" stroke="#333" stroke-width="2"/><polygon points="89.6,257.4 89.6,189.6 171.0,189.6 171.0,257.4" fill="#93c5fd" opacity="0.35"/><polygon points="319.0,257.4 319.0,189.6 400.4,189.6 400.4,257.4" fill="#fca5a5" opacity="0.35"/><line x1="130.3" y1="148.9" x2="130.3" y2="234.8" stroke="#555" stroke-width="5"/><line x1="359.7" y1="148.9" x2="359.7" y2="234.8" stroke="#b45309" stroke-width="5"/><line x1="130.3" y1="148.9" x2="130.3" y2="121.8" stroke="#333" stroke-width="1.5"/><line x1="130.3" y1="121.8" x2="222.8" y2="121.8" stroke="#333" stroke-width="1.5"/><polygon points="222.8,135.4 267.2,135.4 267.2,108.2 222.8,108.2" fill="#ffffff" opacity="1.0"/><line x1="222.8" y1="135.4" x2="267.2" y2="135.4" stroke="#333" stroke-width="1.5"/><line x1="267.2" y1="135.4" x2="267.2" y2="108.2" stroke="#333" stroke-width="1.5"/><line x1="267.2" y1="108.2" x2="222.8" y2="108.2" stroke="#333" stroke-width="1.5"/><line x1="222.8" y1="108.2" x2="222.8" y2="135.4" stroke="#333" stroke-width="1.5"/><text x="245.0" y="121.8" font-family="sans-serif" font-size="13" fill="#000" text-anchor="middle" font-weight="700">V</text><line x1="267.2" y1="121.8" x2="359.7" y2="121.8" stroke="#333" stroke-width="1.5"/><line x1="359.7" y1="121.8" x2="359.7" y2="148.9" stroke="#333" stroke-width="1.5"/><line x1="171.0" y1="117.3" x2="182.1" y2="121.8" stroke="#000" stroke-width="1.5"/><line x1="171.0" y1="126.3" x2="182.1" y2="121.8" stroke="#000" stroke-width="1.5"/><line x1="304.2" y1="117.3" x2="315.3" y2="121.8" stroke="#000" stroke-width="1.5"/><line x1="304.2" y1="126.3" x2="315.3" y2="121.8" stroke="#000" stroke-width="1.5"/><line x1="148.8" y1="185.1" x2="148.8" y2="171.5" stroke="#7c3aed" stroke-width="3"/><line x1="148.8" y1="171.5" x2="341.2" y2="171.5" stroke="#7c3aed" stroke-width="3"/><line x1="341.2" y1="171.5" x2="341.2" y2="185.1" stroke="#7c3aed" stroke-width="3"/><text x="134.0" y="103.7" font-family="sans-serif" font-size="11" fill="#555" text-anchor="middle" font-weight="700">Zn anode (-)</text><line x1="134.0" y1="108.2" x2="130.3" y2="148.9" stroke="#999" stroke-width="1"/><text x="356.0" y="103.7" font-family="sans-serif" font-size="11" fill="#b45309" text-anchor="middle" font-weight="700">Cu cathode (+)</text><line x1="356.0" y1="108.2" x2="359.7" y2="148.9" stroke="#999" stroke-width="1"/><text x="245.0" y="90.2" font-family="sans-serif" font-size="11" fill="#000" text-anchor="middle">e- flow  -></text><text x="245.0" y="200.9" font-family="sans-serif" font-size="10" fill="#7c3aed" text-anchor="middle">salt bridge</text><line x1="245.0" y1="194.1" x2="245.0" y2="171.5" stroke="#999" stroke-width="1"/><text x="110.0" y="223.5" font-family="sans-serif" font-size="10" fill="#1e40af" text-anchor="middle">ZnSO4</text><text x="380.1" y="223.5" font-family="sans-serif" font-size="10" fill="#991b1b" text-anchor="middle">CuSO4</text></svg>