<svg xmlns="http://www.w3.org/2000/svg" viewBox="0 0 480 320"><rect width="480" height="320" fill="#ffffff"/><line x1="60" y1="280" x2="60" y2="40" stroke="#333" stroke-width="2"/><line x1="60" y1="280" x2="440" y2="280" stroke="#333" stroke-width="2"/><text x="440" y="298" font-family="sans-serif" font-size="12" fill="#555" text-anchor="end">Volume of base added (mL)</text><text x="24" y="160" font-family="sans-serif" font-size="13" fill="#555" text-anchor="middle" transform="rotate(-90 24 160)">pH</text><line x1="67.4" y1="216.7" x2="69.2" y2="215.4" stroke="#1d4ed8" stroke-width="2.5"/><line x1="69.2" y1="215.4" x2="71.1" y2="214.0" stroke="#1d4ed8" stroke-width="2.5"/><line x1="71.1" y1="214.0" x2="72.8" y2="212.5" stroke="#1d4ed8" stroke-width="2.5"/><line x1="72.8" y1="212.5" x2="74.6" y2="211.1" stroke="#1d4ed8" stroke-width="2.5"/><line x1="74.6" y1="211.1" x2="76.4" y2="209.7" stroke="#1d4ed8" stroke-width="2.5"/><line x1="76.4" y1="209.7" x2="78.2" y2="208.2" stroke="#1d4ed8" stroke-width="2.5"/><line x1="78.2" y1="208.2" x2="79.9" y2="206.8" stroke="#1d4ed8" stroke-width="2.5"/><line x1="79.9" y1="206.8" x2="81.7" y2="205.3" stroke="#1d4ed8" stroke-width="2.5"/><line x1="81.7" y1="205.3" x2="83.4" y2="203.9" stroke="#1d4ed8" stroke-width="2.5"/><line x1="83.4" y1="203.9" x2="85.2" y2="202.5" stroke="#1d4ed8" stroke-width="2.5"/><line x1="85.2" y1="202.5" x2="87.0" y2="201.0" stroke="#1d4ed8" stroke-width="2.5"/><line x1="87.0" y1="201.0" x2="88.8" y2="199.6" stroke="#1d4ed8" stroke-width="2.5"/><line x1="88.8" y1="199.6" x2="90.6" y2="198.3" stroke="#1d4ed8" stroke-width="2.5"/><line x1="90.6" y1="198.3" x2="92.5" y2="196.9" stroke="#1d4ed8" stroke-width="2.5"/><line x1="92.5" y1="196.9" x2="94.4" y2="195.6" stroke="#1d4ed8" stroke-width="2.5"/><line x1="94.4" y1="195.6" x2="96.3" y2="194.3" stroke="#1d4ed8" stroke-width="2.5"/><line x1="96.3" y1="194.3" x2="98.2" y2="193.1" stroke="#1d4ed8" stroke-width="2.5"/><line x1="98.2" y1="193.1" x2="100.3" y2="191.9" stroke="#1d4ed8" stroke-width="2.5"/><line x1="100.3" y1="191.9" x2="102.3" y2="190.7" stroke="#1d4ed8" stroke-width="2.5"/><line x1="102.3" y1="190.7" x2="104.4" y2="189.6" stroke="#1d4ed8" stroke-width="2.5"/><line x1="104.4" y1="189.6" x2="106.6" y2="188.6" stroke="#1d4ed8" stroke-width="2.5"/><line x1="106.6" y1="188.6" x2="108.8" y2="187.6" stroke="#1d4ed8" stroke-width="2.5"/><line x1="108.8" y1="187.6" x2="111.0" y2="186.6" stroke="#1d4ed8" stroke-width="2.5"/><line x1="111.0" y1="186.6" x2="113.3" y2="185.7" stroke="#1d4ed8" stroke-width="2.5"/><line x1="113.3" y1="185.7" x2="115.6" y2="184.9" stroke="#1d4ed8" stroke-width="2.5"/><line x1="115.6" y1="184.9" x2="118.0" y2="184.0" stroke="#1d4ed8" stroke-width="2.5"/><line x1="118.0" y1="184.0" x2="120.4" y2="183.2" stroke="#1d4ed8" stroke-width="2.5"/><line x1="120.4" y1="183.2" x2="122.8" y2="182.5" stroke="#1d4ed8" stroke-width="2.5"/><line x1="122.8" y1="182.5" x2="125.3" y2="181.7" stroke="#1d4ed8" stroke-width="2.5"/><line x1="125.3" y1="181.7" x2="127.8" y2="181.0" stroke="#1d4ed8" stroke-width="2.5"/><line x1="127.8" y1="181.0" x2="130.2" y2="180.3" stroke="#1d4ed8" stroke-width="2.5"/><line x1="130.2" y1="180.3" x2="132.7" y2="179.6" stroke="#1d4ed8" stroke-width="2.5"/><line x1="132.7" y1="179.6" x2="135.2" y2="178.9" stroke="#1d4ed8" stroke-width="2.5"/><line x1="135.2" y1="178.9" x2="137.7" y2="178.2" stroke="#1d4ed8" stroke-width="2.5"/><line x1="137.7" y1="178.2" x2="140.2" y2="177.5" stroke="#1d4ed8" stroke-width="2.5"/><line x1="140.2" y1="177.5" x2="142.7" y2="176.8" stroke="#1d4ed8" stroke-width="2.5"/><line x1="142.7" y1="176.8" x2="145.2" y2="176.0" stroke="#1d4ed8" stroke-width="2.5"/><line x1="145.2" y1="176.0" x2="147.6" y2="175.3" stroke="#1d4ed8" stroke-width="2.5"/><line x1="147.6" y1="175.3" x2="150.1" y2="174.6" stroke="#1d4ed8" stroke-width="2.5"/><line x1="150.1" y1="174.6" x2="152.5" y2="173.8" stroke="#1d4ed8" stroke-width="2.5"/><line x1="152.5" y1="173.8" x2="154.9" y2="173.0" stroke="#1d4ed8" stroke-width="2.5"/><line x1="154.9" y1="173.0" x2="157.4" y2="172.2" stroke="#1d4ed8" stroke-width="2.5"/><line x1="157.4" y1="172.2" x2="159.9" y2="171.5" stroke="#1d4ed8" stroke-width="2.5"/><line x1="159.9" y1="171.5" x2="162.4" y2="170.7" stroke="#1d4ed8" stroke-width="2.5"/><line x1="162.4" y1="170.7" x2="165.0" y2="170.0" stroke="#1d4ed8" stroke-width="2.5"/><line x1="165.0" y1="170.0" x2="167.5" y2="169.2" stroke="#1d4ed8" stroke-width="2.5"/><line x1="167.5" y1="169.2" x2="170.1" y2="168.5" stroke="#1d4ed8" stroke-width="2.5"/><line x1="170.1" y1="168.5" x2="172.6" y2="167.8" stroke="#1d4ed8" stroke-width="2.5"/><line x1="172.6" y1="167.8" x2="175.2" y2="167.0" stroke="#1d4ed8" stroke-width="2.5"/><line x1="175.2" y1="167.0" x2="177.7" y2="166.3" stroke="#1d4ed8" stroke-width="2.5"/><line x1="177.7" y1="166.3" x2="180.2" y2="165.5" stroke="#1d4ed8" stroke-width="2.5"/><line x1="180.2" y1="165.5" x2="182.7" y2="164.8" stroke="#1d4ed8" stroke-width="2.5"/><line x1="182.7" y1="164.8" x2="185.1" y2="164.0" stroke="#1d4ed8" stroke-width="2.5"/><line x1="185.1" y1="164.0" x2="187.5" y2="163.2" stroke="#1d4ed8" stroke-width="2.5"/><line x1="187.5" y1="163.2" x2="189.9" y2="162.4" stroke="#1d4ed8" stroke-width="2.5"/><line x1="189.9" y1="162.4" x2="192.2" y2="161.6" stroke="#1d4ed8" stroke-width="2.5"/><line x1="192.2" y1="161.6" x2="194.4" y2="160.7" stroke="#1d4ed8" stroke-width="2.5"/><line x1="194.4" y1="160.7" x2="196.5" y2="159.8" stroke="#1d4ed8" stroke-width="2.5"/><line x1="196.5" y1="159.8" x2="198.6" y2="158.9" stroke="#1d4ed8" stroke-width="2.5"/><line x1="198.6" y1="158.9" x2="200.6" y2="158.0" stroke="#1d4ed8" stroke-width="2.5"/><line x1="200.6" y1="158.0" x2="202.5" y2="157.0" stroke="#1d4ed8" stroke-width="2.5"/><line x1="202.5" y1="157.0" x2="204.4" y2="156.0" stroke="#1d4ed8" stroke-width="2.5"/><line x1="204.4" y1="156.0" x2="206.2" y2="154.9" stroke="#1d4ed8" stroke-width="2.5"/><line x1="206.2" y1="154.9" x2="208.0" y2="153.8" stroke="#1d4ed8" stroke-width="2.5"/><line x1="208.0" y1="153.8" x2="209.7" y2="152.7" stroke="#1d4ed8" stroke-width="2.5"/><line x1="209.7" y1="152.7" x2="211.4" y2="151.5" stroke="#1d4ed8" stroke-width="2.5"/><line x1="211.4" y1="151.5" x2="213.1" y2="150.4" stroke="#1d4ed8" stroke-width="2.5"/><line x1="213.1" y1="150.4" x2="214.7" y2="149.2" stroke="#1d4ed8" stroke-width="2.5"/><line x1="214.7" y1="149.2" x2="216.2" y2="148.0" stroke="#1d4ed8" stroke-width="2.5"/><line x1="216.2" y1="148.0" x2="217.7" y2="146.8" stroke="#1d4ed8" stroke-width="2.5"/><line x1="217.7" y1="146.8" x2="219.2" y2="145.6" stroke="#1d4ed8" stroke-width="2.5"/><line x1="219.2" y1="145.6" x2="220.6" y2="144.4" stroke="#1d4ed8" stroke-width="2.5"/><line x1="220.6" y1="144.4" x2="221.9" y2="143.2" stroke="#1d4ed8" stroke-width="2.5"/><line x1="221.9" y1="143.2" x2="223.3" y2="142.0" stroke="#1d4ed8" stroke-width="2.5"/><line x1="223.3" y1="142.0" x2="224.5" y2="140.9" stroke="#1d4ed8" stroke-width="2.5"/><line x1="224.5" y1="140.9" x2="225.8" y2="139.7" stroke="#1d4ed8" stroke-width="2.5"/><line x1="225.8" y1="139.7" x2="226.9" y2="138.6" stroke="#1d4ed8" stroke-width="2.5"/><line x1="226.9" y1="138.6" x2="228.1" y2="137.5" stroke="#1d4ed8" stroke-width="2.5"/><line x1="228.1" y1="137.5" x2="229.2" y2="136.4" stroke="#1d4ed8" stroke-width="2.5"/><line x1="229.2" y1="136.4" x2="230.2" y2="135.4" stroke="#1d4ed8" stroke-width="2.5"/><line x1="230.2" y1="135.4" x2="231.2" y2="134.4" stroke="#1d4ed8" stroke-width="2.5"/><line x1="231.2" y1="134.4" x2="232.1" y2="133.4" stroke="#1d4ed8" stroke-width="2.5"/><line x1="232.1" y1="133.4" x2="232.9" y2="132.4" stroke="#1d4ed8" stroke-width="2.5"/><line x1="232.9" y1="132.4" x2="233.7" y2="131.5" stroke="#1d4ed8" stroke-width="2.5"/><line x1="233.7" y1="131.5" x2="234.4" y2="130.5" stroke="#1d4ed8" stroke-width="2.5"/><line x1="234.4" y1="130.5" x2="235.1" y2="129.6" stroke="#1d4ed8" stroke-width="2.5"/><line x1="235.1" y1="129.6" x2="235.7" y2="128.7" stroke="#1d4ed8" stroke-width="2.5"/><line x1="235.7" y1="128.7" x2="236.3" y2="127.8" stroke="#1d4ed8" stroke-width="2.5"/><line x1="236.3" y1="127.8" x2="236.9" y2="126.9" stroke="#1d4ed8" stroke-width="2.5"/><line x1="236.9" y1="126.9" x2="237.4" y2="126.0" stroke="#1d4ed8" stroke-width="2.5"/><line x1="237.4" y1="126.0" x2="237.8" y2="125.2" stroke="#1d4ed8" stroke-width="2.5"/><line x1="237.8" y1="125.2" x2="238.3" y2="124.3" stroke="#1d4ed8" stroke-width="2.5"/><line x1="238.3" y1="124.3" x2="238.7" y2="123.4" stroke="#1d4ed8" stroke-width="2.5"/><line x1="238.7" y1="123.4" x2="239.1" y2="122.6" stroke="#1d4ed8" stroke-width="2.5"/><line x1="239.1" y1="122.6" x2="239.5" y2="121.7" stroke="#1d4ed8" stroke-width="2.5"/><line x1="239.5" y1="121.7" x2="239.8" y2="120.8" stroke="#1d4ed8" stroke-width="2.5"/><line x1="239.8" y1="120.8" x2="240.2" y2="119.9" stroke="#1d4ed8" stroke-width="2.5"/><line x1="240.2" y1="119.9" x2="240.6" y2="119.1" stroke="#1d4ed8" stroke-width="2.5"/><line x1="240.6" y1="119.1" x2="240.9" y2="118.2" stroke="#1d4ed8" stroke-width="2.5"/><line x1="240.9" y1="118.2" x2="241.3" y2="117.3" stroke="#1d4ed8" stroke-width="2.5"/><line x1="241.3" y1="117.3" x2="241.6" y2="116.4" stroke="#1d4ed8" stroke-width="2.5"/><line x1="241.6" y1="116.4" x2="242.0" y2="115.5" stroke="#1d4ed8" stroke-width="2.5"/><line x1="242.0" y1="115.5" x2="242.2" y2="114.5" stroke="#1d4ed8" stroke-width="2.5"/><line x1="242.2" y1="114.5" x2="242.5" y2="113.6" stroke="#1d4ed8" stroke-width="2.5"/><line x1="242.5" y1="113.6" x2="242.7" y2="112.7" stroke="#1d4ed8" stroke-width="2.5"/><line x1="242.7" y1="112.7" x2="242.8" y2="111.7" stroke="#1d4ed8" stroke-width="2.5"/><line x1="242.8" y1="111.7" x2="243.0" y2="110.8" stroke="#1d4ed8" stroke-width="2.5"/><line x1="243.0" y1="110.8" x2="243.1" y2="109.8" stroke="#1d4ed8" stroke-width="2.5"/><line x1="243.1" y1="109.8" x2="243.3" y2="108.9" stroke="#1d4ed8" stroke-width="2.5"/><line x1="243.3" y1="108.9" x2="243.4" y2="108.0" stroke="#1d4ed8" stroke-width="2.5"/><line x1="243.4" y1="108.0" x2="243.5" y2="107.0" stroke="#1d4ed8" stroke-width="2.5"/><line x1="243.5" y1="107.0" x2="243.6" y2="106.1" stroke="#1d4ed8" stroke-width="2.5"/><line x1="243.6" y1="106.1" x2="243.7" y2="105.2" stroke="#1d4ed8" stroke-width="2.5"/><line x1="243.7" y1="105.2" x2="243.9" y2="104.3" stroke="#1d4ed8" stroke-width="2.5"/><line x1="243.9" y1="104.3" x2="244.0" y2="103.4" stroke="#1d4ed8" stroke-width="2.5"/><line x1="244.0" y1="103.4" x2="244.1" y2="102.5" stroke="#1d4ed8" stroke-width="2.5"/><line x1="244.1" y1="102.5" x2="244.3" y2="101.7" stroke="#1d4ed8" stroke-width="2.5"/><line x1="244.3" y1="101.7" x2="244.5" y2="100.8" stroke="#1d4ed8" stroke-width="2.5"/><line x1="244.5" y1="100.8" x2="244.7" y2="100.0" stroke="#1d4ed8" stroke-width="2.5"/><line x1="244.7" y1="100.0" x2="245.0" y2="99.2" stroke="#1d4ed8" stroke-width="2.5"/><line x1="245.0" y1="99.2" x2="245.3" y2="98.4" stroke="#1d4ed8" stroke-width="2.5"/><line x1="245.3" y1="98.4" x2="245.5" y2="97.6" stroke="#1d4ed8" stroke-width="2.5"/><line x1="245.5" y1="97.6" x2="245.7" y2="96.9" stroke="#1d4ed8" stroke-width="2.5"/><line x1="245.7" y1="96.9" x2="245.9" y2="96.1" stroke="#1d4ed8" stroke-width="2.5"/><line x1="245.9" y1="96.1" x2="246.1" y2="95.4" stroke="#1d4ed8" stroke-width="2.5"/><line x1="246.1" y1="95.4" x2="246.2" y2="94.7" stroke="#1d4ed8" stroke-width="2.5"/><line x1="246.2" y1="94.7" x2="246.4" y2="93.9" stroke="#1d4ed8" stroke-width="2.5"/><line x1="246.4" y1="93.9" x2="246.6" y2="93.2" stroke="#1d4ed8" stroke-width="2.5"/><line x1="246.6" y1="93.2" x2="246.8" y2="92.5" stroke="#1d4ed8" stroke-width="2.5"/><line x1="246.8" y1="92.5" x2="247.1" y2="91.9" stroke="#1d4ed8" stroke-width="2.5"/><line x1="247.1" y1="91.9" x2="247.4" y2="91.2" stroke="#1d4ed8" stroke-width="2.5"/><line x1="247.4" y1="91.2" x2="247.7" y2="90.5" stroke="#1d4ed8" stroke-width="2.5"/><line x1="247.7" y1="90.5" x2="248.0" y2="89.9" stroke="#1d4ed8" stroke-width="2.5"/><line x1="248.0" y1="89.9" x2="248.4" y2="89.2" stroke="#1d4ed8" stroke-width="2.5"/><line x1="248.4" y1="89.2" x2="248.9" y2="88.6" stroke="#1d4ed8" stroke-width="2.5"/><line x1="248.9" y1="88.6" x2="249.4" y2="88.0" stroke="#1d4ed8" stroke-width="2.5"/><line x1="249.4" y1="88.0" x2="250.1" y2="87.4" stroke="#1d4ed8" stroke-width="2.5"/><line x1="250.1" y1="87.4" x2="250.7" y2="86.8" stroke="#1d4ed8" stroke-width="2.5"/><line x1="250.7" y1="86.8" x2="251.5" y2="86.2" stroke="#1d4ed8" stroke-width="2.5"/><line x1="251.5" y1="86.2" x2="252.4" y2="85.6" stroke="#1d4ed8" stroke-width="2.5"/><line x1="252.4" y1="85.6" x2="253.3" y2="85.1" stroke="#1d4ed8" stroke-width="2.5"/><line x1="253.3" y1="85.1" x2="254.1" y2="84.5" stroke="#1d4ed8" stroke-width="2.5"/><line x1="254.1" y1="84.5" x2="254.9" y2="84.0" stroke="#1d4ed8" stroke-width="2.5"/><line x1="254.9" y1="84.0" x2="255.6" y2="83.5" stroke="#1d4ed8" stroke-width="2.5"/><line x1="255.6" y1="83.5" x2="256.3" y2="83.0" stroke="#1d4ed8" stroke-width="2.5"/><line x1="256.3" y1="83.0" x2="257.1" y2="82.5" stroke="#1d4ed8" stroke-width="2.5"/><line x1="257.1" y1="82.5" x2="257.9" y2="82.1" stroke="#1d4ed8" stroke-width="2.5"/><line x1="257.9" y1="82.1" x2="258.7" y2="81.6" stroke="#1d4ed8" stroke-width="2.5"/><line x1="258.7" y1="81.6" x2="259.7" y2="81.1" stroke="#1d4ed8" stroke-width="2.5"/><line x1="259.7" y1="81.1" x2="260.7" y2="80.7" stroke="#1d4ed8" stroke-width="2.5"/><line x1="260.7" y1="80.7" x2="261.9" y2="80.3" stroke="#1d4ed8" stroke-width="2.5"/><line x1="261.9" y1="80.3" x2="263.2" y2="79.8" stroke="#1d4ed8" stroke-width="2.5"/><line x1="263.2" y1="79.8" x2="264.7" y2="79.4" stroke="#1d4ed8" stroke-width="2.5"/><line x1="264.7" y1="79.4" x2="266.4" y2="79.0" stroke="#1d4ed8" stroke-width="2.5"/><line x1="266.4" y1="79.0" x2="268.4" y2="78.6" stroke="#1d4ed8" stroke-width="2.5"/><line x1="268.4" y1="78.6" x2="270.5" y2="78.2" stroke="#1d4ed8" stroke-width="2.5"/><line x1="270.5" y1="78.2" x2="272.9" y2="77.8" stroke="#1d4ed8" stroke-width="2.5"/><line x1="272.9" y1="77.8" x2="275.6" y2="77.4" stroke="#1d4ed8" stroke-width="2.5"/><line x1="275.6" y1="77.4" x2="278.7" y2="77.0" stroke="#1d4ed8" stroke-width="2.5"/><line x1="278.7" y1="77.0" x2="282.0" y2="76.6" stroke="#1d4ed8" stroke-width="2.5"/><line x1="282.0" y1="76.6" x2="285.7" y2="76.2" stroke="#1d4ed8" stroke-width="2.5"/><line x1="285.7" y1="76.2" x2="289.8" y2="75.8" stroke="#1d4ed8" stroke-width="2.5"/><line x1="289.8" y1="75.8" x2="294.2" y2="75.5" stroke="#1d4ed8" stroke-width="2.5"/><line x1="294.2" y1="75.5" x2="299.0" y2="75.1" stroke="#1d4ed8" stroke-width="2.5"/><line x1="299.0" y1="75.1" x2="304.0" y2="74.7" stroke="#1d4ed8" stroke-width="2.5"/><line x1="304.0" y1="74.7" x2="309.3" y2="74.4" stroke="#1d4ed8" stroke-width="2.5"/><line x1="309.3" y1="74.4" x2="314.8" y2="74.1" stroke="#1d4ed8" stroke-width="2.5"/><line x1="314.8" y1="74.1" x2="320.5" y2="73.7" stroke="#1d4ed8" stroke-width="2.5"/><line x1="320.5" y1="73.7" x2="326.4" y2="73.4" stroke="#1d4ed8" stroke-width="2.5"/><line x1="326.4" y1="73.4" x2="332.4" y2="73.1" stroke="#1d4ed8" stroke-width="2.5"/><line x1="332.4" y1="73.1" x2="338.5" y2="72.7" stroke="#1d4ed8" stroke-width="2.5"/><line x1="338.5" y1="72.7" x2="344.7" y2="72.4" stroke="#1d4ed8" stroke-width="2.5"/><line x1="344.7" y1="72.4" x2="350.9" y2="72.1" stroke="#1d4ed8" stroke-width="2.5"/><line x1="350.9" y1="72.1" x2="357.1" y2="71.8" stroke="#1d4ed8" stroke-width="2.5"/><line x1="357.1" y1="71.8" x2="363.3" y2="71.5" stroke="#1d4ed8" stroke-width="2.5"/><line x1="363.3" y1="71.5" x2="369.5" y2="71.1" stroke="#1d4ed8" stroke-width="2.5"/><line x1="369.5" y1="71.1" x2="375.6" y2="70.8" stroke="#1d4ed8" stroke-width="2.5"/><line x1="375.6" y1="70.8" x2="381.5" y2="70.5" stroke="#1d4ed8" stroke-width="2.5"/><line x1="381.5" y1="70.5" x2="387.4" y2="70.2" stroke="#1d4ed8" stroke-width="2.5"/><line x1="387.4" y1="70.2" x2="393.0" y2="69.8" stroke="#1d4ed8" stroke-width="2.5"/><circle cx="152.5" cy="173.8" r="4" fill="#333"/><circle cx="245.0" cy="99.2" r="4" fill="#333"/><line x1="152.5" y1="182.8" x2="152.5" y2="212.2" stroke="#999" stroke-width="1"/><text x="152.5" y="225.8" font-family="sans-serif" font-size="11" fill="#333" text-anchor="middle" font-weight="700">half-equivalence: pH = pKa</text><line x1="193.2" y1="81.1" x2="237.6" y2="96.9" stroke="#999" stroke-width="1"/><text x="108.1" y="74.3" font-family="sans-serif" font-size="11" fill="#333" text-anchor="start" font-weight="700">equivalence point (pH > 7)</text></svg>