<svg xmlns="http://www.w3.org/2000/svg" viewBox="0 0 480 320"><rect width="480" height="320" fill="#ffffff"/><line x1="60" y1="280" x2="60" y2="40" stroke="#333" stroke-width="2"/><line x1="60" y1="280" x2="440" y2="280" stroke="#333" stroke-width="2"/><text x="440" y="298" font-family="sans-serif" font-size="12" fill="#555" text-anchor="end">Internuclear distance</text><text x="24" y="160" font-family="sans-serif" font-size="13" fill="#555" text-anchor="middle" transform="rotate(-90 24 160)">Potential energy</text><line x1="60.0" y1="155.7" x2="430.0" y2="155.7" stroke="#999" stroke-width="1" stroke-dasharray="4 4"/><line x1="89.6" y1="72.1" x2="90.7" y2="74.8" stroke="#0f766e" stroke-width="2.5"/><line x1="90.7" y1="74.8" x2="91.8" y2="77.5" stroke="#0f766e" stroke-width="2.5"/><line x1="91.8" y1="77.5" x2="92.9" y2="80.2" stroke="#0f766e" stroke-width="2.5"/><line x1="92.9" y1="80.2" x2="94.0" y2="82.9" stroke="#0f766e" stroke-width="2.5"/><line x1="94.0" y1="82.9" x2="95.2" y2="85.6" stroke="#0f766e" stroke-width="2.5"/><line x1="95.2" y1="85.6" x2="96.3" y2="88.4" stroke="#0f766e" stroke-width="2.5"/><line x1="96.3" y1="88.4" x2="97.4" y2="91.1" stroke="#0f766e" stroke-width="2.5"/><line x1="97.4" y1="91.1" x2="98.5" y2="93.8" stroke="#0f766e" stroke-width="2.5"/><line x1="98.5" y1="93.8" x2="99.6" y2="96.5" stroke="#0f766e" stroke-width="2.5"/><line x1="99.6" y1="96.5" x2="100.7" y2="99.2" stroke="#0f766e" stroke-width="2.5"/><line x1="100.7" y1="99.2" x2="101.8" y2="101.9" stroke="#0f766e" stroke-width="2.5"/><line x1="101.8" y1="101.9" x2="102.9" y2="104.6" stroke="#0f766e" stroke-width="2.5"/><line x1="102.9" y1="104.6" x2="104.0" y2="107.3" stroke="#0f766e" stroke-width="2.5"/><line x1="104.0" y1="107.3" x2="105.1" y2="110.0" stroke="#0f766e" stroke-width="2.5"/><line x1="105.1" y1="110.0" x2="106.2" y2="112.8" stroke="#0f766e" stroke-width="2.5"/><line x1="106.2" y1="112.8" x2="107.4" y2="115.5" stroke="#0f766e" stroke-width="2.5"/><line x1="107.4" y1="115.5" x2="108.5" y2="118.2" stroke="#0f766e" stroke-width="2.5"/><line x1="108.5" y1="118.2" x2="109.6" y2="120.9" stroke="#0f766e" stroke-width="2.5"/><line x1="109.6" y1="120.9" x2="110.7" y2="123.6" stroke="#0f766e" stroke-width="2.5"/><line x1="110.7" y1="123.6" x2="111.8" y2="126.3" stroke="#0f766e" stroke-width="2.5"/><line x1="111.8" y1="126.3" x2="112.9" y2="129.1" stroke="#0f766e" stroke-width="2.5"/><line x1="112.9" y1="129.1" x2="114.0" y2="131.8" stroke="#0f766e" stroke-width="2.5"/><line x1="114.0" y1="131.8" x2="115.1" y2="134.7" stroke="#0f766e" stroke-width="2.5"/><line x1="115.1" y1="134.7" x2="116.1" y2="137.5" stroke="#0f766e" stroke-width="2.5"/><line x1="116.1" y1="137.5" x2="117.2" y2="140.4" stroke="#0f766e" stroke-width="2.5"/><line x1="117.2" y1="140.4" x2="118.2" y2="143.3" stroke="#0f766e" stroke-width="2.5"/><line x1="118.2" y1="143.3" x2="119.3" y2="146.2" stroke="#0f766e" stroke-width="2.5"/><line x1="119.3" y1="146.2" x2="120.3" y2="149.1" stroke="#0f766e" stroke-width="2.5"/><line x1="120.3" y1="149.1" x2="121.4" y2="152.0" stroke="#0f766e" stroke-width="2.5"/><line x1="121.4" y1="152.0" x2="122.4" y2="154.9" stroke="#0f766e" stroke-width="2.5"/><line x1="122.4" y1="154.9" x2="123.5" y2="157.7" stroke="#0f766e" stroke-width="2.5"/><line x1="123.5" y1="157.7" x2="124.6" y2="160.5" stroke="#0f766e" stroke-width="2.5"/><line x1="124.6" y1="160.5" x2="125.7" y2="163.2" stroke="#0f766e" stroke-width="2.5"/><line x1="125.7" y1="163.2" x2="126.8" y2="165.9" stroke="#0f766e" stroke-width="2.5"/><line x1="126.8" y1="165.9" x2="127.9" y2="168.6" stroke="#0f766e" stroke-width="2.5"/><line x1="127.9" y1="168.6" x2="129.1" y2="171.2" stroke="#0f766e" stroke-width="2.5"/><line x1="129.1" y1="171.2" x2="130.3" y2="173.6" stroke="#0f766e" stroke-width="2.5"/><line x1="130.3" y1="173.6" x2="131.5" y2="176.1" stroke="#0f766e" stroke-width="2.5"/><line x1="131.5" y1="176.1" x2="132.7" y2="178.4" stroke="#0f766e" stroke-width="2.5"/><line x1="132.7" y1="178.4" x2="134.0" y2="180.6" stroke="#0f766e" stroke-width="2.5"/><line x1="134.0" y1="180.6" x2="135.3" y2="182.7" stroke="#0f766e" stroke-width="2.5"/><line x1="135.3" y1="182.7" x2="136.7" y2="184.8" stroke="#0f766e" stroke-width="2.5"/><line x1="136.7" y1="184.8" x2="138.1" y2="186.8" stroke="#0f766e" stroke-width="2.5"/><line x1="138.1" y1="186.8" x2="139.6" y2="188.7" stroke="#0f766e" stroke-width="2.5"/><line x1="139.6" y1="188.7" x2="141.1" y2="190.6" stroke="#0f766e" stroke-width="2.5"/><line x1="141.1" y1="190.6" x2="142.6" y2="192.5" stroke="#0f766e" stroke-width="2.5"/><line x1="142.6" y1="192.5" x2="144.1" y2="194.3" stroke="#0f766e" stroke-width="2.5"/><line x1="144.1" y1="194.3" x2="145.7" y2="196.0" stroke="#0f766e" stroke-width="2.5"/><line x1="145.7" y1="196.0" x2="147.2" y2="197.7" stroke="#0f766e" stroke-width="2.5"/><line x1="147.2" y1="197.7" x2="148.8" y2="199.3" stroke="#0f766e" stroke-width="2.5"/><line x1="148.8" y1="199.3" x2="150.4" y2="200.9" stroke="#0f766e" stroke-width="2.5"/><line x1="150.4" y1="200.9" x2="151.9" y2="202.4" stroke="#0f766e" stroke-width="2.5"/><line x1="151.9" y1="202.4" x2="153.5" y2="203.9" stroke="#0f766e" stroke-width="2.5"/><line x1="153.5" y1="203.9" x2="155.0" y2="205.2" stroke="#0f766e" stroke-width="2.5"/><line x1="155.0" y1="205.2" x2="156.5" y2="206.6" stroke="#0f766e" stroke-width="2.5"/><line x1="156.5" y1="206.6" x2="158.0" y2="207.8" stroke="#0f766e" stroke-width="2.5"/><line x1="158.0" y1="207.8" x2="159.5" y2="209.0" stroke="#0f766e" stroke-width="2.5"/><line x1="159.5" y1="209.0" x2="160.9" y2="210.1" stroke="#0f766e" stroke-width="2.5"/><line x1="160.9" y1="210.1" x2="162.3" y2="211.2" stroke="#0f766e" stroke-width="2.5"/><line x1="162.3" y1="211.2" x2="163.6" y2="212.2" stroke="#0f766e" stroke-width="2.5"/><line x1="163.6" y1="212.2" x2="164.9" y2="213.1" stroke="#0f766e" stroke-width="2.5"/><line x1="164.9" y1="213.1" x2="166.1" y2="214.0" stroke="#0f766e" stroke-width="2.5"/><line x1="166.1" y1="214.0" x2="167.2" y2="214.8" stroke="#0f766e" stroke-width="2.5"/><line x1="167.2" y1="214.8" x2="168.3" y2="215.6" stroke="#0f766e" stroke-width="2.5"/><line x1="168.3" y1="215.6" x2="169.3" y2="216.3" stroke="#0f766e" stroke-width="2.5"/><line x1="169.3" y1="216.3" x2="170.3" y2="217.0" stroke="#0f766e" stroke-width="2.5"/><line x1="170.3" y1="217.0" x2="171.3" y2="217.6" stroke="#0f766e" stroke-width="2.5"/><line x1="171.3" y1="217.6" x2="172.3" y2="218.1" stroke="#0f766e" stroke-width="2.5"/><line x1="172.3" y1="218.1" x2="173.3" y2="218.6" stroke="#0f766e" stroke-width="2.5"/><line x1="173.3" y1="218.6" x2="174.2" y2="219.0" stroke="#0f766e" stroke-width="2.5"/><line x1="174.2" y1="219.0" x2="175.2" y2="219.3" stroke="#0f766e" stroke-width="2.5"/><line x1="175.2" y1="219.3" x2="176.2" y2="219.6" stroke="#0f766e" stroke-width="2.5"/><line x1="176.2" y1="219.6" x2="177.2" y2="219.8" stroke="#0f766e" stroke-width="2.5"/><line x1="177.2" y1="219.8" x2="178.3" y2="219.9" stroke="#0f766e" stroke-width="2.5"/><line x1="178.3" y1="219.9" x2="179.4" y2="219.9" stroke="#0f766e" stroke-width="2.5"/><line x1="179.4" y1="219.9" x2="180.5" y2="219.9" stroke="#0f766e" stroke-width="2.5"/><line x1="180.5" y1="219.9" x2="181.7" y2="219.8" stroke="#0f766e" stroke-width="2.5"/><line x1="181.7" y1="219.8" x2="183.0" y2="219.6" stroke="#0f766e" stroke-width="2.5"/><line x1="183.0" y1="219.6" x2="184.4" y2="219.3" stroke="#0f766e" stroke-width="2.5"/><line x1="184.4" y1="219.3" x2="185.8" y2="219.0" stroke="#0f766e" stroke-width="2.5"/><line x1="185.8" y1="219.0" x2="187.3" y2="218.5" stroke="#0f766e" stroke-width="2.5"/><line x1="187.3" y1="218.5" x2="188.8" y2="217.9" stroke="#0f766e" stroke-width="2.5"/><line x1="188.8" y1="217.9" x2="190.4" y2="217.2" stroke="#0f766e" stroke-width="2.5"/><line x1="190.4" y1="217.2" x2="192.0" y2="216.3" stroke="#0f766e" stroke-width="2.5"/><line x1="192.0" y1="216.3" x2="193.7" y2="215.4" stroke="#0f766e" stroke-width="2.5"/><line x1="193.7" y1="215.4" x2="195.3" y2="214.4" stroke="#0f766e" stroke-width="2.5"/><line x1="195.3" y1="214.4" x2="197.1" y2="213.2" stroke="#0f766e" stroke-width="2.5"/><line x1="197.1" y1="213.2" x2="198.8" y2="212.1" stroke="#0f766e" stroke-width="2.5"/><line x1="198.8" y1="212.1" x2="200.6" y2="210.8" stroke="#0f766e" stroke-width="2.5"/><line x1="200.6" y1="210.8" x2="202.4" y2="209.5" stroke="#0f766e" stroke-width="2.5"/><line x1="202.4" y1="209.5" x2="204.3" y2="208.2" stroke="#0f766e" stroke-width="2.5"/><line x1="204.3" y1="208.2" x2="206.2" y2="206.8" stroke="#0f766e" stroke-width="2.5"/><line x1="206.2" y1="206.8" x2="208.2" y2="205.5" stroke="#0f766e" stroke-width="2.5"/><line x1="208.2" y1="205.5" x2="210.1" y2="204.1" stroke="#0f766e" stroke-width="2.5"/><line x1="210.1" y1="204.1" x2="212.2" y2="202.7" stroke="#0f766e" stroke-width="2.5"/><line x1="212.2" y1="202.7" x2="214.2" y2="201.4" stroke="#0f766e" stroke-width="2.5"/><line x1="214.2" y1="201.4" x2="216.3" y2="200.1" stroke="#0f766e" stroke-width="2.5"/><line x1="216.3" y1="200.1" x2="218.4" y2="198.8" stroke="#0f766e" stroke-width="2.5"/><line x1="218.4" y1="198.8" x2="220.6" y2="197.5" stroke="#0f766e" stroke-width="2.5"/><line x1="220.6" y1="197.5" x2="222.8" y2="196.4" stroke="#0f766e" stroke-width="2.5"/><line x1="222.8" y1="196.4" x2="225.0" y2="195.2" stroke="#0f766e" stroke-width="2.5"/><line x1="225.0" y1="195.2" x2="227.3" y2="194.1" stroke="#0f766e" stroke-width="2.5"/><line x1="227.3" y1="194.1" x2="229.7" y2="192.9" stroke="#0f766e" stroke-width="2.5"/><line x1="229.7" y1="192.9" x2="232.0" y2="191.7" stroke="#0f766e" stroke-width="2.5"/><line x1="232.0" y1="191.7" x2="234.4" y2="190.5" stroke="#0f766e" stroke-width="2.5"/><line x1="234.4" y1="190.5" x2="236.9" y2="189.2" stroke="#0f766e" stroke-width="2.5"/><line x1="236.9" y1="189.2" x2="239.4" y2="188.0" stroke="#0f766e" stroke-width="2.5"/><line x1="239.4" y1="188.0" x2="241.9" y2="186.8" stroke="#0f766e" stroke-width="2.5"/><line x1="241.9" y1="186.8" x2="244.5" y2="185.6" stroke="#0f766e" stroke-width="2.5"/><line x1="244.5" y1="185.6" x2="247.1" y2="184.4" stroke="#0f766e" stroke-width="2.5"/><line x1="247.1" y1="184.4" x2="249.7" y2="183.2" stroke="#0f766e" stroke-width="2.5"/><line x1="249.7" y1="183.2" x2="252.4" y2="182.0" stroke="#0f766e" stroke-width="2.5"/><line x1="252.4" y1="182.0" x2="255.1" y2="180.9" stroke="#0f766e" stroke-width="2.5"/><line x1="255.1" y1="180.9" x2="257.8" y2="179.7" stroke="#0f766e" stroke-width="2.5"/><line x1="257.8" y1="179.7" x2="260.5" y2="178.6" stroke="#0f766e" stroke-width="2.5"/><line x1="260.5" y1="178.6" x2="263.3" y2="177.6" stroke="#0f766e" stroke-width="2.5"/><line x1="263.3" y1="177.6" x2="266.1" y2="176.6" stroke="#0f766e" stroke-width="2.5"/><line x1="266.1" y1="176.6" x2="268.9" y2="175.6" stroke="#0f766e" stroke-width="2.5"/><line x1="268.9" y1="175.6" x2="271.7" y2="174.7" stroke="#0f766e" stroke-width="2.5"/><line x1="271.7" y1="174.7" x2="274.6" y2="173.8" stroke="#0f766e" stroke-width="2.5"/><line x1="274.6" y1="173.8" x2="277.5" y2="173.0" stroke="#0f766e" stroke-width="2.5"/><line x1="277.5" y1="173.0" x2="280.4" y2="172.2" stroke="#0f766e" stroke-width="2.5"/><line x1="280.4" y1="172.2" x2="283.3" y2="171.4" stroke="#0f766e" stroke-width="2.5"/><line x1="283.3" y1="171.4" x2="286.3" y2="170.7" stroke="#0f766e" stroke-width="2.5"/><line x1="286.3" y1="170.7" x2="289.3" y2="170.0" stroke="#0f766e" stroke-width="2.5"/><line x1="289.3" y1="170.0" x2="292.3" y2="169.3" stroke="#0f766e" stroke-width="2.5"/><line x1="292.3" y1="169.3" x2="295.4" y2="168.7" stroke="#0f766e" stroke-width="2.5"/><line x1="295.4" y1="168.7" x2="298.4" y2="168.1" stroke="#0f766e" stroke-width="2.5"/><line x1="298.4" y1="168.1" x2="301.5" y2="167.5" stroke="#0f766e" stroke-width="2.5"/><line x1="301.5" y1="167.5" x2="304.7" y2="167.0" stroke="#0f766e" stroke-width="2.5"/><line x1="304.7" y1="167.0" x2="307.8" y2="166.5" stroke="#0f766e" stroke-width="2.5"/><line x1="307.8" y1="166.5" x2="311.0" y2="166.0" stroke="#0f766e" stroke-width="2.5"/><line x1="311.0" y1="166.0" x2="314.2" y2="165.5" stroke="#0f766e" stroke-width="2.5"/><line x1="314.2" y1="165.5" x2="317.5" y2="165.0" stroke="#0f766e" stroke-width="2.5"/><line x1="317.5" y1="165.0" x2="320.7" y2="164.6" stroke="#0f766e" stroke-width="2.5"/><line x1="320.7" y1="164.6" x2="324.0" y2="164.1" stroke="#0f766e" stroke-width="2.5"/><line x1="324.0" y1="164.1" x2="327.4" y2="163.7" stroke="#0f766e" stroke-width="2.5"/><line x1="327.4" y1="163.7" x2="330.7" y2="163.3" stroke="#0f766e" stroke-width="2.5"/><line x1="330.7" y1="163.3" x2="334.1" y2="162.9" stroke="#0f766e" stroke-width="2.5"/><line x1="334.1" y1="162.9" x2="337.5" y2="162.5" stroke="#0f766e" stroke-width="2.5"/><line x1="337.5" y1="162.5" x2="340.9" y2="162.1" stroke="#0f766e" stroke-width="2.5"/><line x1="340.9" y1="162.1" x2="344.5" y2="161.8" stroke="#0f766e" stroke-width="2.5"/><line x1="344.5" y1="161.8" x2="348.0" y2="161.4" stroke="#0f766e" stroke-width="2.5"/><line x1="348.0" y1="161.4" x2="351.6" y2="161.1" stroke="#0f766e" stroke-width="2.5"/><line x1="351.6" y1="161.1" x2="355.2" y2="160.9" stroke="#0f766e" stroke-width="2.5"/><line x1="355.2" y1="160.9" x2="358.9" y2="160.6" stroke="#0f766e" stroke-width="2.5"/><line x1="358.9" y1="160.6" x2="362.6" y2="160.4" stroke="#0f766e" stroke-width="2.5"/><line x1="362.6" y1="160.4" x2="366.3" y2="160.2" stroke="#0f766e" stroke-width="2.5"/><line x1="366.3" y1="160.2" x2="370.0" y2="160.0" stroke="#0f766e" stroke-width="2.5"/><line x1="370.0" y1="160.0" x2="373.8" y2="159.8" stroke="#0f766e" stroke-width="2.5"/><line x1="373.8" y1="159.8" x2="377.6" y2="159.6" stroke="#0f766e" stroke-width="2.5"/><line x1="377.6" y1="159.6" x2="381.4" y2="159.4" stroke="#0f766e" stroke-width="2.5"/><line x1="381.4" y1="159.4" x2="385.2" y2="159.3" stroke="#0f766e" stroke-width="2.5"/><line x1="385.2" y1="159.3" x2="389.0" y2="159.1" stroke="#0f766e" stroke-width="2.5"/><line x1="389.0" y1="159.1" x2="392.7" y2="158.9" stroke="#0f766e" stroke-width="2.5"/><line x1="392.7" y1="158.9" x2="396.5" y2="158.8" stroke="#0f766e" stroke-width="2.5"/><line x1="396.5" y1="158.8" x2="400.3" y2="158.6" stroke="#0f766e" stroke-width="2.5"/><line x1="400.3" y1="158.6" x2="404.1" y2="158.4" stroke="#0f766e" stroke-width="2.5"/><line x1="404.1" y1="158.4" x2="407.8" y2="158.2" stroke="#0f766e" stroke-width="2.5"/><line x1="407.8" y1="158.2" x2="411.5" y2="158.0" stroke="#0f766e" stroke-width="2.5"/><circle cx="185.8" cy="219.0" r="4" fill="#333"/><line x1="185.8" y1="280.0" x2="185.8" y2="266.4" stroke="#999" stroke-width="1" stroke-dasharray="4 4"/><line x1="185.8" y1="246.1" x2="185.8" y2="219.0" stroke="#999" stroke-width="1" stroke-dasharray="4 4"/><text x="185.8" y="257.4" font-family="sans-serif" font-size="11" fill="#333" text-anchor="middle" font-weight="700">bond length</text><line x1="185.8" y1="219.0" x2="185.8" y2="155.7" stroke="#b91c1c" stroke-width="1.5"/><line x1="178.4" y1="164.7" x2="185.8" y2="155.7" stroke="#b91c1c" stroke-width="1.5"/><line x1="193.2" y1="164.7" x2="185.8" y2="155.7" stroke="#b91c1c" stroke-width="1.5"/><line x1="178.4" y1="209.9" x2="185.8" y2="219.0" stroke="#b91c1c" stroke-width="1.5"/><line x1="193.2" y1="209.9" x2="185.8" y2="219.0" stroke="#b91c1c" stroke-width="1.5"/><line x1="245.0" y1="117.3" x2="189.5" y2="185.1" stroke="#999" stroke-width="1"/><text x="274.6" y="108.2" font-family="sans-serif" font-size="11" fill="#b91c1c" text-anchor="middle" font-weight="700">bond energy (well depth)</text></svg>