<svg xmlns="http://www.w3.org/2000/svg" viewBox="0 0 480 320"><rect width="480" height="320" fill="#ffffff"/><line x1="60" y1="280" x2="60" y2="40" stroke="#333" stroke-width="2"/><line x1="60" y1="280" x2="440" y2="280" stroke="#333" stroke-width="2"/><text x="440" y="298" font-family="sans-serif" font-size="12" fill="#555" text-anchor="end">Kinetic energy</text><text x="24" y="160" font-family="sans-serif" font-size="13" fill="#555" text-anchor="middle" transform="rotate(-90 24 160)">Fraction of molecules</text><line x1="67.4" y1="275.5" x2="68.9" y2="272.3" stroke="#1d4ed8" stroke-width="2.5"/><line x1="68.9" y1="272.3" x2="70.4" y2="269.1" stroke="#1d4ed8" stroke-width="2.5"/><line x1="70.4" y1="269.1" x2="71.8" y2="265.9" stroke="#1d4ed8" stroke-width="2.5"/><line x1="71.8" y1="265.9" x2="73.3" y2="262.7" stroke="#1d4ed8" stroke-width="2.5"/><line x1="73.3" y1="262.7" x2="74.8" y2="259.5" stroke="#1d4ed8" stroke-width="2.5"/><line x1="74.8" y1="259.5" x2="76.3" y2="256.3" stroke="#1d4ed8" stroke-width="2.5"/><line x1="76.3" y1="256.3" x2="77.8" y2="253.1" stroke="#1d4ed8" stroke-width="2.5"/><line x1="77.8" y1="253.1" x2="79.2" y2="249.8" stroke="#1d4ed8" stroke-width="2.5"/><line x1="79.2" y1="249.8" x2="80.7" y2="246.6" stroke="#1d4ed8" stroke-width="2.5"/><line x1="80.7" y1="246.6" x2="82.2" y2="243.4" stroke="#1d4ed8" stroke-width="2.5"/><line x1="82.2" y1="243.4" x2="83.7" y2="240.2" stroke="#1d4ed8" stroke-width="2.5"/><line x1="83.7" y1="240.2" x2="85.2" y2="237.0" stroke="#1d4ed8" stroke-width="2.5"/><line x1="85.2" y1="237.0" x2="86.6" y2="233.8" stroke="#1d4ed8" stroke-width="2.5"/><line x1="86.6" y1="233.8" x2="88.1" y2="230.7" stroke="#1d4ed8" stroke-width="2.5"/><line x1="88.1" y1="230.7" x2="89.6" y2="227.5" stroke="#1d4ed8" stroke-width="2.5"/><line x1="89.6" y1="227.5" x2="91.1" y2="224.4" stroke="#1d4ed8" stroke-width="2.5"/><line x1="91.1" y1="224.4" x2="92.6" y2="221.3" stroke="#1d4ed8" stroke-width="2.5"/><line x1="92.6" y1="221.3" x2="94.0" y2="218.3" stroke="#1d4ed8" stroke-width="2.5"/><line x1="94.0" y1="218.3" x2="95.5" y2="215.2" stroke="#1d4ed8" stroke-width="2.5"/><line x1="95.5" y1="215.2" x2="97.0" y2="212.2" stroke="#1d4ed8" stroke-width="2.5"/><line x1="97.0" y1="212.2" x2="98.5" y2="209.1" stroke="#1d4ed8" stroke-width="2.5"/><line x1="98.5" y1="209.1" x2="100.0" y2="205.9" stroke="#1d4ed8" stroke-width="2.5"/><line x1="100.0" y1="205.9" x2="101.4" y2="202.7" stroke="#1d4ed8" stroke-width="2.5"/><line x1="101.4" y1="202.7" x2="102.9" y2="199.3" stroke="#1d4ed8" stroke-width="2.5"/><line x1="102.9" y1="199.3" x2="104.4" y2="195.9" stroke="#1d4ed8" stroke-width="2.5"/><line x1="104.4" y1="195.9" x2="105.9" y2="192.5" stroke="#1d4ed8" stroke-width="2.5"/><line x1="105.9" y1="192.5" x2="107.4" y2="189.0" stroke="#1d4ed8" stroke-width="2.5"/><line x1="107.4" y1="189.0" x2="108.8" y2="185.6" stroke="#1d4ed8" stroke-width="2.5"/><line x1="108.8" y1="185.6" x2="110.3" y2="182.3" stroke="#1d4ed8" stroke-width="2.5"/><line x1="110.3" y1="182.3" x2="111.8" y2="179.0" stroke="#1d4ed8" stroke-width="2.5"/><line x1="111.8" y1="179.0" x2="113.3" y2="175.8" stroke="#1d4ed8" stroke-width="2.5"/><line x1="113.3" y1="175.8" x2="114.8" y2="172.8" stroke="#1d4ed8" stroke-width="2.5"/><line x1="114.8" y1="172.8" x2="116.2" y2="169.9" stroke="#1d4ed8" stroke-width="2.5"/><line x1="116.2" y1="169.9" x2="117.7" y2="167.1" stroke="#1d4ed8" stroke-width="2.5"/><line x1="117.7" y1="167.1" x2="119.2" y2="164.6" stroke="#1d4ed8" stroke-width="2.5"/><line x1="119.2" y1="164.6" x2="120.7" y2="162.3" stroke="#1d4ed8" stroke-width="2.5"/><line x1="120.7" y1="162.3" x2="122.2" y2="160.2" stroke="#1d4ed8" stroke-width="2.5"/><line x1="122.2" y1="160.2" x2="123.6" y2="158.4" stroke="#1d4ed8" stroke-width="2.5"/><line x1="123.6" y1="158.4" x2="125.1" y2="156.9" stroke="#1d4ed8" stroke-width="2.5"/><line x1="125.1" y1="156.9" x2="126.6" y2="155.7" stroke="#1d4ed8" stroke-width="2.5"/><line x1="126.6" y1="155.7" x2="128.1" y2="154.8" stroke="#1d4ed8" stroke-width="2.5"/><line x1="128.1" y1="154.8" x2="129.5" y2="154.2" stroke="#1d4ed8" stroke-width="2.5"/><line x1="129.5" y1="154.2" x2="130.8" y2="153.9" stroke="#1d4ed8" stroke-width="2.5"/><line x1="130.8" y1="153.9" x2="132.2" y2="153.8" stroke="#1d4ed8" stroke-width="2.5"/><line x1="132.2" y1="153.8" x2="133.5" y2="154.0" stroke="#1d4ed8" stroke-width="2.5"/><line x1="133.5" y1="154.0" x2="134.8" y2="154.3" stroke="#1d4ed8" stroke-width="2.5"/><line x1="134.8" y1="154.3" x2="136.1" y2="154.9" stroke="#1d4ed8" stroke-width="2.5"/><line x1="136.1" y1="154.9" x2="137.4" y2="155.6" stroke="#1d4ed8" stroke-width="2.5"/><line x1="137.4" y1="155.6" x2="138.7" y2="156.5" stroke="#1d4ed8" stroke-width="2.5"/><line x1="138.7" y1="156.5" x2="140.0" y2="157.5" stroke="#1d4ed8" stroke-width="2.5"/><line x1="140.0" y1="157.5" x2="141.4" y2="158.7" stroke="#1d4ed8" stroke-width="2.5"/><line x1="141.4" y1="158.7" x2="142.8" y2="159.9" stroke="#1d4ed8" stroke-width="2.5"/><line x1="142.8" y1="159.9" x2="144.2" y2="161.3" stroke="#1d4ed8" stroke-width="2.5"/><line x1="144.2" y1="161.3" x2="145.7" y2="162.7" stroke="#1d4ed8" stroke-width="2.5"/><line x1="145.7" y1="162.7" x2="147.2" y2="164.1" stroke="#1d4ed8" stroke-width="2.5"/><line x1="147.2" y1="164.1" x2="148.9" y2="165.6" stroke="#1d4ed8" stroke-width="2.5"/><line x1="148.9" y1="165.6" x2="150.6" y2="167.1" stroke="#1d4ed8" stroke-width="2.5"/><line x1="150.6" y1="167.1" x2="152.3" y2="168.6" stroke="#1d4ed8" stroke-width="2.5"/><line x1="152.3" y1="168.6" x2="154.2" y2="170.1" stroke="#1d4ed8" stroke-width="2.5"/><line x1="154.2" y1="170.1" x2="156.2" y2="171.5" stroke="#1d4ed8" stroke-width="2.5"/><line x1="156.2" y1="171.5" x2="158.3" y2="173.0" stroke="#1d4ed8" stroke-width="2.5"/><line x1="158.3" y1="173.0" x2="160.4" y2="174.6" stroke="#1d4ed8" stroke-width="2.5"/><line x1="160.4" y1="174.6" x2="162.6" y2="176.3" stroke="#1d4ed8" stroke-width="2.5"/><line x1="162.6" y1="176.3" x2="164.8" y2="178.2" stroke="#1d4ed8" stroke-width="2.5"/><line x1="164.8" y1="178.2" x2="167.1" y2="180.1" stroke="#1d4ed8" stroke-width="2.5"/><line x1="167.1" y1="180.1" x2="169.4" y2="182.1" stroke="#1d4ed8" stroke-width="2.5"/><line x1="169.4" y1="182.1" x2="171.8" y2="184.2" stroke="#1d4ed8" stroke-width="2.5"/><line x1="171.8" y1="184.2" x2="174.3" y2="186.3" stroke="#1d4ed8" stroke-width="2.5"/><line x1="174.3" y1="186.3" x2="176.8" y2="188.5" stroke="#1d4ed8" stroke-width="2.5"/><line x1="176.8" y1="188.5" x2="179.3" y2="190.7" stroke="#1d4ed8" stroke-width="2.5"/><line x1="179.3" y1="190.7" x2="181.9" y2="193.0" stroke="#1d4ed8" stroke-width="2.5"/><line x1="181.9" y1="193.0" x2="184.6" y2="195.2" stroke="#1d4ed8" stroke-width="2.5"/><line x1="184.6" y1="195.2" x2="187.3" y2="197.5" stroke="#1d4ed8" stroke-width="2.5"/><line x1="187.3" y1="197.5" x2="190.1" y2="199.7" stroke="#1d4ed8" stroke-width="2.5"/><line x1="190.1" y1="199.7" x2="193.0" y2="201.9" stroke="#1d4ed8" stroke-width="2.5"/><line x1="193.0" y1="201.9" x2="195.9" y2="204.1" stroke="#1d4ed8" stroke-width="2.5"/><line x1="195.9" y1="204.1" x2="198.8" y2="206.2" stroke="#1d4ed8" stroke-width="2.5"/><line x1="198.8" y1="206.2" x2="201.8" y2="208.3" stroke="#1d4ed8" stroke-width="2.5"/><line x1="201.8" y1="208.3" x2="204.9" y2="210.3" stroke="#1d4ed8" stroke-width="2.5"/><line x1="204.9" y1="210.3" x2="208.0" y2="212.2" stroke="#1d4ed8" stroke-width="2.5"/><line x1="208.0" y1="212.2" x2="211.2" y2="214.1" stroke="#1d4ed8" stroke-width="2.5"/><line x1="211.2" y1="214.1" x2="214.4" y2="215.9" stroke="#1d4ed8" stroke-width="2.5"/><line x1="214.4" y1="215.9" x2="217.7" y2="217.7" stroke="#1d4ed8" stroke-width="2.5"/><line x1="217.7" y1="217.7" x2="221.1" y2="219.6" stroke="#1d4ed8" stroke-width="2.5"/><line x1="221.1" y1="219.6" x2="224.5" y2="221.4" stroke="#1d4ed8" stroke-width="2.5"/><line x1="224.5" y1="221.4" x2="228.0" y2="223.2" stroke="#1d4ed8" stroke-width="2.5"/><line x1="228.0" y1="223.2" x2="231.5" y2="224.9" stroke="#1d4ed8" stroke-width="2.5"/><line x1="231.5" y1="224.9" x2="235.1" y2="226.7" stroke="#1d4ed8" stroke-width="2.5"/><line x1="235.1" y1="226.7" x2="238.8" y2="228.4" stroke="#1d4ed8" stroke-width="2.5"/><line x1="238.8" y1="228.4" x2="242.5" y2="230.1" stroke="#1d4ed8" stroke-width="2.5"/><line x1="242.5" y1="230.1" x2="246.2" y2="231.8" stroke="#1d4ed8" stroke-width="2.5"/><line x1="246.2" y1="231.8" x2="250.0" y2="233.5" stroke="#1d4ed8" stroke-width="2.5"/><line x1="250.0" y1="233.5" x2="253.8" y2="235.2" stroke="#1d4ed8" stroke-width="2.5"/><line x1="253.8" y1="235.2" x2="257.7" y2="236.8" stroke="#1d4ed8" stroke-width="2.5"/><line x1="257.7" y1="236.8" x2="261.7" y2="238.4" stroke="#1d4ed8" stroke-width="2.5"/><line x1="261.7" y1="238.4" x2="265.7" y2="240.0" stroke="#1d4ed8" stroke-width="2.5"/><line x1="265.7" y1="240.0" x2="269.7" y2="241.6" stroke="#1d4ed8" stroke-width="2.5"/><line x1="269.7" y1="241.6" x2="273.8" y2="243.1" stroke="#1d4ed8" stroke-width="2.5"/><line x1="273.8" y1="243.1" x2="277.9" y2="244.6" stroke="#1d4ed8" stroke-width="2.5"/><line x1="277.9" y1="244.6" x2="282.0" y2="246.1" stroke="#1d4ed8" stroke-width="2.5"/><line x1="282.0" y1="246.1" x2="286.2" y2="247.5" stroke="#1d4ed8" stroke-width="2.5"/><line x1="286.2" y1="247.5" x2="290.5" y2="249.0" stroke="#1d4ed8" stroke-width="2.5"/><line x1="290.5" y1="249.0" x2="294.9" y2="250.3" stroke="#1d4ed8" stroke-width="2.5"/><line x1="294.9" y1="250.3" x2="299.3" y2="251.7" stroke="#1d4ed8" stroke-width="2.5"/><line x1="299.3" y1="251.7" x2="303.8" y2="253.0" stroke="#1d4ed8" stroke-width="2.5"/><line x1="303.8" y1="253.0" x2="308.4" y2="254.2" stroke="#1d4ed8" stroke-width="2.5"/><line x1="308.4" y1="254.2" x2="313.0" y2="255.5" stroke="#1d4ed8" stroke-width="2.5"/><line x1="313.0" y1="255.5" x2="317.7" y2="256.7" stroke="#1d4ed8" stroke-width="2.5"/><line x1="317.7" y1="256.7" x2="322.4" y2="257.9" stroke="#1d4ed8" stroke-width="2.5"/><line x1="322.4" y1="257.9" x2="327.1" y2="259.1" stroke="#1d4ed8" stroke-width="2.5"/><line x1="327.1" y1="259.1" x2="331.8" y2="260.3" stroke="#1d4ed8" stroke-width="2.5"/><line x1="331.8" y1="260.3" x2="336.6" y2="261.4" stroke="#1d4ed8" stroke-width="2.5"/><line x1="336.6" y1="261.4" x2="341.4" y2="262.6" stroke="#1d4ed8" stroke-width="2.5"/><line x1="341.4" y1="262.6" x2="346.2" y2="263.8" stroke="#1d4ed8" stroke-width="2.5"/><line x1="346.2" y1="263.8" x2="350.9" y2="265.0" stroke="#1d4ed8" stroke-width="2.5"/><line x1="350.9" y1="265.0" x2="355.7" y2="266.1" stroke="#1d4ed8" stroke-width="2.5"/><line x1="355.7" y1="266.1" x2="360.4" y2="267.3" stroke="#1d4ed8" stroke-width="2.5"/><line x1="360.4" y1="267.3" x2="365.2" y2="268.5" stroke="#1d4ed8" stroke-width="2.5"/><line x1="365.2" y1="268.5" x2="369.9" y2="269.7" stroke="#1d4ed8" stroke-width="2.5"/><line x1="369.9" y1="269.7" x2="374.5" y2="271.0" stroke="#1d4ed8" stroke-width="2.5"/><line x1="67.4" y1="277.7" x2="69.2" y2="275.6" stroke="#b91c1c" stroke-width="2.5"/><line x1="69.2" y1="275.6" x2="71.1" y2="273.4" stroke="#b91c1c" stroke-width="2.5"/><line x1="71.1" y1="273.4" x2="72.9" y2="271.2" stroke="#b91c1c" stroke-width="2.5"/><line x1="72.9" y1="271.2" x2="74.7" y2="269.0" stroke="#b91c1c" stroke-width="2.5"/><line x1="74.7" y1="269.0" x2="76.5" y2="266.8" stroke="#b91c1c" stroke-width="2.5"/><line x1="76.5" y1="266.8" x2="78.3" y2="264.6" stroke="#b91c1c" stroke-width="2.5"/><line x1="78.3" y1="264.6" x2="80.1" y2="262.4" stroke="#b91c1c" stroke-width="2.5"/><line x1="80.1" y1="262.4" x2="81.8" y2="260.2" stroke="#b91c1c" stroke-width="2.5"/><line x1="81.8" y1="260.2" x2="83.6" y2="258.0" stroke="#b91c1c" stroke-width="2.5"/><line x1="83.6" y1="258.0" x2="85.4" y2="255.8" stroke="#b91c1c" stroke-width="2.5"/><line x1="85.4" y1="255.8" x2="87.2" y2="253.7" stroke="#b91c1c" stroke-width="2.5"/><line x1="87.2" y1="253.7" x2="89.1" y2="251.5" stroke="#b91c1c" stroke-width="2.5"/><line x1="89.1" y1="251.5" x2="90.9" y2="249.3" stroke="#b91c1c" stroke-width="2.5"/><line x1="90.9" y1="249.3" x2="92.8" y2="247.2" stroke="#b91c1c" stroke-width="2.5"/><line x1="92.8" y1="247.2" x2="94.6" y2="245.1" stroke="#b91c1c" stroke-width="2.5"/><line x1="94.6" y1="245.1" x2="96.5" y2="243.0" stroke="#b91c1c" stroke-width="2.5"/><line x1="96.5" y1="243.0" x2="98.4" y2="240.9" stroke="#b91c1c" stroke-width="2.5"/><line x1="98.4" y1="240.9" x2="100.4" y2="238.8" stroke="#b91c1c" stroke-width="2.5"/><line x1="100.4" y1="238.8" x2="102.4" y2="236.8" stroke="#b91c1c" stroke-width="2.5"/><line x1="102.4" y1="236.8" x2="104.4" y2="234.8" stroke="#b91c1c" stroke-width="2.5"/><line x1="104.4" y1="234.8" x2="106.5" y2="232.8" stroke="#b91c1c" stroke-width="2.5"/><line x1="106.5" y1="232.8" x2="108.5" y2="230.8" stroke="#b91c1c" stroke-width="2.5"/><line x1="108.5" y1="230.8" x2="110.7" y2="228.7" stroke="#b91c1c" stroke-width="2.5"/><line x1="110.7" y1="228.7" x2="112.8" y2="226.6" stroke="#b91c1c" stroke-width="2.5"/><line x1="112.8" y1="226.6" x2="115.0" y2="224.5" stroke="#b91c1c" stroke-width="2.5"/><line x1="115.0" y1="224.5" x2="117.2" y2="222.5" stroke="#b91c1c" stroke-width="2.5"/><line x1="117.2" y1="222.5" x2="119.4" y2="220.4" stroke="#b91c1c" stroke-width="2.5"/><line x1="119.4" y1="220.4" x2="121.6" y2="218.3" stroke="#b91c1c" stroke-width="2.5"/><line x1="121.6" y1="218.3" x2="123.9" y2="216.3" stroke="#b91c1c" stroke-width="2.5"/><line x1="123.9" y1="216.3" x2="126.1" y2="214.3" stroke="#b91c1c" stroke-width="2.5"/><line x1="126.1" y1="214.3" x2="128.4" y2="212.4" stroke="#b91c1c" stroke-width="2.5"/><line x1="128.4" y1="212.4" x2="130.7" y2="210.5" stroke="#b91c1c" stroke-width="2.5"/><line x1="130.7" y1="210.5" x2="133.0" y2="208.7" stroke="#b91c1c" stroke-width="2.5"/><line x1="133.0" y1="208.7" x2="135.2" y2="206.9" stroke="#b91c1c" stroke-width="2.5"/><line x1="135.2" y1="206.9" x2="137.5" y2="205.3" stroke="#b91c1c" stroke-width="2.5"/><line x1="137.5" y1="205.3" x2="139.8" y2="203.7" stroke="#b91c1c" stroke-width="2.5"/><line x1="139.8" y1="203.7" x2="142.1" y2="202.3" stroke="#b91c1c" stroke-width="2.5"/><line x1="142.1" y1="202.3" x2="144.3" y2="200.9" stroke="#b91c1c" stroke-width="2.5"/><line x1="144.3" y1="200.9" x2="146.6" y2="199.7" stroke="#b91c1c" stroke-width="2.5"/><line x1="146.6" y1="199.7" x2="148.8" y2="198.6" stroke="#b91c1c" stroke-width="2.5"/><line x1="148.8" y1="198.6" x2="151.0" y2="197.7" stroke="#b91c1c" stroke-width="2.5"/><line x1="151.0" y1="197.7" x2="153.2" y2="196.8" stroke="#b91c1c" stroke-width="2.5"/><line x1="153.2" y1="196.8" x2="155.4" y2="196.0" stroke="#b91c1c" stroke-width="2.5"/><line x1="155.4" y1="196.0" x2="157.6" y2="195.3" stroke="#b91c1c" stroke-width="2.5"/><line x1="157.6" y1="195.3" x2="159.7" y2="194.8" stroke="#b91c1c" stroke-width="2.5"/><line x1="159.7" y1="194.8" x2="161.9" y2="194.2" stroke="#b91c1c" stroke-width="2.5"/><line x1="161.9" y1="194.2" x2="164.0" y2="193.8" stroke="#b91c1c" stroke-width="2.5"/><line x1="164.0" y1="193.8" x2="166.2" y2="193.5" stroke="#b91c1c" stroke-width="2.5"/><line x1="166.2" y1="193.5" x2="168.4" y2="193.2" stroke="#b91c1c" stroke-width="2.5"/><line x1="168.4" y1="193.2" x2="170.5" y2="193.0" stroke="#b91c1c" stroke-width="2.5"/><line x1="170.5" y1="193.0" x2="172.7" y2="192.9" stroke="#b91c1c" stroke-width="2.5"/><line x1="172.7" y1="192.9" x2="174.9" y2="192.8" stroke="#b91c1c" stroke-width="2.5"/><line x1="174.9" y1="192.8" x2="177.1" y2="192.8" stroke="#b91c1c" stroke-width="2.5"/><line x1="177.1" y1="192.8" x2="179.3" y2="192.8" stroke="#b91c1c" stroke-width="2.5"/><line x1="179.3" y1="192.8" x2="181.6" y2="192.9" stroke="#b91c1c" stroke-width="2.5"/><line x1="181.6" y1="192.9" x2="183.8" y2="193.1" stroke="#b91c1c" stroke-width="2.5"/><line x1="183.8" y1="193.1" x2="186.1" y2="193.3" stroke="#b91c1c" stroke-width="2.5"/><line x1="186.1" y1="193.3" x2="188.5" y2="193.5" stroke="#b91c1c" stroke-width="2.5"/><line x1="188.5" y1="193.5" x2="190.8" y2="193.8" stroke="#b91c1c" stroke-width="2.5"/><line x1="190.8" y1="193.8" x2="193.2" y2="194.1" stroke="#b91c1c" stroke-width="2.5"/><line x1="193.2" y1="194.1" x2="195.6" y2="194.5" stroke="#b91c1c" stroke-width="2.5"/><line x1="195.6" y1="194.5" x2="198.0" y2="195.0" stroke="#b91c1c" stroke-width="2.5"/><line x1="198.0" y1="195.0" x2="200.4" y2="195.5" stroke="#b91c1c" stroke-width="2.5"/><line x1="200.4" y1="195.5" x2="202.7" y2="196.1" stroke="#b91c1c" stroke-width="2.5"/><line x1="202.7" y1="196.1" x2="205.1" y2="196.8" stroke="#b91c1c" stroke-width="2.5"/><line x1="205.1" y1="196.8" x2="207.5" y2="197.5" stroke="#b91c1c" stroke-width="2.5"/><line x1="207.5" y1="197.5" x2="209.9" y2="198.3" stroke="#b91c1c" stroke-width="2.5"/><line x1="209.9" y1="198.3" x2="212.3" y2="199.2" stroke="#b91c1c" stroke-width="2.5"/><line x1="212.3" y1="199.2" x2="214.8" y2="200.1" stroke="#b91c1c" stroke-width="2.5"/><line x1="214.8" y1="200.1" x2="217.2" y2="201.0" stroke="#b91c1c" stroke-width="2.5"/><line x1="217.2" y1="201.0" x2="219.8" y2="202.0" stroke="#b91c1c" stroke-width="2.5"/><line x1="219.8" y1="202.0" x2="222.3" y2="203.1" stroke="#b91c1c" stroke-width="2.5"/><line x1="222.3" y1="203.1" x2="224.9" y2="204.1" stroke="#b91c1c" stroke-width="2.5"/><line x1="224.9" y1="204.1" x2="227.6" y2="205.2" stroke="#b91c1c" stroke-width="2.5"/><line x1="227.6" y1="205.2" x2="230.3" y2="206.4" stroke="#b91c1c" stroke-width="2.5"/><line x1="230.3" y1="206.4" x2="233.1" y2="207.5" stroke="#b91c1c" stroke-width="2.5"/><line x1="233.1" y1="207.5" x2="236.0" y2="208.7" stroke="#b91c1c" stroke-width="2.5"/><line x1="236.0" y1="208.7" x2="238.9" y2="209.8" stroke="#b91c1c" stroke-width="2.5"/><line x1="238.9" y1="209.8" x2="241.9" y2="211.0" stroke="#b91c1c" stroke-width="2.5"/><line x1="241.9" y1="211.0" x2="245.0" y2="212.2" stroke="#b91c1c" stroke-width="2.5"/><line x1="245.0" y1="212.2" x2="248.2" y2="213.4" stroke="#b91c1c" stroke-width="2.5"/><line x1="248.2" y1="213.4" x2="251.5" y2="214.7" stroke="#b91c1c" stroke-width="2.5"/><line x1="251.5" y1="214.7" x2="254.8" y2="216.0" stroke="#b91c1c" stroke-width="2.5"/><line x1="254.8" y1="216.0" x2="258.3" y2="217.4" stroke="#b91c1c" stroke-width="2.5"/><line x1="258.3" y1="217.4" x2="261.8" y2="218.9" stroke="#b91c1c" stroke-width="2.5"/><line x1="261.8" y1="218.9" x2="265.3" y2="220.3" stroke="#b91c1c" stroke-width="2.5"/><line x1="265.3" y1="220.3" x2="269.0" y2="221.8" stroke="#b91c1c" stroke-width="2.5"/><line x1="269.0" y1="221.8" x2="272.6" y2="223.4" stroke="#b91c1c" stroke-width="2.5"/><line x1="272.6" y1="223.4" x2="276.4" y2="224.9" stroke="#b91c1c" stroke-width="2.5"/><line x1="276.4" y1="224.9" x2="280.1" y2="226.5" stroke="#b91c1c" stroke-width="2.5"/><line x1="280.1" y1="226.5" x2="284.0" y2="228.0" stroke="#b91c1c" stroke-width="2.5"/><line x1="284.0" y1="228.0" x2="287.8" y2="229.6" stroke="#b91c1c" stroke-width="2.5"/><line x1="287.8" y1="229.6" x2="291.7" y2="231.2" stroke="#b91c1c" stroke-width="2.5"/><line x1="291.7" y1="231.2" x2="295.6" y2="232.7" stroke="#b91c1c" stroke-width="2.5"/><line x1="295.6" y1="232.7" x2="299.5" y2="234.3" stroke="#b91c1c" stroke-width="2.5"/><line x1="299.5" y1="234.3" x2="303.4" y2="235.8" stroke="#b91c1c" stroke-width="2.5"/><line x1="303.4" y1="235.8" x2="307.3" y2="237.3" stroke="#b91c1c" stroke-width="2.5"/><line x1="307.3" y1="237.3" x2="311.2" y2="238.8" stroke="#b91c1c" stroke-width="2.5"/><line x1="311.2" y1="238.8" x2="315.1" y2="240.2" stroke="#b91c1c" stroke-width="2.5"/><line x1="315.1" y1="240.2" x2="319.0" y2="241.6" stroke="#b91c1c" stroke-width="2.5"/><line x1="319.0" y1="241.6" x2="322.9" y2="242.9" stroke="#b91c1c" stroke-width="2.5"/><line x1="322.9" y1="242.9" x2="326.8" y2="244.2" stroke="#b91c1c" stroke-width="2.5"/><line x1="326.8" y1="244.2" x2="330.8" y2="245.6" stroke="#b91c1c" stroke-width="2.5"/><line x1="330.8" y1="245.6" x2="334.8" y2="246.8" stroke="#b91c1c" stroke-width="2.5"/><line x1="334.8" y1="246.8" x2="338.8" y2="248.1" stroke="#b91c1c" stroke-width="2.5"/><line x1="338.8" y1="248.1" x2="342.9" y2="249.4" stroke="#b91c1c" stroke-width="2.5"/><line x1="342.9" y1="249.4" x2="346.9" y2="250.6" stroke="#b91c1c" stroke-width="2.5"/><line x1="346.9" y1="250.6" x2="351.0" y2="251.8" stroke="#b91c1c" stroke-width="2.5"/><line x1="351.0" y1="251.8" x2="355.1" y2="253.1" stroke="#b91c1c" stroke-width="2.5"/><line x1="355.1" y1="253.1" x2="359.2" y2="254.3" stroke="#b91c1c" stroke-width="2.5"/><line x1="359.2" y1="254.3" x2="363.4" y2="255.5" stroke="#b91c1c" stroke-width="2.5"/><line x1="363.4" y1="255.5" x2="367.5" y2="256.7" stroke="#b91c1c" stroke-width="2.5"/><line x1="367.5" y1="256.7" x2="371.6" y2="257.9" stroke="#b91c1c" stroke-width="2.5"/><line x1="371.6" y1="257.9" x2="375.7" y2="259.1" stroke="#b91c1c" stroke-width="2.5"/><line x1="375.7" y1="259.1" x2="379.9" y2="260.3" stroke="#b91c1c" stroke-width="2.5"/><line x1="379.9" y1="260.3" x2="384.0" y2="261.5" stroke="#b91c1c" stroke-width="2.5"/><line x1="384.0" y1="261.5" x2="388.1" y2="262.8" stroke="#b91c1c" stroke-width="2.5"/><line x1="388.1" y1="262.8" x2="392.2" y2="264.0" stroke="#b91c1c" stroke-width="2.5"/><line x1="392.2" y1="264.0" x2="396.3" y2="265.2" stroke="#b91c1c" stroke-width="2.5"/><line x1="396.3" y1="265.2" x2="400.4" y2="266.4" stroke="#b91c1c" stroke-width="2.5"/><line x1="263.5" y1="280.0" x2="263.5" y2="144.4" stroke="#0f766e" stroke-width="2" stroke-dasharray="6 4"/></svg>