<svg xmlns="http://www.w3.org/2000/svg" viewBox="0 0 480 320"><rect width="480" height="320" fill="#ffffff"/><line x1="60" y1="280" x2="60" y2="40" stroke="#333" stroke-width="2"/><line x1="60" y1="280" x2="440" y2="280" stroke="#333" stroke-width="2"/><text x="440" y="298" font-family="sans-serif" font-size="12" fill="#555" text-anchor="end">m/z (mass-to-charge ratio)</text><text x="24" y="160" font-family="sans-serif" font-size="13" fill="#555" text-anchor="middle" transform="rotate(-90 24 160)">Relative abundance (%)</text><polygon points="163.6,280.0 163.6,110.5 193.2,110.5 193.2,280.0" fill="#1d4ed8" opacity="0.35"/><polygon points="274.6,280.0 274.6,223.5 304.2,223.5 304.2,280.0" fill="#1d4ed8" opacity="0.35"/><line x1="163.6" y1="280.0" x2="163.6" y2="110.5" stroke="#1d4ed8" stroke-width="2"/><line x1="163.6" y1="110.5" x2="193.2" y2="110.5" stroke="#1d4ed8" stroke-width="2"/><line x1="193.2" y1="110.5" x2="193.2" y2="280.0" stroke="#1d4ed8" stroke-width="2"/><line x1="274.6" y1="280.0" x2="274.6" y2="223.5" stroke="#1d4ed8" stroke-width="2"/><line x1="274.6" y1="223.5" x2="304.2" y2="223.5" stroke="#1d4ed8" stroke-width="2"/><line x1="304.2" y1="223.5" x2="304.2" y2="280.0" stroke="#1d4ed8" stroke-width="2"/><text x="178.4" y="90.2" font-family="sans-serif" font-size="12" fill="#1d4ed8" text-anchor="middle" font-weight="700">m/z 35</text><text x="178.4" y="103.7" font-family="sans-serif" font-size="11" fill="#333" text-anchor="middle">(75%)</text><text x="289.4" y="203.2" font-family="sans-serif" font-size="12" fill="#1d4ed8" text-anchor="middle" font-weight="700">m/z 37</text><text x="289.4" y="216.7" font-family="sans-serif" font-size="11" fill="#333" text-anchor="middle">(25%)</text></svg>