<svg xmlns="http://www.w3.org/2000/svg" viewBox="0 0 480 320"><rect width="480" height="320" fill="#ffffff"/><line x1="60" y1="280" x2="60" y2="40" stroke="#333" stroke-width="2"/><line x1="60" y1="280" x2="440" y2="280" stroke="#333" stroke-width="2"/><text x="440" y="298" font-family="sans-serif" font-size="12" fill="#555" text-anchor="end">Temperature</text><text x="24" y="160" font-family="sans-serif" font-size="13" fill="#555" text-anchor="middle" transform="rotate(-90 24 160)">Pressure</text><line x1="82.2" y1="259.7" x2="171.0" y2="212.2" stroke="#333" stroke-width="2"/><line x1="171.0" y1="212.2" x2="208.0" y2="72.1" stroke="#333" stroke-width="2"/><line x1="171.0" y1="212.2" x2="226.5" y2="171.5" stroke="#333" stroke-width="2"/><line x1="226.5" y1="171.5" x2="282.0" y2="130.8" stroke="#333" stroke-width="2"/><line x1="282.0" y1="130.8" x2="337.5" y2="99.2" stroke="#333" stroke-width="2"/><circle cx="171.0" cy="212.2" r="4" fill="#333"/><circle cx="337.5" cy="99.2" r="4" fill="#333"/><text x="115.5" y="155.7" font-family="sans-serif" font-size="13" fill="#333" text-anchor="middle" font-weight="700">Solid</text><text x="226.5" y="117.3" font-family="sans-serif" font-size="13" fill="#333" text-anchor="middle" font-weight="700">Liquid</text><text x="319.0" y="223.5" font-family="sans-serif" font-size="13" fill="#333" text-anchor="middle" font-weight="700">Gas</text><text x="141.4" y="248.4" font-family="sans-serif" font-size="11" fill="#333" text-anchor="middle" font-weight="700">Triple point</text><line x1="141.4" y1="243.8" x2="171.0" y2="212.2" stroke="#666" stroke-width="1"/><text x="374.5" y="81.1" font-family="sans-serif" font-size="11" fill="#333" text-anchor="middle" font-weight="700">Critical point</text><line x1="363.4" y1="85.6" x2="337.5" y2="99.2" stroke="#666" stroke-width="1"/></svg>