<svg xmlns="http://www.w3.org/2000/svg" viewBox="0 0 480 320"><rect width="480" height="320" fill="#ffffff"/><line x1="60" y1="280" x2="60" y2="40" stroke="#333" stroke-width="2"/><line x1="60" y1="280" x2="440" y2="280" stroke="#333" stroke-width="2"/><text x="440" y="298" font-family="sans-serif" font-size="12" fill="#555" text-anchor="end">Reaction progress</text><text x="24" y="160" font-family="sans-serif" font-size="13" fill="#555" text-anchor="middle" transform="rotate(-90 24 160)">Energy</text><line x1="78.5" y1="189.6" x2="81.3" y2="188.5" stroke="#1d4ed8" stroke-width="2.5"/><line x1="81.3" y1="188.5" x2="84.0" y2="187.5" stroke="#1d4ed8" stroke-width="2.5"/><line x1="84.0" y1="187.5" x2="86.8" y2="186.5" stroke="#1d4ed8" stroke-width="2.5"/><line x1="86.8" y1="186.5" x2="89.6" y2="185.5" stroke="#1d4ed8" stroke-width="2.5"/><line x1="89.6" y1="185.5" x2="92.4" y2="184.6" stroke="#1d4ed8" stroke-width="2.5"/><line x1="92.4" y1="184.6" x2="95.2" y2="183.7" stroke="#1d4ed8" stroke-width="2.5"/><line x1="95.2" y1="183.7" x2="97.9" y2="182.8" stroke="#1d4ed8" stroke-width="2.5"/><line x1="97.9" y1="182.8" x2="100.7" y2="181.9" stroke="#1d4ed8" stroke-width="2.5"/><line x1="100.7" y1="181.9" x2="103.5" y2="180.9" stroke="#1d4ed8" stroke-width="2.5"/><line x1="103.5" y1="180.9" x2="106.2" y2="180.0" stroke="#1d4ed8" stroke-width="2.5"/><line x1="106.2" y1="180.0" x2="109.0" y2="179.0" stroke="#1d4ed8" stroke-width="2.5"/><line x1="109.0" y1="179.0" x2="111.8" y2="178.0" stroke="#1d4ed8" stroke-width="2.5"/><line x1="111.8" y1="178.0" x2="114.6" y2="176.9" stroke="#1d4ed8" stroke-width="2.5"/><line x1="114.6" y1="176.9" x2="117.3" y2="175.8" stroke="#1d4ed8" stroke-width="2.5"/><line x1="117.3" y1="175.8" x2="120.1" y2="174.6" stroke="#1d4ed8" stroke-width="2.5"/><line x1="120.1" y1="174.6" x2="122.9" y2="173.3" stroke="#1d4ed8" stroke-width="2.5"/><line x1="122.9" y1="173.3" x2="125.7" y2="171.9" stroke="#1d4ed8" stroke-width="2.5"/><line x1="125.7" y1="171.9" x2="128.4" y2="170.4" stroke="#1d4ed8" stroke-width="2.5"/><line x1="128.4" y1="170.4" x2="131.2" y2="168.7" stroke="#1d4ed8" stroke-width="2.5"/><line x1="131.2" y1="168.7" x2="134.0" y2="167.0" stroke="#1d4ed8" stroke-width="2.5"/><line x1="134.0" y1="167.0" x2="136.8" y2="165.1" stroke="#1d4ed8" stroke-width="2.5"/><line x1="136.8" y1="165.1" x2="139.6" y2="163.0" stroke="#1d4ed8" stroke-width="2.5"/><line x1="139.6" y1="163.0" x2="142.5" y2="160.7" stroke="#1d4ed8" stroke-width="2.5"/><line x1="142.5" y1="160.7" x2="145.4" y2="158.3" stroke="#1d4ed8" stroke-width="2.5"/><line x1="145.4" y1="158.3" x2="148.3" y2="155.7" stroke="#1d4ed8" stroke-width="2.5"/><line x1="148.3" y1="155.7" x2="151.2" y2="153.1" stroke="#1d4ed8" stroke-width="2.5"/><line x1="151.2" y1="153.1" x2="154.2" y2="150.3" stroke="#1d4ed8" stroke-width="2.5"/><line x1="154.2" y1="150.3" x2="157.1" y2="147.5" stroke="#1d4ed8" stroke-width="2.5"/><line x1="157.1" y1="147.5" x2="160.0" y2="144.7" stroke="#1d4ed8" stroke-width="2.5"/><line x1="160.0" y1="144.7" x2="162.9" y2="141.9" stroke="#1d4ed8" stroke-width="2.5"/><line x1="162.9" y1="141.9" x2="165.8" y2="139.0" stroke="#1d4ed8" stroke-width="2.5"/><line x1="165.8" y1="139.0" x2="168.6" y2="136.2" stroke="#1d4ed8" stroke-width="2.5"/><line x1="168.6" y1="136.2" x2="171.4" y2="133.4" stroke="#1d4ed8" stroke-width="2.5"/><line x1="171.4" y1="133.4" x2="174.2" y2="130.7" stroke="#1d4ed8" stroke-width="2.5"/><line x1="174.2" y1="130.7" x2="176.9" y2="128.1" stroke="#1d4ed8" stroke-width="2.5"/><line x1="176.9" y1="128.1" x2="179.6" y2="125.6" stroke="#1d4ed8" stroke-width="2.5"/><line x1="179.6" y1="125.6" x2="182.2" y2="123.3" stroke="#1d4ed8" stroke-width="2.5"/><line x1="182.2" y1="123.3" x2="184.7" y2="121.1" stroke="#1d4ed8" stroke-width="2.5"/><line x1="184.7" y1="121.1" x2="187.1" y2="119.1" stroke="#1d4ed8" stroke-width="2.5"/><line x1="187.1" y1="119.1" x2="189.5" y2="117.3" stroke="#1d4ed8" stroke-width="2.5"/><line x1="189.5" y1="117.3" x2="191.8" y2="115.6" stroke="#1d4ed8" stroke-width="2.5"/><line x1="191.8" y1="115.6" x2="193.9" y2="114.0" stroke="#1d4ed8" stroke-width="2.5"/><line x1="193.9" y1="114.0" x2="196.1" y2="112.5" stroke="#1d4ed8" stroke-width="2.5"/><line x1="196.1" y1="112.5" x2="198.1" y2="111.1" stroke="#1d4ed8" stroke-width="2.5"/><line x1="198.1" y1="111.1" x2="200.1" y2="109.7" stroke="#1d4ed8" stroke-width="2.5"/><line x1="200.1" y1="109.7" x2="202.0" y2="108.4" stroke="#1d4ed8" stroke-width="2.5"/><line x1="202.0" y1="108.4" x2="203.8" y2="107.2" stroke="#1d4ed8" stroke-width="2.5"/><line x1="203.8" y1="107.2" x2="205.6" y2="106.0" stroke="#1d4ed8" stroke-width="2.5"/><line x1="205.6" y1="106.0" x2="207.4" y2="105.0" stroke="#1d4ed8" stroke-width="2.5"/><line x1="207.4" y1="105.0" x2="209.2" y2="104.0" stroke="#1d4ed8" stroke-width="2.5"/><line x1="209.2" y1="104.0" x2="210.9" y2="103.1" stroke="#1d4ed8" stroke-width="2.5"/><line x1="210.9" y1="103.1" x2="212.6" y2="102.3" stroke="#1d4ed8" stroke-width="2.5"/><line x1="212.6" y1="102.3" x2="214.3" y2="101.6" stroke="#1d4ed8" stroke-width="2.5"/><line x1="214.3" y1="101.6" x2="216.0" y2="101.0" stroke="#1d4ed8" stroke-width="2.5"/><line x1="216.0" y1="101.0" x2="217.7" y2="100.4" stroke="#1d4ed8" stroke-width="2.5"/><line x1="217.7" y1="100.4" x2="219.4" y2="100.0" stroke="#1d4ed8" stroke-width="2.5"/><line x1="219.4" y1="100.0" x2="221.1" y2="99.7" stroke="#1d4ed8" stroke-width="2.5"/><line x1="221.1" y1="99.7" x2="222.9" y2="99.4" stroke="#1d4ed8" stroke-width="2.5"/><line x1="222.9" y1="99.4" x2="224.7" y2="99.3" stroke="#1d4ed8" stroke-width="2.5"/><line x1="224.7" y1="99.3" x2="226.5" y2="99.2" stroke="#1d4ed8" stroke-width="2.5"/><line x1="226.5" y1="99.2" x2="228.3" y2="99.2" stroke="#1d4ed8" stroke-width="2.5"/><line x1="228.3" y1="99.2" x2="230.1" y2="99.2" stroke="#1d4ed8" stroke-width="2.5"/><line x1="230.1" y1="99.2" x2="231.9" y2="99.3" stroke="#1d4ed8" stroke-width="2.5"/><line x1="231.9" y1="99.3" x2="233.6" y2="99.5" stroke="#1d4ed8" stroke-width="2.5"/><line x1="233.6" y1="99.5" x2="235.3" y2="99.6" stroke="#1d4ed8" stroke-width="2.5"/><line x1="235.3" y1="99.6" x2="237.0" y2="99.9" stroke="#1d4ed8" stroke-width="2.5"/><line x1="237.0" y1="99.9" x2="238.7" y2="100.2" stroke="#1d4ed8" stroke-width="2.5"/><line x1="238.7" y1="100.2" x2="240.4" y2="100.7" stroke="#1d4ed8" stroke-width="2.5"/><line x1="240.4" y1="100.7" x2="242.1" y2="101.2" stroke="#1d4ed8" stroke-width="2.5"/><line x1="242.1" y1="101.2" x2="243.8" y2="101.9" stroke="#1d4ed8" stroke-width="2.5"/><line x1="243.8" y1="101.9" x2="245.6" y2="102.7" stroke="#1d4ed8" stroke-width="2.5"/><line x1="245.6" y1="102.7" x2="247.4" y2="103.6" stroke="#1d4ed8" stroke-width="2.5"/><line x1="247.4" y1="103.6" x2="249.2" y2="104.7" stroke="#1d4ed8" stroke-width="2.5"/><line x1="249.2" y1="104.7" x2="251.0" y2="105.9" stroke="#1d4ed8" stroke-width="2.5"/><line x1="251.0" y1="105.9" x2="252.9" y2="107.3" stroke="#1d4ed8" stroke-width="2.5"/><line x1="252.9" y1="107.3" x2="254.9" y2="108.9" stroke="#1d4ed8" stroke-width="2.5"/><line x1="254.9" y1="108.9" x2="256.9" y2="110.7" stroke="#1d4ed8" stroke-width="2.5"/><line x1="256.9" y1="110.7" x2="259.1" y2="112.7" stroke="#1d4ed8" stroke-width="2.5"/><line x1="259.1" y1="112.7" x2="261.2" y2="114.9" stroke="#1d4ed8" stroke-width="2.5"/><line x1="261.2" y1="114.9" x2="263.5" y2="117.3" stroke="#1d4ed8" stroke-width="2.5"/><line x1="263.5" y1="117.3" x2="265.8" y2="120.0" stroke="#1d4ed8" stroke-width="2.5"/><line x1="265.8" y1="120.0" x2="268.2" y2="123.2" stroke="#1d4ed8" stroke-width="2.5"/><line x1="268.2" y1="123.2" x2="270.6" y2="126.7" stroke="#1d4ed8" stroke-width="2.5"/><line x1="270.6" y1="126.7" x2="273.0" y2="130.6" stroke="#1d4ed8" stroke-width="2.5"/><line x1="273.0" y1="130.6" x2="275.5" y2="134.7" stroke="#1d4ed8" stroke-width="2.5"/><line x1="275.5" y1="134.7" x2="278.0" y2="139.1" stroke="#1d4ed8" stroke-width="2.5"/><line x1="278.0" y1="139.1" x2="280.5" y2="143.7" stroke="#1d4ed8" stroke-width="2.5"/><line x1="280.5" y1="143.7" x2="283.1" y2="148.4" stroke="#1d4ed8" stroke-width="2.5"/><line x1="283.1" y1="148.4" x2="285.8" y2="153.2" stroke="#1d4ed8" stroke-width="2.5"/><line x1="285.8" y1="153.2" x2="288.5" y2="158.1" stroke="#1d4ed8" stroke-width="2.5"/><line x1="288.5" y1="158.1" x2="291.2" y2="163.0" stroke="#1d4ed8" stroke-width="2.5"/><line x1="291.2" y1="163.0" x2="294.0" y2="167.9" stroke="#1d4ed8" stroke-width="2.5"/><line x1="294.0" y1="167.9" x2="296.9" y2="172.7" stroke="#1d4ed8" stroke-width="2.5"/><line x1="296.9" y1="172.7" x2="299.9" y2="177.4" stroke="#1d4ed8" stroke-width="2.5"/><line x1="299.9" y1="177.4" x2="302.9" y2="182.0" stroke="#1d4ed8" stroke-width="2.5"/><line x1="302.9" y1="182.0" x2="305.9" y2="186.3" stroke="#1d4ed8" stroke-width="2.5"/><line x1="305.9" y1="186.3" x2="309.1" y2="190.4" stroke="#1d4ed8" stroke-width="2.5"/><line x1="309.1" y1="190.4" x2="312.3" y2="194.3" stroke="#1d4ed8" stroke-width="2.5"/><line x1="312.3" y1="194.3" x2="315.6" y2="197.8" stroke="#1d4ed8" stroke-width="2.5"/><line x1="315.6" y1="197.8" x2="319.0" y2="200.9" stroke="#1d4ed8" stroke-width="2.5"/><line x1="319.0" y1="200.9" x2="322.5" y2="203.7" stroke="#1d4ed8" stroke-width="2.5"/><line x1="322.5" y1="203.7" x2="326.1" y2="206.3" stroke="#1d4ed8" stroke-width="2.5"/><line x1="326.1" y1="206.3" x2="329.8" y2="208.7" stroke="#1d4ed8" stroke-width="2.5"/><line x1="329.8" y1="208.7" x2="333.6" y2="210.9" stroke="#1d4ed8" stroke-width="2.5"/><line x1="333.6" y1="210.9" x2="337.5" y2="212.9" stroke="#1d4ed8" stroke-width="2.5"/><line x1="337.5" y1="212.9" x2="341.5" y2="214.7" stroke="#1d4ed8" stroke-width="2.5"/><line x1="341.5" y1="214.7" x2="345.6" y2="216.4" stroke="#1d4ed8" stroke-width="2.5"/><line x1="345.6" y1="216.4" x2="349.7" y2="218.0" stroke="#1d4ed8" stroke-width="2.5"/><line x1="349.7" y1="218.0" x2="353.9" y2="219.5" stroke="#1d4ed8" stroke-width="2.5"/><line x1="353.9" y1="219.5" x2="358.1" y2="221.0" stroke="#1d4ed8" stroke-width="2.5"/><line x1="358.1" y1="221.0" x2="362.3" y2="222.3" stroke="#1d4ed8" stroke-width="2.5"/><line x1="362.3" y1="222.3" x2="366.6" y2="223.6" stroke="#1d4ed8" stroke-width="2.5"/><line x1="366.6" y1="223.6" x2="370.9" y2="224.9" stroke="#1d4ed8" stroke-width="2.5"/><line x1="370.9" y1="224.9" x2="375.2" y2="226.2" stroke="#1d4ed8" stroke-width="2.5"/><line x1="375.2" y1="226.2" x2="379.4" y2="227.5" stroke="#1d4ed8" stroke-width="2.5"/><line x1="379.4" y1="227.5" x2="383.7" y2="228.8" stroke="#1d4ed8" stroke-width="2.5"/><line x1="383.7" y1="228.8" x2="387.9" y2="230.2" stroke="#1d4ed8" stroke-width="2.5"/><line x1="387.9" y1="230.2" x2="392.1" y2="231.6" stroke="#1d4ed8" stroke-width="2.5"/><line x1="392.1" y1="231.6" x2="396.3" y2="233.2" stroke="#1d4ed8" stroke-width="2.5"/><line x1="396.3" y1="233.2" x2="400.4" y2="234.8" stroke="#1d4ed8" stroke-width="2.5"/></svg>