<svg xmlns="http://www.w3.org/2000/svg" viewBox="0 0 480 320"><rect width="480" height="320" fill="#ffffff"/><text x="240" y="48" font-family="sans-serif" font-size="14" fill="#333" text-anchor="middle" font-weight="700">ICE Table:  A + B &lt;=> 2C</text><rect x="40" y="70" width="100" height="34" fill="#f1f5f9" stroke="#333" stroke-width="1.2"/><text x="90" y="92" font-family="sans-serif" font-size="13" fill="#333" text-anchor="middle" font-weight="700"></text><rect x="140" y="70" width="100" height="34" fill="#f1f5f9" stroke="#333" stroke-width="1.2"/><text x="190" y="92" font-family="sans-serif" font-size="13" fill="#333" text-anchor="middle" font-weight="700">[A]</text><rect x="240" y="70" width="100" height="34" fill="#f1f5f9" stroke="#333" stroke-width="1.2"/><text x="290" y="92" font-family="sans-serif" font-size="13" fill="#333" text-anchor="middle" font-weight="700">[B]</text><rect x="340" y="70" width="100" height="34" fill="#f1f5f9" stroke="#333" stroke-width="1.2"/><text x="390" y="92" font-family="sans-serif" font-size="13" fill="#333" text-anchor="middle" font-weight="700">[C]</text><rect x="40" y="104" width="100" height="34" fill="none" stroke="#333" stroke-width="1.2"/><text x="90" y="126" font-family="sans-serif" font-size="13" fill="#333" text-anchor="middle">I</text><rect x="140" y="104" width="100" height="34" fill="none" stroke="#333" stroke-width="1.2"/><text x="190" y="126" font-family="sans-serif" font-size="13" fill="#333" text-anchor="middle">0.80</text><rect x="240" y="104" width="100" height="34" fill="none" stroke="#333" stroke-width="1.2"/><text x="290" y="126" font-family="sans-serif" font-size="13" fill="#333" text-anchor="middle">0.80</text><rect x="340" y="104" width="100" height="34" fill="none" stroke="#333" stroke-width="1.2"/><text x="390" y="126" font-family="sans-serif" font-size="13" fill="#333" text-anchor="middle">0</text><rect x="40" y="138" width="100" height="34" fill="none" stroke="#333" stroke-width="1.2"/><text x="90" y="160" font-family="sans-serif" font-size="13" fill="#333" text-anchor="middle">C</text><rect x="140" y="138" width="100" height="34" fill="none" stroke="#333" stroke-width="1.2"/><text x="190" y="160" font-family="sans-serif" font-size="13" fill="#333" text-anchor="middle">-x</text><rect x="240" y="138" width="100" height="34" fill="none" stroke="#333" stroke-width="1.2"/><text x="290" y="160" font-family="sans-serif" font-size="13" fill="#333" text-anchor="middle">-x</text><rect x="340" y="138" width="100" height="34" fill="none" stroke="#333" stroke-width="1.2"/><text x="390" y="160" font-family="sans-serif" font-size="13" fill="#333" text-anchor="middle">+2x</text><rect x="40" y="172" width="100" height="34" fill="none" stroke="#333" stroke-width="1.2"/><text x="90" y="194" font-family="sans-serif" font-size="13" fill="#333" text-anchor="middle">E</text><rect x="140" y="172" width="100" height="34" fill="none" stroke="#333" stroke-width="1.2"/><text x="190" y="194" font-family="sans-serif" font-size="13" fill="#333" text-anchor="middle">0.80-x</text><rect x="240" y="172" width="100" height="34" fill="none" stroke="#333" stroke-width="1.2"/><text x="290" y="194" font-family="sans-serif" font-size="13" fill="#333" text-anchor="middle">0.80-x</text><rect x="340" y="172" width="100" height="34" fill="none" stroke="#333" stroke-width="1.2"/><text x="390" y="194" font-family="sans-serif" font-size="13" fill="#333" text-anchor="middle">2x</text></svg>