<svg xmlns="http://www.w3.org/2000/svg" viewBox="0 0 480 320"><rect width="480" height="320" fill="#ffffff"/><line x1="60" y1="280" x2="60" y2="40" stroke="#333" stroke-width="2"/><line x1="60" y1="280" x2="440" y2="280" stroke="#333" stroke-width="2"/><text x="440" y="298" font-family="sans-serif" font-size="12" fill="#555" text-anchor="end">Volume of base added (mL)</text><text x="24" y="160" font-family="sans-serif" font-size="13" fill="#555" text-anchor="middle" transform="rotate(-90 24 160)">pH</text><line x1="67.4" y1="275.5" x2="134.0" y2="273.2" stroke="#1d4ed8" stroke-width="2.5"/><line x1="134.0" y1="273.2" x2="208.0" y2="268.7" stroke="#1d4ed8" stroke-width="2.5"/><line x1="208.0" y1="268.7" x2="237.6" y2="264.2" stroke="#1d4ed8" stroke-width="2.5"/><line x1="237.6" y1="264.2" x2="245.0" y2="223.5" stroke="#1d4ed8" stroke-width="2.5"/><line x1="245.0" y1="223.5" x2="245.0" y2="167.0" stroke="#1d4ed8" stroke-width="2.5"/><line x1="245.0" y1="167.0" x2="245.0" y2="110.5" stroke="#1d4ed8" stroke-width="2.5"/><line x1="245.0" y1="110.5" x2="252.4" y2="81.1" stroke="#1d4ed8" stroke-width="2.5"/><line x1="252.4" y1="81.1" x2="319.0" y2="69.8" stroke="#1d4ed8" stroke-width="2.5"/><line x1="319.0" y1="69.8" x2="411.5" y2="63.0" stroke="#1d4ed8" stroke-width="2.5"/><circle cx="245.0" cy="167.0" r="4" fill="#333"/><line x1="152.5" y1="277.7" x2="152.5" y2="266.4" stroke="#555" stroke-width="1.5"/><text x="152.5" y="248.4" font-family="sans-serif" font-size="11" fill="#555" text-anchor="middle">Half-equivalence</text><text x="126.6" y="139.9" font-family="sans-serif" font-size="11" fill="#333" text-anchor="start" font-weight="700">Equivalence point (pH 7)</text><line x1="159.9" y1="158.0" x2="237.6" y2="167.0" stroke="#999" stroke-width="1"/></svg>