<svg xmlns="http://www.w3.org/2000/svg" viewBox="0 0 480 320"><rect width="480" height="320" fill="#ffffff"/><line x1="60" y1="280" x2="60" y2="40" stroke="#333" stroke-width="2"/><line x1="60" y1="280" x2="440" y2="280" stroke="#333" stroke-width="2"/><text x="440" y="298" font-family="sans-serif" font-size="12" fill="#555" text-anchor="end">Temperature (°C)</text><text x="24" y="160" font-family="sans-serif" font-size="13" fill="#555" text-anchor="middle" transform="rotate(-90 24 160)">Solubility (g / 100 g H2O)</text><line x1="74.8" y1="252.9" x2="78.7" y2="251.3" stroke="#1d4ed8" stroke-width="2.5"/><line x1="78.7" y1="251.3" x2="82.5" y2="249.8" stroke="#1d4ed8" stroke-width="2.5"/><line x1="82.5" y1="249.8" x2="86.3" y2="248.4" stroke="#1d4ed8" stroke-width="2.5"/><line x1="86.3" y1="248.4" x2="90.1" y2="246.9" stroke="#1d4ed8" stroke-width="2.5"/><line x1="90.1" y1="246.9" x2="93.9" y2="245.5" stroke="#1d4ed8" stroke-width="2.5"/><line x1="93.9" y1="245.5" x2="97.6" y2="244.1" stroke="#1d4ed8" stroke-width="2.5"/><line x1="97.6" y1="244.1" x2="101.4" y2="242.7" stroke="#1d4ed8" stroke-width="2.5"/><line x1="101.4" y1="242.7" x2="105.2" y2="241.3" stroke="#1d4ed8" stroke-width="2.5"/><line x1="105.2" y1="241.3" x2="108.9" y2="239.9" stroke="#1d4ed8" stroke-width="2.5"/><line x1="108.9" y1="239.9" x2="112.7" y2="238.5" stroke="#1d4ed8" stroke-width="2.5"/><line x1="112.7" y1="238.5" x2="116.5" y2="237.0" stroke="#1d4ed8" stroke-width="2.5"/><line x1="116.5" y1="237.0" x2="120.4" y2="235.5" stroke="#1d4ed8" stroke-width="2.5"/><line x1="120.4" y1="235.5" x2="124.2" y2="234.0" stroke="#1d4ed8" stroke-width="2.5"/><line x1="124.2" y1="234.0" x2="128.1" y2="232.4" stroke="#1d4ed8" stroke-width="2.5"/><line x1="128.1" y1="232.4" x2="132.0" y2="230.7" stroke="#1d4ed8" stroke-width="2.5"/><line x1="132.0" y1="230.7" x2="136.0" y2="229.0" stroke="#1d4ed8" stroke-width="2.5"/><line x1="136.0" y1="229.0" x2="140.0" y2="227.2" stroke="#1d4ed8" stroke-width="2.5"/><line x1="140.0" y1="227.2" x2="144.1" y2="225.3" stroke="#1d4ed8" stroke-width="2.5"/><line x1="144.1" y1="225.3" x2="148.3" y2="223.3" stroke="#1d4ed8" stroke-width="2.5"/><line x1="148.3" y1="223.3" x2="152.5" y2="221.2" stroke="#1d4ed8" stroke-width="2.5"/><line x1="152.5" y1="221.2" x2="156.8" y2="219.0" stroke="#1d4ed8" stroke-width="2.5"/><line x1="156.8" y1="219.0" x2="161.2" y2="216.8" stroke="#1d4ed8" stroke-width="2.5"/><line x1="161.2" y1="216.8" x2="165.6" y2="214.4" stroke="#1d4ed8" stroke-width="2.5"/><line x1="165.6" y1="214.4" x2="170.1" y2="211.9" stroke="#1d4ed8" stroke-width="2.5"/><line x1="170.1" y1="211.9" x2="174.6" y2="209.4" stroke="#1d4ed8" stroke-width="2.5"/><line x1="174.6" y1="209.4" x2="179.2" y2="206.8" stroke="#1d4ed8" stroke-width="2.5"/><line x1="179.2" y1="206.8" x2="183.8" y2="204.1" stroke="#1d4ed8" stroke-width="2.5"/><line x1="183.8" y1="204.1" x2="188.4" y2="201.4" stroke="#1d4ed8" stroke-width="2.5"/><line x1="188.4" y1="201.4" x2="193.1" y2="198.6" stroke="#1d4ed8" stroke-width="2.5"/><line x1="193.1" y1="198.6" x2="197.8" y2="195.8" stroke="#1d4ed8" stroke-width="2.5"/><line x1="197.8" y1="195.8" x2="202.6" y2="193.0" stroke="#1d4ed8" stroke-width="2.5"/><line x1="202.6" y1="193.0" x2="207.3" y2="190.1" stroke="#1d4ed8" stroke-width="2.5"/><line x1="207.3" y1="190.1" x2="212.0" y2="187.2" stroke="#1d4ed8" stroke-width="2.5"/><line x1="212.0" y1="187.2" x2="216.8" y2="184.3" stroke="#1d4ed8" stroke-width="2.5"/><line x1="216.8" y1="184.3" x2="221.5" y2="181.4" stroke="#1d4ed8" stroke-width="2.5"/><line x1="221.5" y1="181.4" x2="226.3" y2="178.5" stroke="#1d4ed8" stroke-width="2.5"/><line x1="226.3" y1="178.5" x2="231.0" y2="175.6" stroke="#1d4ed8" stroke-width="2.5"/><line x1="231.0" y1="175.6" x2="235.7" y2="172.7" stroke="#1d4ed8" stroke-width="2.5"/><line x1="235.7" y1="172.7" x2="240.4" y2="169.8" stroke="#1d4ed8" stroke-width="2.5"/><line x1="240.4" y1="169.8" x2="245.0" y2="167.0" stroke="#1d4ed8" stroke-width="2.5"/><line x1="245.0" y1="167.0" x2="249.6" y2="164.1" stroke="#1d4ed8" stroke-width="2.5"/><line x1="249.6" y1="164.1" x2="254.3" y2="161.2" stroke="#1d4ed8" stroke-width="2.5"/><line x1="254.3" y1="161.2" x2="259.0" y2="158.2" stroke="#1d4ed8" stroke-width="2.5"/><line x1="259.0" y1="158.2" x2="263.7" y2="155.2" stroke="#1d4ed8" stroke-width="2.5"/><line x1="263.7" y1="155.2" x2="268.5" y2="152.1" stroke="#1d4ed8" stroke-width="2.5"/><line x1="268.5" y1="152.1" x2="273.2" y2="149.0" stroke="#1d4ed8" stroke-width="2.5"/><line x1="273.2" y1="149.0" x2="278.0" y2="145.9" stroke="#1d4ed8" stroke-width="2.5"/><line x1="278.0" y1="145.9" x2="282.7" y2="142.7" stroke="#1d4ed8" stroke-width="2.5"/><line x1="282.7" y1="142.7" x2="287.4" y2="139.6" stroke="#1d4ed8" stroke-width="2.5"/><line x1="287.4" y1="139.6" x2="292.2" y2="136.5" stroke="#1d4ed8" stroke-width="2.5"/><line x1="292.2" y1="136.5" x2="296.9" y2="133.4" stroke="#1d4ed8" stroke-width="2.5"/><line x1="296.9" y1="133.4" x2="301.6" y2="130.3" stroke="#1d4ed8" stroke-width="2.5"/><line x1="301.6" y1="130.3" x2="306.2" y2="127.3" stroke="#1d4ed8" stroke-width="2.5"/><line x1="306.2" y1="127.3" x2="310.8" y2="124.3" stroke="#1d4ed8" stroke-width="2.5"/><line x1="310.8" y1="124.3" x2="315.4" y2="121.4" stroke="#1d4ed8" stroke-width="2.5"/><line x1="315.4" y1="121.4" x2="319.9" y2="118.6" stroke="#1d4ed8" stroke-width="2.5"/><line x1="319.9" y1="118.6" x2="324.4" y2="115.9" stroke="#1d4ed8" stroke-width="2.5"/><line x1="324.4" y1="115.9" x2="328.8" y2="113.2" stroke="#1d4ed8" stroke-width="2.5"/><line x1="328.8" y1="113.2" x2="333.2" y2="110.7" stroke="#1d4ed8" stroke-width="2.5"/><line x1="333.2" y1="110.7" x2="337.5" y2="108.2" stroke="#1d4ed8" stroke-width="2.5"/><line x1="337.5" y1="108.2" x2="341.7" y2="105.9" stroke="#1d4ed8" stroke-width="2.5"/><line x1="341.7" y1="105.9" x2="345.9" y2="103.7" stroke="#1d4ed8" stroke-width="2.5"/><line x1="345.9" y1="103.7" x2="350.0" y2="101.6" stroke="#1d4ed8" stroke-width="2.5"/><line x1="350.0" y1="101.6" x2="354.0" y2="99.6" stroke="#1d4ed8" stroke-width="2.5"/><line x1="354.0" y1="99.6" x2="358.0" y2="97.6" stroke="#1d4ed8" stroke-width="2.5"/><line x1="358.0" y1="97.6" x2="361.9" y2="95.7" stroke="#1d4ed8" stroke-width="2.5"/><line x1="361.9" y1="95.7" x2="365.8" y2="93.9" stroke="#1d4ed8" stroke-width="2.5"/><line x1="365.8" y1="93.9" x2="369.6" y2="92.1" stroke="#1d4ed8" stroke-width="2.5"/><line x1="369.6" y1="92.1" x2="373.5" y2="90.4" stroke="#1d4ed8" stroke-width="2.5"/><line x1="373.5" y1="90.4" x2="377.3" y2="88.7" stroke="#1d4ed8" stroke-width="2.5"/><line x1="377.3" y1="88.7" x2="381.1" y2="87.1" stroke="#1d4ed8" stroke-width="2.5"/><line x1="381.1" y1="87.1" x2="384.8" y2="85.5" stroke="#1d4ed8" stroke-width="2.5"/><line x1="384.8" y1="85.5" x2="388.6" y2="83.8" stroke="#1d4ed8" stroke-width="2.5"/><line x1="388.6" y1="83.8" x2="392.4" y2="82.2" stroke="#1d4ed8" stroke-width="2.5"/><line x1="392.4" y1="82.2" x2="396.1" y2="80.6" stroke="#1d4ed8" stroke-width="2.5"/><line x1="396.1" y1="80.6" x2="399.9" y2="79.0" stroke="#1d4ed8" stroke-width="2.5"/><line x1="399.9" y1="79.0" x2="403.7" y2="77.3" stroke="#1d4ed8" stroke-width="2.5"/><line x1="403.7" y1="77.3" x2="407.5" y2="75.6" stroke="#1d4ed8" stroke-width="2.5"/><line x1="407.5" y1="75.6" x2="411.3" y2="73.9" stroke="#1d4ed8" stroke-width="2.5"/><line x1="411.3" y1="73.9" x2="415.2" y2="72.1" stroke="#1d4ed8" stroke-width="2.5"/><line x1="74.8" y1="203.2" x2="83.3" y2="202.8" stroke="#0f766e" stroke-width="2.5"/><line x1="83.3" y1="202.8" x2="91.8" y2="202.5" stroke="#0f766e" stroke-width="2.5"/><line x1="91.8" y1="202.5" x2="100.3" y2="202.1" stroke="#0f766e" stroke-width="2.5"/><line x1="100.3" y1="202.1" x2="108.8" y2="201.8" stroke="#0f766e" stroke-width="2.5"/><line x1="108.8" y1="201.8" x2="117.3" y2="201.5" stroke="#0f766e" stroke-width="2.5"/><line x1="117.3" y1="201.5" x2="125.9" y2="201.1" stroke="#0f766e" stroke-width="2.5"/><line x1="125.9" y1="201.1" x2="134.4" y2="200.8" stroke="#0f766e" stroke-width="2.5"/><line x1="134.4" y1="200.8" x2="142.9" y2="200.4" stroke="#0f766e" stroke-width="2.5"/><line x1="142.9" y1="200.4" x2="151.4" y2="200.1" stroke="#0f766e" stroke-width="2.5"/><line x1="151.4" y1="200.1" x2="159.9" y2="199.8" stroke="#0f766e" stroke-width="2.5"/><line x1="159.9" y1="199.8" x2="168.4" y2="199.4" stroke="#0f766e" stroke-width="2.5"/><line x1="168.4" y1="199.4" x2="176.9" y2="199.1" stroke="#0f766e" stroke-width="2.5"/><line x1="176.9" y1="199.1" x2="185.4" y2="198.8" stroke="#0f766e" stroke-width="2.5"/><line x1="185.4" y1="198.8" x2="193.9" y2="198.4" stroke="#0f766e" stroke-width="2.5"/><line x1="193.9" y1="198.4" x2="202.4" y2="198.1" stroke="#0f766e" stroke-width="2.5"/><line x1="202.4" y1="198.1" x2="211.0" y2="197.7" stroke="#0f766e" stroke-width="2.5"/><line x1="211.0" y1="197.7" x2="219.5" y2="197.4" stroke="#0f766e" stroke-width="2.5"/><line x1="219.5" y1="197.4" x2="228.0" y2="197.1" stroke="#0f766e" stroke-width="2.5"/><line x1="228.0" y1="197.1" x2="236.5" y2="196.7" stroke="#0f766e" stroke-width="2.5"/><line x1="236.5" y1="196.7" x2="245.0" y2="196.4" stroke="#0f766e" stroke-width="2.5"/><line x1="245.0" y1="196.4" x2="253.5" y2="196.0" stroke="#0f766e" stroke-width="2.5"/><line x1="253.5" y1="196.0" x2="262.0" y2="195.7" stroke="#0f766e" stroke-width="2.5"/><line x1="262.0" y1="195.7" x2="270.5" y2="195.4" stroke="#0f766e" stroke-width="2.5"/><line x1="270.5" y1="195.4" x2="279.0" y2="195.0" stroke="#0f766e" stroke-width="2.5"/><line x1="279.0" y1="195.0" x2="287.6" y2="194.7" stroke="#0f766e" stroke-width="2.5"/><line x1="287.6" y1="194.7" x2="296.1" y2="194.3" stroke="#0f766e" stroke-width="2.5"/><line x1="296.1" y1="194.3" x2="304.6" y2="194.0" stroke="#0f766e" stroke-width="2.5"/><line x1="304.6" y1="194.0" x2="313.1" y2="193.7" stroke="#0f766e" stroke-width="2.5"/><line x1="313.1" y1="193.7" x2="321.6" y2="193.3" stroke="#0f766e" stroke-width="2.5"/><line x1="321.6" y1="193.3" x2="330.1" y2="193.0" stroke="#0f766e" stroke-width="2.5"/><line x1="330.1" y1="193.0" x2="338.6" y2="192.7" stroke="#0f766e" stroke-width="2.5"/><line x1="338.6" y1="192.7" x2="347.1" y2="192.3" stroke="#0f766e" stroke-width="2.5"/><line x1="347.1" y1="192.3" x2="355.6" y2="192.0" stroke="#0f766e" stroke-width="2.5"/><line x1="355.6" y1="192.0" x2="364.1" y2="191.6" stroke="#0f766e" stroke-width="2.5"/><line x1="364.1" y1="191.6" x2="372.6" y2="191.3" stroke="#0f766e" stroke-width="2.5"/><line x1="372.6" y1="191.3" x2="381.2" y2="191.0" stroke="#0f766e" stroke-width="2.5"/><line x1="381.2" y1="191.0" x2="389.7" y2="190.6" stroke="#0f766e" stroke-width="2.5"/><line x1="389.7" y1="190.6" x2="398.2" y2="190.3" stroke="#0f766e" stroke-width="2.5"/><line x1="398.2" y1="190.3" x2="406.7" y2="189.9" stroke="#0f766e" stroke-width="2.5"/><line x1="406.7" y1="189.9" x2="415.2" y2="189.6" stroke="#0f766e" stroke-width="2.5"/><line x1="74.8" y1="212.2" x2="83.3" y2="212.9" stroke="#b91c1c" stroke-width="2.5"/><line x1="83.3" y1="212.9" x2="91.8" y2="213.5" stroke="#b91c1c" stroke-width="2.5"/><line x1="91.8" y1="213.5" x2="100.3" y2="214.2" stroke="#b91c1c" stroke-width="2.5"/><line x1="100.3" y1="214.2" x2="108.8" y2="214.9" stroke="#b91c1c" stroke-width="2.5"/><line x1="108.8" y1="214.9" x2="117.3" y2="215.5" stroke="#b91c1c" stroke-width="2.5"/><line x1="117.3" y1="215.5" x2="125.9" y2="216.2" stroke="#b91c1c" stroke-width="2.5"/><line x1="125.9" y1="216.2" x2="134.4" y2="216.9" stroke="#b91c1c" stroke-width="2.5"/><line x1="134.4" y1="216.9" x2="142.9" y2="217.5" stroke="#b91c1c" stroke-width="2.5"/><line x1="142.9" y1="217.5" x2="151.4" y2="218.2" stroke="#b91c1c" stroke-width="2.5"/><line x1="151.4" y1="218.2" x2="159.9" y2="218.8" stroke="#b91c1c" stroke-width="2.5"/><line x1="159.9" y1="218.8" x2="168.4" y2="219.5" stroke="#b91c1c" stroke-width="2.5"/><line x1="168.4" y1="219.5" x2="176.9" y2="220.2" stroke="#b91c1c" stroke-width="2.5"/><line x1="176.9" y1="220.2" x2="185.4" y2="220.8" stroke="#b91c1c" stroke-width="2.5"/><line x1="185.4" y1="220.8" x2="193.9" y2="221.5" stroke="#b91c1c" stroke-width="2.5"/><line x1="193.9" y1="221.5" x2="202.4" y2="222.2" stroke="#b91c1c" stroke-width="2.5"/><line x1="202.4" y1="222.2" x2="211.0" y2="222.9" stroke="#b91c1c" stroke-width="2.5"/><line x1="211.0" y1="222.9" x2="219.5" y2="223.6" stroke="#b91c1c" stroke-width="2.5"/><line x1="219.5" y1="223.6" x2="228.0" y2="224.3" stroke="#b91c1c" stroke-width="2.5"/><line x1="228.0" y1="224.3" x2="236.5" y2="225.0" stroke="#b91c1c" stroke-width="2.5"/><line x1="236.5" y1="225.0" x2="245.0" y2="225.8" stroke="#b91c1c" stroke-width="2.5"/><line x1="245.0" y1="225.8" x2="253.5" y2="226.5" stroke="#b91c1c" stroke-width="2.5"/><line x1="253.5" y1="226.5" x2="262.0" y2="227.3" stroke="#b91c1c" stroke-width="2.5"/><line x1="262.0" y1="227.3" x2="270.5" y2="228.0" stroke="#b91c1c" stroke-width="2.5"/><line x1="270.5" y1="228.0" x2="279.0" y2="228.8" stroke="#b91c1c" stroke-width="2.5"/><line x1="279.0" y1="228.8" x2="287.6" y2="229.6" stroke="#b91c1c" stroke-width="2.5"/><line x1="287.6" y1="229.6" x2="296.1" y2="230.3" stroke="#b91c1c" stroke-width="2.5"/><line x1="296.1" y1="230.3" x2="304.6" y2="231.1" stroke="#b91c1c" stroke-width="2.5"/><line x1="304.6" y1="231.1" x2="313.1" y2="231.9" stroke="#b91c1c" stroke-width="2.5"/><line x1="313.1" y1="231.9" x2="321.6" y2="232.7" stroke="#b91c1c" stroke-width="2.5"/><line x1="321.6" y1="232.7" x2="330.1" y2="233.5" stroke="#b91c1c" stroke-width="2.5"/><line x1="330.1" y1="233.5" x2="338.6" y2="234.3" stroke="#b91c1c" stroke-width="2.5"/><line x1="338.6" y1="234.3" x2="347.1" y2="235.1" stroke="#b91c1c" stroke-width="2.5"/><line x1="347.1" y1="235.1" x2="355.6" y2="236.0" stroke="#b91c1c" stroke-width="2.5"/><line x1="355.6" y1="236.0" x2="364.1" y2="236.8" stroke="#b91c1c" stroke-width="2.5"/><line x1="364.1" y1="236.8" x2="372.6" y2="237.6" stroke="#b91c1c" stroke-width="2.5"/><line x1="372.6" y1="237.6" x2="381.2" y2="238.4" stroke="#b91c1c" stroke-width="2.5"/><line x1="381.2" y1="238.4" x2="389.7" y2="239.2" stroke="#b91c1c" stroke-width="2.5"/><line x1="389.7" y1="239.2" x2="398.2" y2="240.0" stroke="#b91c1c" stroke-width="2.5"/><line x1="398.2" y1="240.0" x2="406.7" y2="240.8" stroke="#b91c1c" stroke-width="2.5"/><line x1="406.7" y1="240.8" x2="415.2" y2="241.6" stroke="#b91c1c" stroke-width="2.5"/><text x="348.6" y="69.8" font-family="sans-serif" font-size="12" fill="#1d4ed8" text-anchor="middle" font-weight="700">KNO3</text><line x1="367.1" y1="72.1" x2="400.4" y2="78.9" stroke="#999" stroke-width="1"/><text x="348.6" y="171.5" font-family="sans-serif" font-size="12" fill="#0f766e" text-anchor="middle" font-weight="700">NaCl</text><line x1="348.6" y1="178.3" x2="374.5" y2="191.9" stroke="#999" stroke-width="1"/><text x="363.4" y="259.7" font-family="sans-serif" font-size="12" fill="#b91c1c" text-anchor="middle" font-weight="700">Ca(OH)2</text><line x1="363.4" y1="252.9" x2="385.6" y2="239.3" stroke="#999" stroke-width="1"/></svg>