<svg xmlns="http://www.w3.org/2000/svg" viewBox="0 0 480 320"><rect width="480" height="320" fill="#ffffff"/><text x="240" y="48" font-family="sans-serif" font-size="14" fill="#333" text-anchor="middle" font-weight="700">Value Added by Stage</text><rect x="45" y="70" width="130" height="34" fill="#f1f5f9" stroke="#333" stroke-width="1.2"/><text x="110" y="92" font-family="sans-serif" font-size="13" fill="#333" text-anchor="middle" font-weight="700">Stage</text><rect x="175" y="70" width="130" height="34" fill="#f1f5f9" stroke="#333" stroke-width="1.2"/><text x="240" y="92" font-family="sans-serif" font-size="13" fill="#333" text-anchor="middle" font-weight="700">Sale $</text><rect x="305" y="70" width="130" height="34" fill="#f1f5f9" stroke="#333" stroke-width="1.2"/><text x="370" y="92" font-family="sans-serif" font-size="13" fill="#333" text-anchor="middle" font-weight="700">Value added</text><rect x="45" y="104" width="130" height="34" fill="none" stroke="#333" stroke-width="1.2"/><text x="110" y="126" font-family="sans-serif" font-size="13" fill="#333" text-anchor="middle">Wheat</text><rect x="175" y="104" width="130" height="34" fill="none" stroke="#333" stroke-width="1.2"/><text x="240" y="126" font-family="sans-serif" font-size="13" fill="#333" text-anchor="middle">20</text><rect x="305" y="104" width="130" height="34" fill="none" stroke="#333" stroke-width="1.2"/><text x="370" y="126" font-family="sans-serif" font-size="13" fill="#333" text-anchor="middle">20</text><rect x="45" y="138" width="130" height="34" fill="none" stroke="#333" stroke-width="1.2"/><text x="110" y="160" font-family="sans-serif" font-size="13" fill="#333" text-anchor="middle">Flour</text><rect x="175" y="138" width="130" height="34" fill="none" stroke="#333" stroke-width="1.2"/><text x="240" y="160" font-family="sans-serif" font-size="13" fill="#333" text-anchor="middle">50</text><rect x="305" y="138" width="130" height="34" fill="none" stroke="#333" stroke-width="1.2"/><rect x="340" y="145" width="60" height="20" fill="none" stroke="#94a3b8" stroke-dasharray="5 4"/><rect x="45" y="172" width="130" height="34" fill="none" stroke="#333" stroke-width="1.2"/><text x="110" y="194" font-family="sans-serif" font-size="13" fill="#333" text-anchor="middle">Bread</text><rect x="175" y="172" width="130" height="34" fill="none" stroke="#333" stroke-width="1.2"/><text x="240" y="194" font-family="sans-serif" font-size="13" fill="#333" text-anchor="middle">90</text><rect x="305" y="172" width="130" height="34" fill="none" stroke="#333" stroke-width="1.2"/><rect x="340" y="179" width="60" height="20" fill="none" stroke="#94a3b8" stroke-dasharray="5 4"/></svg>