<svg xmlns="http://www.w3.org/2000/svg" viewBox="0 0 480 320"><rect width="480" height="320" fill="#ffffff"/><line x1="60" y1="280" x2="60" y2="40" stroke="#333" stroke-width="2"/><line x1="60" y1="280" x2="440" y2="280" stroke="#333" stroke-width="2"/><text x="250" y="306" font-family="sans-serif" font-size="13" fill="#555" text-anchor="middle">Q</text><text x="24" y="160" font-family="sans-serif" font-size="13" fill="#555" text-anchor="middle" transform="rotate(-90 24 160)">P</text><line x1="98" y1="40" x2="98" y2="280" stroke="#e2e8f0" stroke-width="1"/><line x1="136" y1="40" x2="136" y2="280" stroke="#e2e8f0" stroke-width="1"/><line x1="174" y1="40" x2="174" y2="280" stroke="#e2e8f0" stroke-width="1"/><line x1="212" y1="40" x2="212" y2="280" stroke="#e2e8f0" stroke-width="1"/><line x1="250" y1="40" x2="250" y2="280" stroke="#e2e8f0" stroke-width="1"/><line x1="288" y1="40" x2="288" y2="280" stroke="#e2e8f0" stroke-width="1"/><line x1="326" y1="40" x2="326" y2="280" stroke="#e2e8f0" stroke-width="1"/><line x1="364" y1="40" x2="364" y2="280" stroke="#e2e8f0" stroke-width="1"/><line x1="402" y1="40" x2="402" y2="280" stroke="#e2e8f0" stroke-width="1"/><line x1="60" y1="70" x2="440" y2="70" stroke="#e2e8f0" stroke-width="1"/><line x1="60" y1="100" x2="440" y2="100" stroke="#e2e8f0" stroke-width="1"/><line x1="60" y1="130" x2="440" y2="130" stroke="#e2e8f0" stroke-width="1"/><line x1="60" y1="160" x2="440" y2="160" stroke="#e2e8f0" stroke-width="1"/><line x1="60" y1="190" x2="440" y2="190" stroke="#e2e8f0" stroke-width="1"/><line x1="60" y1="220" x2="440" y2="220" stroke="#e2e8f0" stroke-width="1"/><line x1="60" y1="250" x2="440" y2="250" stroke="#e2e8f0" stroke-width="1"/><line x1="80" y1="70" x2="400" y2="250" stroke="#1d4ed8" stroke-width="2.5"/><line x1="80" y1="250" x2="400" y2="70" stroke="#b91c1c" stroke-width="2.5"/></svg>