<svg xmlns="http://www.w3.org/2000/svg" viewBox="0 0 480 320"><rect width="480" height="320" fill="#ffffff"/><text x="240" y="48" font-family="sans-serif" font-size="14" fill="#333" text-anchor="middle" font-weight="700">Money Supply (M1 &amp; M2)</text><rect x="110" y="70" width="130" height="34" fill="#f1f5f9" stroke="#333" stroke-width="1.2"/><text x="175" y="92" font-family="sans-serif" font-size="13" fill="#333" text-anchor="middle" font-weight="700">Component</text><rect x="240" y="70" width="130" height="34" fill="#f1f5f9" stroke="#333" stroke-width="1.2"/><text x="305" y="92" font-family="sans-serif" font-size="13" fill="#333" text-anchor="middle" font-weight="700">$ (bn)</text><rect x="110" y="104" width="130" height="34" fill="none" stroke="#333" stroke-width="1.2"/><text x="175" y="126" font-family="sans-serif" font-size="13" fill="#333" text-anchor="middle">Currency</text><rect x="240" y="104" width="130" height="34" fill="none" stroke="#333" stroke-width="1.2"/><text x="305" y="126" font-family="sans-serif" font-size="13" fill="#333" text-anchor="middle">400</text><rect x="110" y="138" width="130" height="34" fill="none" stroke="#333" stroke-width="1.2"/><text x="175" y="160" font-family="sans-serif" font-size="13" fill="#333" text-anchor="middle">Demand deposits</text><rect x="240" y="138" width="130" height="34" fill="none" stroke="#333" stroke-width="1.2"/><text x="305" y="160" font-family="sans-serif" font-size="13" fill="#333" text-anchor="middle">600</text><rect x="110" y="172" width="130" height="34" fill="none" stroke="#333" stroke-width="1.2"/><text x="175" y="194" font-family="sans-serif" font-size="13" fill="#333" text-anchor="middle">= M1</text><rect x="240" y="172" width="130" height="34" fill="none" stroke="#333" stroke-width="1.2"/><text x="305" y="194" font-family="sans-serif" font-size="13" fill="#333" text-anchor="middle">1000</text><rect x="110" y="206" width="130" height="34" fill="none" stroke="#333" stroke-width="1.2"/><text x="175" y="228" font-family="sans-serif" font-size="9" fill="#333" text-anchor="middle">+ Savings &amp; small time</text><rect x="240" y="206" width="130" height="34" fill="none" stroke="#333" stroke-width="1.2"/><text x="305" y="228" font-family="sans-serif" font-size="13" fill="#333" text-anchor="middle">3000</text><rect x="110" y="240" width="130" height="34" fill="none" stroke="#333" stroke-width="1.2"/><text x="175" y="262" font-family="sans-serif" font-size="13" fill="#333" text-anchor="middle">= M2</text><rect x="240" y="240" width="130" height="34" fill="none" stroke="#333" stroke-width="1.2"/><text x="305" y="262" font-family="sans-serif" font-size="13" fill="#333" text-anchor="middle">4000</text></svg>