<svg xmlns="http://www.w3.org/2000/svg" viewBox="0 0 480 320"><rect width="480" height="320" fill="#ffffff"/><text x="240" y="48" font-family="sans-serif" font-size="14" fill="#333" text-anchor="middle" font-weight="700">Real GDP per Capita</text><rect x="40" y="70" width="100" height="34" fill="#f1f5f9" stroke="#333" stroke-width="1.2"/><text x="90" y="92" font-family="sans-serif" font-size="13" fill="#333" text-anchor="middle" font-weight="700">Country</text><rect x="140" y="70" width="100" height="34" fill="#f1f5f9" stroke="#333" stroke-width="1.2"/><text x="190" y="92" font-family="sans-serif" font-size="10" fill="#333" text-anchor="middle" font-weight="700">Real GDP ($bn)</text><rect x="240" y="70" width="100" height="34" fill="#f1f5f9" stroke="#333" stroke-width="1.2"/><text x="290" y="92" font-family="sans-serif" font-size="13" fill="#333" text-anchor="middle" font-weight="700">Pop (m)</text><rect x="340" y="70" width="100" height="34" fill="#f1f5f9" stroke="#333" stroke-width="1.2"/><text x="390" y="92" font-family="sans-serif" font-size="10" fill="#333" text-anchor="middle" font-weight="700">Per capita ($)</text><rect x="40" y="104" width="100" height="34" fill="none" stroke="#333" stroke-width="1.2"/><text x="90" y="126" font-family="sans-serif" font-size="13" fill="#333" text-anchor="middle">Country X</text><rect x="140" y="104" width="100" height="34" fill="none" stroke="#333" stroke-width="1.2"/><text x="190" y="126" font-family="sans-serif" font-size="13" fill="#333" text-anchor="middle">1000</text><rect x="240" y="104" width="100" height="34" fill="none" stroke="#333" stroke-width="1.2"/><text x="290" y="126" font-family="sans-serif" font-size="13" fill="#333" text-anchor="middle">50</text><rect x="340" y="104" width="100" height="34" fill="none" stroke="#333" stroke-width="1.2"/><text x="390" y="126" font-family="sans-serif" font-size="13" fill="#333" text-anchor="middle">20000</text><rect x="40" y="138" width="100" height="34" fill="none" stroke="#333" stroke-width="1.2"/><text x="90" y="160" font-family="sans-serif" font-size="13" fill="#333" text-anchor="middle">Country Y</text><rect x="140" y="138" width="100" height="34" fill="none" stroke="#333" stroke-width="1.2"/><text x="190" y="160" font-family="sans-serif" font-size="13" fill="#333" text-anchor="middle">800</text><rect x="240" y="138" width="100" height="34" fill="none" stroke="#333" stroke-width="1.2"/><text x="290" y="160" font-family="sans-serif" font-size="13" fill="#333" text-anchor="middle">20</text><rect x="340" y="138" width="100" height="34" fill="none" stroke="#333" stroke-width="1.2"/><text x="390" y="160" font-family="sans-serif" font-size="13" fill="#333" text-anchor="middle">40000</text></svg>