<svg xmlns="http://www.w3.org/2000/svg" viewBox="0 0 480 320"><rect width="480" height="320" fill="#ffffff"/><text x="240" y="48" font-family="sans-serif" font-size="14" fill="#333" text-anchor="middle" font-weight="700">Demand Schedule</text><rect x="110" y="70" width="130" height="34" fill="#f1f5f9" stroke="#333" stroke-width="1.2"/><text x="175" y="92" font-family="sans-serif" font-size="13" fill="#333" text-anchor="middle" font-weight="700">Price</text><rect x="240" y="70" width="130" height="34" fill="#f1f5f9" stroke="#333" stroke-width="1.2"/><text x="305" y="92" font-family="sans-serif" font-size="13" fill="#333" text-anchor="middle" font-weight="700">Qd</text><rect x="110" y="104" width="130" height="34" fill="none" stroke="#333" stroke-width="1.2"/><text x="175" y="126" font-family="sans-serif" font-size="13" fill="#333" text-anchor="middle">$10</text><rect x="240" y="104" width="130" height="34" fill="none" stroke="#333" stroke-width="1.2"/><text x="305" y="126" font-family="sans-serif" font-size="13" fill="#333" text-anchor="middle">20</text><rect x="110" y="138" width="130" height="34" fill="none" stroke="#333" stroke-width="1.2"/><text x="175" y="160" font-family="sans-serif" font-size="13" fill="#333" text-anchor="middle">$8</text><rect x="240" y="138" width="130" height="34" fill="none" stroke="#333" stroke-width="1.2"/><text x="305" y="160" font-family="sans-serif" font-size="13" fill="#333" text-anchor="middle">40</text><rect x="110" y="172" width="130" height="34" fill="none" stroke="#333" stroke-width="1.2"/><text x="175" y="194" font-family="sans-serif" font-size="13" fill="#333" text-anchor="middle">$6</text><rect x="240" y="172" width="130" height="34" fill="none" stroke="#333" stroke-width="1.2"/><text x="305" y="194" font-family="sans-serif" font-size="13" fill="#333" text-anchor="middle">60</text><rect x="110" y="206" width="130" height="34" fill="none" stroke="#333" stroke-width="1.2"/><text x="175" y="228" font-family="sans-serif" font-size="13" fill="#333" text-anchor="middle">$4</text><rect x="240" y="206" width="130" height="34" fill="none" stroke="#333" stroke-width="1.2"/><text x="305" y="228" font-family="sans-serif" font-size="13" fill="#333" text-anchor="middle">80</text><rect x="110" y="240" width="130" height="34" fill="none" stroke="#333" stroke-width="1.2"/><text x="175" y="262" font-family="sans-serif" font-size="13" fill="#333" text-anchor="middle">$2</text><rect x="240" y="240" width="130" height="34" fill="none" stroke="#333" stroke-width="1.2"/><text x="305" y="262" font-family="sans-serif" font-size="13" fill="#333" text-anchor="middle">100</text></svg>