<svg xmlns="http://www.w3.org/2000/svg" viewBox="0 0 480 320"><rect width="480" height="320" fill="#ffffff"/><line x1="60" y1="280" x2="60" y2="40" stroke="#333" stroke-width="2"/><line x1="60" y1="280" x2="440" y2="280" stroke="#333" stroke-width="2"/><text x="440" y="298" font-family="sans-serif" font-size="12" fill="#555" text-anchor="end">Q</text><text x="24" y="160" font-family="sans-serif" font-size="13" fill="#555" text-anchor="middle" transform="rotate(-90 24 160)">$</text><polyline points="104.4,145.3 111.8,151.4 119.2,157.1 126.6,162.3 134.0,167.0 141.4,171.3 148.8,175.1 156.2,178.5 163.6,181.5 171.0,183.9 178.4,186.0 185.8,187.6 193.2,188.7 200.6,189.4 208.0,189.6 215.4,189.4 222.8,188.7 230.2,187.6 237.6,186.0 245.0,183.9 252.4,181.5 259.8,178.5 267.2,175.1 274.6,171.3 282.0,167.0 289.4,162.3 296.8,157.1 304.2,151.4 311.6,145.3" fill="none" stroke="#0f766e" stroke-width="2.4"/><line x1="60.0" y1="143.5" x2="415.2" y2="273.7" stroke="#1d4ed8" stroke-width="2.4"/><line x1="60.0" y1="143.5" x2="237.6" y2="273.7" stroke="#60a5fa" stroke-width="2"/><polyline points="89.6,269.2 97.0,264.2 104.4,259.2 111.8,254.2 119.2,249.3 126.6,244.3 134.0,239.3 141.4,234.3 148.8,229.4 156.2,224.4 163.6,219.4 171.0,214.5 178.4,209.5 185.8,204.5 193.2,199.5 200.6,194.6 208.0,189.6 215.4,184.6 222.8,179.7 230.2,174.7 237.6,169.7 245.0,164.7 252.4,159.8 259.8,154.8 267.2,149.8 274.6,144.9 282.0,139.9 289.4,134.9 296.8,129.9" fill="none" stroke="#b91c1c" stroke-width="2.4"/></svg>