<svg xmlns="http://www.w3.org/2000/svg" viewBox="0 0 480 320"><rect width="480" height="320" fill="#ffffff"/><line x1="60" y1="280" x2="60" y2="40" stroke="#333" stroke-width="2"/><line x1="60" y1="280" x2="440" y2="280" stroke="#333" stroke-width="2"/><text x="440" y="298" font-family="sans-serif" font-size="12" fill="#555" text-anchor="end">Q</text><text x="24" y="160" font-family="sans-serif" font-size="13" fill="#555" text-anchor="middle" transform="rotate(-90 24 160)">$</text><polyline points="115.5,182.1 124.8,196.1 134.0,206.6 143.2,214.7 152.5,221.2 161.8,226.6 171.0,231.0 180.2,234.8 189.5,238.0 198.8,240.8 208.0,243.3 217.2,245.4 226.5,247.4 235.8,249.1 245.0,250.6 254.2,252.0 263.5,253.3 272.8,254.5 282.0,255.5 291.2,256.5 300.5,257.4 309.8,258.2 319.0,259.0 328.2,259.7 337.5,260.4 346.8,261.0 356.0,261.6 365.2,262.2 374.5,262.7 383.8,263.2 393.0,263.7 402.2,264.1 411.5,264.5 420.8,264.9 430.0,265.3" fill="none" stroke="#94a3b8" stroke-width="2.2"/><polyline points="115.5,222.4 124.8,225.6 134.0,228.5 143.2,231.0 152.5,233.2 161.8,235.1 171.0,236.6 180.2,237.8 189.5,238.6 198.8,239.2 208.0,239.3 217.2,239.2 226.5,238.6 235.8,237.8 245.0,236.6 254.2,235.1 263.5,233.2 272.8,231.0 282.0,228.5 291.2,225.6 300.5,222.4 309.8,218.8 319.0,214.9 328.2,210.7 337.5,206.1 346.8,201.2 356.0,195.9 365.2,190.3 374.5,184.4 383.8,178.1 393.0,171.5 402.2,164.6 411.5,157.3 420.8,149.7 430.0,141.7" fill="none" stroke="#f59e0b" stroke-width="2.2"/><polyline points="115.5,124.4 124.8,141.6 134.0,155.0 143.2,165.7 152.5,174.5 161.8,181.7 171.0,187.6 180.2,192.6 189.5,196.7 198.8,200.0 208.0,202.6 217.2,204.6 226.5,206.0 235.8,206.9 245.0,207.2 254.2,207.1 263.5,206.5 272.8,205.5 282.0,204.0 291.2,202.1 300.5,199.8 309.8,197.0 319.0,193.9 328.2,190.4 337.5,186.5 346.8,182.2 356.0,177.6 365.2,172.5 374.5,167.1 383.8,161.3 393.0,155.2 402.2,148.7 411.5,141.8 420.8,134.6 430.0,127.0" fill="none" stroke="#0f766e" stroke-width="2.2"/><polyline points="134.0,250.2 143.2,252.4 152.5,253.6 161.8,253.7 171.0,252.9 180.2,251.0 189.5,248.1 198.8,244.2 208.0,239.3 217.2,233.4 226.5,226.4 235.8,218.5 245.0,209.5 254.2,199.5 263.5,188.5 272.8,176.4 282.0,163.4 291.2,149.3 300.5,134.2 309.8,118.1 319.0,101.0 328.2,82.9 337.5,63.7" fill="none" stroke="#b91c1c" stroke-width="2.2"/><circle cx="208.0" cy="239.3" r="4" fill="#333"/><circle cx="252.4" cy="207.2" r="4" fill="#333"/><text x="331.2" y="82.9" font-family="sans-serif" font-size="11" fill="#b91c1c" text-anchor="start">MC</text><text x="413.5" y="141.8" font-family="sans-serif" font-size="11" fill="#0f766e" text-anchor="start">ATC</text><text x="413.5" y="161.3" font-family="sans-serif" font-size="11" fill="#f59e0b" text-anchor="start">AVC</text><text x="395.0" y="267.7" font-family="sans-serif" font-size="11" fill="#94a3b8" text-anchor="start">AFC</text></svg>