<svg xmlns="http://www.w3.org/2000/svg" viewBox="0 0 480 320"><rect width="480" height="320" fill="#ffffff"/><text x="240" y="48" font-family="sans-serif" font-size="14" fill="#333" text-anchor="middle" font-weight="700">Production &amp; Marginal Product</text><rect x="45" y="70" width="130" height="34" fill="#f1f5f9" stroke="#333" stroke-width="1.2"/><text x="110" y="92" font-family="sans-serif" font-size="13" fill="#333" text-anchor="middle" font-weight="700">Labour</text><rect x="175" y="70" width="130" height="34" fill="#f1f5f9" stroke="#333" stroke-width="1.2"/><text x="240" y="92" font-family="sans-serif" font-size="13" fill="#333" text-anchor="middle" font-weight="700">Total Product</text><rect x="305" y="70" width="130" height="34" fill="#f1f5f9" stroke="#333" stroke-width="1.2"/><text x="370" y="92" font-family="sans-serif" font-size="13" fill="#333" text-anchor="middle" font-weight="700">Marginal Product</text><rect x="45" y="104" width="130" height="34" fill="none" stroke="#333" stroke-width="1.2"/><text x="110" y="126" font-family="sans-serif" font-size="13" fill="#333" text-anchor="middle">1</text><rect x="175" y="104" width="130" height="34" fill="none" stroke="#333" stroke-width="1.2"/><text x="240" y="126" font-family="sans-serif" font-size="13" fill="#333" text-anchor="middle">10</text><rect x="305" y="104" width="130" height="34" fill="none" stroke="#333" stroke-width="1.2"/><text x="370" y="126" font-family="sans-serif" font-size="13" fill="#333" text-anchor="middle">10</text><rect x="45" y="138" width="130" height="34" fill="none" stroke="#333" stroke-width="1.2"/><text x="110" y="160" font-family="sans-serif" font-size="13" fill="#333" text-anchor="middle">2</text><rect x="175" y="138" width="130" height="34" fill="none" stroke="#333" stroke-width="1.2"/><text x="240" y="160" font-family="sans-serif" font-size="13" fill="#333" text-anchor="middle">24</text><rect x="305" y="138" width="130" height="34" fill="none" stroke="#333" stroke-width="1.2"/><text x="370" y="160" font-family="sans-serif" font-size="13" fill="#333" text-anchor="middle">14</text><rect x="45" y="172" width="130" height="34" fill="none" stroke="#333" stroke-width="1.2"/><text x="110" y="194" font-family="sans-serif" font-size="13" fill="#333" text-anchor="middle">3</text><rect x="175" y="172" width="130" height="34" fill="none" stroke="#333" stroke-width="1.2"/><text x="240" y="194" font-family="sans-serif" font-size="13" fill="#333" text-anchor="middle">33</text><rect x="305" y="172" width="130" height="34" fill="none" stroke="#333" stroke-width="1.2"/><text x="370" y="194" font-family="sans-serif" font-size="13" fill="#333" text-anchor="middle">9</text><rect x="45" y="206" width="130" height="34" fill="none" stroke="#333" stroke-width="1.2"/><text x="110" y="228" font-family="sans-serif" font-size="13" fill="#333" text-anchor="middle">4</text><rect x="175" y="206" width="130" height="34" fill="none" stroke="#333" stroke-width="1.2"/><text x="240" y="228" font-family="sans-serif" font-size="13" fill="#333" text-anchor="middle">39</text><rect x="305" y="206" width="130" height="34" fill="none" stroke="#333" stroke-width="1.2"/><text x="370" y="228" font-family="sans-serif" font-size="13" fill="#333" text-anchor="middle">6</text><rect x="45" y="240" width="130" height="34" fill="none" stroke="#333" stroke-width="1.2"/><text x="110" y="262" font-family="sans-serif" font-size="13" fill="#333" text-anchor="middle">5</text><rect x="175" y="240" width="130" height="34" fill="none" stroke="#333" stroke-width="1.2"/><text x="240" y="262" font-family="sans-serif" font-size="13" fill="#333" text-anchor="middle">42</text><rect x="305" y="240" width="130" height="34" fill="none" stroke="#333" stroke-width="1.2"/><text x="370" y="262" font-family="sans-serif" font-size="13" fill="#333" text-anchor="middle">3</text></svg>