<svg xmlns="http://www.w3.org/2000/svg" viewBox="0 0 720 300"><rect width="720" height="300" fill="#fff"/><line x1="60" y1="40" x2="60" y2="250" stroke="#333" stroke-width="2"/><line x1="60" y1="250" x2="300" y2="250" stroke="#333" stroke-width="2"/><text x="180.0" y="28" font-family="sans-serif" font-size="13" font-weight="700" fill="#333" text-anchor="middle">Market</text><text x="300" y="265" font-family="sans-serif" font-size="11" fill="#555" text-anchor="end">Q</text><text x="54" y="42" font-family="sans-serif" font-size="11" fill="#555" text-anchor="end">$</text><line x1="64.8" y1="44.2" x2="292.8" y2="243.7" stroke="#1d4ed8" stroke-width="2.5"/><line x1="60.0" y1="250.0" x2="292.8" y2="46.3" stroke="#b91c1c" stroke-width="2.5"/><line x1="60" y1="145.0" x2="180.0" y2="145.0" stroke="#999" stroke-width="1" stroke-dasharray="4 4"/><line x1="180.0" y1="145.0" x2="180.0" y2="250" stroke="#999" stroke-width="1" stroke-dasharray="4 4"/><circle cx="180.0" cy="145.0" r="4" fill="#333"/><text x="81.6" y="54.7" font-family="sans-serif" font-size="11" fill="#1d4ed8" text-anchor="middle">D</text><text x="276.0" y="54.7" font-family="sans-serif" font-size="11" fill="#b91c1c" text-anchor="end">S</text><text x="55" y="149.0" font-family="sans-serif" font-size="11" fill="#333" text-anchor="end">Pe</text><text x="180.0" y="265" font-family="sans-serif" font-size="11" fill="#333" text-anchor="middle">Qe</text><line x1="420" y1="40" x2="420" y2="250" stroke="#333" stroke-width="2"/><line x1="420" y1="250" x2="680" y2="250" stroke="#333" stroke-width="2"/><text x="550.0" y="28" font-family="sans-serif" font-size="13" font-weight="700" fill="#333" text-anchor="middle">Firm</text><text x="680" y="265" font-family="sans-serif" font-size="11" fill="#555" text-anchor="end">Q</text><text x="414" y="42" font-family="sans-serif" font-size="11" fill="#555" text-anchor="end">$</text><polyline points="465.5,136.1 472.0,144.2 478.5,151.2 485.0,157.4 491.5,162.6 498.0,166.8 504.5,170.1 511.0,172.5 517.5,173.9 524.0,174.4 530.5,173.9 537.0,172.5 543.5,170.1 550.0,166.8 556.5,162.6 563.0,157.4 569.5,151.2 576.0,144.2 582.5,136.1 589.0,127.2 595.5,117.2 602.0,106.4 608.5,94.5 615.0,81.8 621.5,68.1 628.0,53.4 634.5,37.8 641.0,21.3 647.5,3.8 654.0,-14.6 660.5,-34.0" fill="none" stroke="#f59e0b" stroke-width="2.2"/><polyline points="465.5,65.1 472.0,77.0 478.5,87.8 485.0,97.8 491.5,106.7 498.0,114.8 504.5,121.8 511.0,128.0 517.5,133.2 524.0,137.4 530.5,140.7 537.0,143.1 543.5,144.5 550.0,145.0 556.5,144.5 563.0,143.1 569.5,140.7 576.0,137.4 582.5,133.2 589.0,128.0 595.5,121.8 602.0,114.8 608.5,106.7 615.0,97.8 621.5,87.8 628.0,77.0 634.5,65.1 641.0,52.4 647.5,38.7 654.0,24.0 660.5,8.4" fill="none" stroke="#0f766e" stroke-width="2.2"/><line x1="485.0" y1="218.5" x2="634.5" y2="49.5" stroke="#b91c1c" stroke-width="2.2"/><line x1="420" y1="145.0" x2="680" y2="145.0" stroke="#1d4ed8" stroke-width="2"/><circle cx="550.0" cy="145.0" r="4" fill="#333"/><line x1="550.0" y1="145.0" x2="550.0" y2="250" stroke="#999" stroke-width="1" stroke-dasharray="4 4"/><text x="550.0" y="265" font-family="sans-serif" font-size="11" fill="#333" text-anchor="middle">q*</text><text x="678" y="140.0" font-family="sans-serif" font-size="11" fill="#1d4ed8" text-anchor="end">P = MR = D</text><text x="635.9" y="52.4" font-family="sans-serif" font-size="11" fill="#b91c1c" text-anchor="start">MC</text><text x="621.0" y="97.8" font-family="sans-serif" font-size="11" fill="#0f766e" text-anchor="start">ATC</text><text x="588.5" y="138.1" font-family="sans-serif" font-size="11" fill="#f59e0b" text-anchor="start">AVC</text><line x1="180.0" y1="145.0" x2="420" y2="145.0" stroke="#cbd5e1" stroke-width="1" stroke-dasharray="4 4"/></svg>