<svg xmlns="http://www.w3.org/2000/svg" viewBox="0 0 480 320"><rect width="480" height="320" fill="#ffffff"/><line x1="60" y1="280" x2="60" y2="40" stroke="#333" stroke-width="2"/><line x1="60" y1="280" x2="440" y2="280" stroke="#333" stroke-width="2"/><text x="440" y="298" font-family="sans-serif" font-size="12" fill="#555" text-anchor="end">Q</text><text x="24" y="160" font-family="sans-serif" font-size="13" fill="#555" text-anchor="middle" transform="rotate(-90 24 160)">P</text><polygon points="171.0,212.2 226.5,178.3 226.5,212.2" fill="#6b7280" opacity="0.25"/><polygon points="263.5,178.3 319.0,212.2 263.5,212.2" fill="#6b7280" opacity="0.25"/><line x1="67.4" y1="58.5" x2="418.9" y2="273.2" stroke="#1d4ed8" stroke-width="2.5"/><line x1="60.0" y1="280.0" x2="418.9" y2="60.8" stroke="#b91c1c" stroke-width="2.5"/><line x1="60.0" y1="212.2" x2="430.0" y2="212.2" stroke="#0f766e" stroke-width="2"/><line x1="60.0" y1="178.3" x2="430.0" y2="178.3" stroke="#0f766e" stroke-width="2" stroke-dasharray="6 4"/><line x1="171.0" y1="212.2" x2="171.0" y2="280.0" stroke="#999" stroke-width="1" stroke-dasharray="4 4"/><line x1="226.5" y1="178.3" x2="226.5" y2="280.0" stroke="#999" stroke-width="1" stroke-dasharray="4 4"/><line x1="263.5" y1="178.3" x2="263.5" y2="280.0" stroke="#999" stroke-width="1" stroke-dasharray="4 4"/><line x1="319.0" y1="212.2" x2="319.0" y2="280.0" stroke="#999" stroke-width="1" stroke-dasharray="4 4"/><circle cx="171.0" cy="212.2" r="4" fill="#333"/><circle cx="319.0" cy="212.2" r="4" fill="#333"/><circle cx="226.5" cy="178.3" r="4" fill="#333"/><circle cx="263.5" cy="178.3" r="4" fill="#333"/><text x="81.4" y="61.5" font-family="sans-serif" font-size="13" fill="#1d4ed8" text-anchor="start">D</text><text x="404.9" y="63.8" font-family="sans-serif" font-size="13" fill="#b91c1c" text-anchor="end">S</text><text x="370.8" y="203.2" font-family="sans-serif" font-size="11" fill="#0f766e" text-anchor="middle">World price</text><text x="370.8" y="169.3" font-family="sans-serif" font-size="11" fill="#0f766e" text-anchor="middle">+tariff</text><text x="52" y="216.2" font-family="sans-serif" font-size="11" fill="#0f766e" text-anchor="end">Pw</text><text x="52" y="182.3" font-family="sans-serif" font-size="11" fill="#0f766e" text-anchor="end">Pw+t</text><text x="171.0" y="296" font-family="sans-serif" font-size="11" fill="#333" text-anchor="middle">Qs1</text><text x="226.5" y="308" font-family="sans-serif" font-size="11" fill="#333" text-anchor="middle">Qs2</text><text x="263.5" y="296" font-family="sans-serif" font-size="11" fill="#333" text-anchor="middle">Qd2</text><text x="319.0" y="308" font-family="sans-serif" font-size="11" fill="#333" text-anchor="middle">Qd1</text></svg>