<svg xmlns="http://www.w3.org/2000/svg" viewBox="0 0 480 320"><rect width="480" height="320" fill="#ffffff"/><line x1="60" y1="280" x2="60" y2="40" stroke="#333" stroke-width="2"/><line x1="60" y1="280" x2="440" y2="280" stroke="#333" stroke-width="2"/><text x="440" y="298" font-family="sans-serif" font-size="12" fill="#555" text-anchor="end">Q</text><text x="24" y="160" font-family="sans-serif" font-size="13" fill="#555" text-anchor="middle" transform="rotate(-90 24 160)">$</text><polyline points="104.4,94.7 171.0,148.9 245.0,178.3 319.0,194.1 393.0,203.2" stroke="#0f766e" stroke-width="2.2" fill="none"/><polyline points="104.4,155.7 245.0,212.2 393.0,225.8" stroke="#b91c1c" stroke-width="2.2" fill="none"/><line x1="67.4" y1="58.5" x2="418.9" y2="273.2" stroke="#1d4ed8" stroke-width="2.5"/><line x1="60.0" y1="54.0" x2="245.0" y2="280.0" stroke="#60a5fa" stroke-width="2"/><line x1="60" y1="117.3" x2="163.6" y2="117.3" stroke="#999" stroke-width="1" stroke-dasharray="4 4"/><line x1="163.6" y1="280" x2="163.6" y2="117.3" stroke="#999" stroke-width="1" stroke-dasharray="4 4"/><line x1="60" y1="216.7" x2="326.4" y2="216.7" stroke="#999" stroke-width="1" stroke-dasharray="4 4"/><circle cx="163.6" cy="117.3" r="4" fill="#333"/><circle cx="163.6" cy="180.6" r="4" fill="#333"/><circle cx="326.4" cy="216.7" r="4" fill="#333"/><text x="81.4" y="61.5" font-family="sans-serif" font-size="13" fill="#1d4ed8" text-anchor="start">D</text><text x="208.0" y="248.4" font-family="sans-serif" font-size="11" fill="#60a5fa" text-anchor="middle">MR</text><text x="385.6" y="234.8" font-family="sans-serif" font-size="11" fill="#b91c1c" text-anchor="middle">MC</text><text x="385.6" y="212.2" font-family="sans-serif" font-size="11" fill="#0f766e" text-anchor="middle">ATC</text><text x="52" y="121.3" font-family="sans-serif" font-size="11" fill="#333" text-anchor="end">Pm</text><text x="163.6" y="296" font-family="sans-serif" font-size="11" fill="#333" text-anchor="middle">Qm</text><text x="52" y="220.7" font-family="sans-serif" font-size="11" fill="#333" text-anchor="end">P=MC</text></svg>