<svg xmlns="http://www.w3.org/2000/svg" viewBox="0 0 480 320"><rect width="480" height="320" fill="#ffffff"/><line x1="60" y1="280" x2="60" y2="40" stroke="#333" stroke-width="2"/><line x1="60" y1="280" x2="440" y2="280" stroke="#333" stroke-width="2"/><text x="250" y="306" font-family="sans-serif" font-size="13" fill="#555" text-anchor="middle">Q</text><text x="24" y="160" font-family="sans-serif" font-size="13" fill="#555" text-anchor="middle" transform="rotate(-90 24 160)">P</text><polygon points="208.0,144.4 208.0,189.6 245.0,167.0" fill="#6b7280" opacity="0.25"/><line x1="67.4" y1="58.5" x2="418.9" y2="273.2" stroke="#1d4ed8" stroke-width="2.5"/><line x1="60.0" y1="280.0" x2="418.9" y2="60.8" stroke="#b91c1c" stroke-width="2.5"/><line x1="60.0" y1="234.8" x2="348.6" y2="58.5" stroke="#b91c1c" stroke-width="2.5" stroke-dasharray="7 5"/><line x1="208.0" y1="280" x2="208.0" y2="144.4" stroke="#999" stroke-width="1" stroke-dasharray="4 4"/><line x1="60" y1="144.4" x2="208.0" y2="144.4" stroke="#999" stroke-width="1" stroke-dasharray="4 4"/><line x1="60" y1="189.6" x2="208.0" y2="189.6" stroke="#999" stroke-width="1" stroke-dasharray="4 4"/><circle cx="208.0" cy="144.4" r="4" fill="#333"/><circle cx="208.0" cy="189.6" r="4" fill="#333"/><text x="104.4" y="63.0" font-family="sans-serif" font-size="13" fill="#b91c1c" text-anchor="middle">S+tax</text><text x="393.0" y="76.6" font-family="sans-serif" font-size="13" fill="#b91c1c" text-anchor="middle">S</text><text x="89.6" y="72.1" font-family="sans-serif" font-size="13" fill="#1d4ed8" text-anchor="middle">D</text><text x="52" y="148.4" font-family="sans-serif" font-size="12" fill="#333" text-anchor="end">Pb</text><text x="52" y="193.6" font-family="sans-serif" font-size="12" fill="#333" text-anchor="end">Ps</text><text x="230.2" y="167.0" font-family="sans-serif" font-size="12" fill="#333" text-anchor="middle">DWL</text><text x="208.0" y="296" font-family="sans-serif" font-size="12" fill="#333" text-anchor="middle">Qt</text></svg>