<svg xmlns="http://www.w3.org/2000/svg" viewBox="0 0 480 320"><rect width="480" height="320" fill="#ffffff"/><rect x="60" y="130" width="110" height="56" rx="10" fill="#eef2ff" stroke="#333" stroke-width="1.5"/><text x="115" y="162" font-family="sans-serif" font-size="13" fill="#333" text-anchor="middle" font-weight="700">Households</text><rect x="310" y="130" width="110" height="56" rx="10" fill="#fef2f2" stroke="#333" stroke-width="1.5"/><text x="365" y="162" font-family="sans-serif" font-size="13" fill="#333" text-anchor="middle" font-weight="700">Firms</text><ellipse cx="240" cy="70" rx="95" ry="26" fill="#f0fdf4" stroke="#333" stroke-width="1.5"/><text x="240" y="75" font-family="sans-serif" font-size="12" fill="#333" text-anchor="middle" font-weight="700">Product market</text><ellipse cx="240" cy="250" rx="95" ry="26" fill="#fffbeb" stroke="#333" stroke-width="1.5"/><text x="240" y="255" font-family="sans-serif" font-size="12" fill="#333" text-anchor="middle" font-weight="700">Factor market</text><defs><marker id="ah238" markerWidth="8" markerHeight="8" refX="6" refY="3" orient="auto"><path d="M0,0 L6,3 L0,6 z" fill="#0f766e"/></marker></defs><line x1="150" y1="120" x2="190" y2="88" stroke="#0f766e" stroke-width="2" marker-end="url(#ah238)"/><defs><marker id="ah410" markerWidth="8" markerHeight="8" refX="6" refY="3" orient="auto"><path d="M0,0 L6,3 L0,6 z" fill="#0f766e"/></marker></defs><line x1="290" y1="88" x2="330" y2="120" stroke="#0f766e" stroke-width="2" marker-end="url(#ah410)"/><defs><marker id="ah562" markerWidth="8" markerHeight="8" refX="6" refY="3" orient="auto"><path d="M0,0 L6,3 L0,6 z" fill="#0f766e"/></marker></defs><line x1="330" y1="196" x2="290" y2="232" stroke="#0f766e" stroke-width="2" marker-end="url(#ah562)"/><defs><marker id="ah386" markerWidth="8" markerHeight="8" refX="6" refY="3" orient="auto"><path d="M0,0 L6,3 L0,6 z" fill="#0f766e"/></marker></defs><line x1="190" y1="232" x2="150" y2="196" stroke="#0f766e" stroke-width="2" marker-end="url(#ah386)"/><text x="118" y="95" font-family="sans-serif" font-size="11" fill="#0f766e" text-anchor="middle">$ consumer spending</text><text x="372" y="95" font-family="sans-serif" font-size="11" fill="#0f766e" text-anchor="middle">$ revenue</text><text x="382" y="225" font-family="sans-serif" font-size="11" fill="#0f766e" text-anchor="middle">$ factor payments</text><text x="108" y="225" font-family="sans-serif" font-size="11" fill="#0f766e" text-anchor="middle">$ wages, rent, profit</text></svg>