<svg xmlns="http://www.w3.org/2000/svg" viewBox="0 0 480 320"><rect width="480" height="320" fill="#ffffff"/><text x="240" y="48" font-family="sans-serif" font-size="14" fill="#333" text-anchor="middle" font-weight="700">Spending Multiplier</text><rect x="110" y="70" width="130" height="34" fill="#f1f5f9" stroke="#333" stroke-width="1.2"/><text x="175" y="92" font-family="sans-serif" font-size="13" fill="#333" text-anchor="middle" font-weight="700">MPC</text><rect x="240" y="70" width="130" height="34" fill="#f1f5f9" stroke="#333" stroke-width="1.2"/><text x="305" y="92" font-family="sans-serif" font-size="9" fill="#333" text-anchor="middle" font-weight="700">Multiplier = 1/(1−MPC)</text><rect x="110" y="104" width="130" height="34" fill="none" stroke="#333" stroke-width="1.2"/><text x="175" y="126" font-family="sans-serif" font-size="13" fill="#333" text-anchor="middle">0.50</text><rect x="240" y="104" width="130" height="34" fill="none" stroke="#333" stroke-width="1.2"/><text x="305" y="126" font-family="sans-serif" font-size="13" fill="#333" text-anchor="middle">2</text><rect x="110" y="138" width="130" height="34" fill="none" stroke="#333" stroke-width="1.2"/><text x="175" y="160" font-family="sans-serif" font-size="13" fill="#333" text-anchor="middle">0.75</text><rect x="240" y="138" width="130" height="34" fill="none" stroke="#333" stroke-width="1.2"/><rect x="275" y="145" width="60" height="20" fill="none" stroke="#94a3b8" stroke-dasharray="5 4"/><rect x="110" y="172" width="130" height="34" fill="none" stroke="#333" stroke-width="1.2"/><text x="175" y="194" font-family="sans-serif" font-size="13" fill="#333" text-anchor="middle">0.80</text><rect x="240" y="172" width="130" height="34" fill="none" stroke="#333" stroke-width="1.2"/><rect x="275" y="179" width="60" height="20" fill="none" stroke="#94a3b8" stroke-dasharray="5 4"/><rect x="110" y="206" width="130" height="34" fill="none" stroke="#333" stroke-width="1.2"/><text x="175" y="228" font-family="sans-serif" font-size="13" fill="#333" text-anchor="middle">0.90</text><rect x="240" y="206" width="130" height="34" fill="none" stroke="#333" stroke-width="1.2"/><rect x="275" y="213" width="60" height="20" fill="none" stroke="#94a3b8" stroke-dasharray="5 4"/></svg>