<svg xmlns="http://www.w3.org/2000/svg" viewBox="0 0 480 320"><rect width="480" height="320" fill="#ffffff"/><text x="240" y="48" font-family="sans-serif" font-size="14" fill="#333" text-anchor="middle" font-weight="700">CPI Basket</text><rect x="40" y="70" width="100" height="34" fill="#f1f5f9" stroke="#333" stroke-width="1.2"/><text x="90" y="92" font-family="sans-serif" font-size="13" fill="#333" text-anchor="middle" font-weight="700">Item</text><rect x="140" y="70" width="100" height="34" fill="#f1f5f9" stroke="#333" stroke-width="1.2"/><text x="190" y="92" font-family="sans-serif" font-size="13" fill="#333" text-anchor="middle" font-weight="700">Qty</text><rect x="240" y="70" width="100" height="34" fill="#f1f5f9" stroke="#333" stroke-width="1.2"/><text x="290" y="92" font-family="sans-serif" font-size="13" fill="#333" text-anchor="middle" font-weight="700">Base $</text><rect x="340" y="70" width="100" height="34" fill="#f1f5f9" stroke="#333" stroke-width="1.2"/><text x="390" y="92" font-family="sans-serif" font-size="13" fill="#333" text-anchor="middle" font-weight="700">Now $</text><rect x="40" y="104" width="100" height="34" fill="none" stroke="#333" stroke-width="1.2"/><text x="90" y="126" font-family="sans-serif" font-size="13" fill="#333" text-anchor="middle">Bread</text><rect x="140" y="104" width="100" height="34" fill="none" stroke="#333" stroke-width="1.2"/><text x="190" y="126" font-family="sans-serif" font-size="13" fill="#333" text-anchor="middle">10</text><rect x="240" y="104" width="100" height="34" fill="none" stroke="#333" stroke-width="1.2"/><text x="290" y="126" font-family="sans-serif" font-size="13" fill="#333" text-anchor="middle">2</text><rect x="340" y="104" width="100" height="34" fill="none" stroke="#333" stroke-width="1.2"/><text x="390" y="126" font-family="sans-serif" font-size="13" fill="#333" text-anchor="middle">3</text><rect x="40" y="138" width="100" height="34" fill="none" stroke="#333" stroke-width="1.2"/><text x="90" y="160" font-family="sans-serif" font-size="13" fill="#333" text-anchor="middle">Milk</text><rect x="140" y="138" width="100" height="34" fill="none" stroke="#333" stroke-width="1.2"/><text x="190" y="160" font-family="sans-serif" font-size="13" fill="#333" text-anchor="middle">8</text><rect x="240" y="138" width="100" height="34" fill="none" stroke="#333" stroke-width="1.2"/><text x="290" y="160" font-family="sans-serif" font-size="13" fill="#333" text-anchor="middle">3</text><rect x="340" y="138" width="100" height="34" fill="none" stroke="#333" stroke-width="1.2"/><text x="390" y="160" font-family="sans-serif" font-size="13" fill="#333" text-anchor="middle">4</text><rect x="40" y="172" width="100" height="34" fill="none" stroke="#333" stroke-width="1.2"/><text x="90" y="194" font-family="sans-serif" font-size="13" fill="#333" text-anchor="middle">Eggs</text><rect x="140" y="172" width="100" height="34" fill="none" stroke="#333" stroke-width="1.2"/><text x="190" y="194" font-family="sans-serif" font-size="13" fill="#333" text-anchor="middle">6</text><rect x="240" y="172" width="100" height="34" fill="none" stroke="#333" stroke-width="1.2"/><text x="290" y="194" font-family="sans-serif" font-size="13" fill="#333" text-anchor="middle">2</text><rect x="340" y="172" width="100" height="34" fill="none" stroke="#333" stroke-width="1.2"/><text x="390" y="194" font-family="sans-serif" font-size="13" fill="#333" text-anchor="middle">2</text></svg>