<svg xmlns="http://www.w3.org/2000/svg" viewBox="0 0 480 320"><rect width="480" height="320" fill="#ffffff"/><line x1="60" y1="280" x2="60" y2="40" stroke="#333" stroke-width="2"/><line x1="60" y1="280" x2="440" y2="280" stroke="#333" stroke-width="2"/><text x="440" y="298" font-family="sans-serif" font-size="12" fill="#555" text-anchor="end">Q</text><text x="24" y="160" font-family="sans-serif" font-size="13" fill="#555" text-anchor="middle" transform="rotate(-90 24 160)">P</text><polygon points="208.0,144.4 245.0,167.0 245.0,121.8" fill="#6b7280" opacity="0.25"/><line x1="67.4" y1="58.5" x2="418.9" y2="273.2" stroke="#1d4ed8" stroke-width="2.5"/><line x1="60.0" y1="280.0" x2="418.9" y2="60.8" stroke="#b91c1c" stroke-width="2.5"/><line x1="60.0" y1="234.8" x2="348.6" y2="58.5" stroke="#b91c1c" stroke-width="2.5" stroke-dasharray="7 5"/><circle cx="245.0" cy="167.0" r="4" fill="#333"/><circle cx="208.0" cy="144.4" r="4" fill="#333"/><line x1="60" y1="167.0" x2="245.0" y2="167.0" stroke="#999" stroke-width="1" stroke-dasharray="4 4"/><line x1="245.0" y1="167.0" x2="245.0" y2="280" stroke="#999" stroke-width="1" stroke-dasharray="4 4"/><line x1="60" y1="144.4" x2="208.0" y2="144.4" stroke="#999" stroke-width="1" stroke-dasharray="4 4"/><line x1="208.0" y1="144.4" x2="208.0" y2="280" stroke="#999" stroke-width="1" stroke-dasharray="4 4"/><text x="289.4" y="76.6" font-family="sans-serif" font-size="12" fill="#b91c1c" text-anchor="middle">MSC</text><text x="404.9" y="63.8" font-family="sans-serif" font-size="13" fill="#b91c1c" text-anchor="end">MPC</text><text x="81.4" y="61.5" font-family="sans-serif" font-size="13" fill="#1d4ed8" text-anchor="start">D=MSB</text><text x="208.0" y="296" font-family="sans-serif" font-size="11" fill="#333" text-anchor="middle">Qopt</text><text x="245.0" y="308" font-family="sans-serif" font-size="11" fill="#333" text-anchor="middle">Qmkt</text><line x1="337.5" y1="252.9" x2="237.6" y2="148.9" stroke="#999" stroke-width="1"/><text x="337.5" y="252.9" font-family="sans-serif" font-size="11" fill="#555" text-anchor="middle">DWL</text></svg>