<svg xmlns="http://www.w3.org/2000/svg" viewBox="0 0 480 320"><rect width="480" height="320" fill="#ffffff"/><line x1="60" y1="280" x2="60" y2="40" stroke="#333" stroke-width="2"/><line x1="60" y1="280" x2="440" y2="280" stroke="#333" stroke-width="2"/><text x="440" y="298" font-family="sans-serif" font-size="12" fill="#555" text-anchor="end">Quantity of $</text><text x="24" y="160" font-family="sans-serif" font-size="13" fill="#555" text-anchor="middle" transform="rotate(-90 24 160)">Exchange rate</text><line x1="67.4" y1="58.5" x2="418.9" y2="273.2" stroke="#1d4ed8" stroke-width="2.5"/><line x1="60.0" y1="280.0" x2="418.9" y2="60.8" stroke="#b91c1c" stroke-width="2.5"/><line x1="141.4" y1="58.5" x2="418.9" y2="228.0" stroke="#1d4ed8" stroke-width="2.5" stroke-dasharray="7 5"/><line x1="60" y1="167.0" x2="245.0" y2="167.0" stroke="#999" stroke-width="1" stroke-dasharray="4 4"/><line x1="245.0" y1="167.0" x2="245.0" y2="280" stroke="#999" stroke-width="1" stroke-dasharray="4 4"/><line x1="60" y1="144.4" x2="282.0" y2="144.4" stroke="#999" stroke-width="1" stroke-dasharray="4 4"/><line x1="282.0" y1="144.4" x2="282.0" y2="280" stroke="#999" stroke-width="1" stroke-dasharray="4 4"/><circle cx="245.0" cy="167.0" r="4" fill="#333"/><circle cx="282.0" cy="144.4" r="4" fill="#333"/><text x="81.4" y="61.5" font-family="sans-serif" font-size="13" fill="#1d4ed8" text-anchor="start">D$1</text><text x="155.4" y="61.5" font-family="sans-serif" font-size="13" fill="#1d4ed8" text-anchor="start">D$2</text><text x="404.9" y="63.8" font-family="sans-serif" font-size="13" fill="#b91c1c" text-anchor="end">S$</text><text x="52" y="171.0" font-family="sans-serif" font-size="11" fill="#333" text-anchor="end">e1</text><text x="52" y="148.4" font-family="sans-serif" font-size="11" fill="#333" text-anchor="end">e2</text><text x="245.0" y="296" font-family="sans-serif" font-size="11" fill="#333" text-anchor="middle">Q1</text><text x="282.0" y="296" font-family="sans-serif" font-size="11" fill="#333" text-anchor="middle">Q2</text><defs><marker id="ah295" markerWidth="8" markerHeight="8" refX="6" refY="3" orient="auto"><path d="M0,0 L6,3 L0,6 z" fill="#0f766e"/></marker></defs><line x1="178.4" y1="117.3" x2="230.2" y2="117.3" stroke="#0f766e" stroke-width="2" marker-end="url(#ah295)"/></svg>