<svg xmlns="http://www.w3.org/2000/svg" viewBox="0 0 480 320"><rect width="480" height="320" fill="#ffffff"/><text x="240" y="48" font-family="sans-serif" font-size="14" fill="#333" text-anchor="middle" font-weight="700">Consumption &amp; Saving</text><rect x="45" y="70" width="130" height="34" fill="#f1f5f9" stroke="#333" stroke-width="1.2"/><text x="110" y="92" font-family="sans-serif" font-size="13" fill="#333" text-anchor="middle" font-weight="700">Income</text><rect x="175" y="70" width="130" height="34" fill="#f1f5f9" stroke="#333" stroke-width="1.2"/><text x="240" y="92" font-family="sans-serif" font-size="13" fill="#333" text-anchor="middle" font-weight="700">Consumption</text><rect x="305" y="70" width="130" height="34" fill="#f1f5f9" stroke="#333" stroke-width="1.2"/><text x="370" y="92" font-family="sans-serif" font-size="13" fill="#333" text-anchor="middle" font-weight="700">Saving</text><rect x="45" y="104" width="130" height="34" fill="none" stroke="#333" stroke-width="1.2"/><text x="110" y="126" font-family="sans-serif" font-size="13" fill="#333" text-anchor="middle">0</text><rect x="175" y="104" width="130" height="34" fill="none" stroke="#333" stroke-width="1.2"/><text x="240" y="126" font-family="sans-serif" font-size="13" fill="#333" text-anchor="middle">20</text><rect x="305" y="104" width="130" height="34" fill="none" stroke="#333" stroke-width="1.2"/><text x="370" y="126" font-family="sans-serif" font-size="13" fill="#333" text-anchor="middle">-20</text><rect x="45" y="138" width="130" height="34" fill="none" stroke="#333" stroke-width="1.2"/><text x="110" y="160" font-family="sans-serif" font-size="13" fill="#333" text-anchor="middle">100</text><rect x="175" y="138" width="130" height="34" fill="none" stroke="#333" stroke-width="1.2"/><text x="240" y="160" font-family="sans-serif" font-size="13" fill="#333" text-anchor="middle">100</text><rect x="305" y="138" width="130" height="34" fill="none" stroke="#333" stroke-width="1.2"/><text x="370" y="160" font-family="sans-serif" font-size="13" fill="#333" text-anchor="middle">0</text><rect x="45" y="172" width="130" height="34" fill="none" stroke="#333" stroke-width="1.2"/><text x="110" y="194" font-family="sans-serif" font-size="13" fill="#333" text-anchor="middle">200</text><rect x="175" y="172" width="130" height="34" fill="none" stroke="#333" stroke-width="1.2"/><text x="240" y="194" font-family="sans-serif" font-size="13" fill="#333" text-anchor="middle">180</text><rect x="305" y="172" width="130" height="34" fill="none" stroke="#333" stroke-width="1.2"/><text x="370" y="194" font-family="sans-serif" font-size="13" fill="#333" text-anchor="middle">20</text><rect x="45" y="206" width="130" height="34" fill="none" stroke="#333" stroke-width="1.2"/><text x="110" y="228" font-family="sans-serif" font-size="13" fill="#333" text-anchor="middle">300</text><rect x="175" y="206" width="130" height="34" fill="none" stroke="#333" stroke-width="1.2"/><text x="240" y="228" font-family="sans-serif" font-size="13" fill="#333" text-anchor="middle">260</text><rect x="305" y="206" width="130" height="34" fill="none" stroke="#333" stroke-width="1.2"/><text x="370" y="228" font-family="sans-serif" font-size="13" fill="#333" text-anchor="middle">40</text></svg>