<svg xmlns="http://www.w3.org/2000/svg" viewBox="0 0 480 320"><rect width="480" height="320" fill="#ffffff"/><text x="240" y="48" font-family="sans-serif" font-size="14" fill="#333" text-anchor="middle" font-weight="700">Nominal vs Real GDP</text><rect x="40" y="70" width="100" height="34" fill="#f1f5f9" stroke="#333" stroke-width="1.2"/><text x="90" y="92" font-family="sans-serif" font-size="13" fill="#333" text-anchor="middle" font-weight="700">Year</text><rect x="140" y="70" width="100" height="34" fill="#f1f5f9" stroke="#333" stroke-width="1.2"/><text x="190" y="92" font-family="sans-serif" font-size="13" fill="#333" text-anchor="middle" font-weight="700">Nominal GDP</text><rect x="240" y="70" width="100" height="34" fill="#f1f5f9" stroke="#333" stroke-width="1.2"/><text x="290" y="92" font-family="sans-serif" font-size="13" fill="#333" text-anchor="middle" font-weight="700">Price Index</text><rect x="340" y="70" width="100" height="34" fill="#f1f5f9" stroke="#333" stroke-width="1.2"/><text x="390" y="92" font-family="sans-serif" font-size="13" fill="#333" text-anchor="middle" font-weight="700">Real GDP</text><rect x="40" y="104" width="100" height="34" fill="none" stroke="#333" stroke-width="1.2"/><text x="90" y="126" font-family="sans-serif" font-size="13" fill="#333" text-anchor="middle">1 (base)</text><rect x="140" y="104" width="100" height="34" fill="none" stroke="#333" stroke-width="1.2"/><text x="190" y="126" font-family="sans-serif" font-size="13" fill="#333" text-anchor="middle">500</text><rect x="240" y="104" width="100" height="34" fill="none" stroke="#333" stroke-width="1.2"/><text x="290" y="126" font-family="sans-serif" font-size="13" fill="#333" text-anchor="middle">100</text><rect x="340" y="104" width="100" height="34" fill="none" stroke="#333" stroke-width="1.2"/><text x="390" y="126" font-family="sans-serif" font-size="13" fill="#333" text-anchor="middle">500</text><rect x="40" y="138" width="100" height="34" fill="none" stroke="#333" stroke-width="1.2"/><text x="90" y="160" font-family="sans-serif" font-size="13" fill="#333" text-anchor="middle">2</text><rect x="140" y="138" width="100" height="34" fill="none" stroke="#333" stroke-width="1.2"/><text x="190" y="160" font-family="sans-serif" font-size="13" fill="#333" text-anchor="middle">560</text><rect x="240" y="138" width="100" height="34" fill="none" stroke="#333" stroke-width="1.2"/><text x="290" y="160" font-family="sans-serif" font-size="13" fill="#333" text-anchor="middle">112</text><rect x="340" y="138" width="100" height="34" fill="none" stroke="#333" stroke-width="1.2"/><rect x="375" y="145" width="60" height="20" fill="none" stroke="#94a3b8" stroke-dasharray="5 4"/><rect x="40" y="172" width="100" height="34" fill="none" stroke="#333" stroke-width="1.2"/><text x="90" y="194" font-family="sans-serif" font-size="13" fill="#333" text-anchor="middle">3</text><rect x="140" y="172" width="100" height="34" fill="none" stroke="#333" stroke-width="1.2"/><text x="190" y="194" font-family="sans-serif" font-size="13" fill="#333" text-anchor="middle">648</text><rect x="240" y="172" width="100" height="34" fill="none" stroke="#333" stroke-width="1.2"/><text x="290" y="194" font-family="sans-serif" font-size="13" fill="#333" text-anchor="middle">120</text><rect x="340" y="172" width="100" height="34" fill="none" stroke="#333" stroke-width="1.2"/><rect x="375" y="179" width="60" height="20" fill="none" stroke="#94a3b8" stroke-dasharray="5 4"/></svg>