<svg xmlns="http://www.w3.org/2000/svg" viewBox="0 0 480 320">
  <rect width="480" height="320" fill="#ffffff"/>
  <line x1="50" y1="280" x2="440" y2="280" stroke="#333333" stroke-width="2"/>
  <polygon points="440,276 448,280 440,284" fill="#333333"/>
  <line x1="50" y1="280" x2="50" y2="30" stroke="#333333" stroke-width="2"/>
  <polygon points="46,30 50,22 54,30" fill="#333333"/>
  <path d="M 50,208 L 110,208 C 170,208 190,112 240,112 C 290,112 310,249.6 370,249.6 L 430,249.6" 
        fill="none" stroke="#2563eb" stroke-width="2.5"/>
  <text x="72" y="198" font-family="sans-serif" font-size="14" font-weight="bold" fill="#333333" text-anchor="middle">A + B</text>
  <text x="408" y="240" font-family="sans-serif" font-size="14" font-weight="bold" fill="#333333" text-anchor="middle">C + D</text>
  <text x="240" y="38.4" font-family="sans-serif" font-size="15" font-weight="bold" fill="#7c3aed" text-anchor="middle">[A···B]‡</text>
  <line x1="240" y1="48" x2="240" y2="100" stroke="#7c3aed" stroke-width="1.5" stroke-dasharray="3,3"/>
  <circle cx="240" cy="112" r="5" fill="#ef4444"/>
<line x1="200" y1="118" x2="200" y2="202" stroke="#dc2626" stroke-width="2"/><polygon points="200,112 195,122 205,122" fill="#dc2626"/><polygon points="200,208 195,198 205,198" fill="#dc2626"/><line x1="200" y1="112" x2="240" y2="112" stroke="#dc2626" stroke-width="1" stroke-dasharray="3,3"/><line x1="110" y1="208" x2="200" y2="208" stroke="#dc2626" stroke-width="1" stroke-dasharray="3,3"/></svg>