<svg xmlns="http://www.w3.org/2000/svg" viewBox="0 0 480 320">
  <rect width="480" height="320" fill="#ffffff"/>
  <line x1="240" y1="20" x2="240" y2="300" stroke="#e2e8f0" stroke-width="2" stroke-dasharray="4,4"/>
  <rect x="20" y="20" width="200" height="280" fill="#fffdfa" stroke="#cbd5e1" stroke-width="1.5" rx="6"/>
  <line x1="40" y1="270" x2="200" y2="270" stroke="#333333" stroke-width="1.5"/>
  <line x1="40" y1="270" x2="40" y2="50" stroke="#333333" stroke-width="1.5"/>
  <path d="M 40,140 L 70,140 C 90,140 100,90 120,90 C 140,90 150,230 170,230 L 190,230" 
        fill="none" stroke="#d97706" stroke-width="2.5"/>
  <text x="55" y="132" font-family="sans-serif" font-size="11" font-weight="bold" fill="#333333">A</text>
  <text x="180" y="222" font-family="sans-serif" font-size="11" font-weight="bold" fill="#333333">B</text>
  <line x1="70" y1="140" x2="150" y2="140" stroke="#cbd5e1" stroke-width="1" stroke-dasharray="2,2"/>
  <line x1="150" y1="230" x2="170" y2="230" stroke="#cbd5e1" stroke-width="1" stroke-dasharray="2,2"/>
  <line x1="120" y1="140" x2="120" y2="230" stroke="#dc2626" stroke-width="2"/>
  <polygon points="116,222 120,230 124,222" fill="#dc2626"/>
  <rect x="260" y="20" width="200" height="280" fill="#faf5ff" stroke="#cbd5e1" stroke-width="1.5" rx="6"/>
  <line x1="280" y1="270" x2="440" y2="270" stroke="#333333" stroke-width="1.5"/>
  <line x1="280" y1="270" x2="280" y2="50" stroke="#333333" stroke-width="1.5"/>
  <path d="M 280,230 L 310,230 C 330,230 340,90 360,90 C 380,90 390,140 410,140 L 430,140" 
        fill="none" stroke="#7c3aed" stroke-width="2.5"/>
  <text x="295" y="222" font-family="sans-serif" font-size="11" font-weight="bold" fill="#333333">C</text>
  <text x="420" y="132" font-family="sans-serif" font-size="11" font-weight="bold" fill="#333333">D</text>
  <line x1="310" y1="230" x2="390" y2="230" stroke="#cbd5e1" stroke-width="1" stroke-dasharray="2,2"/>
  <line x1="390" y1="140" x2="410" y2="140" stroke="#cbd5e1" stroke-width="1" stroke-dasharray="2,2"/>
  <line x1="360" y1="230" x2="360" y2="140" stroke="#2563eb" stroke-width="2"/>
  <polygon points="356,148 360,140 364,148" fill="#2563eb"/>
</svg>