<svg xmlns="http://www.w3.org/2000/svg" viewBox="0 0 480 320">
  <rect width="480" height="320" fill="#ffffff"/>
  <line x1="50" y1="280" x2="440" y2="280" stroke="#333333" stroke-width="2"/>
  <polygon points="440,276 448,280 440,284" fill="#333333"/>
  <line x1="50" y1="280" x2="50" y2="30" stroke="#333333" stroke-width="2"/>
  <polygon points="46,30 50,22 54,30" fill="#333333"/>
  <path d="M 50,217.6 L 100,217.6 C 160,217.6 190,70 240,70 C 290,70 320,260 380,260 L 430,260" 
        fill="none" stroke="#2563eb" stroke-width="2.5"/>
  <text x="57.6" y="206" font-family="sans-serif" font-size="13" font-weight="bold" fill="#333333" text-anchor="middle">A + B</text>
  <text x="405" y="250" font-family="sans-serif" font-size="13" font-weight="bold" fill="#333333" text-anchor="middle">C + D</text>
  <text x="240" y="38.4" font-family="sans-serif" font-size="15" font-weight="bold" fill="#7c3aed" text-anchor="middle">[A···B]‡</text>
  <line x1="130" y1="70" x2="350" y2="70" stroke="#94a3b8" stroke-width="1.5" stroke-dasharray="3,3"/>
  <line x1="100" y1="217.6" x2="160" y2="217.6" stroke="#94a3b8" stroke-width="1.5" stroke-dasharray="3,3"/>
  <line x1="320" y1="260" x2="350" y2="260" stroke="#94a3b8" stroke-width="1.5" stroke-dasharray="3,3"/>
  <line x1="144" y1="217.6" x2="144" y2="70" stroke="#dc2626" stroke-width="2"/>
  <polygon points="141,78 144,70 147,78" fill="#dc2626"/>
  <polygon points="141,209.6 144,217.6 147,209.6" fill="#dc2626"/>
  <line x1="336" y1="260" x2="336" y2="70" stroke="#059669" stroke-width="2"/>
  <polygon points="333,78 336,70 339,78" fill="#059669"/>
  <polygon points="333,252 336,260 339,252" fill="#059669"/>
<line x1="430" y1="223" x2="430" y2="254" stroke="#0f766e" stroke-width="2"/><polygon points="430,217.6 425,227 435,227" fill="#0f766e"/><polygon points="430,260 425,250.6 435,250.6" fill="#0f766e"/><line x1="100" y1="217.6" x2="430" y2="217.6" stroke="#0f766e" stroke-width="1" stroke-dasharray="3,3"/><line x1="380" y1="260" x2="430" y2="260" stroke="#0f766e" stroke-width="1" stroke-dasharray="3,3"/><line x1="290" y1="260" x2="290" y2="70" stroke="#f59e0b" stroke-width="2"/>
<polygon points="287,78 290,70 293,78" fill="#f59e0b"/>
<polygon points="287,252 290,260 293,252" fill="#f59e0b"/>
</svg>