<svg xmlns="http://www.w3.org/2000/svg" viewBox="0 0 480 320">
  <rect x="0" y="0" width="480" height="320" fill="#FFFFFF"/>

  <g font-family="Helvetica, Arial, sans-serif" fill="#1A1A1A">
    <text x="240" y="22" font-size="13" text-anchor="middle">Mg(s) + 2HCl(aq) → MgCl₂(aq) + H₂(g)</text>
    <text x="240" y="38" font-size="11" text-anchor="middle">Each flask holds 15 mmol Mg; the HCl added increases flask to flask</text>
  </g>

  <rect x="70" y="50" width="222" height="220" fill="#EAF2FB"/>
  <rect x="292" y="50" width="148" height="220" fill="#FDF0E1"/>

  <line x1="70" y1="120" x2="292" y2="120" stroke="#7A7A7A" stroke-width="1.4" stroke-dasharray="5 4"/>
  <line x1="292" y1="120" x2="292" y2="270" stroke="#7A7A7A" stroke-width="1.4" stroke-dasharray="2 4"/>

  <polyline points="70,44 70,270 452,270" fill="none" stroke="#333333" stroke-width="1.6"/>
  <polygon points="70,36 65.5,47 74.5,47" fill="#333333"/>
  <polygon points="460,270 449,265.5 449,274.5" fill="#333333"/>

  <g stroke="#333333" stroke-width="1.2">
    <line x1="70" y1="270" x2="70" y2="275"/>
    <line x1="144" y1="270" x2="144" y2="275"/>
    <line x1="218" y1="270" x2="218" y2="275"/>
    <line x1="292" y1="270" x2="292" y2="275"/>
    <line x1="366" y1="270" x2="366" y2="275"/>
    <line x1="440" y1="270" x2="440" y2="275"/>
    <line x1="65" y1="270" x2="70" y2="270"/>
    <line x1="65" y1="220" x2="70" y2="220"/>
    <line x1="65" y1="170" x2="70" y2="170"/>
  </g>
  <line x1="58" y1="120" x2="70" y2="120" stroke="#333333" stroke-width="2.6"/>

  <polyline points="70,270 292,120 440,120" fill="none" stroke="#1F5FA8" stroke-width="3" stroke-linejoin="round" stroke-linecap="round"/>
  <g fill="#1F5FA8">
    <circle cx="70" cy="270" r="3"/>
    <circle cx="144" cy="220" r="3"/>
    <circle cx="218" cy="170" r="3"/>
    <circle cx="292" cy="120" r="3"/>
    <circle cx="366" cy="120" r="3"/>
    <circle cx="440" cy="120" r="3"/>
  </g>

  <g font-family="Helvetica, Arial, sans-serif" font-size="11" fill="#1A1A1A" text-anchor="middle">
    <text x="70" y="288">0</text>
    <text x="144" y="288">10</text>
    <text x="218" y="288">20</text>
    <text x="292" y="288">30</text>
    <text x="366" y="288">40</text>
    <text x="440" y="288">50</text>
  </g>

  <g font-family="Helvetica, Arial, sans-serif" font-size="11" fill="#1A1A1A" text-anchor="end">
    <text x="53" y="274">0</text>
    <text x="53" y="224">5</text>
    <text x="53" y="174">10</text>
    <text x="53" y="124">15</text>
  </g>

  <g font-family="Helvetica, Arial, sans-serif" font-size="12" fill="#1A1A1A" text-anchor="middle">
    <text x="255" y="308">Amount of HCl added (mmol)</text>
    
  </g>
</svg>
