<svg xmlns="http://www.w3.org/2000/svg" viewBox="0 0 480 320">
  <rect x="0" y="0" width="480" height="320" fill="#ffffff"/>

  <g>
    <polygon points="70,250 255,92 255,250" fill="#fdefe0"/>
    <rect x="255" y="92" width="185" height="158" fill="#e9f2fb"/>
  </g>

  <g stroke="#1b3a5c" stroke-width="2" fill="none">
    <line x1="70" y1="52" x2="70" y2="250"/>
    <line x1="70" y1="250" x2="440" y2="250"/>
  </g>

  <g stroke="#1b3a5c" stroke-width="1.5">
    <line x1="70" y1="250" x2="70" y2="256"/>
    <line x1="162.5" y1="250" x2="162.5" y2="256"/>
    <line x1="255" y1="250" x2="255" y2="256"/>
    <line x1="347.5" y1="250" x2="347.5" y2="256"/>
    <line x1="440" y1="250" x2="440" y2="256"/>
    <line x1="64" y1="250" x2="70" y2="250"/>
    <line x1="64" y1="187" x2="70" y2="187"/>
    <line x1="64" y1="123" x2="70" y2="123"/>
    <line x1="64" y1="60" x2="70" y2="60"/>
  </g>

  <g stroke="#8a8f96" stroke-width="1.4" stroke-dasharray="5 4" fill="none">
    <line x1="255" y1="92" x2="255" y2="250"/>
    <line x1="82" y1="92" x2="255" y2="92"/>
  </g>
  <polygon points="70,92 82,86 82,98" fill="#8a8f96"/>
  <line x1="64" y1="92" x2="76" y2="92" stroke="#1b3a5c" stroke-width="3"/>

  <polyline points="70,250 255,92 440,92" fill="none" stroke="#1f5fa8" stroke-width="3" stroke-linejoin="round" stroke-linecap="round"/>

  <g font-family="Helvetica, Arial, sans-serif" fill="#1b3a5c">
    <text x="270" y="26" font-size="15" text-anchor="middle">A + 2 B &#8594; C   (A fixed at 1.00 mol)</text>
    <text x="40" y="46" font-size="14" text-anchor="start">mol C</text>
    

    <text x="70" y="274" font-size="14" text-anchor="middle">0</text>
    <text x="162.5" y="274" font-size="14" text-anchor="middle">1</text>
    <text x="255" y="274" font-size="14" text-anchor="middle">2</text>
    <text x="347.5" y="274" font-size="14" text-anchor="middle">3</text>
    <text x="440" y="274" font-size="14" text-anchor="middle">4</text>

    <text x="58" y="255" font-size="14" text-anchor="end">0</text>
    <text x="58" y="192" font-size="14" text-anchor="end">0.4</text>
    <text x="58" y="128" font-size="14" text-anchor="end">0.8</text>
    <text x="58" y="65" font-size="14" text-anchor="end">1.2</text>
  </g>
</svg>
