<svg xmlns="http://www.w3.org/2000/svg" viewBox="0 0 480 320">
  <rect x="0" y="0" width="480" height="320" fill="#ffffff"/>

  <g stroke="#1f2937" stroke-width="2.5" stroke-linecap="square">
    <line x1="70" y1="250" x2="450" y2="250"/>
    <line x1="70" y1="250" x2="70" y2="48"/>
  </g>
  <polygon points="450,243 464,250 450,257" fill="#1f2937"/>
  <polygon points="63,48 70,34 77,48" fill="#1f2937"/>

  <g stroke="#1f2937" stroke-width="1.5" stroke-linecap="butt">
    <line x1="70" y1="250" x2="70" y2="256"/>
    <line x1="162.5" y1="250" x2="162.5" y2="256"/>
    <line x1="255" y1="250" x2="255" y2="256"/>
    <line x1="347.5" y1="250" x2="347.5" y2="256"/>
    <line x1="440" y1="250" x2="440" y2="256"/>
    <line x1="64" y1="250" x2="70" y2="250"/>
    <line x1="64" y1="155" x2="70" y2="155"/>
    <line x1="64" y1="60" x2="70" y2="60"/>
  </g>

  <g font-family="Helvetica, Arial, sans-serif" font-size="16" fill="#1f2937" text-anchor="middle">
    <text x="70" y="276">10</text>
    <text x="162.5" y="276">20</text>
    <text x="255" y="276">30</text>
    <text x="347.5" y="276">40</text>
    <text x="440" y="276">50</text>
  </g>
  <g font-family="Helvetica, Arial, sans-serif" font-size="16" fill="#1f2937" text-anchor="end">
    <text x="54" y="256">0</text>
    <text x="54" y="161">50</text>
    <text x="54" y="66">100</text>
  </g>

  <g fill="#334155">
    <rect x="106.25" y="204.4" width="20" height="45.6"/>
    <rect x="208" y="139.8" width="20" height="110.2"/>
    <rect x="254.25" y="60" width="20" height="190"/>
    <rect x="365.25" y="172.1" width="20" height="77.9"/>
    <rect x="393" y="215.8" width="20" height="34.2"/>
  </g>
</svg>
