<svg xmlns="http://www.w3.org/2000/svg" viewBox="0 0 480 320">
  <rect x="0" y="0" width="480" height="320" fill="#ffffff"/>

  <g stroke="#b9c2cc" stroke-width="1.5" stroke-dasharray="6 6">
    <line x1="64" y1="60" x2="244" y2="60"/>
  </g>

  <g stroke="#1f2a37" stroke-width="2.5" stroke-linecap="square">
    <line x1="64" y1="48" x2="64" y2="252"/>
    <line x1="64" y1="252" x2="452" y2="252"/>
  </g>

  <g stroke="#1f2a37" stroke-width="2" stroke-linecap="butt">
    <line x1="58" y1="252" x2="64" y2="252"/>
    <line x1="58" y1="156" x2="64" y2="156"/>
    <line x1="58" y1="60" x2="64" y2="60"/>
    <line x1="192" y1="252" x2="192" y2="258"/>
    <line x1="256" y1="252" x2="256" y2="258"/>
    <line x1="320" y1="252" x2="320" y2="258"/>
    <line x1="384" y1="252" x2="384" y2="258"/>
  </g>

  <g fill="#2f6f4e">
    <rect x="155" y="217" width="10" height="35"/>
    <rect x="232" y="229" width="10" height="23"/>
    <rect x="245" y="175" width="10" height="77"/>
    <rect x="257" y="60" width="10" height="192"/>
    <rect x="334" y="237" width="10" height="15"/>
    <rect x="347" y="204" width="10" height="48"/>
    <rect x="353" y="152" width="10" height="100"/>
    <rect x="360" y="246" width="10" height="6"/>
  </g>

  <g fill="#1f2a37" font-family="Helvetica, Arial, sans-serif" font-size="16" text-anchor="middle">
    <text x="192" y="274">20</text>
    <text x="256" y="274">30</text>
    <text x="320" y="274">40</text>
    <text x="384" y="274">50</text>
  </g>
  <g fill="#1f2a37" font-family="Helvetica, Arial, sans-serif" font-size="16" text-anchor="end">
    <text x="54" y="258">0</text>
    <text x="54" y="162">50</text>
    <text x="54" y="66">100</text>
  </g>
</svg>
