<svg xmlns="http://www.w3.org/2000/svg" viewBox="0 0 480 320">
  <rect x="0" y="0" width="480" height="320" fill="#ffffff"/>
  <rect x="14" y="62" width="100" height="238" rx="8" fill="#ffffff" stroke="#333333" stroke-width="1.5"/>
  <rect x="131" y="62" width="100" height="238" rx="8" fill="#ffffff" stroke="#333333" stroke-width="1.5"/>
  <rect x="248" y="62" width="100" height="238" rx="8" fill="#ffffff" stroke="#333333" stroke-width="1.5"/>
  <rect x="365" y="62" width="100" height="238" rx="8" fill="#ffffff" stroke="#333333" stroke-width="1.5"/>
  <g>
  <line x1="38.95" y1="147.43" x2="53.05" y2="152.57" stroke="#3d3d3d" stroke-width="3.2" stroke-linecap="round"/>
  <circle cx="38.95" cy="147.43" r="8" fill="#2f6fb5" stroke="#1c4877" stroke-width="1.2"/>
  <circle cx="53.05" cy="152.57" r="8" fill="#2f6fb5" stroke="#1c4877" stroke-width="1.2"/>
  <line x1="75.86" y1="156.3" x2="88.14" y2="147.7" stroke="#3d3d3d" stroke-width="3.2" stroke-linecap="round"/>
  <circle cx="75.86" cy="156.3" r="8" fill="#2f6fb5" stroke="#1c4877" stroke-width="1.2"/>
  <circle cx="88.14" cy="147.7" r="8" fill="#2f6fb5" stroke="#1c4877" stroke-width="1.2"/>
  <line x1="43.43" y1="192.95" x2="48.57" y2="207.05" stroke="#3d3d3d" stroke-width="3.2" stroke-linecap="round"/>
  <circle cx="43.43" cy="192.95" r="8" fill="#2f6fb5" stroke="#1c4877" stroke-width="1.2"/>
  <circle cx="48.57" cy="207.05" r="8" fill="#2f6fb5" stroke="#1c4877" stroke-width="1.2"/>
  <line x1="84.57" y1="194.95" x2="79.43" y2="209.05" stroke="#3d3d3d" stroke-width="3.2" stroke-linecap="round"/>
  <circle cx="84.57" cy="194.95" r="8" fill="#2f6fb5" stroke="#1c4877" stroke-width="1.2"/>
  <circle cx="79.43" cy="209.05" r="8" fill="#2f6fb5" stroke="#1c4877" stroke-width="1.2"/>
  <line x1="38.76" y1="251.94" x2="53.24" y2="248.06" stroke="#3d3d3d" stroke-width="3.2" stroke-linecap="round"/>
  <circle cx="38.76" cy="251.94" r="8" fill="#2f6fb5" stroke="#1c4877" stroke-width="1.2"/>
  <circle cx="53.24" cy="248.06" r="8" fill="#2f6fb5" stroke="#1c4877" stroke-width="1.2"/>
  <line x1="77.7" y1="245.86" x2="86.3" y2="258.14" stroke="#3d3d3d" stroke-width="3.2" stroke-linecap="round"/>
  <circle cx="77.7" cy="245.86" r="8" fill="#2f6fb5" stroke="#1c4877" stroke-width="1.2"/>
  <circle cx="86.3" cy="258.14" r="8" fill="#2f6fb5" stroke="#1c4877" stroke-width="1.2"/>
  </g>
  <g>
  <line x1="161" y1="152" x2="171.83" y2="158.25" stroke="#3d3d3d" stroke-width="3.2" stroke-linecap="round"/>
  <circle cx="161" cy="152" r="8" fill="#2f6fb5" stroke="#1c4877" stroke-width="1.2"/>
  <circle cx="171.83" cy="158.25" r="5.5" fill="#e0a020" stroke="#9a6c07" stroke-width="1.2"/>
  <line x1="201" y1="154" x2="190.17" y2="160.25" stroke="#3d3d3d" stroke-width="3.2" stroke-linecap="round"/>
  <circle cx="201" cy="154" r="8" fill="#2f6fb5" stroke="#1c4877" stroke-width="1.2"/>
  <circle cx="190.17" cy="160.25" r="5.5" fill="#e0a020" stroke="#9a6c07" stroke-width="1.2"/>
  <line x1="161" y1="202" x2="167.25" y2="191.17" stroke="#3d3d3d" stroke-width="3.2" stroke-linecap="round"/>
  <circle cx="161" cy="202" r="8" fill="#2f6fb5" stroke="#1c4877" stroke-width="1.2"/>
  <circle cx="167.25" cy="191.17" r="5.5" fill="#e0a020" stroke="#9a6c07" stroke-width="1.2"/>
  <line x1="201" y1="204" x2="198.83" y2="216.31" stroke="#3d3d3d" stroke-width="3.2" stroke-linecap="round"/>
  <circle cx="201" cy="204" r="8" fill="#2f6fb5" stroke="#1c4877" stroke-width="1.2"/>
  <circle cx="198.83" cy="216.31" r="5.5" fill="#e0a020" stroke="#9a6c07" stroke-width="1.2"/>
  <line x1="161" y1="252" x2="172.75" y2="247.72" stroke="#3d3d3d" stroke-width="3.2" stroke-linecap="round"/>
  <circle cx="161" cy="252" r="8" fill="#2f6fb5" stroke="#1c4877" stroke-width="1.2"/>
  <circle cx="172.75" cy="247.72" r="5.5" fill="#e0a020" stroke="#9a6c07" stroke-width="1.2"/>
  <line x1="201" y1="254" x2="189.25" y2="249.72" stroke="#3d3d3d" stroke-width="3.2" stroke-linecap="round"/>
  <circle cx="201" cy="254" r="8" fill="#2f6fb5" stroke="#1c4877" stroke-width="1.2"/>
  <circle cx="189.25" cy="249.72" r="5.5" fill="#e0a020" stroke="#9a6c07" stroke-width="1.2"/>
  </g>
  <g>
  <line x1="270.2" y1="144.83" x2="283.8" y2="151.17" stroke="#3d3d3d" stroke-width="3.2" stroke-linecap="round"/>
  <circle cx="270.2" cy="144.83" r="8" fill="#2f6fb5" stroke="#1c4877" stroke-width="1.2"/>
  <circle cx="283.8" cy="151.17" r="8" fill="#2f6fb5" stroke="#1c4877" stroke-width="1.2"/>
  <line x1="313.25" y1="197.82" x2="324.75" y2="188.18" stroke="#3d3d3d" stroke-width="3.2" stroke-linecap="round"/>
  <circle cx="313.25" cy="197.82" r="8" fill="#2f6fb5" stroke="#1c4877" stroke-width="1.2"/>
  <circle cx="324.75" cy="188.18" r="8" fill="#2f6fb5" stroke="#1c4877" stroke-width="1.2"/>
  <line x1="272.43" y1="228.95" x2="277.57" y2="243.05" stroke="#3d3d3d" stroke-width="3.2" stroke-linecap="round"/>
  <circle cx="272.43" cy="228.95" r="8" fill="#2f6fb5" stroke="#1c4877" stroke-width="1.2"/>
  <circle cx="277.57" cy="243.05" r="8" fill="#2f6fb5" stroke="#1c4877" stroke-width="1.2"/>
  <line x1="309.61" y1="273.7" x2="324.39" y2="276.3" stroke="#3d3d3d" stroke-width="3.2" stroke-linecap="round"/>
  <circle cx="309.61" cy="273.7" r="8" fill="#2f6fb5" stroke="#1c4877" stroke-width="1.2"/>
  <circle cx="324.39" cy="276.3" r="8" fill="#2f6fb5" stroke="#1c4877" stroke-width="1.2"/>
  <circle cx="316" cy="141" r="6" fill="#e0a020" stroke="#9a6c07" stroke-width="1.2"/>
  <circle cx="272" cy="190" r="6" fill="#e0a020" stroke="#9a6c07" stroke-width="1.2"/>
  <circle cx="296" cy="214" r="6" fill="#e0a020" stroke="#9a6c07" stroke-width="1.2"/>
  <circle cx="312" cy="240" r="6" fill="#e0a020" stroke="#9a6c07" stroke-width="1.2"/>
  <circle cx="271" cy="281" r="6" fill="#e0a020" stroke="#9a6c07" stroke-width="1.2"/>
  </g>
  <g>
  <line x1="385.95" y1="142.43" x2="400.05" y2="147.57" stroke="#3d3d3d" stroke-width="3.2" stroke-linecap="round"/>
  <circle cx="385.95" cy="142.43" r="8" fill="#2f6fb5" stroke="#1c4877" stroke-width="1.2"/>
  <circle cx="400.05" cy="147.57" r="8" fill="#2f6fb5" stroke="#1c4877" stroke-width="1.2"/>
  <line x1="431.18" y1="157.75" x2="440.82" y2="146.25" stroke="#3d3d3d" stroke-width="3.2" stroke-linecap="round"/>
  <circle cx="431.18" cy="157.75" r="8" fill="#2f6fb5" stroke="#1c4877" stroke-width="1.2"/>
  <circle cx="440.82" cy="146.25" r="8" fill="#2f6fb5" stroke="#1c4877" stroke-width="1.2"/>
  <line x1="390.06" y1="181.76" x2="393.94" y2="196.24" stroke="#3d3d3d" stroke-width="3.2" stroke-linecap="round"/>
  <circle cx="390.06" cy="181.76" r="8" fill="#2f6fb5" stroke="#1c4877" stroke-width="1.2"/>
  <circle cx="393.94" cy="196.24" r="8" fill="#2f6fb5" stroke="#1c4877" stroke-width="1.2"/>
  <line x1="427.53" y1="192.35" x2="442.47" y2="193.65" stroke="#3d3d3d" stroke-width="3.2" stroke-linecap="round"/>
  <circle cx="427.53" cy="192.35" r="8" fill="#2f6fb5" stroke="#1c4877" stroke-width="1.2"/>
  <circle cx="442.47" cy="193.65" r="8" fill="#2f6fb5" stroke="#1c4877" stroke-width="1.2"/>
  <circle cx="403" cy="282" r="6" fill="#e0a020" stroke="#9a6c07" stroke-width="1.2"/>
  <circle cx="415" cy="282" r="6" fill="#e0a020" stroke="#9a6c07" stroke-width="1.2"/>
  <circle cx="427" cy="282" r="6" fill="#e0a020" stroke="#9a6c07" stroke-width="1.2"/>
  <circle cx="409" cy="271.6" r="6" fill="#e0a020" stroke="#9a6c07" stroke-width="1.2"/>
  <circle cx="421" cy="271.6" r="6" fill="#e0a020" stroke="#9a6c07" stroke-width="1.2"/>
  </g>
</svg>
