<svg xmlns="http://www.w3.org/2000/svg" viewBox="0 0 480 320">
  <rect x="0" y="0" width="480" height="320" fill="#ffffff"/>

  <!-- Conical Flask - Scaled up -->
  <g fill="#bfe0f2" stroke="none">
    <polygon points="170,230 290,230 350,302 110,302"/>
  </g>
  <line x1="170" y1="230" x2="290" y2="230" stroke="#6aa9c9" stroke-width="2"/>

  <path d="M 210 160 L 210 182 L 105 300 Q 100 306 106 306 L 354 306 Q 360 306 355 300 L 250 182 L 250 160"
        fill="none" stroke="#2b3a4a" stroke-width="2.5" stroke-linejoin="round" stroke-linecap="round"/>

  <!-- Funnel - Scaled down and moved down -->
  <ellipse cx="230" cy="200" rx="3.5" ry="5" fill="#bfe0f2" stroke="#6aa9c9" stroke-width="1"/>
  <ellipse cx="230" cy="212" rx="3.5" ry="5" fill="#bfe0f2" stroke="#6aa9c9" stroke-width="1"/>

  <polygon points="166,60 294,60 230,136" fill="#e8e6e0" stroke="#9aa0a6" stroke-width="1.4" stroke-linejoin="round"/>
  <ellipse cx="230" cy="60" rx="64" ry="7.2" fill="#e8e6e0" stroke="#9aa0a6" stroke-width="1.4"/>

  <line x1="230" y1="65" x2="230" y2="105" stroke="#9aa0a6" stroke-width="1"/>

  <g fill="none" stroke="#2b3a4a" stroke-linecap="round">
    <ellipse cx="230" cy="42" rx="96" ry="10.4" stroke-width="2.5"/>
    <line x1="134" y1="42" x2="223.6" y2="150" stroke-width="2.5"/>
    <line x1="326" y1="42" x2="236.4" y2="150" stroke-width="2.5"/>
    <line x1="136.4" y1="42" x2="226" y2="150" stroke-width="1.2"/>
    <line x1="323.6" y1="42" x2="234" y2="150" stroke-width="1.2"/>
    <line x1="223.6" y1="150" x2="223.6" y2="185" stroke-width="2.5"/>
    <line x1="236.4" y1="150" x2="236.4" y2="185" stroke-width="2.5"/>
  </g>

  <!-- Residue inside filter -->
  <polygon points="197.2,98 262.8,98 249.2,114 210.8,114" fill="#bfe0f2" stroke="none"/>
  <line x1="197.2" y1="98" x2="262.8" y2="98" stroke="#6aa9c9" stroke-width="2"/>

  <path d="M 206.8 110.8 Q 214.8 103.6 222.8 109.2 Q 230 102.8 237.2 109.2 Q 245.2 103.6 253.2 110.8 L 230 138 Z"
        fill="#8d7355" stroke="#6f5940" stroke-width="1" stroke-linejoin="round"/>

  <g fill="#6f5940" stroke="none">
    <circle cx="212.4" cy="115.6" r="2"/>
    <circle cx="218" cy="113.2" r="1.6"/>
    <circle cx="210.8" cy="114.8" r="1.6"/>
    <circle cx="215.6" cy="120.4" r="1.6"/>
    <circle cx="243.6" cy="114.8" r="2"/>
    <circle cx="248.4" cy="113.2" r="1.6"/>
    <circle cx="245.2" cy="117.2" r="2"/>
    <circle cx="244.4" cy="120.4" r="1.6"/>
    <circle cx="230.8" cy="138" r="1.6"/>
  </g>
</svg>