<svg xmlns="http://www.w3.org/2000/svg" viewBox="0 0 480 320">
<rect x="0" y="0" width="480" height="320" fill="#ffffff"/>
<g fill="none" stroke="#94a3b8" stroke-width="3" stroke-linecap="round" stroke-linejoin="round">
<polyline points="19.6,88 19.6,232 143.6,232 143.6,88"/>
<polyline points="178,88 178,232 302,232 302,88"/>
<polyline points="336.4,88 336.4,232 460.4,232 460.4,88"/>
</g>
<g id="gA">
<g stroke="#cbd5e1" stroke-width="1.5">
<line x1="36.6" y1="115" x2="66.6" y2="115"/>
<line x1="66.6" y1="115" x2="96.6" y2="115"/>
<line x1="96.6" y1="115" x2="126.6" y2="115"/>
<line x1="36.6" y1="145" x2="66.6" y2="145"/>
<line x1="66.6" y1="145" x2="96.6" y2="145"/>
<line x1="96.6" y1="145" x2="126.6" y2="145"/>
<line x1="36.6" y1="175" x2="66.6" y2="175"/>
<line x1="66.6" y1="175" x2="96.6" y2="175"/>
<line x1="96.6" y1="175" x2="126.6" y2="175"/>
<line x1="36.6" y1="205" x2="66.6" y2="205"/>
<line x1="66.6" y1="205" x2="96.6" y2="205"/>
<line x1="96.6" y1="205" x2="126.6" y2="205"/>
<line x1="36.6" y1="115" x2="36.6" y2="145"/>
<line x1="36.6" y1="145" x2="36.6" y2="175"/>
<line x1="36.6" y1="175" x2="36.6" y2="205"/>
<line x1="66.6" y1="115" x2="66.6" y2="145"/>
<line x1="66.6" y1="145" x2="66.6" y2="175"/>
<line x1="66.6" y1="175" x2="66.6" y2="205"/>
<line x1="96.6" y1="115" x2="96.6" y2="145"/>
<line x1="96.6" y1="145" x2="96.6" y2="175"/>
<line x1="96.6" y1="175" x2="96.6" y2="205"/>
<line x1="126.6" y1="115" x2="126.6" y2="145"/>
<line x1="126.6" y1="145" x2="126.6" y2="175"/>
<line x1="126.6" y1="175" x2="126.6" y2="205"/>
</g>
<g fill="#3b82f6" stroke="#1d4ed8" stroke-width="1">
<circle cx="36.6" cy="115" r="8"/>
<circle cx="66.6" cy="115" r="8"/>
<circle cx="96.6" cy="115" r="8"/>
<circle cx="126.6" cy="115" r="8"/>
<circle cx="36.6" cy="145" r="8"/>
<circle cx="66.6" cy="145" r="8"/>
<circle cx="96.6" cy="145" r="8"/>
<circle cx="126.6" cy="145" r="8"/>
<circle cx="36.6" cy="175" r="8"/>
<circle cx="66.6" cy="175" r="8"/>
<circle cx="96.6" cy="175" r="8"/>
<circle cx="126.6" cy="175" r="8"/>
<circle cx="36.6" cy="205" r="8"/>
<circle cx="66.6" cy="205" r="8"/>
<circle cx="96.6" cy="205" r="8"/>
<circle cx="126.6" cy="205" r="8"/>
</g>
</g>
<g id="gB">
<path d="M178,138 Q208,130 240,138 T302,138" fill="none" stroke="#94a3b8" stroke-width="2"/>
<g fill="#3b82f6" stroke="#1d4ed8" stroke-width="1">
<circle cx="192" cy="159" r="8"/>
<circle cx="210" cy="154" r="8"/>
<circle cx="228" cy="161" r="8"/>
<circle cx="246" cy="155" r="8"/>
<circle cx="264" cy="160" r="8"/>
<circle cx="282" cy="156" r="8"/>
<circle cx="186" cy="179" r="8"/>
<circle cx="204" cy="182" r="8"/>
<circle cx="222" cy="176" r="8"/>
<circle cx="240" cy="181" r="8"/>
<circle cx="258" cy="177" r="8"/>
<circle cx="276" cy="182" r="8"/>
<circle cx="294" cy="178" r="8"/>
<circle cx="192" cy="200" r="8"/>
<circle cx="211" cy="197" r="8"/>
<circle cx="229" cy="202" r="8"/>
<circle cx="247" cy="198" r="8"/>
<circle cx="265" cy="201" r="8"/>
<circle cx="283" cy="197" r="8"/>
<circle cx="187" cy="219" r="8"/>
<circle cx="205" cy="217" r="8"/>
<circle cx="223" cy="221" r="8"/>
<circle cx="241" cy="216" r="8"/>
<circle cx="259" cy="220" r="8"/>
<circle cx="277" cy="218" r="8"/>
<circle cx="294" cy="220" r="8"/>
</g>
</g>
<g id="gC">
<g stroke="#334155" stroke-width="2" stroke-linecap="round">
<line x1="362" y1="114" x2="376" y2="124"/>
<line x1="420" y1="108" x2="406" y2="118"/>
<line x1="360" y1="160" x2="348" y2="150"/>
<line x1="438" y1="158" x2="426" y2="168"/>
<line x1="365" y1="206" x2="378" y2="196"/>
<line x1="399" y1="215" x2="386" y2="205"/>
<line x1="445" y1="198" x2="455" y2="188"/>
</g>
<g fill="#334155">
<polygon points="376,124 369.37,122.95 372.86,118.07"/>
<polygon points="406,118 409.14,112.07 412.63,116.95"/>
<polygon points="348,150 354.53,151.54 350.69,156.15"/>
<polygon points="426,168 428.69,161.85 432.53,166.46"/>
<polygon points="378,196 375.07,202.04 371.42,197.28"/>
<polygon points="386,205 392.58,206.28 388.93,211.04"/>
<polygon points="455,188 452.88,194.36 448.64,190.12"/>
</g>
<g fill="#3b82f6" stroke="#1d4ed8" stroke-width="1">
<circle cx="352" cy="108" r="8"/>
<circle cx="430" cy="100" r="8"/>
<circle cx="368" cy="168" r="8"/>
<circle cx="446" cy="150" r="8"/>
<circle cx="356" cy="214" r="8"/>
<circle cx="408" cy="222" r="8"/>
<circle cx="438" cy="206" r="8"/>
</g>
</g>
</svg>
