<svg xmlns="http://www.w3.org/2000/svg" viewBox="0 0 480 320">
  <rect x="0" y="0" width="480" height="320" fill="#ffffff"/>
  <rect x="14" y="62" width="100" height="238" rx="8" fill="#ffffff" stroke="#333333" stroke-width="1.5"/>
  <rect x="131" y="62" width="100" height="238" rx="8" fill="#ffffff" stroke="#333333" stroke-width="1.5"/>
  <rect x="248" y="62" width="100" height="238" rx="8" fill="#ffffff" stroke="#333333" stroke-width="1.5"/>
  <rect x="365" y="62" width="100" height="238" rx="8" fill="#ffffff" stroke="#333333" stroke-width="1.5"/>
  <g>
    <line x1="49" y1="250" x2="79" y2="250" stroke="#3d3d3d" stroke-width="3.2" stroke-linecap="round"/>
    <circle cx="49" cy="250" r="12" fill="#2f6fb5" stroke="#1c4877" stroke-width="1.2"/>
    <circle cx="79" cy="250" r="12" fill="#2f6fb5" stroke="#1c4877" stroke-width="1.2"/>
    <line x1="40" y1="200" x2="56" y2="184" stroke="#3d3d3d" stroke-width="3.2" stroke-linecap="round"/>
    <circle cx="40" cy="200" r="12" fill="#2f6fb5" stroke="#1c4877" stroke-width="1.2"/>
    <circle cx="56" cy="184" r="12" fill="#2f6fb5" stroke="#1c4877" stroke-width="1.2"/>
    <line x1="88" y1="140" x2="72" y2="124" stroke="#3d3d3d" stroke-width="3.2" stroke-linecap="round"/>
    <circle cx="88" cy="140" r="12" fill="#2f6fb5" stroke="#1c4877" stroke-width="1.2"/>
    <circle cx="72" cy="124" r="12" fill="#2f6fb5" stroke="#1c4877" stroke-width="1.2"/>
    <line x1="54" y1="90" x2="74" y2="98" stroke="#3d3d3d" stroke-width="3.2" stroke-linecap="round"/>
    <circle cx="54" cy="90" r="12" fill="#2f6fb5" stroke="#1c4877" stroke-width="1.2"/>
    <circle cx="74" cy="98" r="12" fill="#2f6fb5" stroke="#1c4877" stroke-width="1.2"/>
  </g>
  <g>
    <line x1="166" y1="250" x2="196" y2="250" stroke="#3d3d3d" stroke-width="3.2" stroke-linecap="round"/>
    <circle cx="166" cy="250" r="12" fill="#2f6fb5" stroke="#1c4877" stroke-width="1.2"/>
    <circle cx="196" cy="250" r="9" fill="#e0a020" stroke="#9a6c07" stroke-width="1.2"/>
    <line x1="160" y1="200" x2="176" y2="184" stroke="#3d3d3d" stroke-width="3.2" stroke-linecap="round"/>
    <circle cx="160" cy="200" r="12" fill="#2f6fb5" stroke="#1c4877" stroke-width="1.2"/>
    <circle cx="176" cy="184" r="9" fill="#e0a020" stroke="#9a6c07" stroke-width="1.2"/>
    <line x1="200" y1="140" x2="184" y2="124" stroke="#3d3d3d" stroke-width="3.2" stroke-linecap="round"/>
    <circle cx="200" cy="140" r="12" fill="#2f6fb5" stroke="#1c4877" stroke-width="1.2"/>
    <circle cx="184" cy="124" r="9" fill="#e0a020" stroke="#9a6c07" stroke-width="1.2"/>
    <line x1="166" y1="90" x2="186" y2="98" stroke="#3d3d3d" stroke-width="3.2" stroke-linecap="round"/>
    <circle cx="166" cy="90" r="12" fill="#2f6fb5" stroke="#1c4877" stroke-width="1.2"/>
    <circle cx="186" cy="98" r="9" fill="#e0a020" stroke="#9a6c07" stroke-width="1.2"/>
  </g>
  <g>
    <line x1="278" y1="250" x2="293" y2="265" stroke="#3d3d3d" stroke-width="3.2" stroke-linecap="round"/>
    <circle cx="278" cy="250" r="12" fill="#2f6fb5" stroke="#1c4877" stroke-width="1.2"/>
    <circle cx="293" cy="265" r="12" fill="#2f6fb5" stroke="#1c4877" stroke-width="1.2"/>
    <line x1="318" y1="180" x2="302" y2="164" stroke="#3d3d3d" stroke-width="3.2" stroke-linecap="round"/>
    <circle cx="318" cy="180" r="12" fill="#2f6fb5" stroke="#1c4877" stroke-width="1.2"/>
    <circle cx="302" cy="164" r="12" fill="#2f6fb5" stroke="#1c4877" stroke-width="1.2"/>
    <line x1="280" y1="110" x2="300" y2="118" stroke="#3d3d3d" stroke-width="3.2" stroke-linecap="round"/>
    <circle cx="280" cy="110" r="12" fill="#2f6fb5" stroke="#1c4877" stroke-width="1.2"/>
    <circle cx="300" cy="118" r="12" fill="#2f6fb5" stroke="#1c4877" stroke-width="1.2"/>
    <circle cx="325" cy="270" r="9" fill="#e0a020" stroke="#9a6c07" stroke-width="1.2"/>
    <circle cx="270" cy="210" r="9" fill="#e0a020" stroke="#9a6c07" stroke-width="1.2"/>
    <circle cx="325" cy="130" r="9" fill="#e0a020" stroke="#9a6c07" stroke-width="1.2"/>
    <circle cx="275" cy="150" r="9" fill="#e0a020" stroke="#9a6c07" stroke-width="1.2"/>
    <circle cx="315" cy="90" r="9" fill="#e0a020" stroke="#9a6c07" stroke-width="1.2"/>
  </g>
  <g>
    <line x1="400" y1="170" x2="430" y2="170" stroke="#3d3d3d" stroke-width="3.2" stroke-linecap="round"/>
    <circle cx="400" cy="170" r="12" fill="#2f6fb5" stroke="#1c4877" stroke-width="1.2"/>
    <circle cx="430" cy="170" r="12" fill="#2f6fb5" stroke="#1c4877" stroke-width="1.2"/>
    <line x1="390" y1="120" x2="406" y2="104" stroke="#3d3d3d" stroke-width="3.2" stroke-linecap="round"/>
    <circle cx="390" cy="120" r="12" fill="#2f6fb5" stroke="#1c4877" stroke-width="1.2"/>
    <circle cx="406" cy="104" r="12" fill="#2f6fb5" stroke="#1c4877" stroke-width="1.2"/>
    <line x1="440" y1="110" x2="424" y2="94" stroke="#3d3d3d" stroke-width="3.2" stroke-linecap="round"/>
    <circle cx="440" cy="110" r="12" fill="#2f6fb5" stroke="#1c4877" stroke-width="1.2"/>
    <circle cx="424" cy="94" r="12" fill="#2f6fb5" stroke="#1c4877" stroke-width="1.2"/>
    <circle cx="400" cy="285" r="9" fill="#e0a020" stroke="#9a6c07" stroke-width="1.2"/>
    <circle cx="418" cy="285" r="9" fill="#e0a020" stroke="#9a6c07" stroke-width="1.2"/>
    <circle cx="436" cy="285" r="9" fill="#e0a020" stroke="#9a6c07" stroke-width="1.2"/>
    <circle cx="391" cy="270" r="9" fill="#e0a020" stroke="#9a6c07" stroke-width="1.2"/>
    <circle cx="409" cy="270" r="9" fill="#e0a020" stroke="#9a6c07" stroke-width="1.2"/>
    <circle cx="427" cy="270" r="9" fill="#e0a020" stroke="#9a6c07" stroke-width="1.2"/>
    <circle cx="445" cy="270" r="9" fill="#e0a020" stroke="#9a6c07" stroke-width="1.2"/>
    <circle cx="400" cy="255" r="9" fill="#e0a020" stroke="#9a6c07" stroke-width="1.2"/>
    <circle cx="418" cy="255" r="9" fill="#e0a020" stroke="#9a6c07" stroke-width="1.2"/>
    <circle cx="436" cy="255" r="9" fill="#e0a020" stroke="#9a6c07" stroke-width="1.2"/>
  </g>
</svg>
