<svg xmlns="http://www.w3.org/2000/svg" viewBox="0 0 480 320">
  <rect width="480" height="320" fill="#ffffff"/>
  <rect x="60" y="40" width="390" height="220" fill="#f8fafc" stroke="#cbd5e1" stroke-width="1"/>
  
  <line x1="55" y1="260" x2="60" y2="260" stroke="#334155" stroke-width="1.5"/>
  <text x="48" y="264" font-family="sans-serif" font-size="11" fill="#475569" text-anchor="end">0</text>
  
  <line x1="55" y1="190" x2="60" y2="190" stroke="#334155" stroke-width="1.5"/>
  <text x="48" y="194" font-family="sans-serif" font-size="11" fill="#475569" text-anchor="end">1</text>
  
  <line x1="55" y1="120" x2="60" y2="120" stroke="#334155" stroke-width="1.5"/>
  <text x="48" y="124" font-family="sans-serif" font-size="11" fill="#475569" text-anchor="end">2</text>
  
  <line x1="55" y1="50" x2="60" y2="50" stroke="#334155" stroke-width="1.5"/>
  <text x="48" y="54" font-family="sans-serif" font-size="11" fill="#475569" text-anchor="end">3</text>

  <line x1="110" y1="260" x2="110" y2="265" stroke="#334155" stroke-width="1.5"/>
  <text x="110" y="280" font-family="sans-serif" font-size="11" fill="#475569" text-anchor="middle">100</text>
  
  <line x1="215" y1="260" x2="215" y2="265" stroke="#334155" stroke-width="1.5"/>
  <text x="215" y="280" font-family="sans-serif" font-size="11" fill="#475569" text-anchor="middle">10</text>
  
  <line x1="320" y1="260" x2="320" y2="265" stroke="#334155" stroke-width="1.5"/>
  <text x="320" y="280" font-family="sans-serif" font-size="11" fill="#475569" text-anchor="middle">1</text>
  
  <line x1="410" y1="260" x2="410" y2="265" stroke="#334155" stroke-width="1.5"/>
  <text x="410" y="280" font-family="sans-serif" font-size="11" fill="#475569" text-anchor="middle">0.1</text>

  <line x1="60" y1="40" x2="60" y2="260" stroke="#1e293b" stroke-width="2.5"/>
  <line x1="60" y1="260" x2="450" y2="260" stroke="#1e293b" stroke-width="2.5"/>

  <path d="M60,260 L100,260 L110,120 L120,260 L205,260" fill="none" stroke="#dc2626" stroke-width="2.5" stroke-linejoin="round"/>
  <path d="M205,260 L215,120 L225,260 L310,260" fill="none" stroke="#2563eb" stroke-width="2.5" stroke-linejoin="round"/>
  <line x1="215" y1="120" x2="215" y2="260" stroke="#94a3b8" stroke-width="1.5" stroke-dasharray="3,3"/>
  <path d="M310,260 L320,120 L330,260 L390,260 L400,120 L410,260 L450,260" fill="none" stroke="#16a34a" stroke-width="2.5" stroke-linejoin="round"/>
</svg>