<svg xmlns="http://www.w3.org/2000/svg" viewBox="0 0 480 320" width="480" height="320">
<rect width="480" height="320" fill="#ffffff"/>
<polyline points="40,40 40,280 440,280" fill="none" stroke="#333333" stroke-width="2"/>
<line x1="60.000" y1="60.000" x2="61.900" y2="61.000" stroke="#78909c" stroke-width="4"/>
<line x1="61.900" y1="61.000" x2="63.800" y2="62.000" stroke="#78909c" stroke-width="4"/>
<line x1="63.800" y1="62.000" x2="65.700" y2="63.000" stroke="#78909c" stroke-width="4"/>
<line x1="65.700" y1="63.000" x2="67.600" y2="64.000" stroke="#78909c" stroke-width="4"/>
<line x1="67.600" y1="64.000" x2="69.500" y2="65.000" stroke="#78909c" stroke-width="4"/>
<line x1="69.500" y1="65.000" x2="71.400" y2="66.000" stroke="#78909c" stroke-width="4"/>
<line x1="71.400" y1="66.000" x2="73.300" y2="67.000" stroke="#78909c" stroke-width="4"/>
<line x1="73.300" y1="67.000" x2="75.200" y2="68.000" stroke="#78909c" stroke-width="4"/>
<line x1="75.200" y1="68.000" x2="77.100" y2="69.000" stroke="#78909c" stroke-width="4"/>
<line x1="77.100" y1="69.000" x2="79.000" y2="70.000" stroke="#78909c" stroke-width="4"/>
<line x1="79.000" y1="70.000" x2="80.900" y2="71.000" stroke="#78909c" stroke-width="4"/>
<line x1="80.900" y1="71.000" x2="82.800" y2="72.000" stroke="#78909c" stroke-width="4"/>
<line x1="82.800" y1="72.000" x2="84.700" y2="73.000" stroke="#78909c" stroke-width="4"/>
<line x1="84.700" y1="73.000" x2="86.600" y2="74.000" stroke="#78909c" stroke-width="4"/>
<line x1="86.600" y1="74.000" x2="88.500" y2="75.000" stroke="#78909c" stroke-width="4"/>
<line x1="88.500" y1="75.000" x2="90.400" y2="76.000" stroke="#78909c" stroke-width="4"/>
<line x1="90.400" y1="76.000" x2="92.300" y2="77.000" stroke="#78909c" stroke-width="4"/>
<line x1="92.300" y1="77.000" x2="94.200" y2="78.000" stroke="#78909c" stroke-width="4"/>
<line x1="94.200" y1="78.000" x2="96.100" y2="79.000" stroke="#78909c" stroke-width="4"/>
<line x1="96.100" y1="79.000" x2="98.000" y2="80.000" stroke="#78909c" stroke-width="4"/>
<line x1="98.000" y1="80.000" x2="99.900" y2="81.000" stroke="#78909c" stroke-width="4"/>
<line x1="99.900" y1="81.000" x2="101.800" y2="82.000" stroke="#78909c" stroke-width="4"/>
<line x1="101.800" y1="82.000" x2="103.700" y2="83.000" stroke="#78909c" stroke-width="4"/>
<line x1="103.700" y1="83.000" x2="105.600" y2="84.000" stroke="#78909c" stroke-width="4"/>
<line x1="105.600" y1="84.000" x2="107.500" y2="85.000" stroke="#78909c" stroke-width="4"/>
<line x1="107.500" y1="85.000" x2="109.400" y2="86.000" stroke="#78909c" stroke-width="4"/>
<line x1="109.400" y1="86.000" x2="111.300" y2="87.000" stroke="#78909c" stroke-width="4"/>
<line x1="111.300" y1="87.000" x2="113.200" y2="88.000" stroke="#78909c" stroke-width="4"/>
<line x1="113.200" y1="88.000" x2="115.100" y2="89.000" stroke="#78909c" stroke-width="4"/>
<line x1="115.100" y1="89.000" x2="117.000" y2="90.000" stroke="#78909c" stroke-width="4"/>
<line x1="117.000" y1="90.000" x2="118.900" y2="91.000" stroke="#78909c" stroke-width="4"/>
<line x1="118.900" y1="91.000" x2="120.800" y2="92.000" stroke="#78909c" stroke-width="4"/>
<line x1="120.800" y1="92.000" x2="122.700" y2="93.000" stroke="#78909c" stroke-width="4"/>
<line x1="122.700" y1="93.000" x2="124.600" y2="94.000" stroke="#78909c" stroke-width="4"/>
<line x1="124.600" y1="94.000" x2="126.500" y2="95.000" stroke="#78909c" stroke-width="4"/>
<line x1="126.500" y1="95.000" x2="128.400" y2="96.000" stroke="#78909c" stroke-width="4"/>
<line x1="128.400" y1="96.000" x2="130.300" y2="97.000" stroke="#78909c" stroke-width="4"/>
<line x1="130.300" y1="97.000" x2="132.200" y2="98.000" stroke="#78909c" stroke-width="4"/>
<line x1="132.200" y1="98.000" x2="134.100" y2="99.000" stroke="#78909c" stroke-width="4"/>
<line x1="134.100" y1="99.000" x2="136.000" y2="100.000" stroke="#78909c" stroke-width="4"/>
<line x1="136.000" y1="100.000" x2="137.900" y2="101.000" stroke="#78909c" stroke-width="4"/>
<line x1="137.900" y1="101.000" x2="139.800" y2="102.000" stroke="#78909c" stroke-width="4"/>
<line x1="139.800" y1="102.000" x2="141.700" y2="103.000" stroke="#78909c" stroke-width="4"/>
<line x1="141.700" y1="103.000" x2="143.600" y2="104.000" stroke="#78909c" stroke-width="4"/>
<line x1="143.600" y1="104.000" x2="145.500" y2="105.000" stroke="#78909c" stroke-width="4"/>
<line x1="145.500" y1="105.000" x2="147.400" y2="106.000" stroke="#78909c" stroke-width="4"/>
<line x1="147.400" y1="106.000" x2="149.300" y2="107.000" stroke="#78909c" stroke-width="4"/>
<line x1="149.300" y1="107.000" x2="151.200" y2="108.000" stroke="#78909c" stroke-width="4"/>
<line x1="151.200" y1="108.000" x2="153.100" y2="109.000" stroke="#78909c" stroke-width="4"/>
<line x1="153.100" y1="109.000" x2="155.000" y2="110.000" stroke="#78909c" stroke-width="4"/>
<line x1="155.000" y1="110.000" x2="156.900" y2="111.000" stroke="#78909c" stroke-width="4"/>
<line x1="156.900" y1="111.000" x2="158.800" y2="112.000" stroke="#78909c" stroke-width="4"/>
<line x1="158.800" y1="112.000" x2="160.700" y2="113.000" stroke="#78909c" stroke-width="4"/>
<line x1="160.700" y1="113.000" x2="162.600" y2="114.000" stroke="#78909c" stroke-width="4"/>
<line x1="162.600" y1="114.000" x2="164.500" y2="115.000" stroke="#78909c" stroke-width="4"/>
<line x1="164.500" y1="115.000" x2="166.400" y2="116.000" stroke="#78909c" stroke-width="4"/>
<line x1="166.400" y1="116.000" x2="168.300" y2="117.000" stroke="#78909c" stroke-width="4"/>
<line x1="168.300" y1="117.000" x2="170.200" y2="118.000" stroke="#78909c" stroke-width="4"/>
<line x1="170.200" y1="118.000" x2="172.100" y2="119.000" stroke="#78909c" stroke-width="4"/>
<line x1="172.100" y1="119.000" x2="174.000" y2="120.000" stroke="#78909c" stroke-width="4"/>
<line x1="174.000" y1="120.000" x2="175.900" y2="121.000" stroke="#78909c" stroke-width="4"/>
<line x1="175.900" y1="121.000" x2="177.800" y2="122.000" stroke="#78909c" stroke-width="4"/>
<line x1="177.800" y1="122.000" x2="179.700" y2="123.000" stroke="#78909c" stroke-width="4"/>
<line x1="179.700" y1="123.000" x2="181.600" y2="124.000" stroke="#78909c" stroke-width="4"/>
<line x1="181.600" y1="124.000" x2="183.500" y2="125.000" stroke="#78909c" stroke-width="4"/>
<line x1="183.500" y1="125.000" x2="185.400" y2="126.000" stroke="#78909c" stroke-width="4"/>
<line x1="185.400" y1="126.000" x2="187.300" y2="127.000" stroke="#78909c" stroke-width="4"/>
<line x1="187.300" y1="127.000" x2="189.200" y2="128.000" stroke="#78909c" stroke-width="4"/>
<line x1="189.200" y1="128.000" x2="191.100" y2="129.000" stroke="#78909c" stroke-width="4"/>
<line x1="191.100" y1="129.000" x2="193.000" y2="130.000" stroke="#78909c" stroke-width="4"/>
<line x1="193.000" y1="130.000" x2="194.900" y2="131.000" stroke="#78909c" stroke-width="4"/>
<line x1="194.900" y1="131.000" x2="196.800" y2="132.000" stroke="#78909c" stroke-width="4"/>
<line x1="196.800" y1="132.000" x2="198.700" y2="133.000" stroke="#78909c" stroke-width="4"/>
<line x1="198.700" y1="133.000" x2="200.600" y2="134.000" stroke="#78909c" stroke-width="4"/>
<line x1="200.600" y1="134.000" x2="202.500" y2="135.000" stroke="#78909c" stroke-width="4"/>
<line x1="202.500" y1="135.000" x2="204.400" y2="136.000" stroke="#78909c" stroke-width="4"/>
<line x1="204.400" y1="136.000" x2="206.300" y2="137.000" stroke="#78909c" stroke-width="4"/>
<line x1="206.300" y1="137.000" x2="208.200" y2="138.000" stroke="#78909c" stroke-width="4"/>
<line x1="208.200" y1="138.000" x2="210.100" y2="139.000" stroke="#78909c" stroke-width="4"/>
<line x1="210.100" y1="139.000" x2="212.000" y2="140.000" stroke="#78909c" stroke-width="4"/>
<line x1="212.000" y1="140.000" x2="213.900" y2="141.000" stroke="#78909c" stroke-width="4"/>
<line x1="213.900" y1="141.000" x2="215.800" y2="142.000" stroke="#78909c" stroke-width="4"/>
<line x1="215.800" y1="142.000" x2="217.700" y2="143.000" stroke="#78909c" stroke-width="4"/>
<line x1="217.700" y1="143.000" x2="219.600" y2="144.000" stroke="#78909c" stroke-width="4"/>
<line x1="219.600" y1="144.000" x2="221.500" y2="145.000" stroke="#78909c" stroke-width="4"/>
<line x1="221.500" y1="145.000" x2="223.400" y2="146.000" stroke="#78909c" stroke-width="4"/>
<line x1="223.400" y1="146.000" x2="225.300" y2="147.000" stroke="#78909c" stroke-width="4"/>
<line x1="225.300" y1="147.000" x2="227.200" y2="148.000" stroke="#78909c" stroke-width="4"/>
<line x1="227.200" y1="148.000" x2="229.100" y2="149.000" stroke="#78909c" stroke-width="4"/>
<line x1="229.100" y1="149.000" x2="231.000" y2="150.000" stroke="#78909c" stroke-width="4"/>
<line x1="231.000" y1="150.000" x2="232.900" y2="151.000" stroke="#79909a" stroke-width="4"/>
<line x1="232.900" y1="151.000" x2="234.800" y2="152.000" stroke="#7d9197" stroke-width="4"/>
<line x1="234.800" y1="152.000" x2="236.700" y2="153.000" stroke="#819294" stroke-width="4"/>
<line x1="236.700" y1="153.000" x2="238.600" y2="154.000" stroke="#849390" stroke-width="4"/>
<line x1="238.600" y1="154.000" x2="240.500" y2="155.000" stroke="#88948d" stroke-width="4"/>
<line x1="240.500" y1="155.000" x2="242.400" y2="156.000" stroke="#8c968a" stroke-width="4"/>
<line x1="242.400" y1="156.000" x2="244.300" y2="157.000" stroke="#8f9787" stroke-width="4"/>
<line x1="244.300" y1="157.000" x2="246.200" y2="158.000" stroke="#939884" stroke-width="4"/>
<line x1="246.200" y1="158.000" x2="248.100" y2="159.000" stroke="#979980" stroke-width="4"/>
<line x1="248.100" y1="159.000" x2="250.000" y2="160.000" stroke="#9a9a7d" stroke-width="4"/>
<line x1="250.000" y1="160.000" x2="251.900" y2="161.000" stroke="#9e9b7a" stroke-width="4"/>
<line x1="251.900" y1="161.000" x2="253.800" y2="162.000" stroke="#a19c77" stroke-width="4"/>
<line x1="253.800" y1="162.000" x2="255.700" y2="163.000" stroke="#a59d74" stroke-width="4"/>
<line x1="255.700" y1="163.000" x2="257.600" y2="164.000" stroke="#a99e70" stroke-width="4"/>
<line x1="257.600" y1="164.000" x2="259.500" y2="165.000" stroke="#ac9f6d" stroke-width="4"/>
<line x1="259.500" y1="165.000" x2="261.400" y2="166.000" stroke="#b0a16a" stroke-width="4"/>
<line x1="261.400" y1="166.000" x2="263.300" y2="167.000" stroke="#b4a267" stroke-width="4"/>
<line x1="263.300" y1="167.000" x2="265.200" y2="168.000" stroke="#b7a363" stroke-width="4"/>
<line x1="265.200" y1="168.000" x2="267.100" y2="169.000" stroke="#bba460" stroke-width="4"/>
<line x1="267.100" y1="169.000" x2="269.000" y2="170.000" stroke="#bfa55d" stroke-width="4"/>
<line x1="269.000" y1="170.000" x2="270.900" y2="171.000" stroke="#c1a65c" stroke-width="4"/>
<line x1="270.900" y1="171.000" x2="272.800" y2="172.000" stroke="#c1a65c" stroke-width="4"/>
<line x1="272.800" y1="172.000" x2="274.700" y2="173.000" stroke="#c1a65c" stroke-width="4"/>
<line x1="274.700" y1="173.000" x2="276.600" y2="174.000" stroke="#c1a65c" stroke-width="4"/>
<line x1="276.600" y1="174.000" x2="278.500" y2="175.000" stroke="#c1a65c" stroke-width="4"/>
<line x1="278.500" y1="175.000" x2="280.400" y2="176.000" stroke="#c1a65c" stroke-width="4"/>
<line x1="280.400" y1="176.000" x2="282.300" y2="177.000" stroke="#c1a65c" stroke-width="4"/>
<line x1="282.300" y1="177.000" x2="284.200" y2="178.000" stroke="#c1a65c" stroke-width="4"/>
<line x1="284.200" y1="178.000" x2="286.100" y2="179.000" stroke="#c1a65c" stroke-width="4"/>
<line x1="286.100" y1="179.000" x2="288.000" y2="180.000" stroke="#c1a65c" stroke-width="4"/>
<line x1="288.000" y1="180.000" x2="289.900" y2="181.000" stroke="#c1a65c" stroke-width="4"/>
<line x1="289.900" y1="181.000" x2="291.800" y2="182.000" stroke="#c1a65c" stroke-width="4"/>
<line x1="291.800" y1="182.000" x2="293.700" y2="183.000" stroke="#c1a65c" stroke-width="4"/>
<line x1="293.700" y1="183.000" x2="295.600" y2="184.000" stroke="#c1a65c" stroke-width="4"/>
<line x1="295.600" y1="184.000" x2="297.500" y2="185.000" stroke="#c1a65c" stroke-width="4"/>
<line x1="297.500" y1="185.000" x2="299.400" y2="186.000" stroke="#c1a65c" stroke-width="4"/>
<line x1="299.400" y1="186.000" x2="301.300" y2="187.000" stroke="#c1a65c" stroke-width="4"/>
<line x1="301.300" y1="187.000" x2="303.200" y2="188.000" stroke="#c1a65c" stroke-width="4"/>
<line x1="303.200" y1="188.000" x2="305.100" y2="189.000" stroke="#c1a65c" stroke-width="4"/>
<line x1="305.100" y1="189.000" x2="307.000" y2="190.000" stroke="#c1a65c" stroke-width="4"/>
<line x1="307.000" y1="190.000" x2="308.900" y2="191.000" stroke="#c1a65c" stroke-width="4"/>
<line x1="308.900" y1="191.000" x2="310.800" y2="192.000" stroke="#c1a65c" stroke-width="4"/>
<line x1="310.800" y1="192.000" x2="312.700" y2="193.000" stroke="#c1a65c" stroke-width="4"/>
<line x1="312.700" y1="193.000" x2="314.600" y2="194.000" stroke="#c1a65c" stroke-width="4"/>
<line x1="314.600" y1="194.000" x2="316.500" y2="195.000" stroke="#c1a65c" stroke-width="4"/>
<line x1="316.500" y1="195.000" x2="318.400" y2="196.000" stroke="#c1a65c" stroke-width="4"/>
<line x1="318.400" y1="196.000" x2="320.300" y2="197.000" stroke="#c1a65c" stroke-width="4"/>
<line x1="320.300" y1="197.000" x2="322.200" y2="198.000" stroke="#c1a65c" stroke-width="4"/>
<line x1="322.200" y1="198.000" x2="324.100" y2="199.000" stroke="#c1a65c" stroke-width="4"/>
<line x1="324.100" y1="199.000" x2="326.000" y2="200.000" stroke="#c1a65c" stroke-width="4"/>
<line x1="326.000" y1="200.000" x2="327.900" y2="201.000" stroke="#c1a65c" stroke-width="4"/>
<line x1="327.900" y1="201.000" x2="329.800" y2="202.000" stroke="#c1a65c" stroke-width="4"/>
<line x1="329.800" y1="202.000" x2="331.700" y2="203.000" stroke="#c1a65c" stroke-width="4"/>
<line x1="331.700" y1="203.000" x2="333.600" y2="204.000" stroke="#c1a65c" stroke-width="4"/>
<line x1="333.600" y1="204.000" x2="335.500" y2="205.000" stroke="#c1a65c" stroke-width="4"/>
<line x1="335.500" y1="205.000" x2="337.400" y2="206.000" stroke="#c1a65c" stroke-width="4"/>
<line x1="337.400" y1="206.000" x2="339.300" y2="207.000" stroke="#c1a65c" stroke-width="4"/>
<line x1="339.300" y1="207.000" x2="341.200" y2="208.000" stroke="#c1a65c" stroke-width="4"/>
<line x1="341.200" y1="208.000" x2="343.100" y2="209.000" stroke="#c1a65c" stroke-width="4"/>
<line x1="343.100" y1="209.000" x2="345.000" y2="210.000" stroke="#c1a65c" stroke-width="4"/>
<line x1="345.000" y1="210.000" x2="346.900" y2="211.000" stroke="#c1a65c" stroke-width="4"/>
<line x1="346.900" y1="211.000" x2="348.800" y2="212.000" stroke="#c1a65c" stroke-width="4"/>
<line x1="348.800" y1="212.000" x2="350.700" y2="213.000" stroke="#c1a65c" stroke-width="4"/>
<line x1="350.700" y1="213.000" x2="352.600" y2="214.000" stroke="#c1a65c" stroke-width="4"/>
<line x1="352.600" y1="214.000" x2="354.500" y2="215.000" stroke="#c1a65c" stroke-width="4"/>
<line x1="354.500" y1="215.000" x2="356.400" y2="216.000" stroke="#c1a65c" stroke-width="4"/>
<line x1="356.400" y1="216.000" x2="358.300" y2="217.000" stroke="#c1a65c" stroke-width="4"/>
<line x1="358.300" y1="217.000" x2="360.200" y2="218.000" stroke="#c1a65c" stroke-width="4"/>
<line x1="360.200" y1="218.000" x2="362.100" y2="219.000" stroke="#c1a65c" stroke-width="4"/>
<line x1="362.100" y1="219.000" x2="364.000" y2="220.000" stroke="#c1a65c" stroke-width="4"/>
<line x1="364.000" y1="220.000" x2="365.900" y2="221.000" stroke="#c1a65c" stroke-width="4"/>
<line x1="365.900" y1="221.000" x2="367.800" y2="222.000" stroke="#c1a65c" stroke-width="4"/>
<line x1="367.800" y1="222.000" x2="369.700" y2="223.000" stroke="#c1a65c" stroke-width="4"/>
<line x1="369.700" y1="223.000" x2="371.600" y2="224.000" stroke="#c1a65c" stroke-width="4"/>
<line x1="371.600" y1="224.000" x2="373.500" y2="225.000" stroke="#c1a65c" stroke-width="4"/>
<line x1="373.500" y1="225.000" x2="375.400" y2="226.000" stroke="#c1a65c" stroke-width="4"/>
<line x1="375.400" y1="226.000" x2="377.300" y2="227.000" stroke="#c1a65c" stroke-width="4"/>
<line x1="377.300" y1="227.000" x2="379.200" y2="228.000" stroke="#c1a65c" stroke-width="4"/>
<line x1="379.200" y1="228.000" x2="381.100" y2="229.000" stroke="#c1a65c" stroke-width="4"/>
<line x1="381.100" y1="229.000" x2="383.000" y2="230.000" stroke="#c1a65c" stroke-width="4"/>
<line x1="383.000" y1="230.000" x2="384.900" y2="231.000" stroke="#c1a65c" stroke-width="4"/>
<line x1="384.900" y1="231.000" x2="386.800" y2="232.000" stroke="#c1a65c" stroke-width="4"/>
<line x1="386.800" y1="232.000" x2="388.700" y2="233.000" stroke="#c1a65c" stroke-width="4"/>
<line x1="388.700" y1="233.000" x2="390.600" y2="234.000" stroke="#c1a65c" stroke-width="4"/>
<line x1="390.600" y1="234.000" x2="392.500" y2="235.000" stroke="#c1a65c" stroke-width="4"/>
<line x1="392.500" y1="235.000" x2="394.400" y2="236.000" stroke="#c1a65c" stroke-width="4"/>
<line x1="394.400" y1="236.000" x2="396.300" y2="237.000" stroke="#c1a65c" stroke-width="4"/>
<line x1="396.300" y1="237.000" x2="398.200" y2="238.000" stroke="#c1a65c" stroke-width="4"/>
<line x1="398.200" y1="238.000" x2="400.100" y2="239.000" stroke="#c1a65c" stroke-width="4"/>
<line x1="400.100" y1="239.000" x2="402.000" y2="240.000" stroke="#c1a65c" stroke-width="4"/>
<line x1="402.000" y1="240.000" x2="403.900" y2="241.000" stroke="#c1a65c" stroke-width="4"/>
<line x1="403.900" y1="241.000" x2="405.800" y2="242.000" stroke="#c1a65c" stroke-width="4"/>
<line x1="405.800" y1="242.000" x2="407.700" y2="243.000" stroke="#c1a65c" stroke-width="4"/>
<line x1="407.700" y1="243.000" x2="409.600" y2="244.000" stroke="#c1a65c" stroke-width="4"/>
<line x1="409.600" y1="244.000" x2="411.500" y2="245.000" stroke="#c1a65c" stroke-width="4"/>
<line x1="411.500" y1="245.000" x2="413.400" y2="246.000" stroke="#c1a65c" stroke-width="4"/>
<line x1="413.400" y1="246.000" x2="415.300" y2="247.000" stroke="#c1a65c" stroke-width="4"/>
<line x1="415.300" y1="247.000" x2="417.200" y2="248.000" stroke="#c1a65c" stroke-width="4"/>
<line x1="417.200" y1="248.000" x2="419.100" y2="249.000" stroke="#c1a65c" stroke-width="4"/>
<line x1="419.100" y1="249.000" x2="421.000" y2="250.000" stroke="#c1a65c" stroke-width="4"/>
<line x1="421.000" y1="250.000" x2="422.900" y2="251.000" stroke="#c1a65c" stroke-width="4"/>
<line x1="422.900" y1="251.000" x2="424.800" y2="252.000" stroke="#c1a65c" stroke-width="4"/>
<line x1="424.800" y1="252.000" x2="426.700" y2="253.000" stroke="#c1a65c" stroke-width="4"/>
<line x1="426.700" y1="253.000" x2="428.600" y2="254.000" stroke="#c1a65c" stroke-width="4"/>
<line x1="428.600" y1="254.000" x2="430.500" y2="255.000" stroke="#c1a65c" stroke-width="4"/>
<line x1="430.500" y1="255.000" x2="432.400" y2="256.000" stroke="#c1a65c" stroke-width="4"/>
<line x1="432.400" y1="256.000" x2="434.300" y2="257.000" stroke="#c1a65c" stroke-width="4"/>
<line x1="434.300" y1="257.000" x2="436.200" y2="258.000" stroke="#c1a65c" stroke-width="4"/>
<line x1="436.200" y1="258.000" x2="438.100" y2="259.000" stroke="#c1a65c" stroke-width="4"/>
<line x1="438.100" y1="259.000" x2="440.000" y2="260.000" stroke="#c1a65c" stroke-width="4"/>
</svg>
