<svg xmlns="http://www.w3.org/2000/svg" viewBox="0 0 480 320">
  <rect width="480" height="320" fill="#ffffff"/>
  <line x1="60" y1="270" x2="440" y2="270" stroke="#333333" stroke-width="2"/>
  <polygon points="440,266 448,270 440,274" fill="#333333"/>
  <line x1="60" y1="270" x2="60" y2="40" stroke="#333333" stroke-width="2"/>
  <polygon points="56,40 60,32 64,40" fill="#333333"/>
  <line x1="55" y1="80" x2="60" y2="80" stroke="#333333" stroke-width="1.5"/>
  <text x="48" y="84" font-family="sans-serif" font-size="14" fill="#333333" text-anchor="end">2.0</text>
  <line x1="55" y1="140" x2="60" y2="140" stroke="#333333" stroke-width="1.5"/>
  <text x="48" y="144" font-family="sans-serif" font-size="14" fill="#333333" text-anchor="end">1.5</text>
  <line x1="55" y1="200" x2="60" y2="200" stroke="#333333" stroke-width="1.5"/>
  <text x="48" y="204" font-family="sans-serif" font-size="14" fill="#333333" text-anchor="end">1.0</text>
  <line x1="55" y1="236" x2="60" y2="236" stroke="#333333" stroke-width="1.5"/>
  <text x="48" y="240" font-family="sans-serif" font-size="14" fill="#333333" text-anchor="end">0.5</text>
  <line x1="260" y1="40" x2="260" y2="270" stroke="#94a3b8" stroke-width="1.5" stroke-dasharray="4,4"/>
  <text x="260" y="290" font-family="sans-serif" font-size="14" fill="#64748b" text-anchor="middle">t₁</text>
  <path d="M 60,80 Q 160,190 260,200 L 430,200" fill="none" stroke="#d97706" stroke-width="2.5"/>
  <text x="75" y="70" font-family="sans-serif" font-size="15" font-weight="bold" fill="#d97706">A(g)</text>
  <path d="M 60,270 Q 160,160 260,150 L 430,150" fill="none" stroke="#2563eb" stroke-width="2.5"/>
  <text x="100" y="260" font-family="sans-serif" font-size="15" font-weight="bold" fill="#2563eb">2 B(g)</text>
  <line x1="60" y1="80" x2="430" y2="80" stroke="#cbd5e1" stroke-width="1" stroke-dasharray="3,3"/>
  <line x1="260" y1="150" x2="430" y2="150" stroke="#93c5fd" stroke-width="1.5" stroke-dasharray="3,3"/>
  <line x1="260" y1="200" x2="430" y2="200" stroke="#fcd34d" stroke-width="1.5" stroke-dasharray="3,3"/>
</svg>
