<svg xmlns="http://www.w3.org/2000/svg" viewBox="0 0 480 320">
  <rect width="480" height="320" fill="#ffffff"/>
  <rect x="40" y="140" width="112" height="130" fill="#e0f2fe" stroke="#333333" stroke-width="2" rx="4"/>
  <line x1="40" y1="160" x2="152" y2="160" stroke="#38bdf8" stroke-width="2"/>
  <text x="96" y="200" font-family="sans-serif" font-size="13" font-weight="bold" fill="#0369a1" text-anchor="middle">Zn²⁺(aq)</text>
  <text x="96" y="220" font-family="sans-serif" font-size="11" fill="#0369a1" text-anchor="middle">SO₄²⁻(aq)</text>
  <rect x="328" y="140" width="112" height="130" fill="#dcfce7" stroke="#333333" stroke-width="2" rx="4"/>
  <line x1="328" y1="160" x2="440" y2="160" stroke="#4ade80" stroke-width="2"/>
  <text x="384" y="200" font-family="sans-serif" font-size="13" font-weight="bold" fill="#15803d" text-anchor="middle">Cu²⁺(aq)</text>
  <text x="384" y="220" font-family="sans-serif" font-size="11" fill="#15803d" text-anchor="middle">SO₄²⁻(aq)</text>
  <rect x="60" y="110" width="15" height="130" fill="#94a3b8" stroke="#333333" stroke-width="1.5"/>
  <rect x="405" y="110" width="15" height="130" fill="#ea580c" stroke="#333333" stroke-width="1.5"/>
  <path d="M 170,180 L 170,89.6 Q 170,70 190,70 L 290,70 Q 310,70 310,89.6 L 310,180" 
        fill="none" stroke="#f1f5f9" stroke-width="26" stroke-linecap="round"/>
  <path d="M 170,180 L 170,89.6 Q 170,70 190,70 L 290,70 Q 310,70 310,89.6 L 310,180" 
        fill="none" stroke="#333333" stroke-width="2" stroke-linecap="round"/>
  <line x1="200" y1="89.6" x2="175" y2="89.6" stroke="#dc2626" stroke-width="2"/>
  <polygon points="175,86.6 167,89.6 175,92.6" fill="#dc2626"/>
  <text x="182.4" y="110" font-family="sans-serif" font-size="12" font-weight="bold" fill="#dc2626" text-anchor="middle">NO₃⁻</text>
  <line x1="280" y1="89.6" x2="305" y2="89.6" stroke="#2563eb" stroke-width="2"/>
  <polygon points="305,86.6 313,89.6 305,92.6" fill="#2563eb"/>
  <text x="297.6" y="110" font-family="sans-serif" font-size="12" font-weight="bold" fill="#2563eb" text-anchor="middle">K⁺</text>
  <polyline points="67.5,110 67.5,40 412.5,40 412.5,110" fill="none" stroke="#333333" stroke-width="1.5"/>
</svg>