<svg xmlns="http://www.w3.org/2000/svg" viewBox="0 0 480 320">
  <rect width="480" height="320" fill="#ffffff"/>
  
  <rect x="20" y="140" width="160" height="150" fill="#e0f2fe" stroke="#333333" stroke-width="2" rx="4"/>
  <line x1="20" y1="170" x2="180" y2="170" stroke="#38bdf8" stroke-width="2"/>
  
  <text x="100" y="240" font-family="sans-serif" font-size="16" font-weight="bold" fill="#0369a1" text-anchor="middle">Zn²⁺(aq)</text>
  <text x="100" y="265" font-family="sans-serif" font-size="14" fill="#0369a1" text-anchor="middle">SO₄²⁻(aq)</text>
  
  <rect x="300" y="140" width="160" height="150" fill="#dcfce7" stroke="#333333" stroke-width="2" rx="4"/>
  <line x1="300" y1="170" x2="460" y2="170" stroke="#4ade80" stroke-width="2"/>
  
  <text x="380" y="240" font-family="sans-serif" font-size="16" font-weight="bold" fill="#15803d" text-anchor="middle">Cu²⁺(aq)</text>
  <text x="380" y="265" font-family="sans-serif" font-size="14" fill="#15803d" text-anchor="middle">SO₄²⁻(aq)</text>

  <rect x="40" y="80" width="30" height="170" fill="#94a3b8" stroke="#333333" stroke-width="2" rx="2"/>
  <rect x="410" y="80" width="30" height="170" fill="#ea580c" stroke="#333333" stroke-width="2" rx="2"/>

  <path d="M 145,210 L 145,110 Q 145,80 175,80 L 305,80 Q 335,80 335,110 L 335,210" 
        fill="none" stroke="#f1f5f9" stroke-width="32" stroke-linecap="round"/>
  <path d="M 145,210 L 145,110 Q 145,80 175,80 L 305,80 Q 335,80 335,110 L 335,210" 
        fill="none" stroke="#333333" stroke-width="2" stroke-linecap="round"/>

  <line x1="175" y1="110" x2="150" y2="110" stroke="#dc2626" stroke-width="2"/>
  <polygon points="150,107 142,110 150,113" fill="#dc2626"/>
  <text x="158" y="135" font-family="sans-serif" font-size="16" font-weight="bold" fill="#dc2626" text-anchor="middle">NO₃⁻</text>
  
  <line x1="305" y1="110" x2="330" y2="110" stroke="#2563eb" stroke-width="2"/>
  <polygon points="330,107 338,110 330,113" fill="#2563eb"/>
  <text x="322" y="135" font-family="sans-serif" font-size="16" font-weight="bold" fill="#2563eb" text-anchor="middle">K⁺</text>

  <polyline points="55,80 55,40 425,40 425,80" fill="none" stroke="#333333" stroke-width="2"/>
</svg>
