<svg xmlns="http://www.w3.org/2000/svg" viewBox="0 0 480 320">
  <rect width="480" height="320" fill="#ffffff"/>
  
  <rect x="20" y="140" width="160" height="150" fill="#eef2ff" stroke="#333333" stroke-width="2" rx="4"/>
  <line x1="20" y1="170" x2="180" y2="170" stroke="#93c5fd" stroke-width="2"/>
  
  <rect x="300" y="140" width="160" height="150" fill="#f0fdf4" stroke="#333333" stroke-width="2" rx="4"/>
  <line x1="300" y1="170" x2="460" y2="170" stroke="#86efac" stroke-width="2"/>
  
  <rect x="40" y="80" width="30" height="170" fill="#94a3b8" stroke="#333333" stroke-width="2" rx="2"/>
  <text x="55" y="105" font-family="sans-serif" font-size="14" font-weight="bold" fill="#ffffff" text-anchor="middle">Zn(s)</text>
  
  <rect x="410" y="80" width="30" height="170" fill="#ea580c" stroke="#333333" stroke-width="2" rx="2"/>
  <text x="425" y="105" font-family="sans-serif" font-size="14" font-weight="bold" fill="#ffffff" text-anchor="middle">Cu(s)</text>

  <path d="M 145,210 L 145,110 Q 145,80 175,80 L 305,80 Q 335,80 335,110 L 335,210" 
        fill="none" stroke="#cbd5e1" stroke-width="32" stroke-linecap="round"/>
  <path d="M 145,210 L 145,110 Q 145,80 175,80 L 305,80 Q 335,80 335,110 L 335,210" 
        fill="none" stroke="#333333" stroke-width="2" stroke-linecap="round"/>
  <text x="240" y="74" font-family="sans-serif" font-size="14" fill="#475569" text-anchor="middle">KNO₃</text>

  <polyline points="55,80 55,40 222,40" fill="none" stroke="#333333" stroke-width="2"/>
  <polyline points="258,40 425,40 425,80" fill="none" stroke="#333333" stroke-width="2"/>
  <circle cx="240" cy="40" r="18" fill="#ffffff" stroke="#333333" stroke-width="2"/>
  <text x="240" y="46" font-family="sans-serif" font-size="16" font-weight="bold" fill="#333333" text-anchor="middle">V</text>

  <line x1="120" y1="25" x2="160" y2="25" stroke="#2563eb" stroke-width="2"/>
  <polygon points="160,22 168,25 160,28" fill="#2563eb"/>
  <text x="144" y="20" font-family="sans-serif" font-size="14" font-weight="bold" fill="#2563eb" text-anchor="middle">e⁻</text>
</svg>
