<svg xmlns="http://www.w3.org/2000/svg" viewBox="0 0 480 320">
  <rect width="480" height="320" fill="#ffffff"/>
  <rect x="40" y="140" width="100" height="130" fill="#eef2ff" stroke="#333333" stroke-width="2" rx="4"/>
  <line x1="40" y1="160" x2="140" y2="160" stroke="#93c5fd" stroke-width="2"/>
  <rect x="340" y="140" width="100" height="130" fill="#f0fdf4" stroke="#333333" stroke-width="2" rx="4"/>
  <line x1="340" y1="160" x2="440" y2="160" stroke="#86efac" stroke-width="2"/>
  <rect x="74" y="110" width="25" height="130" fill="#94a3b8" stroke="#333333" stroke-width="2" rx="2"/>
  <text x="86.4" y="130" font-family="sans-serif" font-size="12" font-weight="bold" fill="#ffffff" text-anchor="middle">Zn(s)</text>
  <rect x="381" y="110" width="25" height="130" fill="#ea580c" stroke="#333333" stroke-width="2" rx="2"/>
  <text x="393.6" y="130" font-family="sans-serif" font-size="12" font-weight="bold" fill="#ffffff" text-anchor="middle">Cu(s)</text>
  <path d="M 160,180 L 160,102.4 Q 160,82.4 180,82.4 L 300,82.4 Q 320,82.4 320,102.4 L 320,180" 
        fill="none" stroke="#cbd5e1" stroke-width="24" stroke-linecap="round"/>
  <path d="M 160,180 L 160,102.4 Q 160,82.4 180,82.4 L 300,82.4 Q 320,82.4 320,102.4 L 320,180" 
        fill="none" stroke="#333333" stroke-width="2" stroke-linecap="round"/>
  <text x="240" y="80" font-family="sans-serif" font-size="11" fill="#475569" text-anchor="middle">KNO₃</text>
  <polyline points="86.4,110 86.4,38.4 210,38.4" fill="none" stroke="#333333" stroke-width="2"/>
  <polyline points="270,38.4 393.6,38.4 393.6,110" fill="none" stroke="#333333" stroke-width="2"/>
  <circle cx="240" cy="38.4" r="16" fill="#ffffff" stroke="#333333" stroke-width="2"/>
  <text x="240" y="43" font-family="sans-serif" font-size="13" font-weight="bold" fill="#333333" text-anchor="middle">V</text>
  <line x1="120" y1="26" x2="160" y2="26" stroke="#2563eb" stroke-width="2"/>
  <polygon points="160,23 168,26 160,29" fill="#2563eb"/>
  <text x="144" y="20" font-family="sans-serif" font-size="11" fill="#2563eb" text-anchor="middle">e⁻</text>
</svg>