<svg xmlns="http://www.w3.org/2000/svg" viewBox="0 0 480 320">
  <rect x="0" y="0" width="480" height="320" fill="#ffffff"/>

  <g fill="none" stroke="#d0d5dd" stroke-width="1">
    <rect x="14" y="14" width="218" height="138" rx="10" fill="#ffffff"/>
    <rect x="246" y="14" width="218" height="138" rx="10" fill="#ffffff"/>
    <rect x="14" y="168" width="218" height="138" rx="10" fill="#ffffff"/>
    <rect x="246" y="168" width="218" height="138" rx="10" fill="#ffffff"/>
  </g>

  

  <g font-family="Helvetica, Arial, sans-serif" font-size="26" font-weight="bold" fill="#101828">
    <text x="153" y="50" text-anchor="middle">HCl</text>
    <text x="385" y="50" text-anchor="middle">HBr</text>
    <text x="177" y="202" text-anchor="end">HNO</text>
    <text x="414" y="202" text-anchor="end">HClO</text>
  </g>
  <g font-family="Helvetica, Arial, sans-serif" font-size="16" font-weight="bold" fill="#101828">
    <text x="178" y="208" text-anchor="start">3</text>
    <text x="415" y="208" text-anchor="start">4</text>
  </g>

  <g fill="none" stroke="#dfe4ea" stroke-width="1" stroke-dasharray="4 4">
    <circle cx="44" cy="83.5" r="17"/>
    <circle cx="277" cy="83.5" r="17"/>
    <circle cx="44" cy="236.5" r="17"/>
    <circle cx="277" cy="236.5" r="17"/>
  </g>

  <g font-family="Helvetica, Arial, sans-serif" font-size="17" fill="#222222" text-anchor="middle">
    <text x="130" y="126">H</text>
    <text x="176" y="126">Cl</text>

    <text x="360" y="126">H</text>
    <text x="408" y="126">Br</text>

    <text x="114" y="276">H</text>
    <text x="142" y="276">O</text>
    <text x="170" y="276">N</text>
    <text x="206" y="254">O</text>
    <text x="206" y="298">O</text>

    <text x="322" y="276">H</text>
    <text x="350" y="276">O</text>
    <text x="378" y="276">Cl</text>
    <text x="414" y="254">O</text>
    <text x="440" y="276">O</text>
    <text x="414" y="298">O</text>
  </g>

  <g stroke="#222222" stroke-width="2" stroke-linecap="round">
    <line x1="138" y1="120" x2="165" y2="120"/>

    <line x1="368" y1="120" x2="396" y2="120"/>

    <line x1="124" y1="270" x2="130" y2="270"/>
    <line x1="153" y1="270" x2="159" y2="270"/>
    <line x1="182" y1="265.0" x2="196" y2="256.0"/>
    <line x1="180" y1="261.6" x2="194" y2="252.6"/>
    <line x1="181" y1="276.5" x2="196" y2="285.5"/>

    <line x1="332" y1="270" x2="338" y2="270"/>
    <line x1="361" y1="270" x2="365" y2="270"/>
    <line x1="392" y1="261.0" x2="403" y2="254.0"/>
    <line x1="394" y1="270" x2="426" y2="270"/>
    <line x1="392" y1="279.0" x2="403" y2="286.0"/>
  </g>
</svg>
