<svg xmlns="http://www.w3.org/2000/svg" viewBox="0 0 480 320">
  <rect x="0" y="0" width="480" height="320" fill="#ffffff"/>

  <g>
    <rect x="30" y="248" width="420" height="11" fill="#cbd5e1"/>
    <line x1="30" y1="259" x2="450" y2="259" stroke="#94a3b8" stroke-width="1.5"/>
    <line x1="40" y1="266" x2="440" y2="266" stroke="#e2e8f0" stroke-width="3"/>
  </g>

  <g>
    <rect x="80" y="64" width="32" height="14" rx="3" fill="#9aa7b4"/>
    <rect x="85" y="78" width="22" height="20" fill="#eef3f7" stroke="#7d8b99" stroke-width="1.5"/>
    <polygon points="85,98 107,98 134,126 58,126" fill="#f4f8fb" stroke="#7d8b99" stroke-width="1.5"/>
    <rect x="58" y="126" width="76" height="122" rx="6" fill="#f4f8fb" stroke="#7d8b99" stroke-width="1.5"/>
    <rect x="62" y="146" width="68" height="98" fill="#e3eaf1"/>
    <line x1="62" y1="146" x2="130" y2="146" stroke="#9fb3c4" stroke-width="1.5"/>
    <rect x="63" y="198" width="66" height="34" rx="3" fill="#ffffff" stroke="#94a3b8" stroke-width="1.5"/>
    <text x="96" y="221" text-anchor="middle" font-family="Helvetica, Arial, sans-serif" font-size="16" fill="#1f2937">HCl</text>
  </g>

  <g>
    <rect x="224" y="64" width="32" height="14" rx="3" fill="#9aa7b4"/>
    <rect x="229" y="78" width="22" height="20" fill="#eef3f7" stroke="#7d8b99" stroke-width="1.5"/>
    <polygon points="229,98 251,98 278,126 202,126" fill="#f4f8fb" stroke="#7d8b99" stroke-width="1.5"/>
    <rect x="202" y="126" width="76" height="122" rx="6" fill="#f4f8fb" stroke="#7d8b99" stroke-width="1.5"/>
    <rect x="206" y="146" width="68" height="98" fill="#e3eaf1"/>
    <line x1="206" y1="146" x2="274" y2="146" stroke="#9fb3c4" stroke-width="1.5"/>
    <rect x="207" y="198" width="66" height="34" rx="3" fill="#ffffff" stroke="#94a3b8" stroke-width="1.5"/>
    <text x="240" y="221" text-anchor="middle" font-family="Helvetica, Arial, sans-serif" font-size="16" fill="#1f2937">NaOH</text>
  </g>

  <g>
    <rect x="368" y="64" width="32" height="14" rx="3" fill="#9aa7b4"/>
    <rect x="373" y="78" width="22" height="20" fill="#eef3f7" stroke="#7d8b99" stroke-width="1.5"/>
    <polygon points="373,98 395,98 422,126 346,126" fill="#f4f8fb" stroke="#7d8b99" stroke-width="1.5"/>
    <rect x="346" y="126" width="76" height="122" rx="6" fill="#f4f8fb" stroke="#7d8b99" stroke-width="1.5"/>
    <rect x="350" y="146" width="68" height="98" fill="#e3eaf1"/>
    <line x1="350" y1="146" x2="418" y2="146" stroke="#9fb3c4" stroke-width="1.5"/>
    <rect x="351" y="198" width="66" height="34" rx="3" fill="#ffffff" stroke="#94a3b8" stroke-width="1.5"/>
    <text x="384" y="219" text-anchor="middle" font-family="Helvetica, Arial, sans-serif" font-size="16" fill="#1f2937"><tspan>H</tspan><tspan font-size="10" dy="5">2</tspan><tspan font-size="16" dy="-5">SO</tspan><tspan font-size="10" dy="5">4</tspan></text>
  </g>
</svg>
