<svg xmlns="http://www.w3.org/2000/svg" viewBox="0 0 480 320">
    <rect width="480" height="320" fill="white"/>
    
    <path d="M 60,30 L 60,270 L 450,270" fill="none" stroke="#333" stroke-width="2"/>
    
    <rect x="79.5" y="30" width="156.0" height="240" fill="#f0f0f0" opacity="0.6"/>
    <path d="M 157.5,30 L 157.5,270" fill="none" stroke="#aaa" stroke-width="1" stroke-dasharray="4,4"/>
    <text x="157.5" y="25" font-family="sans-serif" font-size="12" fill="#555" text-anchor="middle">Half-equivalence</text>
    
    <g font-family="sans-serif" font-size="12" fill="#333" text-anchor="end">
        <text x="50" y="274">0</text>
        <text x="50" y="239">2</text>
        <text x="50" y="205">4</text>
        <text x="50" y="171">6</text>
        <text x="50" y="137">8</text>
        <text x="50" y="102">10</text>
        <text x="50" y="68">12</text>
        <text x="50" y="34">14</text>
    </g>
    <g font-family="sans-serif" font-size="12" fill="#333" text-anchor="middle">
        <text x="60.0" y="290">0</text>
        <text x="157.5" y="290">50</text>
        <text x="255.0" y="290">100</text>
        <text x="352.5" y="290">150</text>
        <text x="450.0" y="290">200</text>
    </g>
    
    <text x="255" y="315" font-family="sans-serif" font-size="14" fill="#333" text-anchor="middle">Volume of Titrant (mL)</text>
    <text x="20" y="150" font-family="sans-serif" font-size="14" fill="#333" text-anchor="middle" transform="rotate(-90 20,150)">pH</text>
    <path d="M 60.2,239.3 L 62.5,239.0 L 64.8,238.6 L 67.1,238.3 L 69.5,237.9 L 71.8,237.6 L 74.1,237.3 L 76.5,236.9 L 78.9,236.6 L 81.3,236.2 L 83.7,235.9 L 86.1,235.5 L 88.5,235.2 L 90.9,234.9 L 93.4,234.5 L 95.9,234.2 L 98.3,233.8 L 100.8,233.5 L 103.3,233.1 L 105.9,232.8 L 108.4,232.5 L 110.9,232.1 L 113.5,231.8 L 116.1,231.4 L 118.6,231.1 L 121.2,230.7 L 123.8,230.4 L 126.4,230.1 L 129.0,229.7 L 131.6,229.4 L 134.2,229.0 L 136.9,228.7 L 139.5,228.3 L 142.1,228.0 L 144.7,227.7 L 147.2,227.3 L 149.8,227.0 L 152.4,226.6 L 154.9,226.3 L 157.5,225.9 L 160.0,225.6 L 162.5,225.3 L 165.0,224.9 L 167.4,224.6 L 169.8,224.2 L 172.2,223.9 L 174.6,223.5 L 176.9,223.2 L 179.2,222.9 L 181.5,222.5 L 183.7,222.2 L 185.9,221.8 L 188.1,221.5 L 190.2,221.1 L 192.3,220.8 L 194.3,220.5 L 196.3,220.1 L 199.2,219.6 L 202.0,219.1 L 204.8,218.6 L 207.4,218.1 L 209.9,217.5 L 212.3,217.0 L 214.6,216.5 L 216.8,216.0 L 219.0,215.5 L 221.0,215.0 L 223.5,214.3 L 225.9,213.6 L 228.2,212.9 L 230.3,212.2 L 232.2,211.5 L 234.5,210.7 L 236.5,209.8 L 238.3,209.0 L 240.4,207.9 L 242.1,206.9 L 243.9,205.7 L 245.7,204.3 L 247.2,203.0 L 248.6,201.4 L 249.9,199.7 L 251.0,197.8 L 251.9,195.9 L 252.6,194.1 L 253.2,192.0 L 253.6,189.9 L 253.9,187.9 L 254.2,185.8 L 254.4,183.8 L 254.5,181.7 L 254.6,179.7 L 254.7,177.6 L 254.8,175.5 L 254.8,173.5 L 254.9,171.4 L 254.9,169.4 L 254.9,167.3 L 254.9,165.3 L 255.0,163.2 L 255.0,161.1 L 255.0,159.1 L 255.0,157.0 L 255.0,155.0 L 255.0,152.9 L 255.0,150.9 L 255.0,148.8 L 255.0,146.7 L 255.0,144.7 L 255.0,142.6 L 255.0,140.6 L 255.0,138.5 L 255.0,136.5 L 255.0,134.4 L 255.0,132.3 L 255.0,130.3 L 255.0,128.2 L 255.0,126.2 L 255.0,124.1 L 255.0,122.1 L 255.0,120.0 L 255.0,117.9 L 255.0,115.9 L 255.1,113.8 L 255.1,111.8 L 255.1,109.7 L 255.1,107.7 L 255.2,105.6 L 255.2,103.5 L 255.3,101.5 L 255.3,99.4 L 255.5,97.4 L 255.6,95.3 L 255.8,93.3 L 256.1,91.2 L 256.4,89.1 L 256.8,87.1 L 257.4,85.0 L 258.1,83.1 L 259.0,81.3 L 260.1,79.5 L 261.4,77.8 L 262.9,76.3 L 264.6,74.9 L 266.3,73.7 L 268.0,72.7 L 270.0,71.7 L 272.0,70.8 L 274.1,69.9 L 276.1,69.3 L 278.2,68.6 L 280.6,67.9 L 282.6,67.4 L 284.7,66.9 L 287.0,66.3 L 289.5,65.8 L 292.2,65.3 L 295.1,64.8 L 297.2,64.5 L 299.5,64.1 L 301.8,63.8 L 304.3,63.4 L 306.9,63.1 L 309.7,62.7 L 312.7,62.4 L 315.8,62.1 L 319.2,61.7 L 322.7,61.4 L 326.5,61.0 L 330.5,60.7 L 332.6,60.5 L 334.8,60.3 L 337.0,60.2 L 339.4,60.0 L 341.8,59.8 L 344.2,59.7 L 346.8,59.5 L 349.5,59.3 L 352.2,59.1 L 355.1,59.0 L 358.0,58.8 L 361.1,58.6 L 364.2,58.5 L 367.5,58.3 L 370.9,58.1 L 374.4,57.9 L 378.1,57.8 L 381.9,57.6 L 385.8,57.4 L 389.9,57.3 L 394.2,57.1 L 398.6,56.9 L 403.2,56.7 L 408.1,56.6 L 413.1,56.4 L 418.3,56.2 L 423.7,56.1 L 429.4,55.9 L 435.4,55.7 L 441.6,55.5 L 448.1,55.4" fill="none" stroke="#e74c3c" stroke-width="2.5"/>
    <path d="M 60.0,209.8 L 60.4,207.8 L 60.7,205.7 L 61.2,203.7 L 61.7,201.6 L 62.3,199.5 L 63.1,197.7 L 64.0,195.8 L 65.0,194.1 L 66.3,192.3 L 67.8,190.8 L 69.3,189.4 L 71.0,188.1 L 72.9,186.9 L 74.6,185.8 L 76.6,184.8 L 78.5,183.9 L 80.5,183.1 L 82.7,182.2 L 84.6,181.5 L 86.7,180.9 L 88.9,180.2 L 91.2,179.5 L 93.7,178.8 L 95.7,178.3 L 97.7,177.8 L 99.9,177.3 L 102.1,176.7 L 104.4,176.2 L 106.8,175.7 L 109.3,175.2 L 111.9,174.7 L 114.6,174.2 L 117.4,173.7 L 120.2,173.1 L 123.1,172.6 L 125.1,172.3 L 127.1,171.9 L 129.2,171.6 L 131.2,171.3 L 133.3,170.9 L 135.4,170.6 L 137.6,170.2 L 139.7,169.9 L 141.9,169.5 L 144.1,169.2 L 146.3,168.9 L 148.5,168.5 L 150.8,168.2 L 153.0,167.8 L 155.3,167.5 L 157.5,167.1 L 159.7,166.8 L 162.0,166.5 L 164.2,166.1 L 166.5,165.8 L 168.7,165.4 L 170.9,165.1 L 173.1,164.7 L 175.3,164.4 L 177.4,164.1 L 179.6,163.7 L 181.7,163.4 L 183.8,163.0 L 185.8,162.7 L 187.9,162.3 L 189.9,162.0 L 191.9,161.7 L 194.8,161.1 L 197.6,160.6 L 200.4,160.1 L 203.1,159.6 L 205.6,159.1 L 208.1,158.6 L 210.6,158.1 L 212.9,157.5 L 215.1,157.0 L 217.3,156.5 L 219.3,156.0 L 221.3,155.5 L 223.8,154.8 L 226.1,154.1 L 228.3,153.4 L 230.4,152.7 L 232.3,152.1 L 234.5,151.2 L 236.5,150.3 L 238.4,149.5 L 240.3,148.5 L 242.1,147.4 L 243.9,146.2 L 245.7,144.9 L 247.2,143.5 L 248.6,141.9 L 249.9,140.2 L 251.0,138.3 L 251.9,136.5 L 252.6,134.6 L 253.2,132.5 L 253.6,130.5 L 253.9,128.4 L 254.2,126.3 L 254.4,124.3 L 254.5,122.2 L 254.7,120.2 L 254.8,118.1 L 254.8,116.1 L 254.9,114.0 L 254.9,111.9 L 255.0,109.9 L 255.0,107.8 L 255.1,105.8 L 255.2,103.7 L 255.2,101.7 L 255.3,99.6 L 255.4,97.5 L 255.6,95.5 L 255.8,93.4 L 256.0,91.4 L 256.4,89.3 L 256.8,87.3 L 257.4,85.2 L 258.0,83.3 L 258.9,81.4 L 260.0,79.7 L 261.3,78.0 L 262.8,76.5 L 264.4,75.1 L 266.0,73.9 L 268.0,72.7 L 270.0,71.7 L 272.0,70.8 L 274.1,69.9 L 276.1,69.3 L 278.2,68.6 L 280.6,67.9 L 282.6,67.4 L 284.7,66.9 L 287.0,66.3 L 289.5,65.8 L 292.2,65.3 L 295.1,64.8 L 297.2,64.5 L 299.5,64.1 L 301.8,63.8 L 304.3,63.4 L 306.9,63.1 L 309.7,62.7 L 312.7,62.4 L 315.8,62.1 L 319.2,61.7 L 322.7,61.4 L 326.5,61.0 L 330.5,60.7 L 332.6,60.5 L 334.8,60.3 L 337.0,60.2 L 339.4,60.0 L 341.8,59.8 L 344.2,59.7 L 346.8,59.5 L 349.5,59.3 L 352.2,59.1 L 355.1,59.0 L 358.0,58.8 L 361.1,58.6 L 364.2,58.5 L 367.5,58.3 L 370.9,58.1 L 374.4,57.9 L 378.1,57.8 L 381.9,57.6 L 385.8,57.4 L 389.9,57.3 L 394.2,57.1 L 398.6,56.9 L 403.2,56.7 L 408.1,56.6 L 413.1,56.4 L 418.3,56.2 L 423.7,56.1 L 429.4,55.9 L 435.4,55.7 L 441.6,55.5 L 448.1,55.4" fill="none" stroke="#9b59b6" stroke-width="2.5"/>
    <path d="M 60.0,180.0 L 60.0,177.9 L 60.0,175.9 L 60.0,173.8 L 60.0,171.8 L 60.0,169.7 L 60.1,167.7 L 60.1,165.6 L 60.1,163.5 L 60.1,161.5 L 60.2,159.4 L 60.2,157.4 L 60.3,155.3 L 60.4,153.3 L 60.5,151.2 L 60.7,149.1 L 60.9,147.1 L 61.2,145.0 L 61.6,143.0 L 62.1,140.9 L 62.7,138.9 L 63.5,137.0 L 64.5,135.1 L 65.6,133.4 L 67.0,131.7 L 68.5,130.1 L 70.2,128.7 L 71.8,127.5 L 73.8,126.3 L 75.6,125.3 L 77.7,124.3 L 79.7,123.4 L 81.8,122.6 L 84.1,121.7 L 86.2,121.0 L 88.3,120.3 L 90.6,119.7 L 93.1,119.0 L 95.0,118.5 L 97.0,117.9 L 99.2,117.4 L 101.4,116.9 L 103.7,116.4 L 106.1,115.9 L 108.5,115.4 L 111.1,114.9 L 113.7,114.3 L 116.5,113.8 L 119.3,113.3 L 122.2,112.8 L 125.1,112.3 L 127.2,111.9 L 129.2,111.6 L 131.3,111.3 L 133.4,110.9 L 135.5,110.6 L 137.6,110.2 L 139.8,109.9 L 142.0,109.5 L 144.2,109.2 L 146.4,108.9 L 148.6,108.5 L 150.9,108.2 L 153.1,107.8 L 155.3,107.5 L 157.6,107.1 L 159.8,106.8 L 162.1,106.5 L 164.3,106.1 L 166.6,105.8 L 168.8,105.4 L 171.0,105.1 L 173.2,104.7 L 175.4,104.4 L 177.6,104.1 L 179.7,103.7 L 181.8,103.4 L 184.0,103.0 L 186.0,102.7 L 188.1,102.3 L 190.1,102.0 L 192.1,101.7 L 195.0,101.1 L 197.9,100.6 L 200.7,100.1 L 203.4,99.6 L 206.0,99.1 L 208.5,98.6 L 210.9,98.1 L 213.3,97.5 L 215.6,97.0 L 217.7,96.5 L 219.8,96.0 L 221.8,95.5 L 224.4,94.8 L 226.8,94.1 L 229.0,93.4 L 231.2,92.7 L 233.2,92.1 L 235.5,91.2 L 237.6,90.3 L 239.6,89.5 L 241.5,88.6 L 243.5,87.6 L 245.3,86.6 L 247.3,85.4 L 249.1,84.2 L 250.8,83.0 L 252.5,81.8 L 254.2,80.4 L 256.0,79.0 L 257.6,77.8 L 259.3,76.6 L 261.2,75.4 L 263.2,74.2 L 265.1,73.2 L 267.2,72.2 L 269.2,71.3 L 271.3,70.5 L 273.3,69.8 L 275.4,69.1 L 277.7,68.4 L 280.2,67.7 L 282.3,67.2 L 284.5,66.7 L 287.0,66.2 L 289.6,65.7 L 292.4,65.1 L 294.4,64.8 L 296.5,64.5 L 298.8,64.1 L 301.2,63.8 L 303.7,63.4 L 306.3,63.1 L 309.1,62.7 L 312.1,62.4 L 315.3,62.1 L 318.6,61.7 L 322.2,61.4 L 326.0,61.0 L 330.0,60.7 L 332.2,60.5 L 334.3,60.3 L 336.6,60.2 L 338.9,60.0 L 341.3,59.8 L 343.8,59.7 L 346.4,59.5 L 349.1,59.3 L 351.8,59.1 L 354.7,59.0 L 357.6,58.8 L 360.7,58.6 L 363.9,58.5 L 367.1,58.3 L 370.5,58.1 L 374.1,57.9 L 377.7,57.8 L 381.5,57.6 L 385.5,57.4 L 389.6,57.3 L 393.9,57.1 L 398.3,56.9 L 402.9,56.7 L 407.7,56.6 L 412.8,56.4 L 418.0,56.2 L 423.4,56.1 L 429.1,55.9 L 435.1,55.7 L 441.3,55.5 L 447.8,55.4" fill="none" stroke="#3498db" stroke-width="2.5"/>

    <!-- Marker dots -->
    <circle cx="118.5" cy="231.1" r="4" fill="#e74c3c" />
    <circle cx="196.5" cy="160.6" r="4" fill="#9b59b6" />
    <circle cx="118.5" cy="113.3" r="4" fill="#3498db" />

    <!-- Marker for b-area -->
    <path d="M 79.5,45 L 235.5,45" fill="none" stroke="#555" stroke-width="1.5" />
    <path d="M 79.5,40 L 79.5,50" fill="none" stroke="#555" stroke-width="1.5" />
    <path d="M 235.5,40 L 235.5,50" fill="none" stroke="#555" stroke-width="1.5" />
    <circle cx="118.5" cy="50.0" r="4" fill="#555" />
</svg>
