<svg xmlns="http://www.w3.org/2000/svg" viewBox="0 0 480 320">
  <rect width="480" height="320" fill="white"/>
  
  <!-- Axes -->
  <polyline points="60,40 60,280 450,280" fill="none" stroke="#333" stroke-width="2"/>
  
  <!-- Y-axis labels and ticks -->
  <!-- 0, 2, 4, 6, 8, 10, 12, 14 -->
  <line x1="55" y1="280.0" x2="60" y2="280.0" stroke="#333" stroke-width="1"/>
  <text x="50" y="284.0" font-family="sans-serif" font-size="12" text-anchor="end" fill="#333">0</text>
  <line x1="55" y1="245.71428571428572" x2="60" y2="245.71428571428572" stroke="#333" stroke-width="1"/>
  <text x="50" y="249.71428571428572" font-family="sans-serif" font-size="12" text-anchor="end" fill="#333">2</text>
  <line x1="55" y1="211.42857142857144" x2="60" y2="211.42857142857144" stroke="#333" stroke-width="1"/>
  <text x="50" y="215.42857142857144" font-family="sans-serif" font-size="12" text-anchor="end" fill="#333">4</text>
  <line x1="55" y1="177.14285714285717" x2="60" y2="177.14285714285717" stroke="#333" stroke-width="1"/>
  <text x="50" y="181.14285714285717" font-family="sans-serif" font-size="12" text-anchor="end" fill="#333">6</text>
  <line x1="55" y1="142.85714285714286" x2="60" y2="142.85714285714286" stroke="#333" stroke-width="1"/>
  <text x="50" y="146.85714285714286" font-family="sans-serif" font-size="12" text-anchor="end" fill="#333">8</text>
  <line x1="55" y1="108.57142857142856" x2="60" y2="108.57142857142856" stroke="#333" stroke-width="1"/>
  <text x="50" y="112.57142857142856" font-family="sans-serif" font-size="12" text-anchor="end" fill="#333">10</text>
  <line x1="55" y1="74.2857142857143" x2="60" y2="74.2857142857143" stroke="#333" stroke-width="1"/>
  <text x="50" y="78.2857142857143" font-family="sans-serif" font-size="12" text-anchor="end" fill="#333">12</text>
  <line x1="55" y1="40.0" x2="60" y2="40.0" stroke="#333" stroke-width="1"/>
  <text x="50" y="44.0" font-family="sans-serif" font-size="12" text-anchor="end" fill="#333">14</text>
  <text x="25" y="160.0" font-family="sans-serif" font-size="14" text-anchor="middle" transform="rotate(-90 25,160.0)" fill="#333">pH</text>
  <line x1="60.0" y1="280" x2="60.0" y2="285" stroke="#333" stroke-width="1"/>
  <text x="60.0" y="300" font-family="sans-serif" font-size="12" text-anchor="middle" fill="#333">0</text>
  <line x1="125.0" y1="280" x2="125.0" y2="285" stroke="#333" stroke-width="1"/>
  <text x="125.0" y="300" font-family="sans-serif" font-size="12" text-anchor="middle" fill="#333">5</text>
  <line x1="190.0" y1="280" x2="190.0" y2="285" stroke="#333" stroke-width="1"/>
  <text x="190.0" y="300" font-family="sans-serif" font-size="12" text-anchor="middle" fill="#333">10</text>
  <line x1="255.0" y1="280" x2="255.0" y2="285" stroke="#333" stroke-width="1"/>
  <text x="255.0" y="300" font-family="sans-serif" font-size="12" text-anchor="middle" fill="#333">15</text>
  <line x1="320.0" y1="280" x2="320.0" y2="285" stroke="#333" stroke-width="1"/>
  <text x="320.0" y="300" font-family="sans-serif" font-size="12" text-anchor="middle" fill="#333">20</text>
  <line x1="385.0" y1="280" x2="385.0" y2="285" stroke="#333" stroke-width="1"/>
  <text x="385.0" y="300" font-family="sans-serif" font-size="12" text-anchor="middle" fill="#333">25</text>
  <line x1="450.0" y1="280" x2="450.0" y2="285" stroke="#333" stroke-width="1"/>
  <text x="450.0" y="300" font-family="sans-serif" font-size="12" text-anchor="middle" fill="#333">30</text>
  <text x="255.0" y="320" font-family="sans-serif" font-size="14" text-anchor="middle" fill="#333">Volume of strong acid added (mL)</text>
  <text x="240" y="25" font-family="sans-serif" font-size="16" text-anchor="middle" font-weight="bold" fill="#333">Titration of NH&#8323; with Strong Acid</text>
  <path d="M 60.0,89.3 L 61.3,82.0 L 62.6,87.2 L 63.9,90.3 L 65.2,92.5 L 66.5,94.2 L 67.8,95.5 L 69.1,96.7 L 70.4,97.8 L 71.7,98.7 L 73.0,99.5 L 74.3,100.3 L 75.6,100.9 L 76.9,101.6 L 78.2,102.2 L 79.5,102.7 L 80.8,103.2 L 82.1,103.7 L 83.4,104.2 L 84.7,104.6 L 86.0,105.1 L 87.3,105.5 L 88.6,105.9 L 89.9,106.2 L 91.2,106.6 L 92.5,106.9 L 93.8,107.3 L 95.1,107.6 L 96.4,107.9 L 97.7,108.2 L 99.0,108.5 L 100.3,108.8 L 101.6,109.1 L 102.9,109.4 L 104.2,109.6 L 105.5,109.9 L 106.8,110.1 L 108.1,110.4 L 109.4,110.6 L 110.7,110.9 L 112.0,111.1 L 113.3,111.3 L 114.6,111.6 L 115.9,111.8 L 117.2,112.0 L 118.5,112.2 L 119.8,112.4 L 121.1,112.6 L 122.4,112.8 L 123.7,113.0 L 125.0,113.2 L 126.3,113.4 L 127.6,113.6 L 128.9,113.8 L 130.2,114.0 L 131.5,114.2 L 132.8,114.4 L 134.1,114.6 L 135.4,114.8 L 136.7,114.9 L 138.0,115.1 L 139.3,115.3 L 140.6,115.5 L 141.9,115.6 L 143.2,115.8 L 144.5,116.0 L 145.8,116.2 L 147.1,116.3 L 148.4,116.5 L 149.7,116.7 L 151.0,116.8 L 152.3,117.0 L 153.6,117.1 L 154.9,117.3 L 156.2,117.5 L 157.5,117.6 L 158.8,117.8 L 160.1,117.9 L 161.4,118.1 L 162.7,118.3 L 164.0,118.4 L 165.3,118.6 L 166.6,118.7 L 167.9,118.9 L 169.2,119.0 L 170.5,119.2 L 171.8,119.3 L 173.1,119.5 L 174.4,119.6 L 175.7,119.8 L 177.0,119.9 L 178.3,120.1 L 179.6,120.2 L 180.9,120.4 L 182.2,120.5 L 183.5,120.7 L 184.8,120.8 L 186.1,121.0 L 187.4,121.1 L 188.7,121.3 L 190.0,121.4 L 191.3,121.6 L 192.6,121.7 L 193.9,121.9 L 195.2,122.0 L 196.5,122.2 L 197.8,122.3 L 199.1,122.5 L 200.4,122.6 L 201.7,122.8 L 203.0,122.9 L 204.3,123.1 L 205.6,123.2 L 206.9,123.4 L 208.2,123.5 L 209.5,123.7 L 210.8,123.8 L 212.1,124.0 L 213.4,124.1 L 214.7,124.3 L 216.0,124.4 L 217.3,124.6 L 218.6,124.8 L 219.9,124.9 L 221.2,125.1 L 222.5,125.2 L 223.8,125.4 L 225.1,125.6 L 226.4,125.7 L 227.7,125.9 L 229.0,126.0 L 230.3,126.2 L 231.6,126.4 L 232.9,126.5 L 234.2,126.7 L 235.5,126.9 L 236.8,127.0 L 238.1,127.2 L 239.4,127.4 L 240.7,127.6 L 242.0,127.7 L 243.3,127.9 L 244.6,128.1 L 245.9,128.3 L 247.2,128.5 L 248.5,128.6 L 249.8,128.8 L 251.1,129.0 L 252.4,129.2 L 253.7,129.4 L 255.0,129.6 L 256.3,129.8 L 257.6,130.0 L 258.9,130.2 L 260.2,130.4 L 261.5,130.6 L 262.8,130.9 L 264.1,131.1 L 265.4,131.3 L 266.7,131.5 L 268.0,131.7 L 269.3,132.0 L 270.6,132.2 L 271.9,132.5 L 273.2,132.7 L 274.5,133.0 L 275.8,133.2 L 277.1,133.5 L 278.4,133.8 L 279.7,134.1 L 281.0,134.3 L 282.3,134.6 L 283.6,134.9 L 284.9,135.3 L 286.2,135.6 L 287.5,135.9 L 288.8,136.3 L 290.1,136.6 L 291.4,137.0 L 292.7,137.4 L 294.0,137.8 L 295.3,138.2 L 296.6,138.7 L 297.9,139.1 L 299.2,139.6 L 300.5,140.1 L 301.8,140.7 L 303.1,141.3 L 304.4,141.9 L 305.7,142.6 L 307.0,143.4 L 308.3,144.2 L 309.6,145.1 L 310.9,146.1 L 312.2,147.3 L 313.5,148.7 L 314.8,150.4 L 316.1,152.6 L 317.4,155.6 L 318.7,160.8 L 320.0,189.6 L 321.3,218.2 L 322.6,223.4 L 323.9,226.4 L 325.2,228.5 L 326.5,230.1 L 327.8,231.5 L 329.1,232.6 L 330.4,233.6 L 331.7,234.4 L 333.0,235.2 L 334.3,235.9 L 335.6,236.5 L 336.9,237.1 L 338.2,237.6 L 339.5,238.1 L 340.8,238.6 L 342.1,239.0 L 343.4,239.4 L 344.7,239.8 L 346.0,240.2 L 347.3,240.5 L 348.6,240.9 L 349.9,241.2 L 351.2,241.5 L 352.5,241.8 L 353.8,242.0 L 355.1,242.3 L 356.4,242.6 L 357.7,242.8 L 359.0,243.0 L 360.3,243.3 L 361.6,243.5 L 362.9,243.7 L 364.2,243.9 L 365.5,244.1 L 366.8,244.3 L 368.1,244.5 L 369.4,244.7 L 370.7,244.8 L 372.0,245.0 L 373.3,245.2 L 374.6,245.3 L 375.9,245.5 L 377.2,245.6 L 378.5,245.8 L 379.8,245.9 L 381.1,246.1 L 382.4,246.2 L 383.7,246.4 L 385.0,246.5 L 386.3,246.6 L 387.6,246.8 L 388.9,246.9 L 390.2,247.0 L 391.5,247.1 L 392.8,247.2 L 394.1,247.4 L 395.4,247.5 L 396.7,247.6 L 398.0,247.7 L 399.3,247.8 L 400.6,247.9 L 401.9,248.0 L 403.2,248.1 L 404.5,248.2 L 405.8,248.3 L 407.1,248.4 L 408.4,248.5 L 409.7,248.6 L 411.0,248.7 L 412.3,248.8 L 413.6,248.9 L 414.9,248.9 L 416.2,249.0 L 417.5,249.1 L 418.8,249.2 L 420.1,249.3 L 421.4,249.4 L 422.7,249.4 L 424.0,249.5 L 425.3,249.6 L 426.6,249.7 L 427.9,249.7 L 429.2,249.8 L 430.5,249.9 L 431.8,250.0 L 433.1,250.0 L 434.4,250.1 L 435.7,250.2 L 437.0,250.2 L 438.3,250.3 L 439.6,250.4 L 440.9,250.4 L 442.2,250.5 L 443.5,250.6 L 444.8,250.6 L 446.1,250.7 L 447.4,250.8 L 448.7,250.8 L 450.0,250.9" fill="none" stroke="blue" stroke-width="2.5"/>
</svg>