<svg xmlns="http://www.w3.org/2000/svg" viewBox="0 0 480 320">
  <rect width="480" height="320" fill="white" />
  <g font-family="sans-serif" font-size="14" fill="#333">
    <!-- Axes -->
    <line x1="60" y1="280" x2="440" y2="280" stroke="#333" stroke-width="2" />
    <line x1="60" y1="280" x2="60" y2="40" stroke="#333" stroke-width="2" />
    
    <!-- Y-axis ticks (pH) -->
    <line x1="55" y1="280" x2="60" y2="280" stroke="#333" stroke-width="1"/>
    <text x="45" y="285" text-anchor="end">0</text>
    <line x1="55" y1="245.7" x2="60" y2="245.7" stroke="#333" stroke-width="1"/>
    <text x="45" y="250.7" text-anchor="end">2</text>
    <line x1="55" y1="211.4" x2="60" y2="211.4" stroke="#333" stroke-width="1"/>
    <text x="45" y="216.4" text-anchor="end">4</text>
    <line x1="55" y1="177.1" x2="60" y2="177.1" stroke="#333" stroke-width="1"/>
    <text x="45" y="182.1" text-anchor="end">6</text>
    <line x1="55" y1="142.9" x2="60" y2="142.9" stroke="#333" stroke-width="1"/>
    <text x="45" y="147.9" text-anchor="end">8</text>
    <line x1="55" y1="108.6" x2="60" y2="108.6" stroke="#333" stroke-width="1"/>
    <text x="45" y="113.6" text-anchor="end">10</text>
    <line x1="55" y1="74.3" x2="60" y2="74.3" stroke="#333" stroke-width="1"/>
    <text x="45" y="79.3" text-anchor="end">12</text>
    <line x1="55" y1="40" x2="60" y2="40" stroke="#333" stroke-width="1"/>
    <text x="45" y="45" text-anchor="end">14</text>
    
    <text x="25" y="160" transform="rotate(-90 25 160)" text-anchor="middle" font-weight="bold">pH</text>
    
    <!-- X-axis ticks (Volume base) -->
    <line x1="150" y1="280" x2="150" y2="285" stroke="#333" stroke-width="1"/>
    <text x="150" y="300" text-anchor="middle">10</text>
    <line x1="240" y1="280" x2="240" y2="285" stroke="#333" stroke-width="1"/>
    <text x="240" y="300" text-anchor="middle">20</text>
    <line x1="330" y1="280" x2="330" y2="285" stroke="#333" stroke-width="1"/>
    <text x="330" y="300" text-anchor="middle">30</text>
    <line x1="420" y1="280" x2="420" y2="285" stroke="#333" stroke-width="1"/>
    <text x="420" y="300" text-anchor="middle">40</text>
    
    <text x="250" y="315" text-anchor="middle" font-weight="bold">Volume of Strong Base Added (mL)</text>
    
    <!-- Title or hint without leaking answers -->
    <text x="250" y="25" text-anchor="middle" font-weight="bold" font-size="16">Titration of NH4+</text>
    
    <!-- The Curve -->
    <path d="M 60.0 192.1 L 60.0 191.9 L 60.0 191.7 L 60.0 191.5 L 60.0 191.4 L 60.0 191.2 L 60.0 191.0 L 60.0 190.9 L 60.0 190.7 L 60.0 190.5 L 60.0 190.3 L 60.0 190.2 L 60.0 190.0 L 60.0 189.8 L 60.0 189.7 L 60.0 189.5 L 60.0 189.3 L 60.0 189.1 L 60.0 189.0 L 60.0 188.8 L 60.0 188.6 L 60.0 188.5 L 60.0 188.3 L 60.0 188.1 L 60.0 187.9 L 60.0 187.8 L 60.0 187.6 L 60.0 187.4 L 60.0 187.3 L 60.0 187.1 L 60.0 186.9 L 60.0 186.7 L 60.0 186.6 L 60.0 186.4 L 60.0 186.2 L 60.0 186.1 L 60.0 185.9 L 60.0 185.7 L 60.0 185.5 L 60.0 185.4 L 60.0 185.2 L 60.0 185.0 L 60.0 184.9 L 60.0 184.7 L 60.0 184.5 L 60.0 184.3 L 60.0 184.2 L 60.0 184.0 L 60.0 183.8 L 60.0 183.7 L 60.0 183.5 L 60.0 183.3 L 60.0 183.1 L 60.0 183.0 L 60.0 182.8 L 60.0 182.6 L 60.0 182.5 L 60.0 182.3 L 60.0 182.1 L 60.0 181.9 L 60.1 181.8 L 60.1 181.6 L 60.1 181.4 L 60.1 181.3 L 60.1 181.1 L 60.1 180.9 L 60.1 180.7 L 60.1 180.6 L 60.1 180.4 L 60.1 180.2 L 60.1 180.1 L 60.1 179.9 L 60.1 179.7 L 60.1 179.5 L 60.1 179.4 L 60.1 179.2 L 60.1 179.0 L 60.1 178.9 L 60.1 178.7 L 60.1 178.5 L 60.1 178.3 L 60.1 178.2 L 60.1 178.0 L 60.1 177.8 L 60.1 177.7 L 60.1 177.5 L 60.1 177.3 L 60.1 177.1 L 60.1 177.0 L 60.1 176.8 L 60.1 176.6 L 60.1 176.5 L 60.1 176.3 L 60.1 176.1 L 60.1 175.9 L 60.1 175.8 L 60.1 175.6 L 60.1 175.4 L 60.1 175.3 L 60.1 175.1 L 60.1 174.9 L 60.1 174.7 L 60.1 174.6 L 60.1 174.4 L 60.1 174.2 L 60.2 174.1 L 60.2 173.9 L 60.2 173.7 L 60.2 173.5 L 60.2 173.4 L 60.2 173.2 L 60.2 173.0 L 60.2 172.9 L 60.2 172.7 L 60.2 172.5 L 60.2 172.3 L 60.2 172.2 L 60.2 172.0 L 60.2 171.8 L 60.2 171.7 L 60.2 171.5 L 60.2 171.3 L 60.2 171.1 L 60.2 171.0 L 60.2 170.8 L 60.2 170.6 L 60.2 170.5 L 60.3 170.3 L 60.3 170.1 L 60.3 169.9 L 60.3 169.8 L 60.3 169.6 L 60.3 169.4 L 60.3 169.3 L 60.3 169.1 L 60.3 168.9 L 60.3 168.7 L 60.3 168.6 L 60.3 168.4 L 60.3 168.2 L 60.3 168.1 L 60.3 167.9 L 60.4 167.7 L 60.4 167.5 L 60.4 167.4 L 60.4 167.2 L 60.4 167.0 L 60.4 166.9 L 60.4 166.7 L 60.4 166.5 L 60.4 166.3 L 60.4 166.2 L 60.5 166.0 L 60.5 165.8 L 60.5 165.7 L 60.5 165.5 L 60.5 165.3 L 60.5 165.1 L 60.5 165.0 L 60.5 164.8 L 60.5 164.6 L 60.6 164.5 L 60.6 164.3 L 60.6 164.1 L 60.6 163.9 L 60.6 163.8 L 60.6 163.6 L 60.6 163.4 L 60.7 163.3 L 60.7 163.1 L 60.7 162.9 L 60.7 162.7 L 60.7 162.6 L 60.7 162.4 L 60.7 162.2 L 60.8 162.1 L 60.8 161.9 L 60.8 161.7 L 60.8 161.5 L 60.8 161.4 L 60.9 161.2 L 60.9 161.0 L 60.9 160.9 L 60.9 160.7 L 60.9 160.5 L 61.0 160.3 L 61.0 160.2 L 61.0 160.0 L 61.0 159.8 L 61.1 159.7 L 61.1 159.5 L 61.1 159.3 L 61.1 159.1 L 61.2 159.0 L 61.2 158.8 L 61.2 158.6 L 61.2 158.5 L 61.3 158.3 L 61.3 158.1 L 61.3 157.9 L 61.4 157.8 L 61.4 157.6 L 61.4 157.4 L 61.5 157.3 L 61.5 157.1 L 61.5 156.9 L 61.6 156.7 L 61.6 156.6 L 61.6 156.4 L 61.7 156.2 L 61.7 156.1 L 61.7 155.9 L 61.8 155.7 L 61.8 155.5 L 61.9 155.4 L 61.9 155.2 L 62.0 155.0 L 62.0 154.9 L 62.0 154.7 L 62.1 154.5 L 62.1 154.3 L 62.2 154.2 L 62.2 154.0 L 62.3 153.8 L 62.3 153.7 L 62.4 153.5 L 62.5 153.3 L 62.5 153.1 L 62.6 153.0 L 62.6 152.8 L 62.7 152.6 L 62.7 152.5 L 62.8 152.3 L 62.9 152.1 L 62.9 151.9 L 63.0 151.8 L 63.1 151.6 L 63.1 151.4 L 63.2 151.3 L 63.3 151.1 L 63.4 150.9 L 63.4 150.7 L 63.5 150.6 L 63.6 150.4 L 63.7 150.2 L 63.8 150.1 L 63.9 149.9 L 63.9 149.7 L 64.0 149.5 L 64.1 149.4 L 64.2 149.2 L 64.3 149.0 L 64.4 148.9 L 64.5 148.7 L 64.6 148.5 L 64.7 148.3 L 64.8 148.2 L 64.9 148.0 L 65.0 147.8 L 65.2 147.7 L 65.3 147.5 L 65.4 147.3 L 65.5 147.1 L 65.6 147.0 L 65.8 146.8 L 65.9 146.6 L 66.0 146.5 L 66.2 146.3 L 66.3 146.1 L 66.4 145.9 L 66.6 145.8 L 66.7 145.6 L 66.9 145.4 L 67.0 145.3 L 67.2 145.1 L 67.4 144.9 L 67.5 144.7 L 67.7 144.6 L 67.9 144.4 L 68.0 144.2 L 68.2 144.1 L 68.4 143.9 L 68.6 143.7 L 68.8 143.5 L 69.0 143.4 L 69.2 143.2 L 69.4 143.0 L 69.6 142.9 L 69.8 142.7 L 70.0 142.5 L 70.2 142.3 L 70.5 142.2 L 70.7 142.0 L 70.9 141.8 L 71.2 141.7 L 71.4 141.5 L 71.6 141.3 L 71.9 141.1 L 72.2 141.0 L 72.4 140.8 L 72.7 140.6 L 73.0 140.5 L 73.2 140.3 L 73.5 140.1 L 73.8 139.9 L 74.1 139.8 L 74.4 139.6 L 74.7 139.4 L 75.0 139.3 L 75.4 139.1 L 75.7 138.9 L 76.0 138.7 L 76.4 138.6 L 76.7 138.4 L 77.1 138.2 L 77.4 138.1 L 77.8 137.9 L 78.2 137.7 L 78.5 137.5 L 78.9 137.4 L 79.3 137.2 L 79.7 137.0 L 80.1 136.9 L 80.5 136.7 L 81.0 136.5 L 81.4 136.3 L 81.8 136.2 L 82.3 136.0 L 82.7 135.8 L 83.2 135.7 L 83.7 135.5 L 84.1 135.3 L 84.6 135.1 L 85.1 135.0 L 85.6 134.8 L 86.1 134.6 L 86.7 134.5 L 87.2 134.3 L 87.7 134.1 L 88.3 133.9 L 88.8 133.8 L 89.4 133.6 L 89.9 133.4 L 90.5 133.3 L 91.1 133.1 L 91.7 132.9 L 92.3 132.7 L 92.9 132.6 L 93.6 132.4 L 94.2 132.2 L 94.8 132.1 L 95.5 131.9 L 96.1 131.7 L 96.8 131.5 L 97.5 131.4 L 98.2 131.2 L 98.9 131.0 L 99.6 130.9 L 100.3 130.7 L 101.0 130.5 L 101.8 130.3 L 102.5 130.2 L 103.3 130.0 L 104.0 129.8 L 104.8 129.7 L 105.6 129.5 L 106.4 129.3 L 107.2 129.1 L 108.0 129.0 L 108.8 128.8 L 109.6 128.6 L 110.4 128.5 L 111.3 128.3 L 112.1 128.1 L 113.0 127.9 L 113.8 127.8 L 114.7 127.6 L 115.6 127.4 L 116.5 127.3 L 117.4 127.1 L 118.3 126.9 L 119.2 126.7 L 120.1 126.6 L 121.0 126.4 L 122.0 126.2 L 122.9 126.1 L 123.9 125.9 L 124.8 125.7 L 125.8 125.5 L 126.7 125.4 L 127.7 125.2 L 128.7 125.0 L 129.7 124.9 L 130.6 124.7 L 131.6 124.5 L 132.6 124.3 L 133.6 124.2 L 134.6 124.0 L 135.7 123.8 L 136.7 123.7 L 137.7 123.5 L 138.7 123.3 L 139.7 123.1 L 140.7 123.0 L 141.8 122.8 L 142.8 122.6 L 143.8 122.5 L 144.9 122.3 L 145.9 122.1 L 146.9 121.9 L 148.0 121.8 L 149.0 121.6 L 150.0 121.4 L 151.1 121.3 L 152.1 121.1 L 153.2 120.9 L 154.2 120.7 L 155.2 120.6 L 156.3 120.4 L 157.3 120.2 L 158.3 120.1 L 159.4 119.9 L 160.4 119.7 L 161.4 119.5 L 162.4 119.4 L 163.4 119.2 L 164.5 119.0 L 165.5 118.9 L 166.5 118.7 L 167.5 118.5 L 168.5 118.3 L 169.5 118.2 L 170.4 118.0 L 171.4 117.8 L 172.4 117.7 L 173.4 117.5 L 174.3 117.3 L 175.3 117.1 L 176.3 117.0 L 177.2 116.8 L 178.1 116.6 L 179.1 116.5 L 180.0 116.3 L 180.9 116.1 L 181.8 115.9 L 182.8 115.8 L 183.7 115.6 L 184.5 115.4 L 185.4 115.3 L 186.3 115.1 L 187.2 114.9 L 188.0 114.7 L 188.9 114.6 L 189.7 114.4 L 190.6 114.2 L 191.4 114.1 L 192.2 113.9 L 193.0 113.7 L 193.8 113.5 L 194.6 113.4 L 195.4 113.2 L 196.2 113.0 L 196.9 112.9 L 197.7 112.7 L 198.4 112.5 L 199.2 112.3 L 199.9 112.2 L 200.6 112.0 L 201.3 111.8 L 202.0 111.7 L 202.7 111.5 L 203.4 111.3 L 204.1 111.1 L 204.8 111.0 L 205.4 110.8 L 206.1 110.6 L 206.7 110.5 L 207.3 110.3 L 208.0 110.1 L 208.6 109.9 L 209.2 109.8 L 209.8 109.6 L 210.4 109.4 L 210.9 109.3 L 211.5 109.1 L 212.1 108.9 L 212.6 108.7 L 213.2 108.6 L 213.7 108.4 L 214.2 108.2 L 214.7 108.1 L 215.2 107.9 L 215.8 107.7 L 216.2 107.5 L 216.7 107.4 L 217.2 107.2 L 217.7 107.0 L 218.1 106.9 L 218.6 106.7 L 219.1 106.5 L 219.5 106.3 L 219.9 106.2 L 220.4 106.0 L 220.8 105.8 L 221.2 105.7 L 221.6 105.5 L 222.0 105.3 L 222.4 105.1 L 222.8 105.0 L 223.1 104.8 L 223.5 104.6 L 223.9 104.5 L 224.2 104.3 L 224.6 104.1 L 225.0 103.9 L 225.3 103.8 L 225.6 103.6 L 226.0 103.4 L 226.3 103.3 L 226.6 103.1 L 226.9 102.9 L 227.2 102.7 L 227.5 102.6 L 227.8 102.4 L 228.1 102.2 L 228.4 102.1 L 228.7 101.9 L 229.0 101.7 L 229.3 101.5 L 229.5 101.4 L 229.8 101.2 L 230.0 101.0 L 230.3 100.9 L 230.6 100.7 L 230.8 100.5 L 231.1 100.3 L 231.3 100.2 L 231.5 100.0 L 231.8 99.8 L 232.0 99.7 L 232.2 99.5 L 232.4 99.3 L 232.7 99.1 L 232.9 99.0 L 233.1 98.8 L 233.3 98.6 L 233.5 98.5 L 233.7 98.3 L 233.9 98.1 L 234.1 97.9 L 234.3 97.8 L 234.5 97.6 L 234.7 97.4 L 234.9 97.3 L 235.1 97.1 L 235.3 96.9 L 235.4 96.7 L 235.6 96.6 L 235.8 96.4 L 236.0 96.2 L 236.1 96.1 L 236.3 95.9 L 236.5 95.7 L 236.7 95.5 L 236.8 95.4 L 237.0 95.2 L 237.2 95.0 L 237.3 94.9 L 237.5 94.7 L 237.6 94.5 L 237.8 94.3 L 238.0 94.2 L 238.1 94.0 L 238.3 93.8 L 238.4 93.7 L 238.6 93.5 L 238.8 93.3 L 238.9 93.1 L 239.1 93.0 L 239.2 92.8 L 239.4 92.6 L 239.5 92.5 L 239.7 92.3 L 239.8 92.1 L 240.0 91.9 L 240.1 91.8 L 240.3 91.6 L 240.5 91.4 L 240.6 91.3 L 240.8 91.1 L 240.9 90.9 L 241.1 90.7 L 241.2 90.6 L 241.4 90.4 L 241.6 90.2 L 241.7 90.1 L 241.9 89.9 L 242.1 89.7 L 242.2 89.5 L 242.4 89.4 L 242.5 89.2 L 242.7 89.0 L 242.9 88.9 L 243.1 88.7 L 243.2 88.5 L 243.4 88.3 L 243.6 88.2 L 243.8 88.0 L 244.0 87.8 L 244.1 87.7 L 244.3 87.5 L 244.5 87.3 L 244.7 87.1 L 244.9 87.0 L 245.1 86.8 L 245.3 86.6 L 245.5 86.5 L 245.7 86.3 L 245.9 86.1 L 246.1 85.9 L 246.3 85.8 L 246.6 85.6 L 246.8 85.4 L 247.0 85.3 L 247.3 85.1 L 247.5 84.9 L 247.7 84.7 L 248.0 84.6 L 248.2 84.4 L 248.5 84.2 L 248.7 84.1 L 249.0 83.9 L 249.3 83.7 L 249.6 83.5 L 249.8 83.4 L 250.1 83.2 L 250.4 83.0 L 250.7 82.9 L 251.0 82.7 L 251.3 82.5 L 251.7 82.3 L 252.0 82.2 L 252.3 82.0 L 252.7 81.8 L 253.0 81.7 L 253.4 81.5 L 253.7 81.3 L 254.1 81.1 L 254.5 81.0 L 254.9 80.8 L 255.3 80.6 L 255.7 80.5 L 256.1 80.3 L 256.5 80.1 L 256.9 79.9 L 257.4 79.8 L 257.9 79.6 L 258.3 79.4 L 258.8 79.3 L 259.3 79.1 L 259.8 78.9 L 260.3 78.7 L 260.8 78.6 L 261.4 78.4 L 261.9 78.2 L 262.5 78.1 L 263.1 77.9 L 263.7 77.7 L 264.3 77.5 L 265.0 77.4 L 265.6 77.2 L 266.3 77.0 L 266.9 76.9 L 267.6 76.7 L 268.4 76.5 L 269.1 76.3 L 269.9 76.2 L 270.6 76.0 L 271.4 75.8 L 272.2 75.7 L 273.1 75.5 L 273.9 75.3 L 274.8 75.1 L 275.7 75.0 L 276.7 74.8 L 277.6 74.6 L 278.6 74.5 L 279.6 74.3 L 280.7 74.1 L 281.8 73.9 L 282.9 73.8 L 284.0 73.6 L 285.2 73.4 L 286.4 73.3 L 287.6 73.1 L 288.9 72.9 L 290.2 72.7 L 291.6 72.6 L 293.0 72.4 L 294.4 72.2 L 295.9 72.1 L 297.4 71.9 L 299.0 71.7 L 300.6 71.5 L 302.2 71.4 L 304.0 71.2 L 305.7 71.0 L 307.6 70.9 L 309.5 70.7 L 311.4 70.5 L 313.4 70.3 L 315.5 70.2 L 317.6 70.0 L 319.9 69.8 L 322.2 69.7 L 324.5 69.5 L 327.0 69.3 L 329.5 69.1 L 332.2 69.0 L 334.9 68.8 L 337.7 68.6 L 340.6 68.5 L 343.7 68.3 L 346.8 68.1 L 350.1 67.9 L 353.4 67.8 L 356.9 67.6 L 360.6 67.4 L 364.4 67.3 L 368.3 67.1 L 372.4 66.9 L 376.7 66.7 L 381.1 66.6 L 385.7 66.4 L 390.6 66.2 L 395.6 66.1 L 400.9 65.9 L 406.3 65.7 L 412.1 65.5 L 418.1 65.4" fill="none" stroke="#2b8cbe" stroke-width="2.5" />
    
    <!-- Points representing key regions -->
    <!-- Point 1 at V=2 -->
    <circle cx="78.0" cy="137.8" r="4" fill="#333" />
    
    <!-- Point 2 at V=10 -->
    <circle cx="150.0" cy="121.4" r="4" fill="#333" />
    
    <!-- Point 3 at V=20 -->
    <circle cx="240.0" cy="91.9" r="4" fill="#333" />
    
    <!-- Point 4 at V=30 -->
    <circle cx="330.0" cy="69.1" r="4" fill="#333" />
    
    <!-- Buffer Region Indication Bracket -->
    <path d="M 105 250 L 105 260 L 195 260 L 195 250" fill="none" stroke="#333" stroke-width="1.5" />
    <!-- Pointer up to curve from bracket -->
    <line x1="150" y1="260" x2="150" y2="240" stroke="#333" stroke-width="1.5" stroke-dasharray="3,3" />
    <!-- Point on the bracket for the hotspot -->
    <circle cx="150" cy="260" r="4" fill="#333" />

  </g>
</svg>
