<svg xmlns="http://www.w3.org/2000/svg" viewBox="0 0 480 320">
    <rect width="480" height="320" fill="#ffffff" />
    
    <!-- Axes -->
    <line x1="80" y1="280" x2="420" y2="280" stroke="#333" stroke-width="2.5" />
    <line x1="80" y1="280" x2="80" y2="40" stroke="#333" stroke-width="2.5" />
    
    <!-- Axis Labels -->
    <text x="250" y="315" font-family="sans-serif" font-size="14" font-weight="bold" fill="#333" text-anchor="middle">Volume of base added</text>
    <text x="40" y="160" font-family="sans-serif" font-size="14" font-weight="bold" fill="#333" text-anchor="middle" transform="rotate(-90 40 160)">pH</text>
    
    <!-- Curve -->
    <polyline points="80.0,233.9 84.5,230.9 89.0,225.9 93.5,223.0 98.0,220.8 102.5,219.1 107.0,217.7 111.5,216.5 116.0,215.4 120.5,214.4 125.0,213.5 129.5,212.6 134.0,211.8 138.5,211.1 143.0,210.4 147.5,209.7 152.0,209.1 156.5,208.4 161.0,207.8 165.5,207.2 170.0,206.7 174.5,206.1 179.0,205.5 183.5,205.0 188.0,204.4 192.5,203.8 197.0,203.3 201.5,202.7 206.0,202.2 210.5,201.6 215.0,201.0 219.5,200.4 224.0,199.8 228.5,199.2 233.0,198.6 237.5,198.0 242.0,197.3 246.5,196.6 251.0,195.8 255.5,195.0 260.0,194.2 264.5,193.3 269.0,192.3 273.5,191.2 278.0,190.0 282.5,188.6 287.0,186.9 291.5,184.7 296.0,181.8 300.5,176.8 305.0,140.3 309.5,104.1 314.0,99.3 318.5,96.6 323.0,94.6 327.5,93.2 332.0,92.0 336.5,90.9 341.0,90.1 345.5,89.3 350.0,88.7 354.5,88.1 359.0,87.5 363.5,87.0 368.0,86.6 372.5,86.2 377.0,85.8 381.5,85.4 386.0,85.1 390.5,84.7 395.0,84.5" fill="none" stroke="#e74c3c" stroke-width="3" />
    
    <line x1="80" y1="203.8" x2="192.5" y2="203.8" stroke="#7f8c8d" stroke-width="1.5" stroke-dasharray="4,4" />
    <line x1="192.5" y1="280" x2="192.5" y2="203.8" stroke="#7f8c8d" stroke-width="1.5" stroke-dasharray="4,4" />
    <circle cx="192.5" cy="203.8" r="4" fill="#2980b9" />
    
    <line x1="80" y1="140.3" x2="305" y2="140.3" stroke="#7f8c8d" stroke-width="1.5" stroke-dasharray="4,4" />
    <line x1="305" y1="280" x2="305" y2="140.3" stroke="#7f8c8d" stroke-width="1.5" stroke-dasharray="4,4" />
    <circle cx="305" cy="140.3" r="4" fill="#2980b9" />

    <path d="M 100,220 C 100,160 115,160 115,160 C 115,160 140,160 140,211" fill="none" stroke="#27ae60" stroke-width="2" />
    
    <path d="M 80,282 L 80,287 L 305,287 L 305,282" fill="none" stroke="#8e44ad" stroke-width="2" />
    <line x1="192.5" y1="287" x2="192.5" y2="290" stroke="#8e44ad" stroke-width="2" />
    
    <path d="M 305,282 L 305,287 L 395,287 L 395,282" fill="none" stroke="#d35400" stroke-width="2" />
    <line x1="350" y1="287" x2="350" y2="290" stroke="#d35400" stroke-width="2" />
    
</svg>
