<svg xmlns="http://www.w3.org/2000/svg" viewBox="0 0 480 320">
    <rect width="480" height="320" fill="#ffffff" />
    
    <!-- Axes -->
    <polyline points="50,40 50,280 450,280" fill="none" stroke="#333333" stroke-width="2.5" />
    
    <!-- Shaded regions -->
    <path d="M 200.0,280.0 L 200.0,129.7 L 201.0,130.8 L 202.0,131.9 L 203.0,133.1 L 204.0,134.2 L 205.0,135.4 L 206.0,136.5 L 207.0,137.6 L 208.0,138.7 L 209.0,139.9 L 210.0,141.0 L 211.0,142.1 L 212.0,143.2 L 213.0,144.3 L 214.0,145.4 L 215.0,146.5 L 216.0,147.6 L 217.0,148.7 L 218.0,149.8 L 219.0,150.9 L 220.0,152.0 L 221.0,153.0 L 222.0,154.1 L 223.0,155.2 L 224.0,156.2 L 225.0,157.3 L 226.0,158.3 L 227.0,159.4 L 228.0,160.4 L 229.0,161.4 L 230.0,162.5 L 231.0,163.5 L 232.0,164.5 L 233.0,165.5 L 234.0,166.5 L 235.0,167.5 L 236.0,168.5 L 237.0,169.5 L 238.0,170.5 L 239.0,171.5 L 240.0,172.5 L 241.0,173.4 L 242.0,174.4 L 243.0,175.3 L 244.0,176.3 L 245.0,177.2 L 246.0,178.2 L 247.0,179.1 L 248.0,180.0 L 249.0,181.0 L 250.0,181.9 L 251.0,182.8 L 252.0,183.7 L 253.0,184.6 L 254.0,185.5 L 255.0,186.3 L 256.0,187.2 L 257.0,188.1 L 258.0,189.0 L 259.0,189.8 L 260.0,190.7 L 261.0,191.5 L 262.0,192.4 L 263.0,193.2 L 264.0,194.0 L 265.0,194.9 L 266.0,195.7 L 267.0,196.5 L 268.0,197.3 L 269.0,198.1 L 270.0,198.9 L 270.0,280.0 Z" fill="#a3d2ca" opacity="0.8" />
    <path d="M 270.0,280.0 L 270.0,198.9 L 271.0,199.7 L 272.0,200.5 L 273.0,201.2 L 274.0,202.0 L 275.0,202.8 L 276.0,203.5 L 277.0,204.3 L 278.0,205.0 L 279.0,205.8 L 280.0,206.5 L 281.0,207.2 L 282.0,207.9 L 283.0,208.6 L 284.0,209.4 L 285.0,210.1 L 286.0,210.8 L 287.0,211.5 L 288.0,212.1 L 289.0,212.8 L 290.0,213.5 L 291.0,214.2 L 292.0,214.8 L 293.0,215.5 L 294.0,216.1 L 295.0,216.8 L 296.0,217.4 L 297.0,218.1 L 298.0,218.7 L 299.0,219.3 L 300.0,220.0 L 301.0,220.6 L 302.0,221.2 L 303.0,221.8 L 304.0,222.4 L 305.0,223.0 L 306.0,223.6 L 307.0,224.1 L 308.0,224.7 L 309.0,225.3 L 310.0,225.9 L 311.0,226.4 L 312.0,227.0 L 313.0,227.5 L 314.0,228.1 L 315.0,228.6 L 316.0,229.2 L 317.0,229.7 L 318.0,230.2 L 319.0,230.7 L 320.0,231.3 L 321.0,231.8 L 322.0,232.3 L 323.0,232.8 L 324.0,233.3 L 325.0,233.8 L 326.0,234.3 L 327.0,234.8 L 328.0,235.2 L 329.0,235.7 L 330.0,236.2 L 331.0,236.7 L 332.0,237.1 L 333.0,237.6 L 334.0,238.0 L 335.0,238.5 L 336.0,238.9 L 337.0,239.4 L 338.0,239.8 L 339.0,240.2 L 340.0,240.7 L 341.0,241.1 L 342.0,241.5 L 343.0,241.9 L 344.0,242.3 L 345.0,242.7 L 346.0,243.1 L 347.0,243.5 L 348.0,243.9 L 349.0,244.3 L 350.0,244.7 L 351.0,245.1 L 352.0,245.5 L 353.0,245.9 L 354.0,246.2 L 355.0,246.6 L 356.0,247.0 L 357.0,247.3 L 358.0,247.7 L 359.0,248.0 L 360.0,248.4 L 361.0,248.7 L 362.0,249.1 L 363.0,249.4 L 364.0,249.8 L 365.0,250.1 L 366.0,250.4 L 367.0,250.8 L 368.0,251.1 L 369.0,251.4 L 370.0,251.7 L 371.0,252.0 L 372.0,252.3 L 373.0,252.7 L 374.0,253.0 L 375.0,253.3 L 376.0,253.6 L 377.0,253.9 L 378.0,254.1 L 379.0,254.4 L 380.0,254.7 L 381.0,255.0 L 382.0,255.3 L 383.0,255.6 L 384.0,255.8 L 385.0,256.1 L 386.0,256.4 L 387.0,256.6 L 388.0,256.9 L 389.0,257.2 L 390.0,257.4 L 391.0,257.7 L 392.0,257.9 L 393.0,258.2 L 394.0,258.4 L 395.0,258.7 L 396.0,258.9 L 397.0,259.2 L 398.0,259.4 L 399.0,259.6 L 400.0,259.9 L 401.0,260.1 L 402.0,260.3 L 403.0,260.5 L 404.0,260.8 L 405.0,261.0 L 406.0,261.2 L 407.0,261.4 L 408.0,261.6 L 409.0,261.8 L 410.0,262.0 L 411.0,262.2 L 412.0,262.4 L 413.0,262.6 L 414.0,262.8 L 415.0,263.0 L 416.0,263.2 L 417.0,263.4 L 418.0,263.6 L 419.0,263.8 L 420.0,264.0 L 421.0,264.2 L 422.0,264.4 L 423.0,264.5 L 424.0,264.7 L 425.0,264.9 L 426.0,265.1 L 427.0,265.2 L 428.0,265.4 L 429.0,265.6 L 430.0,265.8 L 431.0,265.9 L 432.0,266.1 L 433.0,266.2 L 434.0,266.4 L 435.0,266.6 L 436.0,266.7 L 437.0,266.9 L 438.0,267.0 L 439.0,267.2 L 440.0,267.3 L 441.0,267.5 L 442.0,267.6 L 443.0,267.8 L 444.0,267.9 L 445.0,268.0 L 446.0,268.2 L 447.0,268.3 L 448.0,268.5 L 449.0,268.6 L 450.0,268.7 L 450.0,280.0 Z" fill="#5eaaa8" opacity="0.8" />
    
    <!-- Activation Energy lines -->
    <line x1="200" y1="280" x2="200" y2="70" stroke="#333333" stroke-width="2" stroke-dasharray="6,4" />
    <line x1="270" y1="280" x2="270" y2="70" stroke="#333333" stroke-width="2" stroke-dasharray="6,4" />
    
    <!-- Labels -->
    <text x="250" y="305" font-family="sans-serif" font-size="14" fill="#333333" text-anchor="middle">Kinetic Energy</text>
    <text x="20" y="180" font-family="sans-serif" font-size="14" fill="#333333" text-anchor="middle" transform="rotate(-90 20 180)">Number of molecules</text>
    
    <!-- Curve -->
    <path d="M 50.0,280.0 L 51.0,271.6 L 52.0,263.4 L 53.0,255.4 L 54.0,247.7 L 55.0,240.2 L 56.0,233.0 L 57.0,225.9 L 58.0,219.0 L 59.0,212.4 L 60.0,205.9 L 61.0,199.7 L 62.0,193.6 L 63.0,187.8 L 64.0,182.1 L 65.0,176.6 L 66.0,171.2 L 67.0,166.1 L 68.0,161.1 L 69.0,156.3 L 70.0,151.6 L 71.0,147.1 L 72.0,142.7 L 73.0,138.5 L 74.0,134.5 L 75.0,130.6 L 76.0,126.8 L 77.0,123.2 L 78.0,119.7 L 79.0,116.3 L 80.0,113.0 L 81.0,109.9 L 82.0,106.9 L 83.0,104.0 L 84.0,101.3 L 85.0,98.6 L 86.0,96.1 L 87.0,93.7 L 88.0,91.4 L 89.0,89.1 L 90.0,87.0 L 91.0,85.0 L 92.0,83.1 L 93.0,81.3 L 94.0,79.5 L 95.0,77.9 L 96.0,76.3 L 97.0,74.8 L 98.0,73.4 L 99.0,72.1 L 100.0,70.9 L 101.0,69.7 L 102.0,68.6 L 103.0,67.6 L 104.0,66.7 L 105.0,65.8 L 106.0,65.0 L 107.0,64.3 L 108.0,63.6 L 109.0,63.0 L 110.0,62.5 L 111.0,62.0 L 112.0,61.6 L 113.0,61.2 L 114.0,60.9 L 115.0,60.6 L 116.0,60.4 L 117.0,60.2 L 118.0,60.1 L 119.0,60.0 L 120.0,60.0 L 121.0,60.0 L 122.0,60.1 L 123.0,60.2 L 124.0,60.3 L 125.0,60.5 L 126.0,60.8 L 127.0,61.0 L 128.0,61.3 L 129.0,61.7 L 130.0,62.0 L 131.0,62.4 L 132.0,62.9 L 133.0,63.4 L 134.0,63.9 L 135.0,64.4 L 136.0,64.9 L 137.0,65.5 L 138.0,66.1 L 139.0,66.8 L 140.0,67.4 L 141.0,68.1 L 142.0,68.8 L 143.0,69.6 L 144.0,70.3 L 145.0,71.1 L 146.0,71.9 L 147.0,72.7 L 148.0,73.5 L 149.0,74.4 L 150.0,75.3 L 151.0,76.1 L 152.0,77.0 L 153.0,78.0 L 154.0,78.9 L 155.0,79.8 L 156.0,80.8 L 157.0,81.8 L 158.0,82.8 L 159.0,83.8 L 160.0,84.8 L 161.0,85.8 L 162.0,86.8 L 163.0,87.9 L 164.0,88.9 L 165.0,90.0 L 166.0,91.0 L 167.0,92.1 L 168.0,93.2 L 169.0,94.3 L 170.0,95.4 L 171.0,96.5 L 172.0,97.6 L 173.0,98.7 L 174.0,99.8 L 175.0,100.9 L 176.0,102.1 L 177.0,103.2 L 178.0,104.3 L 179.0,105.5 L 180.0,106.6 L 181.0,107.8 L 182.0,108.9 L 183.0,110.1 L 184.0,111.2 L 185.0,112.4 L 186.0,113.5 L 187.0,114.7 L 188.0,115.8 L 189.0,117.0 L 190.0,118.1 L 191.0,119.3 L 192.0,120.4 L 193.0,121.6 L 194.0,122.8 L 195.0,123.9 L 196.0,125.1 L 197.0,126.2 L 198.0,127.4 L 199.0,128.5 L 200.0,129.7 L 201.0,130.8 L 202.0,131.9 L 203.0,133.1 L 204.0,134.2 L 205.0,135.4 L 206.0,136.5 L 207.0,137.6 L 208.0,138.7 L 209.0,139.9 L 210.0,141.0 L 211.0,142.1 L 212.0,143.2 L 213.0,144.3 L 214.0,145.4 L 215.0,146.5 L 216.0,147.6 L 217.0,148.7 L 218.0,149.8 L 219.0,150.9 L 220.0,152.0 L 221.0,153.0 L 222.0,154.1 L 223.0,155.2 L 224.0,156.2 L 225.0,157.3 L 226.0,158.3 L 227.0,159.4 L 228.0,160.4 L 229.0,161.4 L 230.0,162.5 L 231.0,163.5 L 232.0,164.5 L 233.0,165.5 L 234.0,166.5 L 235.0,167.5 L 236.0,168.5 L 237.0,169.5 L 238.0,170.5 L 239.0,171.5 L 240.0,172.5 L 241.0,173.4 L 242.0,174.4 L 243.0,175.3 L 244.0,176.3 L 245.0,177.2 L 246.0,178.2 L 247.0,179.1 L 248.0,180.0 L 249.0,181.0 L 250.0,181.9 L 251.0,182.8 L 252.0,183.7 L 253.0,184.6 L 254.0,185.5 L 255.0,186.3 L 256.0,187.2 L 257.0,188.1 L 258.0,189.0 L 259.0,189.8 L 260.0,190.7 L 261.0,191.5 L 262.0,192.4 L 263.0,193.2 L 264.0,194.0 L 265.0,194.9 L 266.0,195.7 L 267.0,196.5 L 268.0,197.3 L 269.0,198.1 L 270.0,198.9 L 271.0,199.7 L 272.0,200.5 L 273.0,201.2 L 274.0,202.0 L 275.0,202.8 L 276.0,203.5 L 277.0,204.3 L 278.0,205.0 L 279.0,205.8 L 280.0,206.5 L 281.0,207.2 L 282.0,207.9 L 283.0,208.6 L 284.0,209.4 L 285.0,210.1 L 286.0,210.8 L 287.0,211.5 L 288.0,212.1 L 289.0,212.8 L 290.0,213.5 L 291.0,214.2 L 292.0,214.8 L 293.0,215.5 L 294.0,216.1 L 295.0,216.8 L 296.0,217.4 L 297.0,218.1 L 298.0,218.7 L 299.0,219.3 L 300.0,220.0 L 301.0,220.6 L 302.0,221.2 L 303.0,221.8 L 304.0,222.4 L 305.0,223.0 L 306.0,223.6 L 307.0,224.1 L 308.0,224.7 L 309.0,225.3 L 310.0,225.9 L 311.0,226.4 L 312.0,227.0 L 313.0,227.5 L 314.0,228.1 L 315.0,228.6 L 316.0,229.2 L 317.0,229.7 L 318.0,230.2 L 319.0,230.7 L 320.0,231.3 L 321.0,231.8 L 322.0,232.3 L 323.0,232.8 L 324.0,233.3 L 325.0,233.8 L 326.0,234.3 L 327.0,234.8 L 328.0,235.2 L 329.0,235.7 L 330.0,236.2 L 331.0,236.7 L 332.0,237.1 L 333.0,237.6 L 334.0,238.0 L 335.0,238.5 L 336.0,238.9 L 337.0,239.4 L 338.0,239.8 L 339.0,240.2 L 340.0,240.7 L 341.0,241.1 L 342.0,241.5 L 343.0,241.9 L 344.0,242.3 L 345.0,242.7 L 346.0,243.1 L 347.0,243.5 L 348.0,243.9 L 349.0,244.3 L 350.0,244.7 L 351.0,245.1 L 352.0,245.5 L 353.0,245.9 L 354.0,246.2 L 355.0,246.6 L 356.0,247.0 L 357.0,247.3 L 358.0,247.7 L 359.0,248.0 L 360.0,248.4 L 361.0,248.7 L 362.0,249.1 L 363.0,249.4 L 364.0,249.8 L 365.0,250.1 L 366.0,250.4 L 367.0,250.8 L 368.0,251.1 L 369.0,251.4 L 370.0,251.7 L 371.0,252.0 L 372.0,252.3 L 373.0,252.7 L 374.0,253.0 L 375.0,253.3 L 376.0,253.6 L 377.0,253.9 L 378.0,254.1 L 379.0,254.4 L 380.0,254.7 L 381.0,255.0 L 382.0,255.3 L 383.0,255.6 L 384.0,255.8 L 385.0,256.1 L 386.0,256.4 L 387.0,256.6 L 388.0,256.9 L 389.0,257.2 L 390.0,257.4 L 391.0,257.7 L 392.0,257.9 L 393.0,258.2 L 394.0,258.4 L 395.0,258.7 L 396.0,258.9 L 397.0,259.2 L 398.0,259.4 L 399.0,259.6 L 400.0,259.9 L 401.0,260.1 L 402.0,260.3 L 403.0,260.5 L 404.0,260.8 L 405.0,261.0 L 406.0,261.2 L 407.0,261.4 L 408.0,261.6 L 409.0,261.8 L 410.0,262.0 L 411.0,262.2 L 412.0,262.4 L 413.0,262.6 L 414.0,262.8 L 415.0,263.0 L 416.0,263.2 L 417.0,263.4 L 418.0,263.6 L 419.0,263.8 L 420.0,264.0 L 421.0,264.2 L 422.0,264.4 L 423.0,264.5 L 424.0,264.7 L 425.0,264.9 L 426.0,265.1 L 427.0,265.2 L 428.0,265.4 L 429.0,265.6 L 430.0,265.8 L 431.0,265.9 L 432.0,266.1 L 433.0,266.2 L 434.0,266.4 L 435.0,266.6 L 436.0,266.7 L 437.0,266.9 L 438.0,267.0 L 439.0,267.2 L 440.0,267.3 L 441.0,267.5 L 442.0,267.6 L 443.0,267.8 L 444.0,267.9 L 445.0,268.0 L 446.0,268.2 L 447.0,268.3 L 448.0,268.5 L 449.0,268.6 L 450.0,268.7" fill="none" stroke="#05668d" stroke-width="2.5" />
</svg>