<svg xmlns="http://www.w3.org/2000/svg" viewBox="0 0 480 320">
  <rect width="100%" height="100%" fill="white"/>
  <polyline points="40,200 440,200" stroke="#333" stroke-width="2" fill="none" stroke-dasharray="4,4" />
  <polyline points="40,280 40,40" stroke="#333" stroke-width="2" fill="none" />
  <polyline points="60,40.0 62,40.0 64,40.0 66,40.0 68,40.0 70,40.0 72,40.0 74,40.0 76,40.0 78,40.0 80,40.0 82,40.0 84,40.0 86,40.0 88,40.0 90,40.0 92,40.0 94,40.0 96,40.0 98,40.0 100,40.0 102,40.0 104,40.0 106,40.0 108,40.0 110,40.0 112,40.0 114,40.0 116,40.0 118,40.0 120,40.0 122,40.0 124,40.0 126,40.0 128,40.0 130,40.0 132,40.0 134,40.0 136,40.0 138,40.0 140,40.0 142,40.0 144,53.7 146,79.3 148,102.0 150,121.9 152,139.4 154,154.8 156,168.2 158,179.9 160,190.1 162,198.9 164,206.5 166,213.0 168,218.5 170,223.2 172,227.1 174,230.3 176,233.0 178,235.1 180,236.8 182,238.0 184,239.0 186,239.6 188,239.9 190,240.0 192,239.9 194,239.6 196,239.2 198,238.7 200,238.0 202,237.3 204,236.5 206,235.7 208,234.7 210,233.8 212,232.8 214,231.9 216,230.9 218,229.9 220,228.9 222,227.9 224,226.9 226,225.9 228,225.0 230,224.0 232,223.1 234,222.2 236,221.3 238,220.5 240,219.6 242,218.8 244,218.1 246,217.3 248,216.6 250,215.9 252,215.2 254,214.5 256,213.9 258,213.3 260,212.7 262,212.1 264,211.6 266,211.1 268,210.6 270,210.1 272,209.6 274,209.2 276,208.8 278,208.4 280,208.0 282,207.6 284,207.3 286,206.9 288,206.6 290,206.3 292,206.0 294,205.7 296,205.5 298,205.2 300,205.0 302,204.7 304,204.5 306,204.3 308,204.1 310,203.9 312,203.7 314,203.5 316,203.4 318,203.2 320,203.0 322,202.9 324,202.8 326,202.6 328,202.5 330,202.4 332,202.3 334,202.2 336,202.1 338,202.0 340,201.9 342,201.8 344,201.7 346,201.6 348,201.5 350,201.5 352,201.4 354,201.3 356,201.3 358,201.2 360,201.1 362,201.1 364,201.0 366,201.0 368,200.9 370,200.9 372,200.8 374,200.8 376,200.8 378,200.7 380,200.7 382,200.7 384,200.6 386,200.6 388,200.6 390,200.5 392,200.5 394,200.5 396,200.5 398,200.4 400,200.4 402,200.4 404,200.4 406,200.4 408,200.3 410,200.3 412,200.3 414,200.3 416,200.3 418,200.3 420,200.3 422,200.2 424,200.2 426,200.2 428,200.2 430,200.2 432,200.2 434,200.2 436,200.2 438,200.2" stroke="#2f6fb5" stroke-width="2.5" fill="none" />
  <polyline points="60,40.0 62,40.0 64,40.0 66,40.0 68,40.0 70,40.0 72,40.0 74,40.0 76,40.0 78,40.0 80,40.0 82,40.0 84,40.0 86,40.0 88,40.0 90,40.0 92,40.0 94,40.0 96,40.0 98,40.0 100,40.0 102,40.0 104,40.0 106,40.0 108,40.0 110,40.0 112,40.0 114,40.0 116,40.0 118,40.0 120,40.0 122,40.0 124,40.0 126,62.8 128,97.8 130,127.7 132,153.1 134,174.7 136,192.8 138,208.1 140,220.7 142,231.2 144,239.7 146,246.6 148,252.0 150,256.2 152,259.3 154,261.5 156,263.0 158,263.8 160,264.0 162,263.8 164,263.2 166,262.3 168,261.1 170,259.7 172,258.2 174,256.5 176,254.7 178,252.9 180,251.0 182,249.1 184,247.1 186,245.2 188,243.3 190,241.5 192,239.6 194,237.8 196,236.1 198,234.4 200,232.7 202,231.2 204,229.6 206,228.2 208,226.7 210,225.4 212,224.1 214,222.8 216,221.6 218,220.5 220,219.4 222,218.4 224,217.4 226,216.5 228,215.6 230,214.7 232,213.9 234,213.1 236,212.4 238,211.7 240,211.1 242,210.5 244,209.9 246,209.3 248,208.8 250,208.3 252,207.8 254,207.4 256,207.0 258,206.6 260,206.2 262,205.9 264,205.5 266,205.2 268,204.9 270,204.6 272,204.4 274,204.1 276,203.9 278,203.7 280,203.4 282,203.3 284,203.1 286,202.9 288,202.7 290,202.6 292,202.4 294,202.3 296,202.1 298,202.0 300,201.9 302,201.8 304,201.7 306,201.6 308,201.5 310,201.4 312,201.3 314,201.3 316,201.2 318,201.1 320,201.0 322,201.0 324,200.9 326,200.9 328,200.8 330,200.8 332,200.7 334,200.7 336,200.7 338,200.6 340,200.6 342,200.5 344,200.5 346,200.5 348,200.5 350,200.4 352,200.4 354,200.4 356,200.4 358,200.3 360,200.3 362,200.3 364,200.3 366,200.3 368,200.2 370,200.2 372,200.2 374,200.2 376,200.2 378,200.2 380,200.2 382,200.2 384,200.2 386,200.1 388,200.1 390,200.1 392,200.1 394,200.1 396,200.1 398,200.1 400,200.1 402,200.1 404,200.1 406,200.1 408,200.1 410,200.1 412,200.1 414,200.1 416,200.1 418,200.1 420,200.1 422,200.0 424,200.0 426,200.0 428,200.0 430,200.0 432,200.0 434,200.0 436,200.0 438,200.0" stroke="#2ca02c" stroke-width="2.5" fill="none" />
  <polyline points="60,40.0 62,40.0 64,40.0 66,40.0 68,40.0 70,40.0 72,40.0 74,40.0 76,40.0 78,40.0 80,40.0 82,40.0 84,40.0 86,40.0 88,40.0 90,40.0 92,40.0 94,40.0 96,40.0 98,40.0 100,40.0 102,67.4 104,113.5 106,151.8 108,183.6 110,209.8 112,231.1 114,248.3 116,262.1 118,272.8 120,281.0 122,287.0 124,291.3 126,294.0 128,295.5 130,296.0 132,295.6 134,294.5 136,292.8 138,290.7 140,288.3 142,285.6 144,282.6 146,279.6 148,276.5 150,273.3 152,270.1 154,266.9 156,263.7 158,260.7 160,257.6 162,254.7 164,251.9 166,249.1 168,246.5 170,243.9 172,241.5 174,239.2 176,237.0 178,234.9 180,232.8 182,230.9 184,229.1 186,227.4 188,225.8 190,224.2 192,222.8 194,221.4 196,220.1 198,218.9 200,217.7 202,216.6 204,215.6 206,214.6 208,213.7 210,212.9 212,212.1 214,211.3 216,210.6 218,209.9 220,209.3 222,208.7 224,208.2 226,207.7 228,207.2 230,206.7 232,206.3 234,205.9 236,205.5 238,205.2 240,204.8 242,204.5 244,204.2 246,204.0 248,203.7 250,203.5 252,203.3 254,203.1 256,202.9 258,202.7 260,202.5 262,202.3 264,202.2 266,202.1 268,201.9 270,201.8 272,201.7 274,201.6 276,201.5 278,201.4 280,201.3 282,201.2 284,201.1 286,201.1 288,201.0 290,200.9 292,200.9 294,200.8 296,200.8 298,200.7 300,200.7 302,200.6 304,200.6 306,200.5 308,200.5 310,200.5 312,200.4 314,200.4 316,200.4 318,200.4 320,200.3 322,200.3 324,200.3 326,200.3 328,200.3 330,200.2 332,200.2 334,200.2 336,200.2 338,200.2 340,200.2 342,200.2 344,200.2 346,200.1 348,200.1 350,200.1 352,200.1 354,200.1 356,200.1 358,200.1 360,200.1 362,200.1 364,200.1 366,200.1 368,200.1 370,200.1 372,200.1 374,200.1 376,200.1 378,200.0 380,200.0 382,200.0 384,200.0 386,200.0 388,200.0 390,200.0 392,200.0 394,200.0 396,200.0 398,200.0 400,200.0 402,200.0 404,200.0 406,200.0 408,200.0 410,200.0 412,200.0 414,200.0 416,200.0 418,200.0 420,200.0 422,200.0 424,200.0 426,200.0 428,200.0 430,200.0 432,200.0 434,200.0 436,200.0 438,200.0" stroke="#d45b5b" stroke-width="2.5" fill="none" />
  <line x1="130.0" y1="200" x2="130.0" y2="296.0" stroke="#d45b5b" stroke-width="1.5" stroke-dasharray="2,2" />
</svg>
