<svg xmlns="http://www.w3.org/2000/svg" viewBox="0 0 480 320">
  <rect width="100%" height="100%" fill="white"/>
  <polyline points="40,200 440,200" stroke="#333" stroke-width="2" fill="none" stroke-dasharray="4,4" />
  <polyline points="40,280 40,40" stroke="#333" stroke-width="2" fill="none" />
  <polyline points="50,40.0 52,40.0 54,40.0 56,40.0 58,40.0 60,40.0 62,40.0 64,40.0 66,40.0 68,40.0 70,40.0 72,40.0 74,40.0 76,40.0 78,40.0 80,40.0 82,40.0 84,40.0 86,40.0 88,40.0 90,40.0 92,40.0 94,40.0 96,40.0 98,40.0 100,40.0 102,40.0 104,72.2 106,109.6 108,141.4 110,168.3 112,191.1 114,210.1 116,225.9 118,239.0 120,249.6 122,258.2 124,265.0 126,270.2 128,274.1 130,276.9 132,278.7 134,279.7 136,280.0 138,279.7 140,279.0 142,277.8 144,276.4 146,274.6 148,272.7 150,270.6 152,268.4 154,266.1 156,263.7 158,261.3 160,258.9 162,256.5 164,254.2 166,251.8 168,249.5 170,247.3 172,245.1 174,243.0 176,240.9 178,238.9 180,237.0 182,235.2 184,233.4 186,231.7 188,230.1 190,228.5 192,227.0 194,225.6 196,224.3 198,223.0 200,221.7 202,220.6 204,219.5 206,218.4 208,217.4 210,216.4 212,215.5 214,214.7 216,213.9 218,213.1 220,212.4 222,211.7 224,211.0 226,210.4 228,209.8 230,209.3 232,208.7 234,208.2 236,207.8 238,207.3 240,206.9 242,206.5 244,206.1 246,205.8 248,205.5 250,205.1 252,204.9 254,204.6 256,204.3 258,204.1 260,203.8 262,203.6 264,203.4 266,203.2 268,203.0 270,202.8 272,202.7 274,202.5 276,202.4 278,202.2 280,202.1 282,202.0 284,201.9 286,201.8 288,201.7 290,201.6 292,201.5 294,201.4 296,201.3 298,201.2 300,201.2 302,201.1 304,201.0 306,201.0 308,200.9 310,200.9 312,200.8 314,200.8 316,200.7 318,200.7 320,200.6 322,200.6 324,200.6 326,200.5 328,200.5 330,200.5 332,200.4 334,200.4 336,200.4 338,200.4 340,200.4 342,200.3 344,200.3 346,200.3 348,200.3 350,200.3 352,200.2 354,200.2 356,200.2 358,200.2 360,200.2 362,200.2 364,200.2 366,200.2 368,200.2 370,200.1 372,200.1 374,200.1 376,200.1 378,200.1 380,200.1 382,200.1 384,200.1 386,200.1 388,200.1 390,200.1 392,200.1 394,200.1 396,200.1 398,200.1 400,200.1 402,200.1 404,200.1 406,200.0 408,200.0 410,200.0 412,200.0 414,200.0 416,200.0 418,200.0 420,200.0 422,200.0 424,200.0 426,200.0 428,200.0 430,200.0 432,200.0 434,200.0 436,200.0 438,200.0" stroke="#d45b5b" stroke-width="2.5" fill="none" />
  <polyline points="50,40.0 52,40.0 54,40.0 56,40.0 58,40.0 60,40.0 62,40.0 64,40.0 66,40.0 68,40.0 70,40.0 72,40.0 74,40.0 76,40.0 78,40.0 80,40.0 82,40.0 84,40.0 86,40.0 88,40.0 90,40.0 92,40.0 94,40.0 96,40.0 98,40.0 100,40.0 102,40.0 104,40.0 106,40.0 108,40.0 110,40.0 112,40.0 114,40.0 116,40.0 118,40.0 120,40.0 122,40.0 124,40.0 126,40.0 128,40.0 130,40.0 132,40.0 134,40.0 136,40.0 138,40.0 140,40.0 142,40.0 144,40.0 146,40.0 148,40.0 150,40.0 152,40.0 154,40.0 156,40.0 158,40.0 160,40.0 162,40.0 164,55.2 166,82.4 168,106.3 170,127.3 172,145.7 174,161.9 176,175.9 178,188.1 180,198.7 182,207.8 184,215.6 186,222.2 188,227.8 190,232.5 192,236.4 194,239.6 196,242.1 198,244.1 200,245.6 202,246.7 204,247.5 206,247.9 208,248.0 210,247.9 212,247.6 214,247.1 216,246.4 218,245.7 220,244.8 222,243.8 224,242.8 226,241.7 228,240.6 230,239.4 232,238.2 234,237.0 236,235.8 238,234.6 240,233.4 242,232.3 244,231.1 246,229.9 248,228.8 250,227.7 252,226.6 254,225.6 256,224.6 258,223.6 260,222.6 262,221.7 264,220.8 266,219.9 268,219.0 270,218.2 272,217.4 274,216.7 276,215.9 278,215.2 280,214.6 282,213.9 284,213.3 286,212.7 288,212.1 290,211.6 292,211.0 294,210.5 296,210.0 298,209.6 300,209.1 302,208.7 304,208.3 306,207.9 308,207.6 310,207.2 312,206.9 314,206.5 316,206.2 318,205.9 320,205.7 322,205.4 324,205.1 326,204.9 328,204.7 330,204.4 332,204.2 334,204.0 336,203.8 338,203.7 340,203.5 342,203.3 344,203.2 346,203.0 348,202.9 350,202.7 352,202.6 354,202.5 356,202.3 358,202.2 360,202.1 362,202.0 364,201.9 366,201.8 368,201.7 370,201.7 372,201.6 374,201.5 376,201.4 378,201.4 380,201.3 382,201.2 384,201.2 386,201.1 388,201.1 390,201.0 392,201.0 394,200.9 396,200.9 398,200.8 400,200.8 402,200.7 404,200.7 406,200.7 408,200.6 410,200.6 412,200.6 414,200.6 416,200.5 418,200.5 420,200.5 422,200.5 424,200.4 426,200.4 428,200.4 430,200.4 432,200.4 434,200.3 436,200.3 438,200.3" stroke="#2f6fb5" stroke-width="2.5" fill="none" />
</svg>
