<svg xmlns="http://www.w3.org/2000/svg" viewBox="0 0 480 320">
  <rect width="100%" height="100%" fill="white"/>
  <polyline points="40,280 440,280" stroke="#333" stroke-width="2" fill="none" />
  <polyline points="40,280 40,40" stroke="#333" stroke-width="2" fill="none" />
  <polyline points="40,263.5 42,263.5 44,263.4 46,263.4 48,263.3 50,263.3 52,263.3 54,263.2 56,263.2 58,263.1 60,263.1 62,263.0 64,263.0 66,262.9 68,262.9 70,262.8 72,262.8 74,262.7 76,262.6 78,262.6 80,262.5 82,262.5 84,262.4 86,262.3 88,262.3 90,262.2 92,262.1 94,262.1 96,262.0 98,261.9 100,261.8 102,261.7 104,261.7 106,261.6 108,261.5 110,261.4 112,261.3 114,261.2 116,261.1 118,261.0 120,260.9 122,260.8 124,260.7 126,260.6 128,260.5 130,260.4 132,260.3 134,260.1 136,260.0 138,259.9 140,259.8 142,259.6 144,259.5 146,259.4 148,259.2 150,259.1 152,258.9 154,258.8 156,258.6 158,258.4 160,258.3 162,258.1 164,257.9 166,257.8 168,257.6 170,257.4 172,257.2 174,257.0 176,256.8 178,256.6 180,256.4 182,256.1 184,255.9 186,255.7 188,255.5 190,255.2 192,255.0 194,254.7 196,254.5 198,254.2 200,253.9 202,253.6 204,253.3 206,253.1 208,252.8 210,252.4 212,252.1 214,251.8 216,251.5 218,251.1 220,250.8 222,250.4 224,250.0 226,249.7 228,249.3 230,248.9 232,248.5 234,248.0 236,247.6 238,247.2 240,246.7 242,246.3 244,245.8 246,245.3 248,244.8 250,244.3 252,243.8 254,243.2 256,242.7 258,242.1 260,241.5 262,240.9 264,240.3 266,239.7 268,239.1 270,238.4 272,237.7 274,237.0 276,236.3 278,235.6 280,234.9 282,234.1 284,233.3 286,232.5 288,231.7 290,230.9 292,230.0 294,229.1 296,228.2 298,227.3 300,226.3 302,225.3 304,224.3 306,223.3 308,222.2 310,221.2 312,220.1 314,218.9 316,217.7 318,216.6 320,215.3 322,214.1 324,212.8 326,211.5 328,210.1 330,208.7 332,207.3 334,205.8 336,204.3 338,202.8 340,201.2 342,199.6 344,197.9 346,196.3 348,194.5 350,192.7 352,190.9 354,189.0 356,187.1 358,185.1 360,183.1 362,181.0 364,178.9 366,176.7 368,174.5 370,172.2 372,169.8 374,167.4 376,165.0 378,162.4 380,159.8 382,157.2 384,154.5 386,151.7 388,148.8 390,145.8 392,142.8 394,139.7 396,136.6 398,133.3 400,130.0 402,126.6 404,123.1 406,119.5 408,115.8 410,112.0 412,108.1 414,104.2 416,100.1 418,95.9 420,91.6 422,87.2 424,82.7 426,78.1 428,73.4 430,68.5 432,63.6 434,58.5 436,53.2 438,47.9" stroke="#d45b5b" stroke-width="2.5" fill="none" />
  <polyline points="40,220.0 42,220.1 44,220.2 46,220.2 48,220.3 50,220.4 52,220.4 54,220.5 56,220.6 58,220.7 60,220.8 62,220.8 64,220.9 66,221.0 68,221.1 70,221.1 72,221.2 74,221.3 76,221.3 78,221.4 80,221.5 82,221.6 84,221.7 86,221.7 88,221.8 90,221.9 92,221.9 94,222.0 96,222.1 98,222.2 100,222.2 102,222.3 104,222.4 106,222.5 108,222.6 110,222.6 112,222.7 114,222.8 116,222.8 118,222.9 120,223.0 122,223.1 124,223.2 126,223.2 128,223.3 130,223.4 132,223.4 134,223.5 136,223.6 138,223.7 140,223.8 142,223.8 144,223.9 146,224.0 148,224.1 150,224.1 152,224.2 154,224.3 156,224.3 158,224.4 160,224.5 162,224.6 164,224.7 166,224.7 168,224.8 170,224.9 172,224.9 174,225.0 176,225.1 178,225.2 180,225.2 182,225.3 184,225.4 186,225.5 188,225.6 190,225.6 192,225.7 194,225.8 196,225.8 198,225.9 200,226.0 202,226.1 204,226.2 206,226.2 208,226.3 210,226.4 212,226.4 214,226.5 216,226.6 218,226.7 220,226.8 222,226.8 224,226.9 226,227.0 228,227.1 230,227.1 232,227.2 234,227.3 236,227.3 238,227.4 240,227.5 242,227.6 244,227.7 246,227.7 248,227.8 250,227.9 252,227.9 254,228.0 256,228.1 258,228.2 260,228.2 262,228.3 264,228.4 266,228.5 268,228.6 270,228.6 272,228.7 274,228.8 276,228.8 278,228.9 280,229.0 282,229.1 284,229.2 286,229.2 288,229.3 290,229.4 292,229.4 294,229.5 296,229.6 298,229.7 300,229.8 302,229.8 304,229.9 306,230.0 308,230.1 310,230.1 312,230.2 314,230.3 316,230.3 318,230.4 320,230.5 322,230.6 324,230.7 326,230.7 328,230.8 330,230.9 332,230.9 334,231.0 336,231.1 338,231.2 340,231.2 342,231.3 344,231.4 346,231.5 348,231.6 350,231.6 352,231.7 354,231.8 356,231.8 358,231.9 360,232.0 362,232.1 364,232.2 366,232.2 368,232.3 370,232.4 372,232.4 374,232.5 376,232.6 378,232.7 380,232.8 382,232.8 384,232.9 386,233.0 388,233.1 390,233.1 392,233.2 394,233.3 396,233.3 398,233.4 400,233.5 402,233.6 404,233.7 406,233.7 408,233.8 410,233.9 412,233.9 414,234.0 416,234.1 418,234.2 420,234.2 422,234.3 424,234.4 426,234.5 428,234.6 430,234.6 432,234.7 434,234.8 436,234.8 438,234.9" stroke="#2f6fb5" stroke-width="2.5" fill="none" />
</svg>
