<svg xmlns="http://www.w3.org/2000/svg" viewBox="0 0 480 320">
  <rect width="100%" height="100%" fill="white"/>
  <polyline points="40,280 440,280" stroke="#333" stroke-width="2" fill="none" />
  <polyline points="40,280 40,40" stroke="#333" stroke-width="2" fill="none" />
  <polyline points="40,241.7 42,241.6 44,241.5 46,241.4 48,241.3 50,241.2 52,241.1 54,241.0 56,240.9 58,240.8 60,240.7 62,240.6 64,240.4 66,240.3 68,240.1 70,240.0 72,239.8 74,239.6 76,239.4 78,239.2 80,239.0 82,238.7 84,238.5 86,238.2 88,237.9 90,237.5 92,237.1 94,236.7 96,236.3 98,235.8 100,235.2 102,234.6 104,234.0 106,233.3 108,232.5 110,231.6 112,230.7 114,229.7 116,228.6 118,227.5 120,226.4 122,225.3 124,224.2 126,223.1 128,222.1 130,221.2 132,220.3 134,219.5 136,218.7 138,218.0 140,217.4 142,216.9 144,216.3 146,215.9 148,215.4 150,215.0 152,214.6 154,214.2 156,213.9 158,213.6 160,213.3 162,213.0 164,212.7 166,212.4 168,212.1 170,211.8 172,211.5 174,211.2 176,210.9 178,210.6 180,210.3 182,209.9 184,209.4 186,208.9 188,208.3 190,207.4 192,206.3 194,204.6 196,201.7 198,196.0 200,185.3 202,174.6 204,168.9 206,166.0 208,164.3 210,163.2 212,162.4 214,161.7 216,161.2 218,160.7 220,160.3 222,160.0 224,159.7 226,159.3 228,159.0 230,158.8 232,158.5 234,158.2 236,157.9 238,157.6 240,157.3 242,157.0 244,156.6 246,156.3 248,155.9 250,155.5 252,155.1 254,154.7 256,154.2 258,153.6 260,153.0 262,152.4 264,151.7 266,151.0 268,150.2 270,149.3 272,148.3 274,147.3 276,146.2 278,145.1 280,143.9 282,142.8 284,141.7 286,140.6 288,139.6 290,138.6 292,137.7 294,136.9 296,136.2 298,135.5 300,134.8 302,134.3 304,133.7 306,133.2 308,132.8 310,132.4 312,132.0 314,131.6 316,131.3 318,130.9 320,130.6 322,130.3 324,130.0 326,129.7 328,129.4 330,129.1 332,128.8 334,128.4 336,128.1 338,127.7 340,127.3 342,126.8 344,126.3 346,125.6 348,124.8 350,123.8 352,122.3 354,120.2 356,116.9 358,111.5 360,103.9 362,96.2 364,90.9 366,87.6 368,85.5 370,84.0 372,83.0 374,82.2 376,81.6 378,81.2 380,80.8 382,80.4 384,80.1 386,79.9 388,79.7 390,79.5 392,79.3 394,79.1 396,79.0 398,78.8 400,78.7 402,78.6 404,78.5 406,78.4 408,78.3 410,78.2 412,78.1 414,78.1 416,78.0 418,77.9 420,77.8 422,77.8 424,77.7 426,77.7 428,77.6 430,77.6 432,77.5 434,77.5 436,77.4 438,77.4" stroke="#2f6fb5" stroke-width="2.5" fill="none" />
  <circle cx="120" cy="226.4" r="4" fill="#2f6fb5" />
  <circle cx="280" cy="143.9" r="4" fill="#2f6fb5" />
</svg>
