<svg xmlns="http://www.w3.org/2000/svg" viewBox="0 0 480 320">
  <rect width="100%" height="100%" fill="white"/>
  <polyline points="40,280 440,280" stroke="#333" stroke-width="2" fill="none" />
  <polyline points="40,280 40,40" stroke="#333" stroke-width="2" fill="none" />
  <polyline points="40,247.2 42,247.1 44,246.9 46,246.8 48,246.7 50,246.5 52,246.4 54,246.2 56,246.1 58,245.9 60,245.7 62,245.5 64,245.4 66,245.2 68,245.0 70,244.8 72,244.5 74,244.3 76,244.1 78,243.8 80,243.6 82,243.3 84,243.0 86,242.7 88,242.4 90,242.1 92,241.7 94,241.4 96,241.0 98,240.6 100,240.2 102,239.7 104,239.3 106,238.8 108,238.3 110,237.8 112,237.2 114,236.6 116,236.0 118,235.4 120,234.7 122,234.0 124,233.3 126,232.6 128,231.8 130,231.0 132,230.2 134,229.4 136,228.5 138,227.7 140,226.8 142,226.0 144,225.1 146,224.3 148,223.4 150,222.6 152,221.8 154,221.0 156,220.3 158,219.5 160,218.8 162,218.1 164,217.4 166,216.8 168,216.2 170,215.5 172,215.0 174,214.4 176,213.9 178,213.3 180,212.8 182,212.3 184,211.8 186,211.3 188,210.9 190,210.4 192,210.0 194,209.5 196,209.1 198,208.6 200,208.1 202,207.7 204,207.2 206,206.7 208,206.1 210,205.6 212,205.0 214,204.3 216,203.6 218,202.8 220,201.8 222,200.7 224,199.4 226,197.8 228,195.8 230,193.1 232,189.3 234,183.8 236,175.0 238,160.9 240,140.5 242,120.2 244,106.0 246,97.3 248,91.8 250,88.0 252,85.4 254,83.4 256,81.8 258,80.6 260,79.6 262,78.8 264,78.0 266,77.4 268,76.9 270,76.4 272,76.0 274,75.6 276,75.2 278,74.9 280,74.6 282,74.4 284,74.1 286,73.9 288,73.7 290,73.5 292,73.3 294,73.1 296,72.9 298,72.8 300,72.6 302,72.5 304,72.4 306,72.2 308,72.1 310,72.0 312,71.9 314,71.8 316,71.7 318,71.6 320,71.5 322,71.4 324,71.3 326,71.2 328,71.1 330,71.0 332,71.0 334,70.9 336,70.8 338,70.8 340,70.7 342,70.6 344,70.6 346,70.5 348,70.4 350,70.4 352,70.3 354,70.3 356,70.2 358,70.2 360,70.1 362,70.1 364,70.0 366,70.0 368,69.9 370,69.9 372,69.8 374,69.8 376,69.7 378,69.7 380,69.7 382,69.6 384,69.6 386,69.5 388,69.5 390,69.5 392,69.4 394,69.4 396,69.4 398,69.3 400,69.3 402,69.3 404,69.2 406,69.2 408,69.2 410,69.1 412,69.1 414,69.1 416,69.1 418,69.0 420,69.0 422,69.0 424,69.0 426,68.9 428,68.9 430,68.9 432,68.9 434,68.8 436,68.8 438,68.8" stroke="#2f6fb5" stroke-width="2.5" fill="none" />
  <polyline points="40,213.1 42,213.0 44,212.9 46,212.7 48,212.6 50,212.5 52,212.3 54,212.2 56,212.0 58,211.9 60,211.7 62,211.5 64,211.3 66,211.1 68,210.9 70,210.7 72,210.5 74,210.3 76,210.1 78,209.8 80,209.6 82,209.3 84,209.0 86,208.7 88,208.4 90,208.1 92,207.7 94,207.4 96,207.0 98,206.6 100,206.2 102,205.8 104,205.3 106,204.8 108,204.3 110,203.8 112,203.3 114,202.7 116,202.1 118,201.4 120,200.8 122,200.1 124,199.4 126,198.6 128,197.9 130,197.1 132,196.3 134,195.5 136,194.7 138,193.8 140,193.0 142,192.1 144,191.3 146,190.5 148,189.6 150,188.8 152,188.0 154,187.3 156,186.5 158,185.8 160,185.1 162,184.4 164,183.7 166,183.1 168,182.5 170,181.9 172,181.3 174,180.8 176,180.2 178,179.7 180,179.2 182,178.8 184,178.3 186,177.9 188,177.4 190,177.0 192,176.6 194,176.2 196,175.8 198,175.3 200,174.9 202,174.5 204,174.1 206,173.7 208,173.2 210,172.7 212,172.2 214,171.7 216,171.1 218,170.4 220,169.7 222,168.8 224,167.8 226,166.6 228,165.0 230,163.0 232,160.1 234,155.9 236,149.3 238,138.7 240,123.4 242,108.1 244,97.4 246,90.9 248,86.7 250,83.9 252,81.9 254,80.4 256,79.2 258,78.2 260,77.4 262,76.8 264,76.2 266,75.7 268,75.3 270,74.9 272,74.6 274,74.3 276,74.0 278,73.8 280,73.5 282,73.3 284,73.1 286,72.9 288,72.8 290,72.6 292,72.4 294,72.3 296,72.2 298,72.0 300,71.9 302,71.8 304,71.7 306,71.6 308,71.5 310,71.4 312,71.3 314,71.2 316,71.1 318,71.0 320,70.9 322,70.9 324,70.8 326,70.7 328,70.6 330,70.6 332,70.5 334,70.4 336,70.4 338,70.3 340,70.3 342,70.2 344,70.1 346,70.1 348,70.0 350,70.0 352,69.9 354,69.9 356,69.8 358,69.8 360,69.7 362,69.7 364,69.7 366,69.6 368,69.6 370,69.5 372,69.5 374,69.5 376,69.4 378,69.4 380,69.4 382,69.3 384,69.3 386,69.2 388,69.2 390,69.2 392,69.2 394,69.1 396,69.1 398,69.1 400,69.0 402,69.0 404,69.0 406,68.9 408,68.9 410,68.9 412,68.9 414,68.8 416,68.8 418,68.8 420,68.8 422,68.7 424,68.7 426,68.7 428,68.7 430,68.6 432,68.6 434,68.6 436,68.6 438,68.6" stroke="#2ca02c" stroke-width="2.5" fill="none" />
  <polyline points="40,179.0 42,178.9 44,178.8 46,178.7 48,178.5 50,178.4 52,178.3 54,178.1 56,178.0 58,177.8 60,177.6 62,177.5 64,177.3 66,177.1 68,176.9 70,176.7 72,176.5 74,176.3 76,176.0 78,175.8 80,175.5 82,175.3 84,175.0 86,174.7 88,174.4 90,174.1 92,173.8 94,173.4 96,173.0 98,172.6 100,172.2 102,171.8 104,171.4 106,170.9 108,170.4 110,169.9 112,169.3 114,168.7 116,168.1 118,167.5 120,166.9 122,166.2 124,165.5 126,164.7 128,164.0 130,163.2 132,162.4 134,161.6 136,160.8 138,160.0 140,159.1 142,158.3 144,157.5 146,156.6 148,155.8 150,155.0 152,154.2 154,153.5 156,152.7 158,152.0 160,151.3 162,150.6 164,150.0 166,149.4 168,148.8 170,148.2 172,147.7 174,147.1 176,146.6 178,146.2 180,145.7 182,145.2 184,144.8 186,144.4 188,144.0 190,143.6 192,143.2 194,142.8 196,142.5 198,142.1 200,141.7 202,141.4 204,141.0 206,140.6 208,140.3 210,139.9 212,139.5 214,139.1 216,138.6 218,138.1 220,137.6 222,136.9 224,136.2 226,135.3 228,134.2 230,132.8 232,130.9 234,128.0 236,123.6 238,116.5 240,106.2 242,96.0 244,88.9 246,84.5 248,81.6 250,79.7 252,78.4 254,77.3 256,76.5 258,75.8 260,75.3 262,74.8 264,74.4 266,74.1 268,73.8 270,73.5 272,73.2 274,73.0 276,72.8 278,72.6 280,72.4 282,72.3 284,72.1 286,72.0 288,71.9 290,71.7 292,71.6 294,71.5 296,71.4 298,71.3 300,71.2 302,71.1 304,71.0 306,70.9 308,70.8 310,70.7 312,70.7 314,70.6 316,70.5 318,70.5 320,70.4 322,70.3 324,70.3 326,70.2 328,70.1 330,70.1 332,70.0 334,70.0 336,69.9 338,69.9 340,69.8 342,69.8 344,69.7 346,69.7 348,69.6 350,69.6 352,69.5 354,69.5 356,69.5 358,69.4 360,69.4 362,69.3 364,69.3 366,69.3 368,69.2 370,69.2 372,69.2 374,69.1 376,69.1 378,69.1 380,69.0 382,69.0 384,69.0 386,69.0 388,68.9 390,68.9 392,68.9 394,68.8 396,68.8 398,68.8 400,68.8 402,68.7 404,68.7 406,68.7 408,68.7 410,68.6 412,68.6 414,68.6 416,68.6 418,68.5 420,68.5 422,68.5 424,68.5 426,68.5 428,68.4 430,68.4 432,68.4 434,68.4 436,68.4 438,68.3" stroke="#d45b5b" stroke-width="2.5" fill="none" />
</svg>
