<svg xmlns="http://www.w3.org/2000/svg" viewBox="0 0 480 320">
  <rect width="100%" height="100%" fill="white"/>
  <polyline points="40,280 440,280" stroke="#333" stroke-width="2" fill="none" />
  <polyline points="40,280 40,40" stroke="#333" stroke-width="2" fill="none" />
  <polyline points="40,280.0 42,279.7 44,278.8 46,277.3 48,275.2 50,272.6 52,269.4 54,265.7 56,261.5 58,256.9 60,251.9 62,246.5 64,240.9 66,234.9 68,228.7 70,222.4 72,216.0 74,209.4 76,202.9 78,196.4 80,190.1 82,183.8 84,177.7 86,171.9 88,166.3 90,161.0 92,156.1 94,151.5 96,147.4 98,143.6 100,140.3 102,137.4 104,135.0 106,133.0 108,131.5 110,130.5 112,129.9 114,129.8 116,130.2 118,130.9 120,132.1 122,133.7 124,135.6 126,137.9 128,140.5 130,143.4 132,146.5 134,149.9 136,153.6 138,157.4 140,161.3 142,165.5 144,169.7 146,174.0 148,178.3 150,182.7 152,187.1 154,191.5 156,195.8 158,200.1 160,204.4 162,208.5 164,212.6 166,216.5 168,220.4 170,224.1 172,227.7 174,231.2 176,234.5 178,237.7 180,240.7 182,243.6 184,246.3 186,248.9 188,251.3 190,253.6 192,255.8 194,257.8 196,259.7 198,261.5 200,263.1 202,264.6 204,266.0 206,267.3 208,268.5 210,269.6 212,270.7 214,271.6 216,272.4 218,273.2 220,273.9 222,274.6 224,275.2 226,275.7 228,276.2 230,276.6 232,277.0 234,277.3 236,277.6 238,277.9 240,278.2 242,278.4 244,278.6 246,278.8 248,278.9 250,279.1 252,279.2 254,279.3 256,279.4 258,279.5 260,279.5 262,279.6 264,279.7 266,279.7 268,279.7 270,279.8 272,279.8 274,279.8 276,279.9 278,279.9 280,279.9 282,279.9 284,279.9 286,279.9 288,279.9 290,280.0 292,280.0 294,280.0 296,280.0 298,280.0 300,280.0 302,280.0 304,280.0 306,280.0 308,280.0 310,280.0 312,280.0 314,280.0 316,280.0 318,280.0 320,280.0 322,280.0 324,280.0 326,280.0 328,280.0 330,280.0 332,280.0 334,280.0 336,280.0 338,280.0 340,280.0 342,280.0 344,280.0 346,280.0 348,280.0 350,280.0 352,280.0 354,280.0 356,280.0 358,280.0 360,280.0 362,280.0 364,280.0 366,280.0 368,280.0 370,280.0 372,280.0 374,280.0 376,280.0 378,280.0 380,280.0 382,280.0 384,280.0 386,280.0 388,280.0 390,280.0 392,280.0 394,280.0 396,280.0 398,280.0 400,280.0 402,280.0 404,280.0 406,280.0 408,280.0 410,280.0 412,280.0 414,280.0 416,280.0 418,280.0 420,280.0 422,280.0 424,280.0 426,280.0 428,280.0 430,280.0 432,280.0 434,280.0 436,280.0 438,280.0" stroke="#2f6fb5" stroke-width="2.5" fill="none" />
  <line x1="300" y1="280" x2="300" y2="80" stroke="#333" stroke-width="2" stroke-dasharray="5,5" />
  <line x1="220" y1="280" x2="220" y2="80" stroke="#d45b5b" stroke-width="2" stroke-dasharray="5,5" />
</svg>
