<svg xmlns="http://www.w3.org/2000/svg" viewBox="0 0 480 320">
  <rect width="100%" height="100%" fill="white"/>
  <polyline points="40,280 440,280" stroke="#333" stroke-width="2" fill="none" />
  <polyline points="40,280 40,40" stroke="#333" stroke-width="2" fill="none" />
  <polyline points="40,200.0 42,200.0 44,199.9 46,199.9 48,199.9 50,199.9 52,199.9 54,199.9 56,199.8 58,199.8 60,199.7 62,199.7 64,199.6 66,199.6 68,199.5 70,199.4 72,199.3 74,199.2 76,199.0 78,198.9 80,198.7 82,198.5 84,198.2 86,198.0 88,197.6 90,197.3 92,196.9 94,196.5 96,196.0 98,195.4 100,194.8 102,194.1 104,193.3 106,192.5 108,191.5 110,190.5 112,189.4 114,188.2 116,186.9 118,185.4 120,183.9 122,182.2 124,180.4 126,178.5 128,176.4 130,174.3 132,171.9 134,169.5 136,166.9 138,164.2 140,161.4 142,158.4 144,155.4 146,152.2 148,149.0 150,145.6 152,142.2 154,138.7 156,135.2 158,131.7 160,128.1 162,124.6 164,121.1 166,117.6 168,114.2 170,110.9 172,107.7 174,104.6 176,101.7 178,99.0 180,96.5 182,94.2 184,92.1 186,90.3 188,88.7 190,87.5 192,86.5 194,85.9 196,85.6 198,85.6 200,86.0 202,86.7 204,87.7 206,89.1 208,90.8 210,92.8 212,95.2 214,97.8 216,100.8 218,104.0 220,107.5 222,111.3 224,115.3 226,119.4 228,123.8 230,128.3 232,132.9 234,137.7 236,142.5 238,147.3 240,152.2 242,157.1 244,162.0 246,166.8 248,171.5 250,176.2 252,180.7 254,185.2 256,189.5 258,193.6 260,197.6 262,201.4 264,205.1 266,208.5 268,211.8 270,214.9 272,217.9 274,220.6 276,223.2 278,225.6 280,227.8 282,229.9 284,231.8 286,233.5 288,235.2 290,236.7 292,238.0 294,239.3 296,240.4 298,241.4 300,242.4 302,243.2 304,244.0 306,244.6 308,245.3 310,245.8 312,246.3 314,246.7 316,247.1 318,247.5 320,247.8 322,248.0 324,248.3 326,248.5 328,248.7 330,248.8 332,249.0 334,249.1 336,249.2 338,249.3 340,249.4 342,249.5 344,249.5 346,249.6 348,249.6 350,249.7 352,249.7 354,249.8 356,249.8 358,249.8 360,249.8 362,249.9 364,249.9 366,249.9 368,249.9 370,249.9 372,249.9 374,249.9 376,249.9 378,249.9 380,249.9 382,250.0 384,250.0 386,250.0 388,250.0 390,250.0 392,250.0 394,250.0 396,250.0 398,250.0 400,250.0 402,250.0 404,250.0 406,250.0 408,250.0 410,250.0 412,250.0 414,250.0 416,250.0 418,250.0 420,250.0 422,250.0 424,250.0 426,250.0 428,250.0 430,250.0 432,250.0 434,250.0 436,250.0 438,250.0" stroke="#333" stroke-width="2.5" fill="none" />
  <polyline points="40,200.0 42,200.0 44,200.0 46,200.0 48,200.0 50,200.0 52,199.9 54,199.9 56,199.9 58,199.9 60,199.9 62,199.9 64,199.8 66,199.8 68,199.8 70,199.7 72,199.7 74,199.6 76,199.5 78,199.4 80,199.4 82,199.2 84,199.1 86,199.0 88,198.8 90,198.7 92,198.5 94,198.2 96,198.0 98,197.7 100,197.4 102,197.1 104,196.7 106,196.3 108,195.8 110,195.3 112,194.7 114,194.1 116,193.5 118,192.8 120,192.0 122,191.2 124,190.3 126,189.3 128,188.3 130,187.2 132,186.1 134,184.9 136,183.6 138,182.3 140,180.9 142,179.4 144,177.9 146,176.3 148,174.7 150,173.1 152,171.4 154,169.7 156,168.0 158,166.2 160,164.5 162,162.8 164,161.1 166,159.4 168,157.8 170,156.2 172,154.7 174,153.2 176,151.8 178,150.6 180,149.4 182,148.4 184,147.5 186,146.7 188,146.1 190,145.6 192,145.3 194,145.2 196,145.3 198,145.5 200,146.0 202,146.6 204,147.4 206,148.4 208,149.6 210,151.0 212,152.5 214,154.3 216,156.2 218,158.3 220,160.5 222,162.9 224,165.4 226,168.0 228,170.8 230,173.6 232,176.5 234,179.5 236,182.5 238,185.5 240,188.6 242,191.7 244,194.7 246,197.7 248,200.7 250,203.7 252,206.5 254,209.3 256,212.0 258,214.6 260,217.1 262,219.5 264,221.7 266,223.9 268,226.0 270,227.9 272,229.7 274,231.4 276,233.0 278,234.5 280,235.9 282,237.2 284,238.4 286,239.5 288,240.5 290,241.4 292,242.3 294,243.1 296,243.8 298,244.4 300,245.0 302,245.5 304,246.0 306,246.4 308,246.8 310,247.2 312,247.5 314,247.8 316,248.0 318,248.2 320,248.4 322,248.6 324,248.8 326,248.9 328,249.0 330,249.1 332,249.2 334,249.3 336,249.4 338,249.5 340,249.5 342,249.6 344,249.6 346,249.7 348,249.7 350,249.7 352,249.8 354,249.8 356,249.8 358,249.8 360,249.9 362,249.9 364,249.9 366,249.9 368,249.9 370,249.9 372,249.9 374,249.9 376,249.9 378,249.9 380,250.0 382,250.0 384,250.0 386,250.0 388,250.0 390,250.0 392,250.0 394,250.0 396,250.0 398,250.0 400,250.0 402,250.0 404,250.0 406,250.0 408,250.0 410,250.0 412,250.0 414,250.0 416,250.0 418,250.0 420,250.0 422,250.0 424,250.0 426,250.0 428,250.0 430,250.0 432,250.0 434,250.0 436,250.0 438,250.0" stroke="#d45b5b" stroke-width="2.5" fill="none" />
  <line x1="40" y1="200" x2="200" y2="200" stroke="#333" stroke-width="1.5" stroke-dasharray="3,3" />
  <line x1="240" y1="250" x2="440" y2="250" stroke="#333" stroke-width="1.5" stroke-dasharray="3,3" />
  <line x1="300" y1="200" x2="300" y2="250" stroke="#2ca02c" stroke-width="2" stroke-dasharray="2,2" />
</svg>
