<svg xmlns="http://www.w3.org/2000/svg" viewBox="0 0 480 320">
  <rect width="100%" height="100%" fill="white"/>
  <polyline points="40,280 440,280" stroke="#333" stroke-width="2" fill="none" />
  <polyline points="40,280 40,40" stroke="#333" stroke-width="2" fill="none" />
  <polyline points="40,80.0 42,81.0 44,82.0 46,83.0 48,84.0 50,85.0 52,86.0 54,87.0 56,88.0 58,89.0 60,90.0 62,91.0 64,92.0 66,93.0 68,94.0 70,95.0 72,96.0 74,97.0 76,98.0 78,99.0 80,100.0 82,101.0 84,102.0 86,103.0 88,104.0 90,105.0 92,106.0 94,107.0 96,108.0 98,109.0 100,110.0 102,111.0 104,112.0 106,113.0 108,114.0 110,115.0 112,116.0 114,117.0 116,118.0 118,119.0 120,120.0 122,121.0 124,122.0 126,123.0 128,124.0 130,125.0 132,126.0 134,127.0 136,128.0 138,129.0 140,130.0 142,131.0 144,132.0 146,133.0 148,134.0 150,135.0 152,136.0 154,137.0 156,138.0 158,139.0 160,140.0 162,141.0 164,142.0 166,143.0 168,144.0 170,145.0 172,146.0 174,147.0 176,148.0 178,149.0 180,150.0 182,151.0 184,152.0 186,153.0 188,154.0 190,155.0 192,156.0 194,157.0 196,158.0 198,159.0 200,160.0 202,161.0 204,162.0 206,163.0 208,164.0 210,165.0 212,166.0 214,167.0 216,168.0 218,169.0 220,170.0 222,171.0 224,172.0 226,173.0 228,174.0 230,175.0 232,176.0 234,177.0 236,178.0 238,179.0 240,180.0 242,181.0 244,182.0 246,183.0 248,184.0 250,185.0 252,186.0 254,187.0 256,188.0 258,189.0 260,190.0 262,191.0 264,192.0 266,193.0 268,194.0 270,195.0 272,196.0 274,197.0 276,198.0 278,199.0 280,200.0 282,201.0 284,202.0 286,203.0 288,204.0 290,205.0 292,206.0 294,207.0 296,208.0 298,209.0 300,210.0 302,211.0 304,212.0 306,213.0 308,214.0 310,215.0 312,216.0 314,217.0 316,218.0 318,219.0 320,220.0 322,221.0 324,222.0 326,223.0 328,224.0 330,225.0 332,226.0 334,227.0 336,228.0 338,229.0 340,230.0 342,231.0 344,232.0 346,233.0 348,234.0 350,235.0 352,236.0 354,237.0 356,238.0 358,239.0 360,240.0 362,241.0 364,242.0 366,243.0 368,244.0 370,245.0 372,246.0 374,247.0 376,248.0 378,249.0 380,250.0 382,251.0 384,252.0 386,253.0 388,254.0 390,255.0 392,256.0 394,257.0 396,258.0 398,259.0 400,260.0 402,261.0 404,262.0 406,263.0 408,264.0 410,265.0 412,266.0 414,267.0 416,268.0 418,269.0 420,270.0 422,271.0 424,272.0 426,273.0 428,274.0 430,275.0 432,276.0 434,277.0 436,278.0 438,279.0" stroke="#2f6fb5" stroke-width="2.5" fill="none" />
  <polyline points="40,80.0 42,84.0 44,87.8 46,91.6 48,95.4 50,99.0 52,102.6 54,106.1 56,109.6 58,112.9 60,116.3 62,119.5 64,122.7 66,125.8 68,128.8 70,131.8 72,134.8 74,137.6 76,140.5 78,143.2 80,145.9 82,148.6 84,151.2 86,153.7 88,156.2 90,158.7 92,161.1 94,163.5 96,165.8 98,168.0 100,170.2 102,172.4 104,174.5 106,176.6 108,178.7 110,180.7 112,182.6 114,184.6 116,186.5 118,188.3 120,190.1 122,191.9 124,193.7 126,195.4 128,197.0 130,198.7 132,200.3 134,201.9 136,203.4 138,204.9 140,206.4 142,207.9 144,209.3 146,210.7 148,212.1 150,213.4 152,214.7 154,216.0 156,217.3 158,218.5 160,219.8 162,221.0 164,222.1 166,223.3 168,224.4 170,225.5 172,226.6 174,227.6 176,228.7 178,229.7 180,230.7 182,231.7 184,232.6 186,233.6 188,234.5 190,235.4 192,236.3 194,237.1 196,238.0 198,238.8 200,239.6 202,240.4 204,241.2 206,242.0 208,242.7 210,243.5 212,244.2 214,244.9 216,245.6 218,246.3 220,246.9 222,247.6 224,248.2 226,248.9 228,249.5 230,250.1 232,250.7 234,251.3 236,251.8 238,252.4 240,252.9 242,253.5 244,254.0 246,254.5 248,255.0 250,255.5 252,256.0 254,256.5 256,256.9 258,257.4 260,257.8 262,258.3 264,258.7 266,259.1 268,259.5 270,259.9 272,260.3 274,260.7 276,261.1 278,261.5 280,261.9 282,262.2 284,262.6 286,262.9 288,263.3 290,263.6 292,263.9 294,264.2 296,264.5 298,264.8 300,265.1 302,265.4 304,265.7 306,266.0 308,266.3 310,266.6 312,266.8 314,267.1 316,267.3 318,267.6 320,267.8 322,268.1 324,268.3 326,268.5 328,268.8 330,269.0 332,269.2 334,269.4 336,269.6 338,269.8 340,270.0 342,270.2 344,270.4 346,270.6 348,270.8 350,271.0 352,271.2 354,271.3 356,271.5 358,271.7 360,271.8 362,272.0 364,272.2 366,272.3 368,272.5 370,272.6 372,272.8 374,272.9 376,273.1 378,273.2 380,273.3 382,273.5 384,273.6 386,273.7 388,273.8 390,274.0 392,274.1 394,274.2 396,274.3 398,274.4 400,274.5 402,274.6 404,274.7 406,274.9 408,275.0 410,275.1 412,275.2 414,275.2 416,275.3 418,275.4 420,275.5 422,275.6 424,275.7 426,275.8 428,275.9 430,276.0 432,276.0 434,276.1 436,276.2 438,276.3" stroke="#2ca02c" stroke-width="2.5" fill="none" />
  <polyline points="40,80.0 42,94.0 44,106.1 46,116.7 48,126.2 50,134.5 52,142.1 54,148.9 56,155.0 58,160.6 60,165.7 62,170.4 64,174.7 66,178.7 68,182.4 70,185.9 72,189.1 74,192.1 76,194.9 78,197.5 80,200.0 82,202.3 84,204.5 86,206.6 88,208.6 90,210.4 92,212.2 94,213.9 96,215.5 98,217.0 100,218.5 102,219.8 104,221.2 106,222.4 108,223.7 110,224.8 112,225.9 114,227.0 116,228.1 118,229.0 120,230.0 122,230.9 124,231.8 126,232.7 128,233.5 130,234.3 132,235.1 134,235.8 136,236.5 138,237.2 140,237.9 142,238.5 144,239.2 146,239.8 148,240.4 150,241.0 152,241.5 154,242.1 156,242.6 158,243.1 160,243.6 162,244.1 164,244.6 166,245.1 168,245.5 170,246.0 172,246.4 174,246.8 176,247.2 178,247.6 180,248.0 182,248.4 184,248.8 186,249.1 188,249.5 190,249.8 192,250.1 194,250.5 196,250.8 198,251.1 200,251.4 202,251.7 204,252.0 206,252.3 208,252.6 210,252.9 212,253.2 214,253.4 216,253.7 218,253.9 220,254.2 222,254.4 224,254.7 226,254.9 228,255.2 230,255.4 232,255.6 234,255.8 236,256.0 238,256.3 240,256.5 242,256.7 244,256.9 246,257.1 248,257.3 250,257.5 252,257.7 254,257.8 256,258.0 258,258.2 260,258.4 262,258.6 264,258.7 266,258.9 268,259.1 270,259.2 272,259.4 274,259.5 276,259.7 278,259.8 280,260.0 282,260.1 284,260.3 286,260.4 288,260.6 290,260.7 292,260.9 294,261.0 296,261.1 298,261.3 300,261.4 302,261.5 304,261.7 306,261.8 308,261.9 310,262.0 312,262.1 314,262.3 316,262.4 318,262.5 320,262.6 322,262.7 324,262.8 326,262.9 328,263.1 330,263.2 332,263.3 334,263.4 336,263.5 338,263.6 340,263.7 342,263.8 344,263.9 346,264.0 348,264.1 350,264.2 352,264.3 354,264.3 356,264.4 358,264.5 360,264.6 362,264.7 364,264.8 366,264.9 368,265.0 370,265.0 372,265.1 374,265.2 376,265.3 378,265.4 380,265.5 382,265.5 384,265.6 386,265.7 388,265.8 390,265.8 392,265.9 394,266.0 396,266.1 398,266.1 400,266.2 402,266.3 404,266.3 406,266.4 408,266.5 410,266.6 412,266.6 414,266.7 416,266.8 418,266.8 420,266.9 422,266.9 424,267.0 426,267.1 428,267.1 430,267.2 432,267.3 434,267.3 436,267.4 438,267.4" stroke="#d45b5b" stroke-width="2.5" fill="none" />
</svg>
