<svg xmlns="http://www.w3.org/2000/svg" viewBox="0 0 480 320">
  <rect width="100%" height="100%" fill="white"/>
  <polyline points="40,280 440,280" stroke="#333" stroke-width="2" fill="none" />
  <polyline points="40,280 40,40" stroke="#333" stroke-width="2" fill="none" />
  <polyline points="40,280.0 42,279.4 44,277.8 46,275.0 48,271.3 50,266.5 52,260.8 54,254.2 56,246.9 58,238.9 60,230.3 62,221.2 64,211.8 66,202.2 68,192.4 70,182.6 72,173.0 74,163.5 76,154.4 78,145.7 80,137.5 82,129.9 84,123.0 86,116.7 88,111.3 90,106.6 92,102.8 94,99.8 96,97.7 98,96.5 100,96.1 102,96.5 104,97.7 106,99.6 108,102.2 110,105.5 112,109.4 114,113.8 116,118.8 118,124.1 120,129.8 122,135.7 124,142.0 126,148.3 128,154.9 130,161.4 132,168.0 134,174.6 136,181.0 138,187.4 140,193.6 142,199.7 144,205.5 146,211.2 148,216.6 150,221.7 152,226.6 154,231.2 156,235.5 158,239.6 160,243.4 162,246.9 164,250.2 166,253.2 168,256.0 170,258.5 172,260.9 174,263.0 176,264.9 178,266.7 180,268.2 182,269.7 184,270.9 186,272.1 188,273.1 190,274.0 192,274.8 194,275.5 196,276.1 198,276.6 200,277.1 202,277.5 204,277.9 206,278.2 208,278.5 210,278.7 212,278.9 214,279.1 216,279.2 218,279.3 220,279.4 222,279.5 224,279.6 226,279.7 228,279.7 230,279.8 232,279.8 234,279.8 236,279.9 238,279.9 240,279.9 242,279.9 244,279.9 246,280.0 248,280.0 250,280.0 252,280.0 254,280.0 256,280.0 258,280.0 260,280.0 262,280.0 264,280.0 266,280.0 268,280.0 270,280.0 272,280.0 274,280.0 276,280.0 278,280.0 280,280.0 282,280.0 284,280.0 286,280.0 288,280.0 290,280.0 292,280.0 294,280.0 296,280.0 298,280.0 300,280.0 302,280.0 304,280.0 306,280.0 308,280.0 310,280.0 312,280.0 314,280.0 316,280.0 318,280.0 320,280.0 322,280.0 324,280.0 326,280.0 328,280.0 330,280.0 332,280.0 334,280.0 336,280.0 338,280.0 340,280.0 342,280.0 344,280.0 346,280.0 348,280.0 350,280.0 352,280.0 354,280.0 356,280.0 358,280.0 360,280.0 362,280.0 364,280.0 366,280.0 368,280.0 370,280.0 372,280.0 374,280.0 376,280.0 378,280.0 380,280.0 382,280.0 384,280.0 386,280.0 388,280.0 390,280.0 392,280.0 394,280.0 396,280.0 398,280.0 400,280.0 402,280.0 404,280.0 406,280.0 408,280.0 410,280.0 412,280.0 414,280.0 416,280.0 418,280.0 420,280.0 422,280.0 424,280.0 426,280.0 428,280.0 430,280.0 432,280.0 434,280.0 436,280.0 438,280.0" stroke="#2f6fb5" stroke-width="2.5" fill="none" />
  <polyline points="40,280.0 42,279.8 44,279.3 46,278.5 48,277.3 50,275.8 52,274.0 54,271.9 56,269.5 58,266.8 60,263.8 62,260.6 64,257.2 66,253.6 68,249.8 70,245.8 72,241.7 74,237.5 76,233.2 78,228.8 80,224.4 82,219.9 84,215.5 86,211.1 88,206.7 90,202.4 92,198.2 94,194.1 96,190.2 98,186.4 100,182.7 102,179.3 104,176.1 106,173.0 108,170.2 110,167.7 112,165.3 114,163.3 116,161.4 118,159.9 120,158.6 122,157.6 124,156.8 126,156.3 128,156.0 130,156.0 132,156.3 134,156.8 136,157.5 138,158.4 140,159.6 142,161.0 144,162.5 146,164.3 148,166.2 150,168.2 152,170.4 154,172.8 156,175.3 158,177.8 160,180.5 162,183.3 164,186.1 166,189.0 168,191.9 170,194.8 172,197.8 174,200.8 176,203.8 178,206.8 180,209.8 182,212.7 184,215.6 186,218.5 188,221.3 190,224.1 192,226.8 194,229.5 196,232.0 198,234.6 200,237.0 202,239.4 204,241.6 206,243.8 208,246.0 210,248.0 212,249.9 214,251.8 216,253.6 218,255.3 220,256.9 222,258.5 224,259.9 226,261.3 228,262.7 230,263.9 232,265.1 234,266.2 236,267.2 238,268.2 240,269.1 242,269.9 244,270.7 246,271.5 248,272.2 250,272.8 252,273.4 254,274.0 256,274.5 258,275.0 260,275.4 262,275.8 264,276.2 266,276.6 268,276.9 270,277.2 272,277.4 274,277.7 276,277.9 278,278.1 280,278.3 282,278.5 284,278.6 286,278.8 288,278.9 290,279.0 292,279.1 294,279.2 296,279.3 298,279.4 300,279.4 302,279.5 304,279.6 306,279.6 308,279.6 310,279.7 312,279.7 314,279.8 316,279.8 318,279.8 320,279.8 322,279.9 324,279.9 326,279.9 328,279.9 330,279.9 332,279.9 334,279.9 336,279.9 338,279.9 340,280.0 342,280.0 344,280.0 346,280.0 348,280.0 350,280.0 352,280.0 354,280.0 356,280.0 358,280.0 360,280.0 362,280.0 364,280.0 366,280.0 368,280.0 370,280.0 372,280.0 374,280.0 376,280.0 378,280.0 380,280.0 382,280.0 384,280.0 386,280.0 388,280.0 390,280.0 392,280.0 394,280.0 396,280.0 398,280.0 400,280.0 402,280.0 404,280.0 406,280.0 408,280.0 410,280.0 412,280.0 414,280.0 416,280.0 418,280.0 420,280.0 422,280.0 424,280.0 426,280.0 428,280.0 430,280.0 432,280.0 434,280.0 436,280.0 438,280.0" stroke="#d45b5b" stroke-width="2.5" fill="none" />
  <line x1="250" y1="280" x2="250" y2="80" stroke="#333" stroke-width="2" stroke-dasharray="5,5" />
  <polygon points="250,280 250,272.8 252,273.4 254,274.0 256,274.5 258,275.0 260,275.4 262,275.8 264,276.2 266,276.6 268,276.9 270,277.2 272,277.4 274,277.7 276,277.9 278,278.1 280,278.3 282,278.5 284,278.6 286,278.8 288,278.9 290,279.0 292,279.1 294,279.2 296,279.3 298,279.4 300,279.4 302,279.5 304,279.6 306,279.6 308,279.6 310,279.7 312,279.7 314,279.8 316,279.8 318,279.8 320,279.8 322,279.9 324,279.9 326,279.9 328,279.9 330,279.9 332,279.9 334,279.9 336,279.9 338,279.9 340,280.0 342,280.0 344,280.0 346,280.0 348,280.0 350,280.0 352,280.0 354,280.0 356,280.0 358,280.0 360,280.0 362,280.0 364,280.0 366,280.0 368,280.0 370,280.0 372,280.0 374,280.0 376,280.0 378,280.0 380,280.0 382,280.0 384,280.0 386,280.0 388,280.0 390,280.0 392,280.0 394,280.0 396,280.0 398,280.0 400,280.0 402,280.0 404,280.0 406,280.0 408,280.0 410,280.0 412,280.0 414,280.0 416,280.0 418,280.0 420,280.0 422,280.0 424,280.0 426,280.0 428,280.0 430,280.0 432,280.0 434,280.0 436,280.0 438,280.0 440,280" fill="#d45b5b" fill-opacity="0.3" stroke="none" />
</svg>
