<svg xmlns="http://www.w3.org/2000/svg" viewBox="0 0 480 320">
  <rect width="100%" height="100%" fill="white"/>
  <polyline points="40,280 440,280" stroke="#333" stroke-width="2" fill="none" />
  <polyline points="40,280 40,40" stroke="#333" stroke-width="2" fill="none" />
  <polyline points="40,261.1 42,261.1 44,261.1 46,261.1 48,261.0 50,261.0 52,261.0 54,261.0 56,261.0 58,260.9 60,260.9 62,260.9 64,260.9 66,260.9 68,260.8 70,260.8 72,260.8 74,260.8 76,260.7 78,260.7 80,260.7 82,260.6 84,260.6 86,260.6 88,260.6 90,260.5 92,260.5 94,260.5 96,260.4 98,260.4 100,260.4 102,260.3 104,260.3 106,260.3 108,260.2 110,260.2 112,260.1 114,260.1 116,260.0 118,260.0 120,259.9 122,259.9 124,259.8 126,259.8 128,259.7 130,259.7 132,259.6 134,259.6 136,259.5 138,259.4 140,259.4 142,259.3 144,259.2 146,259.1 148,259.1 150,259.0 152,258.9 154,258.8 156,258.7 158,258.6 160,258.5 162,258.4 164,258.3 166,258.1 168,258.0 170,257.9 172,257.7 174,257.6 176,257.4 178,257.2 180,257.1 182,256.9 184,256.6 186,256.4 188,256.2 190,255.9 192,255.6 194,255.3 196,255.0 198,254.6 200,254.2 202,253.7 204,253.2 206,252.7 208,252.0 210,251.3 212,250.5 214,249.6 216,248.5 218,247.3 220,245.8 222,244.0 224,241.8 226,239.0 228,235.5 230,230.8 232,224.4 234,215.3 236,202.1 238,183.5 240,160.0 242,136.5 244,117.9 246,104.7 248,95.6 250,89.2 252,84.5 254,81.0 256,78.2 258,76.0 260,74.2 262,72.7 264,71.5 266,70.4 268,69.5 270,68.7 272,68.0 274,67.3 276,66.8 278,66.3 280,65.8 282,65.4 284,65.0 286,64.7 288,64.4 290,64.1 292,63.8 294,63.6 296,63.4 298,63.1 300,62.9 302,62.8 304,62.6 306,62.4 308,62.3 310,62.1 312,62.0 314,61.9 316,61.7 318,61.6 320,61.5 322,61.4 324,61.3 326,61.2 328,61.1 330,61.0 332,60.9 334,60.9 336,60.8 338,60.7 340,60.6 342,60.6 344,60.5 346,60.4 348,60.4 350,60.3 352,60.3 354,60.2 356,60.2 358,60.1 360,60.1 362,60.0 364,60.0 366,59.9 368,59.9 370,59.8 372,59.8 374,59.7 376,59.7 378,59.7 380,59.6 382,59.6 384,59.6 386,59.5 388,59.5 390,59.5 392,59.4 394,59.4 396,59.4 398,59.4 400,59.3 402,59.3 404,59.3 406,59.2 408,59.2 410,59.2 412,59.2 414,59.1 416,59.1 418,59.1 420,59.1 422,59.1 424,59.0 426,59.0 428,59.0 430,59.0 432,59.0 434,58.9 436,58.9 438,58.9" stroke="#d45b5b" stroke-width="2.5" fill="none" />
  <polyline points="40,217.4 42,217.3 44,217.1 46,217.0 48,216.9 50,216.7 52,216.6 54,216.4 56,216.3 58,216.1 60,215.9 62,215.8 64,215.6 66,215.4 68,215.2 70,215.0 72,214.8 74,214.5 76,214.3 78,214.1 80,213.8 82,213.5 84,213.3 86,213.0 88,212.7 90,212.3 92,212.0 94,211.6 96,211.3 98,210.9 100,210.5 102,210.0 104,209.6 106,209.1 108,208.6 110,208.1 112,207.5 114,206.9 116,206.3 118,205.7 120,205.0 122,204.3 124,203.6 126,202.9 128,202.1 130,201.3 132,200.5 134,199.7 136,198.9 138,198.1 140,197.2 142,196.4 144,195.5 146,194.7 148,193.9 150,193.0 152,192.3 154,191.5 156,190.7 158,190.0 160,189.3 162,188.6 164,187.9 166,187.3 168,186.7 170,186.1 172,185.5 174,185.0 176,184.4 178,183.9 180,183.4 182,183.0 184,182.5 186,182.1 188,181.6 190,181.2 192,180.8 194,180.3 196,179.9 198,179.5 200,179.1 202,178.7 204,178.2 206,177.8 208,177.3 210,176.8 212,176.3 214,175.8 216,175.2 218,174.5 220,173.7 222,172.8 224,171.8 226,170.5 228,168.9 230,166.7 232,163.8 234,159.4 236,152.5 238,141.4 240,125.5 242,109.6 244,98.5 246,91.7 248,87.3 250,84.4 252,82.3 254,80.7 256,79.5 258,78.5 260,77.7 262,77.0 264,76.5 266,76.0 268,75.5 270,75.1 272,74.8 274,74.5 276,74.2 278,73.9 280,73.7 282,73.4 284,73.2 286,73.1 288,72.9 290,72.7 292,72.5 294,72.4 296,72.3 298,72.1 300,72.0 302,71.9 304,71.8 306,71.6 308,71.5 310,71.4 312,71.3 314,71.3 316,71.2 318,71.1 320,71.0 322,70.9 324,70.8 326,70.8 328,70.7 330,70.6 332,70.6 334,70.5 336,70.4 338,70.4 340,70.3 342,70.3 344,70.2 346,70.1 348,70.1 350,70.0 352,70.0 354,69.9 356,69.9 358,69.8 360,69.8 362,69.8 364,69.7 366,69.7 368,69.6 370,69.6 372,69.5 374,69.5 376,69.5 378,69.4 380,69.4 382,69.4 384,69.3 386,69.3 388,69.3 390,69.2 392,69.2 394,69.2 396,69.1 398,69.1 400,69.1 402,69.0 404,69.0 406,69.0 408,69.0 410,68.9 412,68.9 414,68.9 416,68.8 418,68.8 420,68.8 422,68.8 424,68.7 426,68.7 428,68.7 430,68.7 432,68.7 434,68.6 436,68.6 438,68.6" stroke="#2f6fb5" stroke-width="2.5" fill="none" />
  <circle cx="240" cy="160.0" r="4" fill="#d45b5b" />
  <circle cx="240" cy="127.4" r="4" fill="#2f6fb5" />
</svg>
