<svg xmlns="http://www.w3.org/2000/svg" viewBox="0 0 480 320">
  <rect x="0" y="0" width="480" height="320" fill="white"/>
  
  <text x="50" y="165" font-family="sans-serif" font-size="24" text-anchor="middle" fill="#000">[Ar]</text>
  
  <rect x="90" y="140" width="40" height="40" fill="none" stroke="#000" stroke-width="2"/>
  <line x1="110" y1="175" x2="110" y2="145" stroke="#000" stroke-width="2"/>
  <polyline points="105,150 110,145 115,150" fill="none" stroke="#000" stroke-width="2"/>
  
  <rect x="170" y="140" width="40" height="40" fill="none" stroke="#000" stroke-width="2"/>
  <line x1="190" y1="175" x2="190" y2="145" stroke="#000" stroke-width="2"/>
  <polyline points="185,150 190,145 195,150" fill="none" stroke="#000" stroke-width="2"/>

  <rect x="210" y="140" width="40" height="40" fill="none" stroke="#000" stroke-width="2"/>
  <line x1="230" y1="175" x2="230" y2="145" stroke="#000" stroke-width="2"/>
  <polyline points="225,150 230,145 235,150" fill="none" stroke="#000" stroke-width="2"/>

  <rect x="250" y="140" width="40" height="40" fill="none" stroke="#000" stroke-width="2"/>
  <line x1="270" y1="175" x2="270" y2="145" stroke="#000" stroke-width="2"/>
  <polyline points="265,150 270,145 275,150" fill="none" stroke="#000" stroke-width="2"/>

  <rect x="290" y="140" width="40" height="40" fill="none" stroke="#000" stroke-width="2"/>
  <line x1="310" y1="175" x2="310" y2="145" stroke="#000" stroke-width="2"/>
  <polyline points="305,150 310,145 315,150" fill="none" stroke="#000" stroke-width="2"/>

  <rect x="330" y="140" width="40" height="40" fill="none" stroke="#000" stroke-width="2"/>
  <line x1="350" y1="175" x2="350" y2="145" stroke="#000" stroke-width="2"/>
  <polyline points="345,150 350,145 355,150" fill="none" stroke="#000" stroke-width="2"/>
  
  <polyline points="170,195 170,215 370,215 370,195" fill="none" stroke="#000" stroke-width="2"/>
  <line x1="270" y1="215" x2="270" y2="225" stroke="#000" stroke-width="2"/>

</svg>
