<svg xmlns="http://www.w3.org/2000/svg" viewBox="0 0 480 320">
  <rect width="480" height="320" fill="white"/>
  <text x="240" y="30" font-family="sans-serif" font-size="20" text-anchor="middle" font-weight="bold">Element: Copper (Cu)</text>
  <text x="145" y="65" font-family="sans-serif" font-size="16" text-anchor="middle">4s</text>
  <text x="285" y="65" font-family="sans-serif" font-size="16" text-anchor="middle">3d</text>
<rect x="130" y="80" width="30" height="30" fill="none" stroke="black" stroke-width="2"/>
<line x1="140" y1="105" x2="140" y2="85" stroke="black" stroke-width="2"/>
<polyline points="136,89 140,85 144,89" fill="none" stroke="black" stroke-width="2"/>
<line x1="150" y1="85" x2="150" y2="105" stroke="black" stroke-width="2"/>
<polyline points="146,101 150,105 154,101" fill="none" stroke="black" stroke-width="2"/>
<rect x="210" y="80" width="30" height="30" fill="none" stroke="black" stroke-width="2"/>
<line x1="225" y1="105" x2="225" y2="85" stroke="black" stroke-width="2"/>
<polyline points="221,89 225,85 229,89" fill="none" stroke="black" stroke-width="2"/>
<rect x="240" y="80" width="30" height="30" fill="none" stroke="black" stroke-width="2"/>
<line x1="255" y1="105" x2="255" y2="85" stroke="black" stroke-width="2"/>
<polyline points="251,89 255,85 259,89" fill="none" stroke="black" stroke-width="2"/>
<rect x="270" y="80" width="30" height="30" fill="none" stroke="black" stroke-width="2"/>
<line x1="285" y1="105" x2="285" y2="85" stroke="black" stroke-width="2"/>
<polyline points="281,89 285,85 289,89" fill="none" stroke="black" stroke-width="2"/>
<rect x="300" y="80" width="30" height="30" fill="none" stroke="black" stroke-width="2"/>
<line x1="315" y1="105" x2="315" y2="85" stroke="black" stroke-width="2"/>
<polyline points="311,89 315,85 319,89" fill="none" stroke="black" stroke-width="2"/>
<rect x="330" y="80" width="30" height="30" fill="none" stroke="black" stroke-width="2"/>
<line x1="345" y1="105" x2="345" y2="85" stroke="black" stroke-width="2"/>
<polyline points="341,89 345,85 349,89" fill="none" stroke="black" stroke-width="2"/>
<circle cx="410" cy="95" r="15" fill="none" stroke="#666" stroke-width="2" stroke-dasharray="4,2"/>
<rect x="130" y="140" width="30" height="30" fill="none" stroke="black" stroke-width="2"/>
<line x1="145" y1="165" x2="145" y2="145" stroke="black" stroke-width="2"/>
<polyline points="141,149 145,145 149,149" fill="none" stroke="black" stroke-width="2"/>
<rect x="210" y="140" width="30" height="30" fill="none" stroke="black" stroke-width="2"/>
<line x1="220" y1="165" x2="220" y2="145" stroke="black" stroke-width="2"/>
<polyline points="216,149 220,145 224,149" fill="none" stroke="black" stroke-width="2"/>
<line x1="230" y1="145" x2="230" y2="165" stroke="black" stroke-width="2"/>
<polyline points="226,161 230,165 234,161" fill="none" stroke="black" stroke-width="2"/>
<rect x="240" y="140" width="30" height="30" fill="none" stroke="black" stroke-width="2"/>
<line x1="250" y1="165" x2="250" y2="145" stroke="black" stroke-width="2"/>
<polyline points="246,149 250,145 254,149" fill="none" stroke="black" stroke-width="2"/>
<line x1="260" y1="145" x2="260" y2="165" stroke="black" stroke-width="2"/>
<polyline points="256,161 260,165 264,161" fill="none" stroke="black" stroke-width="2"/>
<rect x="270" y="140" width="30" height="30" fill="none" stroke="black" stroke-width="2"/>
<line x1="280" y1="165" x2="280" y2="145" stroke="black" stroke-width="2"/>
<polyline points="276,149 280,145 284,149" fill="none" stroke="black" stroke-width="2"/>
<line x1="290" y1="145" x2="290" y2="165" stroke="black" stroke-width="2"/>
<polyline points="286,161 290,165 294,161" fill="none" stroke="black" stroke-width="2"/>
<rect x="300" y="140" width="30" height="30" fill="none" stroke="black" stroke-width="2"/>
<line x1="310" y1="165" x2="310" y2="145" stroke="black" stroke-width="2"/>
<polyline points="306,149 310,145 314,149" fill="none" stroke="black" stroke-width="2"/>
<line x1="320" y1="145" x2="320" y2="165" stroke="black" stroke-width="2"/>
<polyline points="316,161 320,165 324,161" fill="none" stroke="black" stroke-width="2"/>
<rect x="330" y="140" width="30" height="30" fill="none" stroke="black" stroke-width="2"/>
<line x1="340" y1="165" x2="340" y2="145" stroke="black" stroke-width="2"/>
<polyline points="336,149 340,145 344,149" fill="none" stroke="black" stroke-width="2"/>
<line x1="350" y1="145" x2="350" y2="165" stroke="black" stroke-width="2"/>
<polyline points="346,161 350,165 354,161" fill="none" stroke="black" stroke-width="2"/>
<circle cx="410" cy="155" r="15" fill="none" stroke="#666" stroke-width="2" stroke-dasharray="4,2"/>
<rect x="130" y="200" width="30" height="30" fill="none" stroke="black" stroke-width="2"/>
<line x1="140" y1="225" x2="140" y2="205" stroke="black" stroke-width="2"/>
<polyline points="136,209 140,205 144,209" fill="none" stroke="black" stroke-width="2"/>
<line x1="150" y1="205" x2="150" y2="225" stroke="black" stroke-width="2"/>
<polyline points="146,221 150,225 154,221" fill="none" stroke="black" stroke-width="2"/>
<rect x="210" y="200" width="30" height="30" fill="none" stroke="black" stroke-width="2"/>
<line x1="220" y1="225" x2="220" y2="205" stroke="black" stroke-width="2"/>
<polyline points="216,209 220,205 224,209" fill="none" stroke="black" stroke-width="2"/>
<line x1="230" y1="205" x2="230" y2="225" stroke="black" stroke-width="2"/>
<polyline points="226,221 230,225 234,221" fill="none" stroke="black" stroke-width="2"/>
<rect x="240" y="200" width="30" height="30" fill="none" stroke="black" stroke-width="2"/>
<line x1="250" y1="225" x2="250" y2="205" stroke="black" stroke-width="2"/>
<polyline points="246,209 250,205 254,209" fill="none" stroke="black" stroke-width="2"/>
<line x1="260" y1="205" x2="260" y2="225" stroke="black" stroke-width="2"/>
<polyline points="256,221 260,225 264,221" fill="none" stroke="black" stroke-width="2"/>
<rect x="270" y="200" width="30" height="30" fill="none" stroke="black" stroke-width="2"/>
<line x1="280" y1="225" x2="280" y2="205" stroke="black" stroke-width="2"/>
<polyline points="276,209 280,205 284,209" fill="none" stroke="black" stroke-width="2"/>
<line x1="290" y1="205" x2="290" y2="225" stroke="black" stroke-width="2"/>
<polyline points="286,221 290,225 294,221" fill="none" stroke="black" stroke-width="2"/>
<rect x="300" y="200" width="30" height="30" fill="none" stroke="black" stroke-width="2"/>
<line x1="315" y1="225" x2="315" y2="205" stroke="black" stroke-width="2"/>
<polyline points="311,209 315,205 319,209" fill="none" stroke="black" stroke-width="2"/>
<rect x="330" y="200" width="30" height="30" fill="none" stroke="black" stroke-width="2"/>
<line x1="345" y1="225" x2="345" y2="205" stroke="black" stroke-width="2"/>
<polyline points="341,209 345,205 349,209" fill="none" stroke="black" stroke-width="2"/>
<circle cx="410" cy="215" r="15" fill="none" stroke="#666" stroke-width="2" stroke-dasharray="4,2"/>
<rect x="130" y="260" width="30" height="30" fill="none" stroke="black" stroke-width="2"/>
<line x1="140" y1="285" x2="140" y2="265" stroke="black" stroke-width="2"/>
<polyline points="136,269 140,265 144,269" fill="none" stroke="black" stroke-width="2"/>
<line x1="150" y1="265" x2="150" y2="285" stroke="black" stroke-width="2"/>
<polyline points="146,281 150,285 154,281" fill="none" stroke="black" stroke-width="2"/>
<rect x="210" y="260" width="30" height="30" fill="none" stroke="black" stroke-width="2"/>
<line x1="220" y1="285" x2="220" y2="265" stroke="black" stroke-width="2"/>
<polyline points="216,269 220,265 224,269" fill="none" stroke="black" stroke-width="2"/>
<line x1="230" y1="265" x2="230" y2="285" stroke="black" stroke-width="2"/>
<polyline points="226,281 230,285 234,281" fill="none" stroke="black" stroke-width="2"/>
<rect x="240" y="260" width="30" height="30" fill="none" stroke="black" stroke-width="2"/>
<line x1="255" y1="285" x2="255" y2="265" stroke="black" stroke-width="2"/>
<polyline points="251,269 255,265 259,269" fill="none" stroke="black" stroke-width="2"/>
<rect x="270" y="260" width="30" height="30" fill="none" stroke="black" stroke-width="2"/>
<line x1="285" y1="285" x2="285" y2="265" stroke="black" stroke-width="2"/>
<polyline points="281,269 285,265 289,269" fill="none" stroke="black" stroke-width="2"/>
<rect x="300" y="260" width="30" height="30" fill="none" stroke="black" stroke-width="2"/>
<line x1="315" y1="285" x2="315" y2="265" stroke="black" stroke-width="2"/>
<polyline points="311,269 315,265 319,269" fill="none" stroke="black" stroke-width="2"/>
<rect x="330" y="260" width="30" height="30" fill="none" stroke="black" stroke-width="2"/>
<line x1="345" y1="285" x2="345" y2="265" stroke="black" stroke-width="2"/>
<polyline points="341,269 345,265 349,269" fill="none" stroke="black" stroke-width="2"/>
<circle cx="410" cy="275" r="15" fill="none" stroke="#666" stroke-width="2" stroke-dasharray="4,2"/>
</svg>