<svg xmlns="http://www.w3.org/2000/svg" viewBox="0 0 480 320">
  <!-- Background -->
  <rect width="480" height="320" fill="white"/>
  <!-- Container N2 -->
  <rect x="60" y="50" width="140" height="150" fill="#f8fbff" stroke="#333" stroke-width="2"/>
  <text x="130" y="40" font-family="sans-serif" font-size="16" font-weight="bold" text-anchor="middle" fill="#333">1 mol N₂(g)</text>
  <g transform="translate(90,80) rotate(270)">
    <line x1="-8" y1="0" x2="8" y2="0" stroke="#333" stroke-width="3"/>
    <circle cx="-8" cy="0" r="8" fill="#4a90e2" stroke="#333" stroke-width="1.5"/>
    <circle cx="8" cy="0" r="8" fill="#4a90e2" stroke="#333" stroke-width="1.5"/>
  </g>
  <g transform="translate(160,90) rotate(40)">
    <line x1="-8" y1="0" x2="8" y2="0" stroke="#333" stroke-width="3"/>
    <circle cx="-8" cy="0" r="8" fill="#4a90e2" stroke="#333" stroke-width="1.5"/>
    <circle cx="8" cy="0" r="8" fill="#4a90e2" stroke="#333" stroke-width="1.5"/>
  </g>
  <g transform="translate(120,130) rotate(120)">
    <line x1="-8" y1="0" x2="8" y2="0" stroke="#333" stroke-width="3"/>
    <circle cx="-8" cy="0" r="8" fill="#4a90e2" stroke="#333" stroke-width="1.5"/>
    <circle cx="8" cy="0" r="8" fill="#4a90e2" stroke="#333" stroke-width="1.5"/>
  </g>
  <g transform="translate(80,160) rotate(200)">
    <line x1="-8" y1="0" x2="8" y2="0" stroke="#333" stroke-width="3"/>
    <circle cx="-8" cy="0" r="8" fill="#4a90e2" stroke="#333" stroke-width="1.5"/>
    <circle cx="8" cy="0" r="8" fill="#4a90e2" stroke="#333" stroke-width="1.5"/>
  </g>
  <g transform="translate(165,170) rotate(75)">
    <line x1="-8" y1="0" x2="8" y2="0" stroke="#333" stroke-width="3"/>
    <circle cx="-8" cy="0" r="8" fill="#4a90e2" stroke="#333" stroke-width="1.5"/>
    <circle cx="8" cy="0" r="8" fill="#4a90e2" stroke="#333" stroke-width="1.5"/>
  </g>
  <g transform="translate(130,180) rotate(190)">
    <line x1="-8" y1="0" x2="8" y2="0" stroke="#333" stroke-width="3"/>
    <circle cx="-8" cy="0" r="8" fill="#4a90e2" stroke="#333" stroke-width="1.5"/>
    <circle cx="8" cy="0" r="8" fill="#4a90e2" stroke="#333" stroke-width="1.5"/>
  </g>
  <!-- Container O3 -->
  <rect x="280" y="50" width="140" height="150" fill="#fff8f8" stroke="#333" stroke-width="2"/>
  <text x="350" y="40" font-family="sans-serif" font-size="16" font-weight="bold" text-anchor="middle" fill="#333">1 mol O₃(g)</text>
  <g transform="translate(310,80) rotate(160)">
    <line x1="-10" y1="5" x2="0" y2="-5" stroke="#333" stroke-width="3"/>
    <line x1="10" y1="5" x2="0" y2="-5" stroke="#333" stroke-width="3"/>
    <circle cx="-10" cy="5" r="7" fill="#e74c3c" stroke="#333" stroke-width="1.5"/>
    <circle cx="0" cy="-5" r="7" fill="#e74c3c" stroke="#333" stroke-width="1.5"/>
    <circle cx="10" cy="5" r="7" fill="#e74c3c" stroke="#333" stroke-width="1.5"/>
  </g>
  <g transform="translate(380,90) rotate(270)">
    <line x1="-10" y1="5" x2="0" y2="-5" stroke="#333" stroke-width="3"/>
    <line x1="10" y1="5" x2="0" y2="-5" stroke="#333" stroke-width="3"/>
    <circle cx="-10" cy="5" r="7" fill="#e74c3c" stroke="#333" stroke-width="1.5"/>
    <circle cx="0" cy="-5" r="7" fill="#e74c3c" stroke="#333" stroke-width="1.5"/>
    <circle cx="10" cy="5" r="7" fill="#e74c3c" stroke="#333" stroke-width="1.5"/>
  </g>
  <g transform="translate(340,130) rotate(350)">
    <line x1="-10" y1="5" x2="0" y2="-5" stroke="#333" stroke-width="3"/>
    <line x1="10" y1="5" x2="0" y2="-5" stroke="#333" stroke-width="3"/>
    <circle cx="-10" cy="5" r="7" fill="#e74c3c" stroke="#333" stroke-width="1.5"/>
    <circle cx="0" cy="-5" r="7" fill="#e74c3c" stroke="#333" stroke-width="1.5"/>
    <circle cx="10" cy="5" r="7" fill="#e74c3c" stroke="#333" stroke-width="1.5"/>
  </g>
  <g transform="translate(300,160) rotate(320)">
    <line x1="-10" y1="5" x2="0" y2="-5" stroke="#333" stroke-width="3"/>
    <line x1="10" y1="5" x2="0" y2="-5" stroke="#333" stroke-width="3"/>
    <circle cx="-10" cy="5" r="7" fill="#e74c3c" stroke="#333" stroke-width="1.5"/>
    <circle cx="0" cy="-5" r="7" fill="#e74c3c" stroke="#333" stroke-width="1.5"/>
    <circle cx="10" cy="5" r="7" fill="#e74c3c" stroke="#333" stroke-width="1.5"/>
  </g>
  <g transform="translate(385,170) rotate(70)">
    <line x1="-10" y1="5" x2="0" y2="-5" stroke="#333" stroke-width="3"/>
    <line x1="10" y1="5" x2="0" y2="-5" stroke="#333" stroke-width="3"/>
    <circle cx="-10" cy="5" r="7" fill="#e74c3c" stroke="#333" stroke-width="1.5"/>
    <circle cx="0" cy="-5" r="7" fill="#e74c3c" stroke="#333" stroke-width="1.5"/>
    <circle cx="10" cy="5" r="7" fill="#e74c3c" stroke="#333" stroke-width="1.5"/>
  </g>
  <g transform="translate(350,180) rotate(180)">
    <line x1="-10" y1="5" x2="0" y2="-5" stroke="#333" stroke-width="3"/>
    <line x1="10" y1="5" x2="0" y2="-5" stroke="#333" stroke-width="3"/>
    <circle cx="-10" cy="5" r="7" fill="#e74c3c" stroke="#333" stroke-width="1.5"/>
    <circle cx="0" cy="-5" r="7" fill="#e74c3c" stroke="#333" stroke-width="1.5"/>
    <circle cx="10" cy="5" r="7" fill="#e74c3c" stroke="#333" stroke-width="1.5"/>
  </g>
  <!-- Placeholder lines -->
  <line x1="80" y1="230" x2="180" y2="230" stroke="#333" stroke-width="1"/>
  <line x1="100" y1="285" x2="160" y2="285" stroke="#333" stroke-width="1"/>
  <line x1="300" y1="230" x2="400" y2="230" stroke="#333" stroke-width="1"/>
  <line x1="320" y1="285" x2="380" y2="285" stroke="#333" stroke-width="1"/>
</svg>