<svg xmlns="http://www.w3.org/2000/svg" viewBox="0 0 480 320">
<rect x="0" y="0" width="480" height="320" fill="white" />
<!-- Containers -->
<polyline points="70,60 210,60 210,190 70,190 70,60" fill="none" stroke="#333" stroke-width="2"/>
<polyline points="270,60 410,60 410,190 270,190 270,60" fill="none" stroke="#333" stroke-width="2"/>

<!-- Titles -->
<text x="140" y="40" font-family="sans-serif" font-size="18" fill="#333" text-anchor="middle" font-weight="bold">System 1: H&#x2082;O(s)</text>
<text x="340" y="40" font-family="sans-serif" font-size="18" fill="#333" text-anchor="middle" font-weight="bold">System 2: H&#x2082;O(g)</text>

<!-- Solid Particles (Ice lattice approximation) -->
<circle cx="112" cy="124" r="6" fill="#3498db" />
<circle cx="126" cy="124" r="6" fill="#3498db" />
<circle cx="140" cy="124" r="6" fill="#3498db" />
<circle cx="154" cy="124" r="6" fill="#3498db" />
<circle cx="168" cy="124" r="6" fill="#3498db" />
<circle cx="112" cy="138" r="6" fill="#3498db" />
<circle cx="126" cy="138" r="6" fill="#3498db" />
<circle cx="140" cy="138" r="6" fill="#3498db" />
<circle cx="154" cy="138" r="6" fill="#3498db" />
<circle cx="168" cy="138" r="6" fill="#3498db" />
<circle cx="112" cy="152" r="6" fill="#3498db" />
<circle cx="126" cy="152" r="6" fill="#3498db" />
<circle cx="140" cy="152" r="6" fill="#3498db" />
<circle cx="154" cy="152" r="6" fill="#3498db" />
<circle cx="168" cy="152" r="6" fill="#3498db" />
<circle cx="112" cy="166" r="6" fill="#3498db" />
<circle cx="126" cy="166" r="6" fill="#3498db" />
<circle cx="140" cy="166" r="6" fill="#3498db" />
<circle cx="154" cy="166" r="6" fill="#3498db" />
<circle cx="168" cy="166" r="6" fill="#3498db" />
<circle cx="112" cy="180" r="6" fill="#3498db" />
<circle cx="126" cy="180" r="6" fill="#3498db" />
<circle cx="140" cy="180" r="6" fill="#3498db" />
<circle cx="154" cy="180" r="6" fill="#3498db" />
<circle cx="168" cy="180" r="6" fill="#3498db" />

<!-- Gas Particles -->
<circle cx="290" cy="80" r="6" fill="#3498db" />
<circle cx="380" cy="90" r="6" fill="#3498db" />
<circle cx="320" cy="140" r="6" fill="#3498db" />
<circle cx="390" cy="160" r="6" fill="#3498db" />
<circle cx="290" cy="170" r="6" fill="#3498db" />
<circle cx="350" cy="180" r="6" fill="#3498db" />
<circle cx="340" cy="100" r="6" fill="#3498db" />
<circle cx="370" cy="130" r="6" fill="#3498db" />

<!-- Label Prompts & Blank Boxes -->
<text x="110" y="235" font-family="sans-serif" font-size="16" fill="#333" text-anchor="end">Entropy:</text>
<line x1="120" y1="215" x2="230" y2="215" stroke="#333" stroke-width="1" />
<line x1="230" y1="215" x2="230" y2="241" stroke="#333" stroke-width="1" />
<line x1="230" y1="241" x2="120" y2="241" stroke="#333" stroke-width="1" />
<line x1="120" y1="241" x2="120" y2="215" stroke="#333" stroke-width="1" />

<text x="110" y="295" font-family="sans-serif" font-size="16" fill="#333" text-anchor="end">Symbol:</text>
<line x1="120" y1="275" x2="230" y2="275" stroke="#333" stroke-width="1" />
<line x1="230" y1="275" x2="230" y2="301" stroke="#333" stroke-width="1" />
<line x1="230" y1="301" x2="120" y2="301" stroke="#333" stroke-width="1" />
<line x1="120" y1="301" x2="120" y2="275" stroke="#333" stroke-width="1" />

<text x="310" y="235" font-family="sans-serif" font-size="16" fill="#333" text-anchor="end">Entropy:</text>
<line x1="320" y1="215" x2="430" y2="215" stroke="#333" stroke-width="1" />
<line x1="430" y1="215" x2="430" y2="241" stroke="#333" stroke-width="1" />
<line x1="430" y1="241" x2="320" y2="241" stroke="#333" stroke-width="1" />
<line x1="320" y1="241" x2="320" y2="215" stroke="#333" stroke-width="1" />

<text x="310" y="295" font-family="sans-serif" font-size="16" fill="#333" text-anchor="end">Symbol:</text>
<line x1="320" y1="275" x2="430" y2="275" stroke="#333" stroke-width="1" />
<line x1="430" y1="275" x2="430" y2="301" stroke="#333" stroke-width="1" />
<line x1="430" y1="301" x2="320" y2="301" stroke="#333" stroke-width="1" />
<line x1="320" y1="301" x2="320" y2="275" stroke="#333" stroke-width="1" />
</svg>
