<svg xmlns="http://www.w3.org/2000/svg" viewBox="0 0 480 320">
  <rect width="480" height="320" fill="#ffffff" />
  
  <!-- System 1 -->
  <text x="100" y="80" font-family="sans-serif" font-size="16" font-weight="bold" text-anchor="middle" fill="#333">System 1</text>
  <line x1="40" y1="90" x2="160" y2="90" stroke="#333" stroke-width="2" />
  <line x1="160" y1="90" x2="160" y2="230" stroke="#333" stroke-width="2" />
  <line x1="160" y1="230" x2="40" y2="230" stroke="#333" stroke-width="2" />
  <line x1="40" y1="230" x2="40" y2="90" stroke="#333" stroke-width="2" />
  
  <!-- Particles for System 1 -->
  <circle cx="70" cy="120" r="4" fill="#3498db" />
<g><line x1="73.6" y1="118.2" x2="80.0" y2="115.0" stroke="#3498db" stroke-width="2"/><polygon points="80.0,115.0 74.0,114.8 76.6,119.9" fill="#3498db"/></g>
  <circle cx="110" cy="110" r="4" fill="#3498db" />
<g><line x1="111.8" y1="113.6" x2="115.0" y2="120.0" stroke="#3498db" stroke-width="2"/><polygon points="115.0,120.0 115.2,114.0 110.1,116.6" fill="#3498db"/></g>
  <circle cx="140" cy="140" r="4" fill="#3498db" />
<g><line x1="138.2" y1="136.4" x2="135.0" y2="130.0" stroke="#3498db" stroke-width="2"/><polygon points="135.0,130.0 134.8,136.0 139.9,133.4" fill="#3498db"/></g>
  <circle cx="60" cy="170" r="4" fill="#3498db" />
<g><line x1="58.2" y1="173.6" x2="55.0" y2="180.0" stroke="#3498db" stroke-width="2"/><polygon points="55.0,180.0 59.9,176.6 54.8,174.0" fill="#3498db"/></g>
  <circle cx="100" cy="190" r="4" fill="#3498db" />
<g><line x1="103.6" y1="191.8" x2="110.0" y2="195.0" stroke="#3498db" stroke-width="2"/><polygon points="110.0,195.0 106.6,190.1 104.0,195.2" fill="#3498db"/></g>
  <circle cx="130" cy="200" r="4" fill="#3498db" />
<g><line x1="128.2" y1="203.6" x2="125.0" y2="210.0" stroke="#3498db" stroke-width="2"/><polygon points="125.0,210.0 129.9,206.6 124.8,204.0" fill="#3498db"/></g>
  
  <!-- Thermometer 1 -->
  <circle cx="175" cy="215" r="8" fill="#e74c3c" />
  <line x1="175" y1="215" x2="175" y2="180" stroke="#e74c3c" stroke-width="6" stroke-linecap="round" />
  <path d="M 170 120 L 170 205 A 12 12 0 1 0 180 205 L 180 120 A 5 5 0 0 0 170 120 Z" fill="none" stroke="#333" stroke-width="2"/>
  <line x1="170" y1="130" x2="173" y2="130" stroke="#333" stroke-width="1" />
  <line x1="170" y1="150" x2="175" y2="150" stroke="#333" stroke-width="1" />
  <line x1="170" y1="170" x2="173" y2="170" stroke="#333" stroke-width="1" />
  <line x1="170" y1="190" x2="175" y2="190" stroke="#333" stroke-width="1" />
  
  <!-- Box 1 -->
  <line x1="40" y1="255" x2="160" y2="255" stroke="#999" stroke-width="2" stroke-dasharray="4" />
<line x1="160" y1="255" x2="160" y2="285" stroke="#999" stroke-width="2" stroke-dasharray="4" />
<line x1="160" y1="285" x2="40" y2="285" stroke="#999" stroke-width="2" stroke-dasharray="4" />
<line x1="40" y1="285" x2="40" y2="255" stroke="#999" stroke-width="2" stroke-dasharray="4" />
  
  <!-- System 2 -->
  <text x="320" y="80" font-family="sans-serif" font-size="16" font-weight="bold" text-anchor="middle" fill="#333">System 2</text>
  <line x1="260" y1="90" x2="380" y2="90" stroke="#333" stroke-width="2" />
  <line x1="380" y1="90" x2="380" y2="230" stroke="#333" stroke-width="2" />
  <line x1="380" y1="230" x2="260" y2="230" stroke="#333" stroke-width="2" />
  <line x1="260" y1="230" x2="260" y2="90" stroke="#333" stroke-width="2" />
  
  <!-- Particles for System 2 -->
  <circle cx="290" cy="130" r="4" fill="#3498db" />
<g><line x1="293.3" y1="127.8" x2="320.0" y2="110.0" stroke="#3498db" stroke-width="2"/><polygon points="320.0,110.0 314.0,110.5 317.2,115.3" fill="#3498db"/></g>
  <circle cx="340" cy="120" r="4" fill="#3498db" />
<g><line x1="337.4" y1="123.1" x2="315.0" y2="150.0" stroke="#3498db" stroke-width="2"/><polygon points="315.0,150.0 320.6,147.8 316.2,144.1" fill="#3498db"/></g>
  <circle cx="360" cy="160" r="4" fill="#3498db" />
<g><line x1="360.5" y1="156.0" x2="365.0" y2="120.0" stroke="#3498db" stroke-width="2"/><polygon points="365.0,120.0 361.5,124.9 367.2,125.6" fill="#3498db"/></g>
  <circle cx="280" cy="170" r="4" fill="#3498db" />
<g><line x1="280.0" y1="166.0" x2="280.0" y2="130.0" stroke="#3498db" stroke-width="2"/><polygon points="280.0,130.0 277.1,135.3 282.9,135.3" fill="#3498db"/></g>
  <circle cx="320" cy="190" r="4" fill="#3498db" />
<g><line x1="324.0" y1="190.6" x2="355.0" y2="195.0" stroke="#3498db" stroke-width="2"/><polygon points="355.0,195.0 350.2,191.4 349.4,197.1" fill="#3498db"/></g>
  <circle cx="340" cy="210" r="4" fill="#3498db" />
<g><line x1="336.2" y1="211.3" x2="310.0" y2="220.0" stroke="#3498db" stroke-width="2"/><polygon points="310.0,220.0 315.9,221.1 314.1,215.6" fill="#3498db"/></g>

  <!-- Thermometer 2 -->
  <circle cx="395" cy="215" r="8" fill="#e74c3c" />
  <line x1="395" y1="215" x2="395" y2="130" stroke="#e74c3c" stroke-width="6" stroke-linecap="round" />
  <path d="M 390 120 L 390 205 A 12 12 0 1 0 400 205 L 400 120 A 5 5 0 0 0 390 120 Z" fill="none" stroke="#333" stroke-width="2"/>
  <line x1="390" y1="130" x2="393" y2="130" stroke="#333" stroke-width="1" />
  <line x1="390" y1="150" x2="395" y2="150" stroke="#333" stroke-width="1" />
  <line x1="390" y1="170" x2="393" y2="170" stroke="#333" stroke-width="1" />
  <line x1="390" y1="190" x2="395" y2="190" stroke="#333" stroke-width="1" />
  
  <!-- Box 2 -->
  <line x1="260" y1="255" x2="380" y2="255" stroke="#999" stroke-width="2" stroke-dasharray="4" />
<line x1="380" y1="255" x2="380" y2="285" stroke="#999" stroke-width="2" stroke-dasharray="4" />
<line x1="380" y1="285" x2="260" y2="285" stroke="#999" stroke-width="2" stroke-dasharray="4" />
<line x1="260" y1="285" x2="260" y2="255" stroke="#999" stroke-width="2" stroke-dasharray="4" />
  
  <!-- Reason Box -->
  <text x="250" y="40" font-family="sans-serif" font-size="16" font-weight="bold" text-anchor="end" fill="#333">Reason:</text>
  <line x1="260" y1="20" x2="380" y2="20" stroke="#999" stroke-width="2" stroke-dasharray="4" />
<line x1="380" y1="20" x2="380" y2="50" stroke="#999" stroke-width="2" stroke-dasharray="4" />
<line x1="380" y1="50" x2="260" y2="50" stroke="#999" stroke-width="2" stroke-dasharray="4" />
<line x1="260" y1="50" x2="260" y2="20" stroke="#999" stroke-width="2" stroke-dasharray="4" />
</svg>
