<svg xmlns="http://www.w3.org/2000/svg" viewBox="0 0 480 320">
  <rect width="480" height="320" fill="#ffffff" />
  
  <!-- Axes -->
  <line x1="60" y1="30" x2="60" y2="270" stroke="#333" stroke-width="2"/>
  <line x1="60" y1="270" x2="440" y2="270" stroke="#333" stroke-width="2"/>
  
  <!-- Ticks -->
  <line x1="55" y1="30" x2="60" y2="30" stroke="#333" stroke-width="2"/>
  <line x1="150" y1="270" x2="150" y2="275" stroke="#333" stroke-width="2"/>
  <line x1="240" y1="270" x2="240" y2="275" stroke="#333" stroke-width="2"/>
  <line x1="330" y1="270" x2="330" y2="275" stroke="#333" stroke-width="2"/>
  
  <!-- Dashed lines -->
  <!-- 50% -->
  <line x1="60" y1="150" x2="150" y2="150" stroke="#888" stroke-width="2" stroke-dasharray="5,5"/>
  <line x1="150" y1="150" x2="150" y2="270" stroke="#888" stroke-width="2" stroke-dasharray="5,5"/>
  <!-- 25% -->
  <line x1="60" y1="210" x2="240" y2="210" stroke="#888" stroke-width="2" stroke-dasharray="5,5"/>
  <line x1="240" y1="210" x2="240" y2="270" stroke="#888" stroke-width="2" stroke-dasharray="5,5"/>
  <!-- 12.5% -->
  <line x1="60" y1="240" x2="330" y2="240" stroke="#888" stroke-width="2" stroke-dasharray="5,5"/>
  <line x1="330" y1="240" x2="330" y2="270" stroke="#888" stroke-width="2" stroke-dasharray="5,5"/>

  <!-- Curve -->
  <polyline points="60.0,30.0 60.9,31.7 61.8,33.3 62.7,34.9 63.6,36.6 64.5,38.2 65.4,39.8 66.3,41.4 67.2,42.9 68.1,44.5 69.0,46.1 69.9,47.6 70.8,49.2 71.7,50.7 72.6,52.2 73.5,53.7 74.4,55.2 75.3,56.7 76.2,58.2 77.1,59.6 78.0,61.1 78.9,62.5 79.8,63.9 80.7,65.4 81.6,66.8 82.5,68.2 83.4,69.6 84.3,71.0 85.2,72.3 86.1,73.7 87.0,75.1 87.9,76.4 88.8,77.7 89.7,79.1 90.6,80.4 91.5,81.7 92.4,83.0 93.3,84.3 94.2,85.6 95.1,86.8 96.0,88.1 96.9,89.4 97.8,90.6 98.7,91.9 99.6,93.1 100.5,94.3 101.4,95.5 102.3,96.7 103.2,97.9 104.1,99.1 105.0,100.3 105.9,101.5 106.8,102.6 107.7,103.8 108.6,104.9 109.5,106.1 110.4,107.2 111.3,108.3 112.2,109.4 113.1,110.6 114.0,111.7 114.9,112.8 115.8,113.8 116.7,114.9 117.6,116.0 118.5,117.1 119.4,118.1 120.3,119.2 121.2,120.2 122.1,121.2 123.0,122.3 123.9,123.3 124.8,124.3 125.7,125.3 126.6,126.3 127.5,127.3 128.4,128.3 129.3,129.3 130.2,130.2 131.1,131.2 132.0,132.2 132.9,133.1 133.8,134.1 134.7,135.0 135.6,135.9 136.5,136.9 137.4,137.8 138.3,138.7 139.2,139.6 140.1,140.5 141.0,141.4 141.9,142.3 142.8,143.2 143.7,144.0 144.6,144.9 145.5,145.8 146.4,146.6 147.3,147.5 148.2,148.3 149.1,149.2 150.0,150.0 150.9,150.8 151.8,151.7 152.7,152.5 153.6,153.3 154.5,154.1 155.4,154.9 156.3,155.7 157.2,156.5 158.1,157.3 159.0,158.0 159.9,158.8 160.8,159.6 161.7,160.3 162.6,161.1 163.5,161.8 164.4,162.6 165.3,163.3 166.2,164.1 167.1,164.8 168.0,165.5 168.9,166.3 169.8,167.0 170.7,167.7 171.6,168.4 172.5,169.1 173.4,169.8 174.3,170.5 175.2,171.2 176.1,171.9 177.0,172.5 177.9,173.2 178.8,173.9 179.7,174.5 180.6,175.2 181.5,175.8 182.4,176.5 183.3,177.1 184.2,177.8 185.1,178.4 186.0,179.1 186.9,179.7 187.8,180.3 188.7,180.9 189.6,181.5 190.5,182.2 191.4,182.8 192.3,183.4 193.2,184.0 194.1,184.6 195.0,185.1 195.9,185.7 196.8,186.3 197.7,186.9 198.6,187.5 199.5,188.0 200.4,188.6 201.3,189.2 202.2,189.7 203.1,190.3 204.0,190.8 204.9,191.4 205.8,191.9 206.7,192.5 207.6,193.0 208.5,193.5 209.4,194.1 210.3,194.6 211.2,195.1 212.1,195.6 213.0,196.1 213.9,196.6 214.8,197.1 215.7,197.7 216.6,198.2 217.5,198.6 218.4,199.1 219.3,199.6 220.2,200.1 221.1,200.6 222.0,201.1 222.9,201.6 223.8,202.0 224.7,202.5 225.6,203.0 226.5,203.4 227.4,203.9 228.3,204.3 229.2,204.8 230.1,205.2 231.0,205.7 231.9,206.1 232.8,206.6 233.7,207.0 234.6,207.5 235.5,207.9 236.4,208.3 237.3,208.7 238.2,209.2 239.1,209.6 240.0,210.0 240.9,210.4 241.8,210.8 242.7,211.2 243.6,211.6 244.5,212.0 245.4,212.4 246.3,212.8 247.2,213.2 248.1,213.6 249.0,214.0 249.9,214.4 250.8,214.8 251.7,215.2 252.6,215.5 253.5,215.9 254.4,216.3 255.3,216.7 256.2,217.0 257.1,217.4 258.0,217.8 258.9,218.1 259.8,218.5 260.7,218.8 261.6,219.2 262.5,219.5 263.4,219.9 264.3,220.2 265.2,220.6 266.1,220.9 267.0,221.3 267.9,221.6 268.8,221.9 269.7,222.3 270.6,222.6 271.5,222.9 272.4,223.3 273.3,223.6 274.2,223.9 275.1,224.2 276.0,224.5 276.9,224.8 277.8,225.2 278.7,225.5 279.6,225.8 280.5,226.1 281.4,226.4 282.3,226.7 283.2,227.0 284.1,227.3 285.0,227.6 285.9,227.9 286.8,228.2 287.7,228.4 288.6,228.7 289.5,229.0 290.4,229.3 291.3,229.6 292.2,229.9 293.1,230.1 294.0,230.4 294.9,230.7 295.8,231.0 296.7,231.2 297.6,231.5 298.5,231.8 299.4,232.0 300.3,232.3 301.2,232.6 302.1,232.8 303.0,233.1 303.9,233.3 304.8,233.6 305.7,233.8 306.6,234.1 307.5,234.3 308.4,234.6 309.3,234.8 310.2,235.1 311.1,235.3 312.0,235.5 312.9,235.8 313.8,236.0 314.7,236.2 315.6,236.5 316.5,236.7 317.4,236.9 318.3,237.2 319.2,237.4 320.1,237.6 321.0,237.8 321.9,238.1 322.8,238.3 323.7,238.5 324.6,238.7 325.5,238.9 326.4,239.2 327.3,239.4 328.2,239.6 329.1,239.8 330.0,240.0 330.9,240.2 331.8,240.4 332.7,240.6 333.6,240.8 334.5,241.0 335.4,241.2 336.3,241.4 337.2,241.6 338.1,241.8 339.0,242.0 339.9,242.2 340.8,242.4 341.7,242.6 342.6,242.8 343.5,243.0 344.4,243.1 345.3,243.3 346.2,243.5 347.1,243.7 348.0,243.9 348.9,244.1 349.8,244.2 350.7,244.4 351.6,244.6 352.5,244.8 353.4,244.9 354.3,245.1 355.2,245.3 356.1,245.5 357.0,245.6 357.9,245.8 358.8,246.0 359.7,246.1 360.6,246.3 361.5,246.5 362.4,246.6 363.3,246.8 364.2,246.9 365.1,247.1 366.0,247.3 366.9,247.4 367.8,247.6 368.7,247.7 369.6,247.9 370.5,248.0 371.4,248.2 372.3,248.3 373.2,248.5 374.1,248.6 375.0,248.8 375.9,248.9 376.8,249.1 377.7,249.2 378.6,249.4 379.5,249.5 380.4,249.7 381.3,249.8 382.2,249.9 383.1,250.1 384.0,250.2 384.9,250.3 385.8,250.5 386.7,250.6 387.6,250.7 388.5,250.9 389.4,251.0 390.3,251.1 391.2,251.3 392.1,251.4 393.0,251.5 393.9,251.7 394.8,251.8 395.7,251.9 396.6,252.0 397.5,252.2 398.4,252.3 399.3,252.4 400.2,252.5 401.1,252.6 402.0,252.8 402.9,252.9 403.8,253.0 404.7,253.1 405.6,253.2 406.5,253.4 407.4,253.5 408.3,253.6 409.2,253.7 410.1,253.8 411.0,253.9 411.9,254.0 412.8,254.1 413.7,254.3 414.6,254.4 415.5,254.5 416.4,254.6 417.3,254.7 418.2,254.8 419.1,254.9 420.0,255.0" fill="none" stroke="#2255cc" stroke-width="2.5"/>

  <!-- Annotations -->
  <!-- One half-life interval -->
  <line x1="60" y1="290" x2="150" y2="290" stroke="#333" stroke-width="2"/>
  <polyline points="65,285 60,290 65,295" fill="none" stroke="#333" stroke-width="2"/>
  <polyline points="145,285 150,290 145,295" fill="none" stroke="#333" stroke-width="2"/>

  <!-- Pointer for curve -->
  <line x1="330" y1="180" x2="285" y2="227" stroke="#333" stroke-width="2"/>
  <polyline points="295,220 285,227 292,216" fill="none" stroke="#333" stroke-width="2"/>
  <line x1="330" y1="180" x2="350" y2="180" stroke="#333" stroke-width="2"/>
  
  <!-- Axis labels -->
  <text x="250" y="310" font-family="sans-serif" font-size="14" text-anchor="middle" fill="#333">Time</text>
  <text x="30" y="150" font-family="sans-serif" font-size="14" text-anchor="middle" fill="#333" transform="rotate(-90 30,150)">Amount</text>

  <!-- Markers for hotspots to make them visible targets -->
  <circle cx="105" cy="150" r="4" fill="#888" />
  <circle cx="200" cy="210" r="4" fill="#888" />
  <circle cx="105" cy="290" r="4" fill="#333" />
  <circle cx="340" cy="180" r="4" fill="#333" />
</svg>