<svg xmlns="http://www.w3.org/2000/svg" viewBox="0 0 480 320">
  <rect width="480" height="320" fill="white"/>
  <text x="120" y="55" font-family="sans-serif" font-size="18" text-anchor="middle" fill="black" font-weight="bold" font-style="normal">O</text>
  <text x="80" y="80" font-family="sans-serif" font-size="18" text-anchor="middle" fill="black" font-weight="bold" font-style="normal">O</text>
  <text x="160" y="80" font-family="sans-serif" font-size="18" text-anchor="middle" fill="black" font-weight="bold" font-style="normal">O</text>
  <line x1="110" y1="62" x2="90" y2="74" stroke="black" stroke-width="2"/>
  <line x1="115" y1="68" x2="95" y2="80" stroke="black" stroke-width="2"/>
  <line x1="130" y1="65" x2="150" y2="77" stroke="black" stroke-width="2"/>
        <circle cx="135" cy="45" r="8" fill="none" stroke="red" stroke-width="1"/>
  <text x="135" y="49" font-family="sans-serif" font-size="12" text-anchor="middle" fill="red" font-weight="bold" font-style="normal">+</text>
  <circle cx="175" cy="65" r="8" fill="none" stroke="red" stroke-width="1"/>
  <text x="175" y="69" font-family="sans-serif" font-size="14" text-anchor="middle" fill="red" font-weight="bold" font-style="normal">-</text>
  <circle cx="70" cy="72" r="2" fill="black"/>
  <circle cx="74" cy="68" r="2" fill="black"/>
  <circle cx="70" cy="88" r="2" fill="black"/>
  <circle cx="74" cy="92" r="2" fill="black"/>
  <circle cx="115" cy="40" r="2" fill="black"/>
  <circle cx="125" cy="40" r="2" fill="black"/>
  <circle cx="156" cy="94" r="2" fill="black"/>
  <circle cx="164" cy="94" r="2" fill="black"/>
  <circle cx="174" cy="82" r="2" fill="black"/>
  <circle cx="170" cy="78" r="2" fill="black"/>
  <circle cx="152" cy="70" r="2" fill="black"/>
  <circle cx="156" cy="66" r="2" fill="black"/>
  <line x1="70.0" y1="105" x2="170.0" y2="105" stroke="black" stroke-width="1"/>
  <line x1="170.0" y1="105" x2="170.0" y2="129" stroke="black" stroke-width="1"/>
  <line x1="170.0" y1="129" x2="70.0" y2="129" stroke="black" stroke-width="1"/>
  <line x1="70.0" y1="129" x2="70.0" y2="105" stroke="black" stroke-width="1"/>
  <line x1="210" y1="70" x2="270" y2="70" stroke="black" stroke-width="2"/>
  <polygon points="210,70 216,66 216,74" fill="black"/>
  <polygon points="270,70 264,66 264,74" fill="black"/>
  <text x="360" y="55" font-family="sans-serif" font-size="18" text-anchor="middle" fill="black" font-weight="bold" font-style="normal">O</text>
  <text x="320" y="80" font-family="sans-serif" font-size="18" text-anchor="middle" fill="black" font-weight="bold" font-style="normal">O</text>
  <text x="400" y="80" font-family="sans-serif" font-size="18" text-anchor="middle" fill="black" font-weight="bold" font-style="normal">O</text>
  <line x1="350" y1="65" x2="330" y2="77" stroke="black" stroke-width="2"/>
  <line x1="370" y1="62" x2="390" y2="74" stroke="black" stroke-width="2"/>
  <line x1="365" y1="68" x2="385" y2="80" stroke="black" stroke-width="2"/>
  <circle cx="345" cy="45" r="8" fill="none" stroke="red" stroke-width="1"/>
  <text x="345" y="49" font-family="sans-serif" font-size="12" text-anchor="middle" fill="red" font-weight="bold" font-style="normal">+</text>
  <circle cx="305" cy="65" r="8" fill="none" stroke="red" stroke-width="1"/>
  <text x="305" y="69" font-family="sans-serif" font-size="14" text-anchor="middle" fill="red" font-weight="bold" font-style="normal">-</text>
  <circle cx="324" cy="94" r="2" fill="black"/>
  <circle cx="316" cy="94" r="2" fill="black"/>
  <circle cx="306" cy="82" r="2" fill="black"/>
  <circle cx="310" cy="78" r="2" fill="black"/>
  <circle cx="328" cy="70" r="2" fill="black"/>
  <circle cx="324" cy="66" r="2" fill="black"/>
  <circle cx="355" cy="40" r="2" fill="black"/>
  <circle cx="365" cy="40" r="2" fill="black"/>
  <circle cx="410" cy="72" r="2" fill="black"/>
  <circle cx="406" cy="68" r="2" fill="black"/>
  <circle cx="410" cy="88" r="2" fill="black"/>
  <circle cx="406" cy="92" r="2" fill="black"/>
  <line x1="310.0" y1="105" x2="410.0" y2="105" stroke="black" stroke-width="1"/>
  <line x1="410.0" y1="105" x2="410.0" y2="129" stroke="black" stroke-width="1"/>
  <line x1="410.0" y1="129" x2="310.0" y2="129" stroke="black" stroke-width="1"/>
  <line x1="310.0" y1="129" x2="310.0" y2="105" stroke="black" stroke-width="1"/>
  <text x="120" y="205" font-family="sans-serif" font-size="18" text-anchor="middle" fill="black" font-weight="bold" font-style="normal">O</text>
  <text x="80" y="230" font-family="sans-serif" font-size="18" text-anchor="middle" fill="black" font-weight="bold" font-style="normal">O</text>
  <text x="160" y="230" font-family="sans-serif" font-size="18" text-anchor="middle" fill="black" font-weight="bold" font-style="normal">O</text>
  <line x1="110" y1="215" x2="90" y2="227" stroke="black" stroke-width="2"/>
  <line x1="130" y1="215" x2="150" y2="227" stroke="black" stroke-width="2"/>
  <line x1="112" y1="209" x2="92" y2="221" stroke="black" stroke-width="2" stroke-dasharray="4,4"/>
  <line x1="128" y1="209" x2="148" y2="221" stroke="black" stroke-width="2" stroke-dasharray="4,4"/>
  <text x="138" y="200" font-family="sans-serif" font-size="14" text-anchor="middle" fill="purple" font-weight="bold" font-style="normal">+</text>
  <text x="70" y="215" font-family="sans-serif" font-size="14" text-anchor="middle" fill="purple" font-weight="bold" font-style="normal">δ-</text>
  <text x="170" y="215" font-family="sans-serif" font-size="14" text-anchor="middle" fill="purple" font-weight="bold" font-style="normal">δ-</text>
  <circle cx="115" cy="190" r="2" fill="black"/>
  <circle cx="125" cy="190" r="2" fill="black"/>
  <line x1="70.0" y1="255" x2="170.0" y2="255" stroke="black" stroke-width="1"/>
  <line x1="170.0" y1="255" x2="170.0" y2="279" stroke="black" stroke-width="1"/>
  <line x1="170.0" y1="279" x2="70.0" y2="279" stroke="black" stroke-width="1"/>
  <line x1="70.0" y1="279" x2="70.0" y2="255" stroke="black" stroke-width="1"/>
  <text x="360" y="210" font-family="sans-serif" font-size="14" text-anchor="middle" fill="black" font-weight="bold" font-style="normal">Both structures contribute</text>
  <text x="360" y="230" font-family="sans-serif" font-size="14" text-anchor="middle" fill="black" font-weight="bold" font-style="normal">equally to the hybrid.</text>
  <line x1="350" y1="190" x2="260" y2="140" stroke="gray" stroke-width="1"/>
  <polygon points="260,140 262,146 268,142" fill="gray"/>
  <line x1="370" y1="190" x2="370" y2="140" stroke="gray" stroke-width="1"/>
  <polygon points="370,140 366,146 374,146" fill="gray"/>
  <line x1="310.0" y1="255" x2="410.0" y2="255" stroke="black" stroke-width="1"/>
  <line x1="410.0" y1="255" x2="410.0" y2="279" stroke="black" stroke-width="1"/>
  <line x1="410.0" y1="279" x2="310.0" y2="279" stroke="black" stroke-width="1"/>
  <line x1="310.0" y1="279" x2="310.0" y2="255" stroke="black" stroke-width="1"/>
</svg>