<?xml version="1.0" encoding="UTF-8"?>
<svg xmlns="http://www.w3.org/2000/svg" viewBox="0 0 480 320">
  <rect width="480" height="320" fill="white"/>
  <g id="struct_A">
    <text x="110" y="30" font-family="sans-serif" font-size="16" font-weight="bold" text-anchor="middle">A</text>
    <text x="110" y="85" font-family="sans-serif" font-size="16" text-anchor="middle">N</text>
    <text x="120" y="75" font-family="sans-serif" font-size="12" text-anchor="middle">+</text>
    <text x="110" y="47" font-family="sans-serif" font-size="16" text-anchor="middle">O</text>
    <line x1="107" y1="68" x2="107" y2="50" stroke="black" stroke-width="2"/>
    <line x1="113" y1="68" x2="113" y2="50" stroke="black" stroke-width="2"/>
    <circle cx="98" cy="40" r="1.5" fill="black"/>
    <circle cx="98" cy="34" r="1.5" fill="black"/>
    <circle cx="122" cy="40" r="1.5" fill="black"/>
    <circle cx="122" cy="34" r="1.5" fill="black"/>
    <text x="142.90896534380866" y="104.0" font-family="sans-serif" font-size="16" text-anchor="middle">O</text>
    <line x1="118" y1="86" x2="134.90896534380866" y2="95.0" stroke="black" stroke-width="2"/>
    <text x="156.90896534380866" y="95.0" font-family="sans-serif" font-size="12" text-anchor="middle">-</text>
    <circle cx="152.90896534380866" cy="91.0" r="1.5" fill="black"/>
    <circle cx="156.90896534380866" cy="96.0" r="1.5" fill="black"/>
    <circle cx="139.90896534380866" cy="111.0" r="1.5" fill="black"/>
    <circle cx="145.90896534380866" cy="114.0" r="1.5" fill="black"/>
    <circle cx="154.90896534380866" cy="107.0" r="1.5" fill="black"/>
    <circle cx="150.90896534380866" cy="112.0" r="1.5" fill="black"/>
    <text x="77.09103465619134" y="104.0" font-family="sans-serif" font-size="16" text-anchor="middle">O</text>
    <line x1="102" y1="86" x2="85.09103465619134" y2="95.0" stroke="black" stroke-width="2"/>
    <text x="63.09103465619134" y="95.0" font-family="sans-serif" font-size="12" text-anchor="middle">-</text>
    <circle cx="67.09103465619134" cy="91.0" r="1.5" fill="black"/>
    <circle cx="63.09103465619134" cy="96.0" r="1.5" fill="black"/>
    <circle cx="80.09103465619134" cy="111.0" r="1.5" fill="black"/>
    <circle cx="74.09103465619134" cy="114.0" r="1.5" fill="black"/>
    <circle cx="65.09103465619134" cy="107.0" r="1.5" fill="black"/>
    <circle cx="69.09103465619134" cy="112.0" r="1.5" fill="black"/>
  </g>
  <g id="struct_B">
    <text x="370" y="30" font-family="sans-serif" font-size="16" font-weight="bold" text-anchor="middle">B</text>
    <text x="370" y="85" font-family="sans-serif" font-size="16" text-anchor="middle">N</text>
    <text x="380" y="75" font-family="sans-serif" font-size="12" text-anchor="middle">+</text>
    <text x="370" y="47" font-family="sans-serif" font-size="16" text-anchor="middle">O</text>
    <line x1="370" y1="68" x2="370" y2="50" stroke="black" stroke-width="2"/>
    <text x="382" y="40" font-family="sans-serif" font-size="12" text-anchor="middle">-</text>
    <circle cx="358" cy="40" r="1.5" fill="black"/>
    <circle cx="358" cy="34" r="1.5" fill="black"/>
    <circle cx="382" cy="40" r="1.5" fill="black"/>
    <circle cx="382" cy="34" r="1.5" fill="black"/>
    <circle cx="367" cy="28" r="1.5" fill="black"/>
    <circle cx="373" cy="28" r="1.5" fill="black"/>
    <text x="402.9089653438087" y="104.0" font-family="sans-serif" font-size="16" text-anchor="middle">O</text>
    <line x1="377" y1="89" x2="393.9089653438087" y2="98.0" stroke="black" stroke-width="2"/>
    <line x1="381" y1="82" x2="397.9089653438087" y2="91.0" stroke="black" stroke-width="2"/>
    <circle cx="412.9089653438087" cy="91.0" r="1.5" fill="black"/>
    <circle cx="416.9089653438087" cy="96.0" r="1.5" fill="black"/>
    <circle cx="399.9089653438087" cy="111.0" r="1.5" fill="black"/>
    <circle cx="405.9089653438087" cy="114.0" r="1.5" fill="black"/>
    <text x="337.0910346561913" y="104.0" font-family="sans-serif" font-size="16" text-anchor="middle">O</text>
    <line x1="362" y1="86" x2="345.0910346561913" y2="95.0" stroke="black" stroke-width="2"/>
    <text x="323.0910346561913" y="95.0" font-family="sans-serif" font-size="12" text-anchor="middle">-</text>
    <circle cx="327.0910346561913" cy="91.0" r="1.5" fill="black"/>
    <circle cx="323.0910346561913" cy="96.0" r="1.5" fill="black"/>
    <circle cx="340.0910346561913" cy="111.0" r="1.5" fill="black"/>
    <circle cx="334.0910346561913" cy="114.0" r="1.5" fill="black"/>
    <circle cx="325.0910346561913" cy="107.0" r="1.5" fill="black"/>
    <circle cx="329.0910346561913" cy="112.0" r="1.5" fill="black"/>
  </g>
  <g id="struct_C">
    <text x="110" y="190" font-family="sans-serif" font-size="16" font-weight="bold" text-anchor="middle">C</text>
    <text x="110" y="245" font-family="sans-serif" font-size="16" text-anchor="middle">N</text>
    <text x="120" y="235" font-family="sans-serif" font-size="12" text-anchor="middle">+</text>
    <text x="110" y="207" font-family="sans-serif" font-size="16" text-anchor="middle">O</text>
    <line x1="110" y1="228" x2="110" y2="210" stroke="black" stroke-width="2"/>
    <text x="122" y="200" font-family="sans-serif" font-size="12" text-anchor="middle">-</text>
    <circle cx="98" cy="200" r="1.5" fill="black"/>
    <circle cx="98" cy="194" r="1.5" fill="black"/>
    <circle cx="122" cy="200" r="1.5" fill="black"/>
    <circle cx="122" cy="194" r="1.5" fill="black"/>
    <circle cx="107" cy="188" r="1.5" fill="black"/>
    <circle cx="113" cy="188" r="1.5" fill="black"/>
    <text x="142.90896534380866" y="264.0" font-family="sans-serif" font-size="16" text-anchor="middle">O</text>
    <line x1="118" y1="246" x2="134.90896534380866" y2="255.0" stroke="black" stroke-width="2"/>
    <text x="156.90896534380866" y="255.0" font-family="sans-serif" font-size="12" text-anchor="middle">-</text>
    <circle cx="152.90896534380866" cy="251.0" r="1.5" fill="black"/>
    <circle cx="156.90896534380866" cy="256.0" r="1.5" fill="black"/>
    <circle cx="139.90896534380866" cy="271.0" r="1.5" fill="black"/>
    <circle cx="145.90896534380866" cy="274.0" r="1.5" fill="black"/>
    <circle cx="154.90896534380866" cy="267.0" r="1.5" fill="black"/>
    <circle cx="150.90896534380866" cy="272.0" r="1.5" fill="black"/>
    <text x="77.09103465619134" y="264.0" font-family="sans-serif" font-size="16" text-anchor="middle">O</text>
    <line x1="103" y1="249" x2="86.09103465619134" y2="258.0" stroke="black" stroke-width="2"/>
    <line x1="99" y1="242" x2="82.09103465619134" y2="251.0" stroke="black" stroke-width="2"/>
    <circle cx="67.09103465619134" cy="251.0" r="1.5" fill="black"/>
    <circle cx="63.09103465619134" cy="256.0" r="1.5" fill="black"/>
    <circle cx="80.09103465619134" cy="271.0" r="1.5" fill="black"/>
    <circle cx="74.09103465619134" cy="274.0" r="1.5" fill="black"/>
  </g>
  <g id="struct_D">
    <text x="370" y="190" font-family="sans-serif" font-size="16" font-weight="bold" text-anchor="middle">D</text>
    <text x="370" y="245" font-family="sans-serif" font-size="16" text-anchor="middle">N</text>
    <text x="382" y="235" font-family="sans-serif" font-size="12" text-anchor="middle">+</text>
    <text x="370" y="207" font-family="sans-serif" font-size="16" text-anchor="middle">O</text>
    <line x1="370" y1="228" x2="370" y2="210" stroke="black" stroke-width="2"/>
    <line x1="366" y1="228" x2="366" y2="210" stroke="black" stroke-width="2" stroke-dasharray="3,2"/>
    <text x="384" y="204" font-family="sans-serif" font-size="12" text-anchor="middle">δ-</text>
    <text x="402.9089653438087" y="264.0" font-family="sans-serif" font-size="16" text-anchor="middle">O</text>
    <line x1="378" y1="246" x2="394.9089653438087" y2="255.0" stroke="black" stroke-width="2"/>
    <line x1="381" y1="242" x2="397.9089653438087" y2="251.0" stroke="black" stroke-width="2" stroke-dasharray="3,2"/>
    <text x="418.9089653438087" y="257.0" font-family="sans-serif" font-size="12" text-anchor="middle">δ-</text>
    <text x="337.0910346561913" y="264.0" font-family="sans-serif" font-size="16" text-anchor="middle">O</text>
    <line x1="362" y1="246" x2="345.0910346561913" y2="255.0" stroke="black" stroke-width="2"/>
    <line x1="359" y1="242" x2="342.0910346561913" y2="251.0" stroke="black" stroke-width="2" stroke-dasharray="3,2"/>
    <text x="321.0910346561913" y="257.0" font-family="sans-serif" font-size="12" text-anchor="middle">δ-</text>
  </g>
  <line x1="60" y1="140" x2="160" y2="140" stroke="black" stroke-width="2"/>
  <line x1="320" y1="140" x2="420" y2="140" stroke="black" stroke-width="2"/>
  <line x1="60" y1="280" x2="160" y2="280" stroke="black" stroke-width="2"/>
  <line x1="320" y1="280" x2="420" y2="280" stroke="black" stroke-width="2"/>
  <line x1="180" y1="80" x2="300" y2="80" stroke="black" stroke-width="2"/>
  <polygon points="180,80 190,75 190,85" fill="black"/>
  <polygon points="300,80 290,75 290,85" fill="black"/>
  <line x1="110" y1="150" x2="110" y2="170" stroke="black" stroke-width="2"/>
  <polygon points="110,150 105,160 115,160" fill="black"/>
  <polygon points="110,170 105,160 115,160" fill="black"/>
  <line x1="320" y1="120" x2="160" y2="200" stroke="black" stroke-width="2"/>
  <polygon points="320,120 310,120 314,128" fill="black"/>
  <polygon points="160,200 170,200 166,192" fill="black"/>
  <line x1="225" y1="235" x2="255" y2="235" stroke="black" stroke-width="2"/>
  <line x1="225" y1="240" x2="255" y2="240" stroke="black" stroke-width="2"/>
  <line x1="225" y1="245" x2="255" y2="245" stroke="black" stroke-width="2"/>
</svg>
