<svg xmlns="http://www.w3.org/2000/svg" viewBox="0 0 480 320">
    <rect width="480" height="320" fill="#ffffff" />
    
    <!-- Shaded regions -->
    <!-- Uncatalysed (higher Ea) area -->
    <path d="M 340 280 L 340 234.9894842765812 L 340 234.9894842765812 L 345 237.34939769624708 L 350 239.61518486285073 L 355 241.78939748541845 L 360 243.87450513443872 L 365 245.87289543326057 L 370 247.78687491447346 L 375 249.6186703810842 L 380 251.37043064453624 L 385 253.04422853754113 L 390 254.6420631205302 L 395 256.1658620173197 L 400 257.61748382908763 L 405 258.99872058663357 L 410 260.31130020964923 L 415 261.5568889487745 L 420 262.737093791868 L 425 263.85346482048686 L 430 264.90749750619904 L 435 265.9006349392898 L 440 266.83426998473607 L 445 267.7097473621874 L 450 268.5283656481435 L 455 269.29137919968565 L 460 269.9999999999999 L 460 280 Z" fill="#b3e5fc" opacity="0.6" />
    <!-- Extra area from catalysed (lower Ea) -->
    <path d="M 200 280 L 200 121.79263787914441 L 200 121.79263787914441 L 205 127.20707868023874 L 210 132.6301264305814 L 215 138.02521629393524 L 220 143.36293642994286 L 225 148.62008718973556 L 230 153.7787393971378 L 235 158.8253546862793 L 240 163.74999999999977 L 245 168.54566767930768 L 250 173.20769993640525 L 255 177.73330959234522 L 260 182.1211858204295 L 265 186.37117280521284 L 270 190.4840096956131 L 275 194.46112134646182 L 280 198.3044507080333 L 285 202.01632511037417 L 290 205.59934998019756 L 295 209.05632467011063 L 300 212.39017605832356 L 305 215.60390639749693 L 310 218.70055256933517 L 315 221.6831544559979 L 320 224.55473058952109 L 325 227.3182596040284 L 330 229.97666630816315 L 335 232.53281143017756 L 340 234.9894842765812 L 340 234.9894842765812 L 340 280 Z" fill="#ffcc80" opacity="0.6" />
    
    <!-- Axes -->
    <polyline points="40,40 40,280 460,280" stroke="#333333" stroke-width="2" fill="none" />
    <text x="250" y="310" font-family="sans-serif" font-size="16" text-anchor="middle" fill="#333333">Kinetic Energy</text>
    <text x="20" y="160" font-family="sans-serif" font-size="16" text-anchor="middle" fill="#333333" transform="rotate(-90,20,160)">Number of molecules</text>
    
    <!-- Curve -->
    <path d="M 40 280 C 70 280 100 80 140 80 C 200 80 240 240 460 270" stroke="#1976d2" stroke-width="3" fill="none" />
    
    <!-- Ea lines -->
    <!-- Catalysed (lower) -->
    <line x1="200" y1="121.79263787914441" x2="200" y2="280" stroke="#e65100" stroke-width="2" stroke-dasharray="6,4" />
    <!-- Uncatalysed (higher) -->
    <line x1="340" y1="234.9894842765812" x2="340" y2="280" stroke="#d32f2f" stroke-width="2" stroke-dasharray="6,4" />
</svg>
