<svg xmlns="http://www.w3.org/2000/svg" viewBox="0 0 480 320">
  <rect width="480" height="320" fill="white"/>
  <polyline points="60,40 60,260 460,260" stroke="#333" stroke-width="2.5" fill="none"/>
  <text x="260" y="295" font-family="sans-serif" font-size="16" text-anchor="middle" fill="#333">Kinetic Energy</text>
  <text x="30" y="150" font-family="sans-serif" font-size="16" text-anchor="middle" fill="#333" transform="rotate(-90 30 150)">Fraction of particles</text>
  <polygon points="390.0,260.0 390.0,247.8 393.0,247.8 396.0,247.9 399.0,247.9 402.0,247.9 405.0,248.0 408.0,248.0 411.0,248.1 414.0,248.1 417.0,248.2 420.0,248.2 423.0,248.3 426.0,248.3 429.0,248.4 432.0,248.4 435.0,248.5 438.0,248.5 441.0,248.6 444.0,248.6 447.0,248.7 450.0,248.7 450.0,260.0" fill="#a0c8f0" opacity="0.6"/>
  <polyline points="60.0,260.0 63.0,245.2 66.0,239.6 69.0,235.6 72.0,232.6 75.0,230.1 78.0,228.0 81.0,226.3 84.0,224.9 87.0,223.7 90.0,222.7 93.0,221.8 96.0,221.1 99.0,220.5 102.0,220.0 105.0,219.6 108.0,219.3 111.0,219.1 114.0,219.0 117.0,218.9 120.0,218.9 123.0,218.9 126.0,219.0 129.0,219.1 132.0,219.2 135.0,219.4 138.0,219.6 141.0,219.9 144.0,220.2 147.0,220.4 150.0,220.8 153.0,221.1 156.0,221.5 159.0,221.8 162.0,222.2 165.0,222.6 168.0,223.0 171.0,223.4 174.0,223.8 177.0,224.3 180.0,224.7 183.0,225.2 186.0,225.6 189.0,226.1 192.0,226.5 195.0,227.0 198.0,227.4 201.0,227.9 204.0,228.4 207.0,228.8 210.0,229.3 213.0,229.7 216.0,230.2 219.0,230.7 222.0,231.1 225.0,231.6 228.0,232.0 231.0,232.5 234.0,232.9 237.0,233.4 240.0,233.8 243.0,234.2 246.0,234.7 249.0,235.1 252.0,235.5 255.0,235.9 258.0,236.3 261.0,236.7 264.0,237.2 267.0,237.6 270.0,238.0 273.0,238.3 276.0,238.7 279.0,239.1 282.0,239.5 285.0,239.9 288.0,240.2 291.0,240.6 294.0,240.9 297.0,241.3 300.0,241.6 303.0,242.0 306.0,242.3 309.0,242.7 312.0,243.0 315.0,243.3 318.0,243.6 321.0,243.9 324.0,244.2 327.0,244.5 330.0,244.8 333.0,245.1 336.0,245.4 339.0,245.7 342.0,246.0 345.0,246.3 348.0,246.5 351.0,246.8 354.0,247.0 357.0,247.3 360.0,247.6 363.0,247.8 366.0,248.0 369.0,248.3 372.0,248.5 375.0,248.7 378.0,249.0 381.0,249.2 384.0,249.4 387.0,249.6 390.0,249.8 393.0,250.0 396.0,250.2 399.0,250.4 402.0,250.6 405.0,250.8 408.0,251.0 411.0,251.2 414.0,251.4 417.0,251.6 420.0,251.7 423.0,251.9 426.0,252.1 429.0,252.2 432.0,252.4 435.0,252.6 438.0,252.7 441.0,252.9 444.0,253.0 447.0,253.2 450.0,253.3" stroke="#1f77b4" stroke-width="2.5" fill="none"/>
  <polyline points="60.0,260.0 63.0,257.1 66.0,255.9 69.0,255.1 72.0,254.4 75.0,253.7 78.0,253.2 81.0,252.7 84.0,252.3 87.0,251.9 90.0,251.5 93.0,251.2 96.0,250.9 99.0,250.6 102.0,250.3 105.0,250.0 108.0,249.8 111.0,249.6 114.0,249.3 117.0,249.1 120.0,249.0 123.0,248.8 126.0,248.6 129.0,248.4 132.0,248.3 135.0,248.2 138.0,248.0 141.0,247.9 144.0,247.8 147.0,247.7 150.0,247.6 153.0,247.4 156.0,247.4 159.0,247.3 162.0,247.2 165.0,247.1 168.0,247.0 171.0,247.0 174.0,246.9 177.0,246.8 180.0,246.8 183.0,246.7 186.0,246.7 189.0,246.6 192.0,246.6 195.0,246.5 198.0,246.5 201.0,246.5 204.0,246.4 207.0,246.4 210.0,246.4 213.0,246.4 216.0,246.4 219.0,246.3 222.0,246.3 225.0,246.3 228.0,246.3 231.0,246.3 234.0,246.3 237.0,246.3 240.0,246.3 243.0,246.3 246.0,246.3 249.0,246.3 252.0,246.3 255.0,246.3 258.0,246.3 261.0,246.3 264.0,246.3 267.0,246.4 270.0,246.4 273.0,246.4 276.0,246.4 279.0,246.4 282.0,246.4 285.0,246.5 288.0,246.5 291.0,246.5 294.0,246.5 297.0,246.6 300.0,246.6 303.0,246.6 306.0,246.7 309.0,246.7 312.0,246.7 315.0,246.7 318.0,246.8 321.0,246.8 324.0,246.9 327.0,246.9 330.0,246.9 333.0,247.0 336.0,247.0 339.0,247.0 342.0,247.1 345.0,247.1 348.0,247.2 351.0,247.2 354.0,247.2 357.0,247.3 360.0,247.3 363.0,247.4 366.0,247.4 369.0,247.4 372.0,247.5 375.0,247.5 378.0,247.6 381.0,247.6 384.0,247.7 387.0,247.7 390.0,247.8 393.0,247.8 396.0,247.9 399.0,247.9 402.0,247.9 405.0,248.0 408.0,248.0 411.0,248.1 414.0,248.1 417.0,248.2 420.0,248.2 423.0,248.3 426.0,248.3 429.0,248.4 432.0,248.4 435.0,248.5 438.0,248.5 441.0,248.6 444.0,248.6 447.0,248.7 450.0,248.7" stroke="#ff7f0e" stroke-width="2.5" fill="none"/>
  <line x1="390" y1="260" x2="390" y2="80" stroke="#333" stroke-width="2" stroke-dasharray="6,4"/>
</svg>