<svg xmlns="http://www.w3.org/2000/svg" viewBox="0 0 480 320">
  <rect width="100%" height="100%" fill="white"/>
  
  <!-- Axes -->
  <polyline points="40,280 440,280" stroke="#333" stroke-width="2" fill="none" />
  <polyline points="40,280 40,40" stroke="#333" stroke-width="2" fill="none" />
  
  <!-- Labels for Axes -->
  <text x="240" y="310" font-family="sans-serif" font-size="14" text-anchor="middle" fill="#333">Kinetic Energy</text>
  <text x="20" y="160" font-family="sans-serif" font-size="14" text-anchor="middle" transform="rotate(-90 20,160)" fill="#333">Fraction of molecules</text>
  
  <!-- Shaded Region -->
  <polygon points="306.7,280 306,218.9 307,219.1 308,219.4 309,219.7 310,219.9 311,220.2 312,220.5 313,220.7 314,221.0 315,221.2 316,221.5 317,221.8 318,222.0 319,222.3 320,222.5 321,222.8 322,223.0 323,223.3 324,223.5 325,223.8 326,224.1 327,224.3 328,224.6 329,224.8 330,225.1 331,225.3 332,225.6 333,225.8 334,226.0 335,226.3 336,226.5 337,226.8 338,227.0 339,227.3 340,227.5 341,227.7 342,228.0 343,228.2 344,228.5 345,228.7 346,228.9 347,229.2 348,229.4 349,229.6 350,229.9 351,230.1 352,230.3 353,230.6 354,230.8 355,231.0 356,231.2 357,231.5 358,231.7 359,231.9 360,232.2 361,232.4 362,232.6 363,232.8 364,233.0 365,233.3 366,233.5 367,233.7 368,233.9 369,234.1 370,234.4 371,234.6 372,234.8 373,235.0 374,235.2 375,235.4 376,235.6 377,235.8 378,236.1 379,236.3 380,236.5 381,236.7 382,236.9 383,237.1 384,237.3 385,237.5 386,237.7 387,237.9 388,238.1 389,238.3 390,238.5 391,238.7 392,238.9 393,239.1 394,239.3 395,239.5 396,239.7 397,239.9 398,240.1 399,240.3 400,240.5 401,240.7 402,240.9 403,241.0 404,241.2 405,241.4 406,241.6 407,241.8 408,242.0 409,242.2 410,242.4 411,242.5 412,242.7 413,242.9 414,243.1 415,243.3 416,243.5 417,243.6 418,243.8 419,244.0 420,244.2 421,244.3 422,244.5 423,244.7 424,244.9 425,245.0 426,245.2 427,245.4 428,245.6 429,245.7 430,245.9 431,246.1 432,246.2 433,246.4 434,246.6 435,246.7 436,246.9 437,247.1 438,247.2 439,247.4 440,247.6 440,280" fill="#d45b5b" fill-opacity="0.3" stroke="none" />
  
  <!-- Curves -->
  <polyline points="40,280.0 41,224.8 42,202.9 43,186.7 44,173.6 45,162.6 46,153.0 47,144.5 48,136.9 49,130.1 50,124.0 51,118.4 52,113.3 53,108.7 54,104.4 55,100.5 56,96.9 57,93.6 58,90.6 59,87.8 60,85.3 61,83.0 62,80.8 63,78.9 64,77.1 65,75.5 66,74.0 67,72.7 68,71.6 69,70.5 70,69.6 71,68.7 72,68.0 73,67.4 74,66.9 75,66.5 76,66.1 77,65.9 78,65.7 79,65.6 80,65.6 81,65.6 82,65.7 83,65.8 84,66.1 85,66.3 86,66.7 87,67.0 88,67.4 89,67.9 90,68.4 91,69.0 92,69.6 93,70.2 94,70.8 95,71.5 96,72.3 97,73.0 98,73.8 99,74.6 100,75.5 101,76.3 102,77.2 103,78.1 104,79.1 105,80.0 106,81.0 107,82.0 108,83.0 109,84.0 110,85.0 111,86.1 112,87.1 113,88.2 114,89.3 115,90.4 116,91.5 117,92.6 118,93.8 119,94.9 120,96.1 121,97.2 122,98.4 123,99.5 124,100.7 125,101.9 126,103.1 127,104.3 128,105.4 129,106.6 130,107.8 131,109.0 132,110.2 133,111.4 134,112.6 135,113.8 136,115.0 137,116.2 138,117.4 139,118.6 140,119.8 141,121.0 142,122.2 143,123.4 144,124.6 145,125.8 146,127.0 147,128.2 148,129.4 149,130.6 150,131.8 151,132.9 152,134.1 153,135.3 154,136.4 155,137.6 156,138.8 157,139.9 158,141.1 159,142.2 160,143.4 161,144.5 162,145.6 163,146.8 164,147.9 165,149.0 166,150.1 167,151.2 168,152.3 169,153.4 170,154.5 171,155.6 172,156.7 173,157.7 174,158.8 175,159.9 176,160.9 177,162.0 178,163.0 179,164.0 180,165.1 181,166.1 182,167.1 183,168.1 184,169.1 185,170.1 186,171.1 187,172.1 188,173.1 189,174.0 190,175.0 191,176.0 192,176.9 193,177.9 194,178.8 195,179.7 196,180.7 197,181.6 198,182.5 199,183.4 200,184.3 201,185.2 202,186.1 203,187.0 204,187.8 205,188.7 206,189.6 207,190.4 208,191.3 209,192.1 210,192.9 211,193.8 212,194.6 213,195.4 214,196.2 215,197.0 216,197.8 217,198.6 218,199.4 219,200.2 220,201.0 221,201.7 222,202.5 223,203.2 224,204.0 225,204.7 226,205.5 227,206.2 228,206.9 229,207.6 230,208.3 231,209.0 232,209.7 233,210.4 234,211.1 235,211.8 236,212.5 237,213.1 238,213.8 239,214.5 240,215.1 241,215.8 242,216.4 243,217.0 244,217.7 245,218.3 246,218.9 247,219.5 248,220.1 249,220.7 250,221.3 251,221.9 252,222.5 253,223.1 254,223.6 255,224.2 256,224.8 257,225.3 258,225.9 259,226.4 260,227.0 261,227.5 262,228.1 263,228.6 264,229.1 265,229.6 266,230.2 267,230.7 268,231.2 269,231.7 270,232.2 271,232.7 272,233.1 273,233.6 274,234.1 275,234.6 276,235.1 277,235.5 278,236.0 279,236.4 280,236.9 281,237.3 282,237.8 283,238.2 284,238.6 285,239.1 286,239.5 287,239.9 288,240.3 289,240.8 290,241.2 291,241.6 292,242.0 293,242.4 294,242.8 295,243.2 296,243.5 297,243.9 298,244.3 299,244.7 300,245.0 301,245.4 302,245.8 303,246.1 304,246.5 305,246.9 306,247.2 307,247.5 308,247.9 309,248.2 310,248.6 311,248.9 312,249.2 313,249.6 314,249.9 315,250.2 316,250.5 317,250.8 318,251.1 319,251.4 320,251.8 321,252.1 322,252.4 323,252.6 324,252.9 325,253.2 326,253.5 327,253.8 328,254.1 329,254.4 330,254.6 331,254.9 332,255.2 333,255.4 334,255.7 335,256.0 336,256.2 337,256.5 338,256.7 339,257.0 340,257.2 341,257.5 342,257.7 343,258.0 344,258.2 345,258.4 346,258.7 347,258.9 348,259.1 349,259.3 350,259.6 351,259.8 352,260.0 353,260.2 354,260.4 355,260.7 356,260.9 357,261.1 358,261.3 359,261.5 360,261.7 361,261.9 362,262.1 363,262.3 364,262.5 365,262.7 366,262.8 367,263.0 368,263.2 369,263.4 370,263.6 371,263.8 372,263.9 373,264.1 374,264.3 375,264.5 376,264.6 377,264.8 378,265.0 379,265.1 380,265.3 381,265.5 382,265.6 383,265.8 384,265.9 385,266.1 386,266.2 387,266.4 388,266.5 389,266.7 390,266.8 391,267.0 392,267.1 393,267.3 394,267.4 395,267.5 396,267.7 397,267.8 398,268.0 399,268.1 400,268.2 401,268.3 402,268.5 403,268.6 404,268.7 405,268.9 406,269.0 407,269.1 408,269.2 409,269.3 410,269.5 411,269.6 412,269.7 413,269.8 414,269.9 415,270.0 416,270.1 417,270.3 418,270.4 419,270.5 420,270.6 421,270.7 422,270.8 423,270.9 424,271.0 425,271.1 426,271.2 427,271.3 428,271.4 429,271.5 430,271.6 431,271.7 432,271.8 433,271.9 434,271.9 435,272.0 436,272.1 437,272.2 438,272.3 439,272.4 440,272.5" stroke="#2f6fb5" stroke-width="2.5" fill="none" />
  <polyline points="40,280.0 41,260.4 42,252.4 43,246.4 44,241.4 45,237.2 46,233.4 47,229.9 48,226.8 49,224.0 50,221.3 51,218.8 52,216.5 53,214.3 54,212.2 55,210.3 56,208.5 57,206.7 58,205.1 59,203.5 60,202.0 61,200.6 62,199.2 63,197.9 64,196.7 65,195.5 66,194.3 67,193.2 68,192.2 69,191.2 70,190.3 71,189.3 72,188.5 73,187.6 74,186.8 75,186.0 76,185.3 77,184.6 78,183.9 79,183.3 80,182.6 81,182.1 82,181.5 83,180.9 84,180.4 85,179.9 86,179.4 87,179.0 88,178.6 89,178.1 90,177.8 91,177.4 92,177.0 93,176.7 94,176.4 95,176.1 96,175.8 97,175.5 98,175.2 99,175.0 100,174.8 101,174.6 102,174.4 103,174.2 104,174.0 105,173.9 106,173.7 107,173.6 108,173.4 109,173.3 110,173.2 111,173.1 112,173.1 113,173.0 114,172.9 115,172.9 116,172.8 117,172.8 118,172.8 119,172.8 120,172.8 121,172.8 122,172.8 123,172.8 124,172.8 125,172.9 126,172.9 127,173.0 128,173.0 129,173.1 130,173.2 131,173.2 132,173.3 133,173.4 134,173.5 135,173.6 136,173.7 137,173.8 138,174.0 139,174.1 140,174.2 141,174.3 142,174.5 143,174.6 144,174.8 145,174.9 146,175.1 147,175.3 148,175.4 149,175.6 150,175.8 151,175.9 152,176.1 153,176.3 154,176.5 155,176.7 156,176.9 157,177.1 158,177.3 159,177.5 160,177.7 161,177.9 162,178.2 163,178.4 164,178.6 165,178.8 166,179.1 167,179.3 168,179.5 169,179.8 170,180.0 171,180.2 172,180.5 173,180.7 174,181.0 175,181.2 176,181.5 177,181.7 178,182.0 179,182.3 180,182.5 181,182.8 182,183.0 183,183.3 184,183.6 185,183.8 186,184.1 187,184.4 188,184.7 189,184.9 190,185.2 191,185.5 192,185.8 193,186.0 194,186.3 195,186.6 196,186.9 197,187.2 198,187.5 199,187.7 200,188.0 201,188.3 202,188.6 203,188.9 204,189.2 205,189.5 206,189.8 207,190.1 208,190.4 209,190.6 210,190.9 211,191.2 212,191.5 213,191.8 214,192.1 215,192.4 216,192.7 217,193.0 218,193.3 219,193.6 220,193.9 221,194.2 222,194.5 223,194.8 224,195.1 225,195.4 226,195.7 227,196.0 228,196.3 229,196.6 230,196.9 231,197.2 232,197.5 233,197.8 234,198.1 235,198.4 236,198.7 237,199.0 238,199.3 239,199.6 240,199.9 241,200.2 242,200.5 243,200.8 244,201.1 245,201.4 246,201.7 247,202.0 248,202.3 249,202.6 250,202.9 251,203.2 252,203.5 253,203.8 254,204.1 255,204.4 256,204.7 257,205.0 258,205.3 259,205.6 260,205.9 261,206.2 262,206.5 263,206.8 264,207.1 265,207.3 266,207.6 267,207.9 268,208.2 269,208.5 270,208.8 271,209.1 272,209.4 273,209.7 274,210.0 275,210.3 276,210.5 277,210.8 278,211.1 279,211.4 280,211.7 281,212.0 282,212.2 283,212.5 284,212.8 285,213.1 286,213.4 287,213.7 288,213.9 289,214.2 290,214.5 291,214.8 292,215.1 293,215.3 294,215.6 295,215.9 296,216.2 297,216.4 298,216.7 299,217.0 300,217.2 301,217.5 302,217.8 303,218.1 304,218.3 305,218.6 306,218.9 307,219.1 308,219.4 309,219.7 310,219.9 311,220.2 312,220.5 313,220.7 314,221.0 315,221.2 316,221.5 317,221.8 318,222.0 319,222.3 320,222.5 321,222.8 322,223.0 323,223.3 324,223.5 325,223.8 326,224.1 327,224.3 328,224.6 329,224.8 330,225.1 331,225.3 332,225.6 333,225.8 334,226.0 335,226.3 336,226.5 337,226.8 338,227.0 339,227.3 340,227.5 341,227.7 342,228.0 343,228.2 344,228.5 345,228.7 346,228.9 347,229.2 348,229.4 349,229.6 350,229.9 351,230.1 352,230.3 353,230.6 354,230.8 355,231.0 356,231.2 357,231.5 358,231.7 359,231.9 360,232.2 361,232.4 362,232.6 363,232.8 364,233.0 365,233.3 366,233.5 367,233.7 368,233.9 369,234.1 370,234.4 371,234.6 372,234.8 373,235.0 374,235.2 375,235.4 376,235.6 377,235.8 378,236.1 379,236.3 380,236.5 381,236.7 382,236.9 383,237.1 384,237.3 385,237.5 386,237.7 387,237.9 388,238.1 389,238.3 390,238.5 391,238.7 392,238.9 393,239.1 394,239.3 395,239.5 396,239.7 397,239.9 398,240.1 399,240.3 400,240.5 401,240.7 402,240.9 403,241.0 404,241.2 405,241.4 406,241.6 407,241.8 408,242.0 409,242.2 410,242.4 411,242.5 412,242.7 413,242.9 414,243.1 415,243.3 416,243.5 417,243.6 418,243.8 419,244.0 420,244.2 421,244.3 422,244.5 423,244.7 424,244.9 425,245.0 426,245.2 427,245.4 428,245.6 429,245.7 430,245.9 431,246.1 432,246.2 433,246.4 434,246.6 435,246.7 436,246.9 437,247.1 438,247.2 439,247.4 440,247.6" stroke="#d45b5b" stroke-width="2.5" fill="none" />
  
  <!-- Activation Energy Line -->
  <line x1="306.7" y1="280" x2="306.7" y2="80" stroke="#333" stroke-width="2" stroke-dasharray="5,5" />
  <text x="306.7" y="70" font-family="sans-serif" font-size="14" text-anchor="middle" fill="#333">Ea</text>
  
</svg>
