<svg xmlns="http://www.w3.org/2000/svg" viewBox="0 0 480 320">
    <rect x="0" y="0" width="480" height="320" fill="#ffffff" />
    
    <line x1="40" y1="20" x2="40" y2="300" stroke="#333" stroke-width="2" />
    <line x1="40" y1="100" x2="460" y2="100" stroke="#333" stroke-width="2" />
    
    <text x="15" y="150" transform="rotate(-90 15,150)" font-family="sans-serif" font-size="14" fill="#333" text-anchor="middle">Potential energy</text>
    <text x="250" y="315" font-family="sans-serif" font-size="14" fill="#333" text-anchor="middle">Internuclear distance</text>
    <text x="30" y="105" font-family="sans-serif" font-size="14" fill="#333" text-anchor="end">0</text>

    <path d="M 120.0,20.0 L 122.0,79.9 L 124.0,135.3 L 126.0,178.6 L 128.0,211.7 L 130.0,236.5 L 132.0,254.4 L 134.0,266.8 L 136.0,274.6 L 138.0,278.8 L 140.0,280.0 L 142.0,278.9 L 144.0,276.1 L 146.0,271.8 L 148.0,266.5 L 150.0,260.4 L 152.0,253.8 L 154.0,246.9 L 156.0,239.8 L 158.0,232.6 L 160.0,225.4 L 162.0,218.4 L 164.0,211.5 L 166.0,204.8 L 168.0,198.3 L 170.0,192.1 L 172.0,186.2 L 174.0,180.5 L 176.0,175.2 L 178.0,170.1 L 180.0,165.3 L 182.0,160.8 L 184.0,156.6 L 186.0,152.6 L 188.0,148.9 L 190.0,145.4 L 192.0,142.2 L 194.0,139.1 L 196.0,136.3 L 198.0,133.6 L 200.0,131.2 L 202.0,128.9 L 204.0,126.8 L 206.0,124.8 L 208.0,122.9 L 210.0,121.2 L 212.0,119.6 L 214.0,118.2 L 216.0,116.8 L 218.0,115.5 L 220.0,114.4 L 222.0,113.3 L 224.0,112.3 L 226.0,111.4 L 228.0,110.5 L 230.0,109.7 L 232.0,109.0 L 234.0,108.3 L 236.0,107.7 L 238.0,107.1 L 240.0,106.5 L 242.0,106.0 L 244.0,105.6 L 246.0,105.1 L 248.0,104.8 L 250.0,104.4 L 252.0,104.1 L 254.0,103.7 L 256.0,103.5 L 258.0,103.2 L 260.0,103.0 L 262.0,102.7 L 264.0,102.5 L 266.0,102.3 L 268.0,102.1 L 270.0,102.0 L 272.0,101.8 L 274.0,101.7 L 276.0,101.6 L 278.0,101.4 L 280.0,101.3 L 282.0,101.2 L 284.0,101.1 L 286.0,101.0 L 288.0,101.0 L 290.0,100.9 L 292.0,100.8 L 294.0,100.8 L 296.0,100.7 L 298.0,100.6 L 300.0,100.6 L 302.0,100.6 L 304.0,100.5 L 306.0,100.5 L 308.0,100.4 L 310.0,100.4 L 312.0,100.4 L 314.0,100.3 L 316.0,100.3 L 318.0,100.3 L 320.0,100.3 L 322.0,100.2 L 324.0,100.2 L 326.0,100.2 L 328.0,100.2 L 330.0,100.2 L 332.0,100.2 L 334.0,100.2 L 336.0,100.1 L 338.0,100.1 L 340.0,100.1 L 342.0,100.1 L 344.0,100.1 L 346.0,100.1 L 348.0,100.1 L 350.0,100.1 L 352.0,100.1 L 354.0,100.1 L 356.0,100.1 L 358.0,100.1 L 360.0,100.1 L 362.0,100.1 L 364.0,100.0 L 366.0,100.0 L 368.0,100.0 L 370.0,100.0 L 372.0,100.0 L 374.0,100.0 L 376.0,100.0 L 378.0,100.0 L 380.0,100.0 L 382.0,100.0 L 384.0,100.0 L 386.0,100.0 L 388.0,100.0 L 390.0,100.0 L 392.0,100.0 L 394.0,100.0 L 396.0,100.0 L 398.0,100.0 L 400.0,100.0 L 402.0,100.0 L 404.0,100.0 L 406.0,100.0 L 408.0,100.0 L 410.0,100.0 L 412.0,100.0 L 414.0,100.0 L 416.0,100.0 L 418.0,100.0 L 420.0,100.0 L 422.0,100.0 L 424.0,100.0 L 426.0,100.0 L 428.0,100.0 L 430.0,100.0 L 432.0,100.0 L 434.0,100.0 L 436.0,100.0 L 438.0,100.0 L 440.0,100.0 L 442.0,100.0 L 444.0,100.0 L 446.0,100.0 L 448.0,100.0 L 450.0,100.0 L 452.0,100.0 L 454.0,100.0 L 456.0,100.0 L 458.0,100.0 L 460.0,100.0 " fill="none" stroke="#e74c3c" stroke-width="2.5" />
    <path d="M 196.0,20.0 L 198.0,58.6 L 200.0,96.7 L 202.0,127.6 L 204.0,152.4 L 206.0,172.0 L 208.0,187.3 L 210.0,198.9 L 212.0,207.5 L 214.0,213.4 L 216.0,217.3 L 218.0,219.4 L 220.0,220.0 L 222.0,219.5 L 224.0,218.0 L 226.0,215.7 L 228.0,212.8 L 230.0,209.5 L 232.0,205.9 L 234.0,202.0 L 236.0,197.9 L 238.0,193.8 L 240.0,189.6 L 242.0,185.4 L 244.0,181.2 L 246.0,177.2 L 248.0,173.2 L 250.0,169.3 L 252.0,165.5 L 254.0,161.9 L 256.0,158.4 L 258.0,155.1 L 260.0,151.9 L 262.0,148.8 L 264.0,145.9 L 266.0,143.2 L 268.0,140.6 L 270.0,138.1 L 272.0,135.7 L 274.0,133.5 L 276.0,131.4 L 278.0,129.5 L 280.0,127.6 L 282.0,125.8 L 284.0,124.2 L 286.0,122.6 L 288.0,121.2 L 290.0,119.8 L 292.0,118.5 L 294.0,117.3 L 296.0,116.2 L 298.0,115.1 L 300.0,114.2 L 302.0,113.2 L 304.0,112.4 L 306.0,111.5 L 308.0,110.8 L 310.0,110.1 L 312.0,109.4 L 314.0,108.8 L 316.0,108.2 L 318.0,107.6 L 320.0,107.1 L 322.0,106.7 L 324.0,106.2 L 326.0,105.8 L 328.0,105.4 L 330.0,105.1 L 332.0,104.7 L 334.0,104.4 L 336.0,104.1 L 338.0,103.8 L 340.0,103.6 L 342.0,103.3 L 344.0,103.1 L 346.0,102.9 L 348.0,102.7 L 350.0,102.5 L 352.0,102.4 L 354.0,102.2 L 356.0,102.0 L 358.0,101.9 L 360.0,101.8 L 362.0,101.7 L 364.0,101.5 L 366.0,101.4 L 368.0,101.3 L 370.0,101.3 L 372.0,101.2 L 374.0,101.1 L 376.0,101.0 L 378.0,100.9 L 380.0,100.9 L 382.0,100.8 L 384.0,100.8 L 386.0,100.7 L 388.0,100.7 L 390.0,100.6 L 392.0,100.6 L 394.0,100.5 L 396.0,100.5 L 398.0,100.5 L 400.0,100.4 L 402.0,100.4 L 404.0,100.4 L 406.0,100.4 L 408.0,100.3 L 410.0,100.3 L 412.0,100.3 L 414.0,100.3 L 416.0,100.3 L 418.0,100.2 L 420.0,100.2 L 422.0,100.2 L 424.0,100.2 L 426.0,100.2 L 428.0,100.2 L 430.0,100.2 L 432.0,100.1 L 434.0,100.1 L 436.0,100.1 L 438.0,100.1 L 440.0,100.1 L 442.0,100.1 L 444.0,100.1 L 446.0,100.1 L 448.0,100.1 L 450.0,100.1 L 452.0,100.1 L 454.0,100.1 L 456.0,100.1 L 458.0,100.1 L 460.0,100.1 " fill="none" stroke="#2ecc71" stroke-width="2.5" />
    <path d="M 268.0,20.0 L 270.0,32.2 L 272.0,56.0 L 274.0,76.2 L 276.0,93.3 L 278.0,107.6 L 280.0,119.4 L 282.0,129.2 L 284.0,137.2 L 286.0,143.7 L 288.0,148.7 L 290.0,152.7 L 292.0,155.6 L 294.0,157.7 L 296.0,159.0 L 298.0,159.8 L 300.0,160.0 L 302.0,159.8 L 304.0,159.2 L 306.0,158.4 L 308.0,157.3 L 310.0,156.0 L 312.0,154.5 L 314.0,152.9 L 316.0,151.3 L 318.0,149.6 L 320.0,147.8 L 322.0,146.0 L 324.0,144.2 L 326.0,142.4 L 328.0,140.6 L 330.0,138.9 L 332.0,137.2 L 334.0,135.5 L 336.0,133.8 L 338.0,132.2 L 340.0,130.7 L 342.0,129.2 L 344.0,127.8 L 346.0,126.4 L 348.0,125.1 L 350.0,123.8 L 352.0,122.6 L 354.0,121.4 L 356.0,120.3 L 358.0,119.2 L 360.0,118.2 L 362.0,117.2 L 364.0,116.3 L 366.0,115.4 L 368.0,114.6 L 370.0,113.8 L 372.0,113.0 L 374.0,112.3 L 376.0,111.6 L 378.0,111.0 L 380.0,110.4 L 382.0,109.8 L 384.0,109.3 L 386.0,108.7 L 388.0,108.3 L 390.0,107.8 L 392.0,107.4 L 394.0,106.9 L 396.0,106.5 L 398.0,106.2 L 400.0,105.8 L 402.0,105.5 L 404.0,105.2 L 406.0,104.9 L 408.0,104.6 L 410.0,104.3 L 412.0,104.1 L 414.0,103.9 L 416.0,103.6 L 418.0,103.4 L 420.0,103.2 L 422.0,103.0 L 424.0,102.9 L 426.0,102.7 L 428.0,102.6 L 430.0,102.4 L 432.0,102.3 L 434.0,102.1 L 436.0,102.0 L 438.0,101.9 L 440.0,101.8 L 442.0,101.7 L 444.0,101.6 L 446.0,101.5 L 448.0,101.4 L 450.0,101.3 L 452.0,101.2 L 454.0,101.2 L 456.0,101.1 L 458.0,101.0 L 460.0,101.0 " fill="none" stroke="#3498db" stroke-width="2.5" />

    <!-- Minimum features -->
    <!-- Triple minimum -->
    <circle cx="140" cy="280" r="4" fill="#e74c3c" />
    <!-- Double minimum -->
    <circle cx="220" cy="220" r="4" fill="#2ecc71" />
    <!-- Single minimum -->
    <circle cx="300" cy="160" r="4" fill="#3498db" />

    <!-- dashed lines for dashed targets -->
    <line x1="140" y1="280" x2="140" y2="100" stroke="#999" stroke-width="1.5" stroke-dasharray="4,4" />
    <line x1="40" y1="280" x2="140" y2="280" stroke="#999" stroke-width="1.5" stroke-dasharray="4,4" />

    <!-- Hotspot Target Points -->
    <circle cx="440" cy="101.8" r="4" fill="#3498db" />
    <circle cx="360" cy="101.8" r="4" fill="#2ecc71" />
    <circle cx="280" cy="101.3" r="4" fill="#e74c3c" />

    <circle cx="80" cy="280" r="4" fill="#999" />
    <circle cx="140" cy="90" r="4" fill="#999" />
</svg>
