<svg xmlns="http://www.w3.org/2000/svg" viewBox="0 0 480 320">
    <rect width="480" height="320" fill="#ffffff" />
    <g>
        <line x1="50" y1="280" x2="450" y2="280" stroke="#333" stroke-width="2"/>
        <polygon points="450,276 460,280 450,284" fill="#333"/>
        <text x="445" y="305" font-family="sans-serif" font-size="14" fill="#333" text-anchor="end">Internuclear distance</text>
        
        <line x1="70" y1="280" x2="70" y2="30" stroke="#333" stroke-width="2"/>
        <polygon points="66,30 70,20 74,30" fill="#333"/>
        <text x="55" y="160" font-family="sans-serif" font-size="14" fill="#333" transform="rotate(-90 55 160)">Potential energy</text>
        
        <line x1="60" y1="60" x2="450" y2="60" stroke="#999" stroke-width="1.5" stroke-dasharray="6,4"/>
        <text x="55" y="65" font-family="sans-serif" font-size="14" fill="#666" text-anchor="end">0</text>
    </g>

    <!-- Deepest well indicator -->
    <line x1="90" y1="60" x2="90" y2="280" stroke="#999" stroke-width="2" marker-start="url(#arrow)" marker-end="url(#arrow)"/>
    <!-- Arrows for deepest well -->
    <polygon points="86,68 90,60 94,68" fill="#999"/>
    <polygon points="86,272 90,280 94,272" fill="#999"/>

    <!-- Shortest bond length indicator (dashed line down to minimum) -->
    <!-- Wait, the shortest bond length is the distance from 0 to r_e. Let's just point to the minimum. -->

    <!-- Curves -->
    <path d="M 100.0,53.9 L 105.0,175.1 L 110.0,241.4 L 115.0,272.0 L 120.0,280.0 L 125.0,274.3 L 130.0,260.8 L 135.0,243.3 L 140.0,224.2 L 145.0,205.2 L 150.0,187.0 L 155.0,170.3 L 160.0,155.1 L 165.0,141.7 L 170.0,129.8 L 175.0,119.5 L 180.0,110.6 L 185.0,102.9 L 190.0,96.3 L 195.0,90.7 L 200.0,85.9 L 205.0,81.9 L 210.0,78.5 L 215.0,75.5 L 220.0,73.1 L 225.0,71.0 L 230.0,69.3 L 235.0,67.8 L 240.0,66.5 L 245.0,65.5 L 250.0,64.6 L 255.0,63.9 L 260.0,63.3 L 265.0,62.7 L 270.0,62.3 L 275.0,61.9 L 280.0,61.6 L 285.0,61.4 L 290.0,61.1 L 295.0,61.0 L 300.0,60.8 L 305.0,60.7 L 310.0,60.6 L 315.0,60.5 L 320.0,60.4 L 325.0,60.3 L 330.0,60.3 L 335.0,60.2 L 340.0,60.2 L 345.0,60.2 L 350.0,60.1 L 355.0,60.1 L 360.0,60.1 L 365.0,60.1 L 370.0,60.1 L 375.0,60.1 L 380.0,60.0 L 385.0,60.0 L 390.0,60.0 L 395.0,60.0 L 400.0,60.0 L 405.0,60.0 L 410.0,60.0 L 415.0,60.0 L 420.0,60.0 L 425.0,60.0 L 430.0,60.0 L 435.0,60.0 L 440.0,60.0 L 445.0,60.0 L 450.0,60.0" fill="none" stroke="#e63946" stroke-width="2.5"/>
    <path d="M 175.0,22.8 L 180.0,108.6 L 185.0,161.6 L 190.0,191.6 L 195.0,206.1 L 200.0,210.0 L 205.0,207.1 L 210.0,199.9 L 215.0,190.3 L 220.0,179.5 L 225.0,168.2 L 230.0,157.2 L 235.0,146.6 L 240.0,136.8 L 245.0,127.7 L 250.0,119.5 L 255.0,112.1 L 260.0,105.5 L 265.0,99.6 L 270.0,94.5 L 275.0,90.0 L 280.0,86.0 L 285.0,82.5 L 290.0,79.5 L 295.0,76.9 L 300.0,74.6 L 305.0,72.6 L 310.0,70.9 L 315.0,69.4 L 320.0,68.1 L 325.0,67.0 L 330.0,66.0 L 335.0,65.2 L 340.0,64.5 L 345.0,63.8 L 350.0,63.3 L 355.0,62.9 L 360.0,62.5 L 365.0,62.1 L 370.0,61.8 L 375.0,61.6 L 380.0,61.4 L 385.0,61.2 L 390.0,61.0 L 395.0,60.9 L 400.0,60.7 L 405.0,60.6 L 410.0,60.6 L 415.0,60.5 L 420.0,60.4 L 425.0,60.4 L 430.0,60.3 L 435.0,60.3 L 440.0,60.2 L 445.0,60.2 L 450.0,60.2" fill="none" stroke="#2a9d8f" stroke-width="2.5"/>
    <path d="M 250.0,40.2 L 255.0,79.7 L 260.0,106.3 L 265.0,123.4 L 270.0,133.5 L 275.0,138.6 L 280.0,140.0 L 285.0,138.9 L 290.0,136.1 L 295.0,132.2 L 300.0,127.6 L 305.0,122.7 L 310.0,117.7 L 315.0,112.8 L 320.0,108.0 L 325.0,103.5 L 330.0,99.3 L 335.0,95.3 L 340.0,91.7 L 345.0,88.4 L 350.0,85.4 L 355.0,82.7 L 360.0,80.2 L 365.0,78.0 L 370.0,76.0 L 375.0,74.2 L 380.0,72.6 L 385.0,71.2 L 390.0,69.9 L 395.0,68.8 L 400.0,67.8 L 405.0,66.9 L 410.0,66.1 L 415.0,65.4 L 420.0,64.8 L 425.0,64.2 L 430.0,63.7 L 435.0,63.3 L 440.0,62.9 L 445.0,62.6 L 450.0,62.3" fill="none" stroke="#e9c46a" stroke-width="2.5"/>
</svg>
