<svg viewBox="0 0 480 320" xmlns="http://www.w3.org/2000/svg">
  <!-- Background -->
  <rect width="100%" height="100%" fill="white"/>
  
  <!-- Axes -->
  <polyline points="50,20 50,270 470,270" fill="none" stroke="#333" stroke-width="2.5"/>
  <text x="35" y="150" font-family="sans-serif" font-size="16" fill="#333" transform="rotate(-90 35,150)" text-anchor="middle">Concentration</text>
  <text x="250.0" y="315" font-family="sans-serif" font-size="16" fill="#333" text-anchor="middle">Time</text>
  
  <!-- Constant half life dashed lines -->
  <line x1="200" y1="155.0" x2="200" y2="270" stroke="#888" stroke-width="1.5" stroke-dasharray="4,4"/>
  <line x1="350" y1="212.5" x2="350" y2="270" stroke="#888" stroke-width="1.5" stroke-dasharray="4,4"/>
  
  <!-- Half life brackets -->
  <polyline points="50,280 50,285 200,285 200,280" fill="none" stroke="#333" stroke-width="1.5"/>
  <polyline points="200,280 200,285 350,285 350,280" fill="none" stroke="#333" stroke-width="1.5"/>
  <text x="125" y="302" font-family="sans-serif" font-size="14" fill="#333" text-anchor="middle">t₁/₂</text>
  <text x="275" y="302" font-family="sans-serif" font-size="14" fill="#333" text-anchor="middle">t₁/₂</text>
  
  <!-- Curves -->
  <path d="M 50.0,40.0 L 54.0,44.2 L 58.0,48.2 L 62.0,52.1 L 66.0,55.8 L 70.0,59.5 L 74.0,63.0 L 78.0,66.3 L 82.0,69.6 L 86.0,72.8 L 90.0,75.9 L 94.0,78.9 L 98.0,81.8 L 102.0,84.6 L 106.0,87.3 L 110.0,89.9 L 114.0,92.5 L 118.0,95.0 L 122.0,97.4 L 126.0,99.8 L 130.0,102.1 L 134.0,104.3 L 138.0,106.5 L 142.0,108.6 L 146.0,110.7 L 150.0,112.7 L 154.0,114.7 L 158.0,116.6 L 162.0,118.4 L 166.0,120.3 L 170.0,122.0 L 174.0,123.8 L 178.0,125.5 L 182.0,127.1 L 186.0,128.8 L 190.0,130.3 L 194.0,131.9 L 198.0,133.4 L 202.0,134.9 L 206.0,136.3 L 210.0,137.8 L 214.0,139.2 L 218.0,140.5 L 222.0,141.9 L 226.0,143.2 L 230.0,144.4 L 234.0,145.7 L 238.0,146.9 L 242.0,148.1 L 246.0,149.3 L 250.0,150.5 L 254.0,151.6 L 258.0,152.7 L 262.0,153.8 L 266.0,154.9 L 270.0,155.9 L 274.0,157.0 L 278.0,158.0 L 282.0,159.0 L 286.0,160.0 L 290.0,160.9 L 294.0,161.9 L 298.0,162.8 L 302.0,163.7 L 306.0,164.6 L 310.0,165.5 L 314.0,166.4 L 318.0,167.2 L 322.0,168.1 L 326.0,168.9 L 330.0,169.7 L 334.0,170.5 L 338.0,171.3 L 342.0,172.1 L 346.0,172.9 L 350.0,173.6 L 354.0,174.4 L 358.0,175.1 L 362.0,175.8 L 366.0,176.5 L 370.0,177.2 L 374.0,177.9 L 378.0,178.6 L 382.0,179.2 L 386.0,179.9 L 390.0,180.5 L 394.0,181.2 L 398.0,181.8 L 402.0,182.4 L 406.0,183.0 L 410.0,183.6 L 414.0,184.2 L 418.0,184.8 L 422.0,185.4 L 426.0,186.0 L 430.0,186.5 L 434.0,187.1 L 438.0,187.6 L 442.0,188.2 L 446.0,188.7 L 450.0,189.3" fill="none" stroke="#e74c3c" stroke-width="2.5"/>
  <path d="M 50.0,40.0 L 54.0,44.2 L 58.0,48.3 L 62.0,52.4 L 66.0,56.4 L 70.0,60.3 L 74.0,64.1 L 78.0,67.9 L 82.0,71.6 L 86.0,75.2 L 90.0,78.8 L 94.0,82.3 L 98.0,85.8 L 102.0,89.1 L 106.0,92.4 L 110.0,95.7 L 114.0,98.9 L 118.0,102.0 L 122.0,105.1 L 126.0,108.1 L 130.0,111.1 L 134.0,114.0 L 138.0,116.8 L 142.0,119.7 L 146.0,122.4 L 150.0,125.1 L 154.0,127.8 L 158.0,130.4 L 162.0,132.9 L 166.0,135.4 L 170.0,137.9 L 174.0,140.3 L 178.0,142.7 L 182.0,145.0 L 186.0,147.3 L 190.0,149.6 L 194.0,151.8 L 198.0,153.9 L 202.0,156.1 L 206.0,158.1 L 210.0,160.2 L 214.0,162.2 L 218.0,164.2 L 222.0,166.1 L 226.0,168.0 L 230.0,169.9 L 234.0,171.7 L 238.0,173.5 L 242.0,175.3 L 246.0,177.0 L 250.0,178.7 L 254.0,180.4 L 258.0,182.0 L 262.0,183.6 L 266.0,185.2 L 270.0,186.8 L 274.0,188.3 L 278.0,189.8 L 282.0,191.3 L 286.0,192.7 L 290.0,194.1 L 294.0,195.5 L 298.0,196.9 L 302.0,198.2 L 306.0,199.5 L 310.0,200.8 L 314.0,202.1 L 318.0,203.3 L 322.0,204.6 L 326.0,205.8 L 330.0,206.9 L 334.0,208.1 L 338.0,209.2 L 342.0,210.3 L 346.0,211.4 L 350.0,212.5 L 354.0,213.6 L 358.0,214.6 L 362.0,215.6 L 366.0,216.6 L 370.0,217.6 L 374.0,218.5 L 378.0,219.5 L 382.0,220.4 L 386.0,221.3 L 390.0,222.2 L 394.0,223.1 L 398.0,223.9 L 402.0,224.8 L 406.0,225.6 L 410.0,226.4 L 414.0,227.2 L 418.0,228.0 L 422.0,228.8 L 426.0,229.5 L 430.0,230.3 L 434.0,231.0 L 438.0,231.7 L 442.0,232.4 L 446.0,233.1 L 450.0,233.8" fill="none" stroke="#2ecc71" stroke-width="2.5"/>
  <path d="M 50.0,40.0 L 54.0,44.3 L 58.0,48.5 L 62.0,52.8 L 66.0,57.0 L 70.0,61.3 L 74.0,65.5 L 78.0,69.8 L 82.0,74.0 L 86.0,78.3 L 90.0,82.5 L 94.0,86.8 L 98.0,91.0 L 102.0,95.3 L 106.0,99.5 L 110.0,103.8 L 114.0,108.0 L 118.0,112.3 L 122.0,116.5 L 126.0,120.8 L 130.0,125.0 L 134.0,129.3 L 138.0,133.5 L 142.0,137.8 L 146.0,142.0 L 150.0,146.3 L 154.0,150.5 L 158.0,154.8 L 162.0,159.0 L 166.0,163.3 L 170.0,167.5 L 174.0,171.8 L 178.0,176.0 L 182.0,180.3 L 186.0,184.5 L 190.0,188.8 L 194.0,193.0 L 198.0,197.3 L 202.0,201.5 L 206.0,205.8 L 210.0,210.1 L 214.0,214.3 L 218.0,218.6 L 222.0,222.8 L 226.0,227.1 L 230.0,231.3 L 234.0,235.6 L 238.0,239.8 L 242.0,244.1 L 246.0,248.3 L 250.0,252.6 L 254.0,256.8 L 258.0,261.1 L 262.0,265.3 L 266.0,269.6" fill="none" stroke="#3498db" stroke-width="2.5"/>
  
</svg>