<svg xmlns="http://www.w3.org/2000/svg" viewBox="0 0 480 320">
    <rect width="100%" height="100%" fill="white" />
    
    <line x1="50" y1="280" x2="430" y2="280" stroke="#333" stroke-width="2" />
    <line x1="50" y1="280" x2="50" y2="40" stroke="#333" stroke-width="2" />
    
    <text x="240" y="310" font-family="sans-serif" font-size="16" text-anchor="middle" fill="#333">Volume of Base</text>
    <text x="20" y="160" font-family="sans-serif" font-size="16" text-anchor="middle" transform="rotate(-90 20,160)" fill="#333">pH</text>
    
    <text x="35" y="295" font-family="sans-serif" font-size="14" text-anchor="middle" fill="#333">0</text>
    
    <path d="M 50 260 C 90 230, 110 220, 140 220 C 180 220, 240 220, 280 140 C 300 60, 340 60, 410 60" fill="none" stroke="#2a9d8f" stroke-width="2.5" />
    <path d="M 50 190 C 90 160, 110 150, 140 150 C 180 150, 240 150, 280 110 C 300 60, 340 60, 410 60" fill="none" stroke="#e76f51" stroke-width="2.5" />
    
    <circle cx="140" cy="220" r="4" fill="#333" />
    <circle cx="140" cy="150" r="4" fill="#333" />
</svg>
