<svg xmlns="http://www.w3.org/2000/svg" viewBox="0 0 480 320">
    
    <rect width="480" height="320" fill="#ffffff" />
    
    
    <polyline points="60,40 60,280 420,280" stroke="#333333" stroke-width="2" fill="none" />
    <text x="35" y="160" font-family="sans-serif" font-size="14" fill="#333333" transform="rotate(-90 35 160)" text-anchor="middle">pH</text>
    <text x="240" y="310" font-family="sans-serif" font-size="14" fill="#333333" text-anchor="middle">Volume of added base</text>
    
    
    
    <line x1="60" y1="160.00" x2="420" y2="160.00" stroke="#aaaaaa" stroke-width="1.5" stroke-dasharray="6,4" />
    <text x="55" y="164.00" font-family="sans-serif" font-size="12" fill="#333333" text-anchor="end">7</text>
    
    <text x="55" y="280.00" font-family="sans-serif" font-size="12" fill="#333333" text-anchor="end">0</text>
    <text x="55" y="50.00" font-family="sans-serif" font-size="12" fill="#333333" text-anchor="end">14</text>

    
    <polyline points="60.00,262.86 70.00,262.11 80.00,261.36 90.00,260.61 100.00,259.84 110.00,259.05 120.00,258.25 130.00,257.42 140.00,256.55 150.00,255.64 160.00,254.68 170.00,253.65 180.00,252.54 190.00,251.31 200.00,249.94 210.00,248.37 220.00,246.50 230.00,244.15 240.00,240.94 250.00,235.58 255.00,230.33 258.00,223.45 259.00,218.27 260.00,160.00 261.00,101.77 262.00,96.63 265.00,89.86 270.00,84.79 280.00,79.81 290.00,76.97 300.00,75.00 310.00,73.50 320.00,72.31 330.00,71.32 340.00,70.48 350.00,69.76 360.00,69.13 370.00,68.56 380.00,68.06 390.00,67.61 400.00,67.19 410.00,66.82" stroke="#1f77b4" stroke-width="2.5" fill="none" />
    <polyline points="60.00,228.57 70.00,216.21 80.00,210.64 90.00,207.20 100.00,204.61 110.00,202.46 120.00,200.59 130.00,198.89 140.00,197.30 150.00,195.78 160.00,194.29 170.00,192.79 180.00,191.27 190.00,189.68 200.00,187.98 210.00,186.11 220.00,183.96 230.00,181.37 240.00,177.93 250.00,172.36 255.00,167.01 258.00,160.07 259.00,154.88 260.00,128.30 261.00,101.77 262.00,96.63 265.00,89.86 270.00,84.79 280.00,79.81 290.00,76.97 300.00,75.00 310.00,73.50 320.00,72.31 330.00,71.32 340.00,70.48 350.00,69.76 360.00,69.13 370.00,68.56 380.00,68.06 390.00,67.61 400.00,67.19 410.00,66.82" stroke="#ff7f0e" stroke-width="2.5" fill="none" />
    
    
    
</svg>
