<svg xmlns="http://www.w3.org/2000/svg" viewBox="0 0 480 320">
  <rect width="480" height="320" fill="white"/>

  <!-- Boxes -->
  <rect x="40" y="130" width="100" height="60" fill="#f0f0f0" stroke="#333" stroke-width="2"/>
  <rect x="340" y="130" width="100" height="60" fill="#f0f0f0" stroke="#333" stroke-width="2"/>
  <rect x="190" y="20" width="100" height="50" fill="#f0f0f0" stroke="#333" stroke-width="2"/>
  <rect x="190" y="250" width="100" height="50" fill="#f0f0f0" stroke="#333" stroke-width="2"/>

  <!-- Arrows -->
  <path d="M 90 130 C 90 45, 150 45, 190 45" fill="none" stroke="#00aa00" stroke-width="2"/>
  <polygon points="190,45 180,41 180,49" fill="#00aa00"/>
  <path d="M 290 45 C 390 45, 390 100, 390 130" fill="none" stroke="#00aa00" stroke-width="2"/>
  <polygon points="390,130 386,120 394,120" fill="#00aa00"/>
  <path d="M 390 190 C 390 275, 330 275, 290 275" fill="none" stroke="#00aa00" stroke-width="2"/>
  <polygon points="290,275 300,271 300,279" fill="#00aa00"/>
  <path d="M 190 275 C 90 275, 90 220, 90 190" fill="none" stroke="#00aa00" stroke-width="2"/>
  <polygon points="90,190 86,200 94,200" fill="#00aa00"/>
  <path d="M 110 130 C 110 30, 160 30, 190 30" fill="none" stroke="#0055cc" stroke-width="2" stroke-dasharray="4,4"/>
  <polygon points="110,130 106,120 114,120" fill="#0055cc"/>
  <path d="M 290 30 C 410 30, 410 110, 410 130" fill="none" stroke="#0055cc" stroke-width="2" stroke-dasharray="4,4"/>
  <polygon points="290,30 300,26 300,34" fill="#0055cc"/>
  <path d="M 410 190 C 410 290, 340 290, 290 290" fill="none" stroke="#0055cc" stroke-width="2" stroke-dasharray="4,4"/>
  <polygon points="410,190 406,200 414,200" fill="#0055cc"/>
  <path d="M 190 290 C 70 290, 70 210, 70 190" fill="none" stroke="#0055cc" stroke-width="2" stroke-dasharray="4,4"/>
  <polygon points="190,290 180,286 180,294" fill="#0055cc"/>

</svg>