<svg xmlns="http://www.w3.org/2000/svg" viewBox="0 0 480 320">
  <rect width="480" height="320" fill="#ffffff"/>
  
  <rect x="15" y="15" width="220" height="140" rx="8" fill="#f8fafc" stroke="#cbd5e1" stroke-width="1.5"/>
  <g transform="translate(125, 80)">
    <circle cx="-50" cy="0" r="18" fill="#3b82f6" stroke="#1d4ed8" stroke-width="1.5"/>
    <text x="-50" y="5" font-family="sans-serif" font-size="14" font-weight="bold" fill="#ffffff" text-anchor="middle">Na⁺</text>
    
    <circle cx="40" cy="0" r="16" fill="#ef4444" stroke="#b91c1c" stroke-width="1.5"/>
    <circle cx="52" cy="-14" r="8" fill="#e2e8f0" stroke="#64748b" stroke-width="1.5"/>
    <circle cx="52" cy="14" r="8" fill="#e2e8f0" stroke="#64748b" stroke-width="1.5"/>
    <text x="36" y="4" font-family="sans-serif" font-size="10" font-weight="bold" fill="#ffffff" text-anchor="middle">δ⁻</text>
    <text x="58" y="-11" font-family="sans-serif" font-size="8" fill="#1e293b">δ⁺</text>
    <text x="58" y="17" font-family="sans-serif" font-size="8" fill="#1e293b">δ⁺</text>

    <line x1="-32" y1="0" x2="24" y2="0" stroke="#dc2626" stroke-width="2.5" stroke-dasharray="4,3"/>
  </g>

  <rect x="245" y="15" width="220" height="140" rx="8" fill="#f8fafc" stroke="#cbd5e1" stroke-width="1.5"/>
  <g transform="translate(355, 80)">
    <circle cx="-40" cy="0" r="15" fill="#ef4444" stroke="#b91c1c" stroke-width="1.5"/>
    <circle cx="-52" cy="-12" r="7" fill="#e2e8f0" stroke="#64748b" stroke-width="1.5"/>
    <circle cx="-27" cy="0" r="7" fill="#e2e8f0" stroke="#64748b" stroke-width="1.5"/>
    <text x="-43" y="4" font-family="sans-serif" font-size="9" fill="#ffffff">δ⁻</text>
    <text x="-24" y="-5" font-family="sans-serif" font-size="8" fill="#1e293b">δ⁺</text>

    <circle cx="40" cy="0" r="15" fill="#ef4444" stroke="#b91c1c" stroke-width="1.5"/>
    <circle cx="52" cy="12" r="7" fill="#e2e8f0" stroke="#64748b" stroke-width="1.5"/>
    <circle cx="27" cy="0" r="7" fill="#e2e8f0" stroke="#64748b" stroke-width="1.5"/>
    <text x="43" y="4" font-family="sans-serif" font-size="9" fill="#ffffff">δ⁻</text>
    <text x="21" y="-5" font-family="sans-serif" font-size="8" fill="#1e293b">δ⁺</text>

    <line x1="-20" y1="0" x2="20" y2="0" stroke="#2563eb" stroke-width="2.5" stroke-dasharray="4,3"/>
  </g>

  <rect x="15" y="165" width="220" height="140" rx="8" fill="#f8fafc" stroke="#cbd5e1" stroke-width="1.5"/>
  <g transform="translate(125, 235)">
    <circle cx="0" cy="0" r="16" fill="#16a34a" stroke="#15803d" stroke-width="1.5"/>
    <text x="0" y="5" font-family="sans-serif" font-size="13" font-weight="bold" fill="#ffffff" text-anchor="middle">Cl⁻</text>
    
    <circle cx="0" cy="-40" r="10" fill="#ef4444" stroke="#b91c1c" stroke-width="1"/>
    <circle cx="-6" cy="-30" r="5" fill="#e2e8f0" stroke="#64748b" stroke-width="1"/>
    <circle cx="6" cy="-30" r="5" fill="#e2e8f0" stroke="#64748b" stroke-width="1"/>
    
    <circle cx="0" cy="40" r="10" fill="#ef4444" stroke="#b91c1c" stroke-width="1"/>
    <circle cx="-6" cy="30" r="5" fill="#e2e8f0" stroke="#64748b" stroke-width="1"/>
    <circle cx="6" cy="30" r="5" fill="#e2e8f0" stroke="#64748b" stroke-width="1"/>

    <circle cx="-40" cy="0" r="10" fill="#ef4444" stroke="#b91c1c" stroke-width="1"/>
    <circle cx="-30" cy="-6" r="5" fill="#e2e8f0" stroke="#64748b" stroke-width="1"/>
    <circle cx="-30" cy="6" r="5" fill="#e2e8f0" stroke="#64748b" stroke-width="1"/>

    <circle cx="40" cy="0" r="10" fill="#ef4444" stroke="#b91c1c" stroke-width="1"/>
    <circle cx="30" cy="-6" r="5" fill="#e2e8f0" stroke="#64748b" stroke-width="1"/>
    <circle cx="30" cy="6" r="5" fill="#e2e8f0" stroke="#64748b" stroke-width="1"/>
    
    <circle cx="0" cy="0" r="52" fill="none" stroke="#16a34a" stroke-width="1.5" stroke-dasharray="4,4"/>
  </g>

  <rect x="245" y="165" width="220" height="140" rx="8" fill="#f8fafc" stroke="#cbd5e1" stroke-width="1.5"/>
  <g transform="translate(355, 235)">
    <circle cx="-40" cy="0" r="22" fill="#e2e8f0" stroke="#64748b" stroke-width="1.5"/>
    <text x="-40" y="-4" font-family="sans-serif" font-size="12" font-weight="bold" fill="#334155" text-anchor="middle">Ar</text>
    <text x="-53" y="12" font-family="sans-serif" font-size="9" fill="#64748b">δ⁻</text>
    <text x="-27" y="12" font-family="sans-serif" font-size="9" fill="#64748b">δ⁺</text>
    
    <circle cx="40" cy="0" r="22" fill="#e2e8f0" stroke="#64748b" stroke-width="1.5"/>
    <text x="40" y="-4" font-family="sans-serif" font-size="12" font-weight="bold" fill="#334155" text-anchor="middle">Ar</text>
    <text x="27" y="12" font-family="sans-serif" font-size="9" fill="#64748b">δ⁻</text>
    <text x="53" y="12" font-family="sans-serif" font-size="9" fill="#64748b">δ⁺</text>

    <line x1="-18" y1="0" x2="18" y2="0" stroke="#d97706" stroke-width="2.5" stroke-dasharray="3,3"/>
  </g>
</svg>