<svg xmlns="http://www.w3.org/2000/svg" viewBox="0 0 480 320">
  <rect width="480" height="320" fill="#ffffff"/>
  
  <rect x="15" y="15" width="220" height="140" rx="8" fill="#f8fafc" stroke="#cbd5e1" stroke-width="1.5"/>
  <g transform="translate(125, 85)">
    <!-- Na+ -->
    <circle cx="-60" cy="0" r="24" fill="#3b82f6" stroke="#1d4ed8" stroke-width="1.5"/>
    <text x="-60" y="6" font-family="sans-serif" font-size="18" font-weight="bold" fill="#ffffff" text-anchor="middle">Na⁺</text>
    
    <!-- Water -->
    <circle cx="55" cy="0" r="22" fill="#ef4444" stroke="#b91c1c" stroke-width="1.5"/>
    <circle cx="71" cy="-18" r="11" fill="#e2e8f0" stroke="#64748b" stroke-width="1.5"/>
    <circle cx="71" cy="18" r="11" fill="#e2e8f0" stroke="#64748b" stroke-width="1.5"/>
    <text x="49" y="5" font-family="sans-serif" font-size="14" font-weight="bold" fill="#ffffff" text-anchor="middle">δ⁻</text>
    <text x="80" y="-14" font-family="sans-serif" font-size="11" fill="#1e293b">δ⁺</text>
    <text x="80" y="23" font-family="sans-serif" font-size="11" fill="#1e293b">δ⁺</text>

    <!-- Interaction line -->
    <line x1="-36" y1="0" x2="33" y2="0" stroke="#dc2626" stroke-width="3" stroke-dasharray="5,4"/>
  </g>

  <rect x="245" y="15" width="220" height="140" rx="8" fill="#f8fafc" stroke="#cbd5e1" stroke-width="1.5"/>
  <g transform="translate(355, 85)">
    <!-- Left Water -->
    <circle cx="-50" cy="0" r="20" fill="#ef4444" stroke="#b91c1c" stroke-width="1.5"/>
    <circle cx="-65" cy="-16" r="10" fill="#e2e8f0" stroke="#64748b" stroke-width="1.5"/>
    <circle cx="-33" cy="0" r="10" fill="#e2e8f0" stroke="#64748b" stroke-width="1.5"/>
    <text x="-56" y="5" font-family="sans-serif" font-size="12" fill="#ffffff">δ⁻</text>
    <text x="-26" y="-12" font-family="sans-serif" font-size="10" fill="#1e293b">δ⁺</text>
    <text x="-76" y="-12" font-family="sans-serif" font-size="10" fill="#1e293b">δ⁺</text>

    <!-- Right Water -->
    <circle cx="40" cy="0" r="20" fill="#ef4444" stroke="#b91c1c" stroke-width="1.5"/>
    <circle cx="55" cy="-16" r="10" fill="#e2e8f0" stroke="#64748b" stroke-width="1.5"/>
    <circle cx="55" cy="16" r="10" fill="#e2e8f0" stroke="#64748b" stroke-width="1.5"/>
    <text x="34" y="5" font-family="sans-serif" font-size="12" fill="#ffffff">δ⁻</text>
    <text x="66" y="-12" font-family="sans-serif" font-size="10" fill="#1e293b">δ⁺</text>
    <text x="66" y="20" font-family="sans-serif" font-size="10" fill="#1e293b">δ⁺</text>

    <!-- Interaction line -->
    <line x1="-23" y1="0" x2="20" y2="0" stroke="#2563eb" stroke-width="3" stroke-dasharray="5,4"/>
  </g>

  <rect x="15" y="165" width="220" height="140" rx="8" fill="#f8fafc" stroke="#cbd5e1" stroke-width="1.5"/>
  <g transform="translate(125, 235)">
    <!-- Cl- -->
    <circle cx="0" cy="0" r="22" fill="#16a34a" stroke="#15803d" stroke-width="1.5"/>
    <text x="0" y="7" font-family="sans-serif" font-size="18" font-weight="bold" fill="#ffffff" text-anchor="middle">Cl⁻</text>
    
    <!-- Top water -->
    <circle cx="0" cy="-52" r="14" fill="#ef4444" stroke="#b91c1c" stroke-width="1.5"/>
    <circle cx="-10" cy="-38" r="7" fill="#e2e8f0" stroke="#64748b" stroke-width="1.5"/>
    <circle cx="10" cy="-38" r="7" fill="#e2e8f0" stroke="#64748b" stroke-width="1.5"/>
    
    <!-- Bottom water -->
    <circle cx="0" cy="52" r="14" fill="#ef4444" stroke="#b91c1c" stroke-width="1.5"/>
    <circle cx="-10" cy="38" r="7" fill="#e2e8f0" stroke="#64748b" stroke-width="1.5"/>
    <circle cx="10" cy="38" r="7" fill="#e2e8f0" stroke="#64748b" stroke-width="1.5"/>

    <!-- Left water -->
    <circle cx="-52" cy="0" r="14" fill="#ef4444" stroke="#b91c1c" stroke-width="1.5"/>
    <circle cx="-38" cy="-10" r="7" fill="#e2e8f0" stroke="#64748b" stroke-width="1.5"/>
    <circle cx="-38" cy="10" r="7" fill="#e2e8f0" stroke="#64748b" stroke-width="1.5"/>

    <!-- Right water -->
    <circle cx="52" cy="0" r="14" fill="#ef4444" stroke="#b91c1c" stroke-width="1.5"/>
    <circle cx="38" cy="-10" r="7" fill="#e2e8f0" stroke="#64748b" stroke-width="1.5"/>
    <circle cx="38" cy="10" r="7" fill="#e2e8f0" stroke="#64748b" stroke-width="1.5"/>
    
    <!-- Hydration sphere line -->
    <circle cx="0" cy="0" r="70" fill="none" stroke="#16a34a" stroke-width="2" stroke-dasharray="6,5"/>
  </g>

  <rect x="245" y="165" width="220" height="140" rx="8" fill="#f8fafc" stroke="#cbd5e1" stroke-width="1.5"/>
  <g transform="translate(355, 235)">
    <!-- Left Ar -->
    <circle cx="-48" cy="0" r="28" fill="#e2e8f0" stroke="#64748b" stroke-width="1.5"/>
    <text x="-48" y="-5" font-family="sans-serif" font-size="16" font-weight="bold" fill="#334155" text-anchor="middle">Ar</text>
    <text x="-64" y="16" font-family="sans-serif" font-size="11" fill="#64748b">δ⁻</text>
    <text x="-32" y="16" font-family="sans-serif" font-size="11" fill="#64748b">δ⁺</text>
    
    <!-- Right Ar -->
    <circle cx="48" cy="0" r="28" fill="#e2e8f0" stroke="#64748b" stroke-width="1.5"/>
    <text x="48" y="-5" font-family="sans-serif" font-size="16" font-weight="bold" fill="#334155" text-anchor="middle">Ar</text>
    <text x="32" y="16" font-family="sans-serif" font-size="11" fill="#64748b">δ⁻</text>
    <text x="64" y="16" font-family="sans-serif" font-size="11" fill="#64748b">δ⁺</text>

    <!-- Interaction line -->
    <line x1="-20" y1="0" x2="20" y2="0" stroke="#d97706" stroke-width="3" stroke-dasharray="4,4"/>
  </g>
</svg>
