<svg xmlns="http://www.w3.org/2000/svg" viewBox="0 0 480 320">
  <rect width="480" height="320" fill="white" />
  <line x1="5" y1="20" x2="475" y2="20" stroke="#333" stroke-width="2"/>
  <line x1="5" y1="300" x2="475" y2="300" stroke="#333" stroke-width="2"/>
  <line x1="5" y1="20" x2="5" y2="300" stroke="#333" stroke-width="2"/>
  <line x1="475" y1="20" x2="475" y2="300" stroke="#333" stroke-width="2"/>
  <line x1="5" y1="120" x2="475" y2="120" stroke="#333" stroke-width="2"/>
  <line x1="105" y1="20" x2="105" y2="300" stroke="#333" stroke-width="2"/>
  <line x1="179" y1="20" x2="179" y2="300" stroke="#333" stroke-width="2"/>
  <line x1="253" y1="20" x2="253" y2="300" stroke="#333" stroke-width="2"/>
  <line x1="327" y1="20" x2="327" y2="300" stroke="#333" stroke-width="2"/>
  <line x1="401" y1="20" x2="401" y2="300" stroke="#333" stroke-width="2"/>
  <g font-family="sans-serif" font-size="14" fill="#333" text-anchor="middle">
    <text x="142" y="75">Moles A-</text>
    <text x="216" y="75">Moles HA</text>
    <text x="290" y="65">Ratio</text>
    <text x="290" y="85">[A-]/[HA]</text>
    <text x="364" y="75">pH</text>
    <text x="438" y="65">Overall</text>
    <text x="438" y="85">capacity</text>
    <text x="55" y="190">Over-dilution</text>
    <text x="55" y="215">(filled above</text>
    <text x="55" y="240">the mark)</text>
  </g>
</svg>