<svg xmlns="http://www.w3.org/2000/svg" viewBox="0 0 480 320">
  <rect x="0" y="0" width="480" height="320" fill="#ffffff"/>

  <!-- Title -->
  <text x="240" y="30" font-family="sans-serif" font-size="16" font-weight="bold" text-anchor="middle" fill="#000000">Buffer Contamination</text>

  <!-- Table Horizontal Lines -->
  <line x1="8" y1="46" x2="468" y2="46" stroke="#333333" stroke-width="2"/>
  <line x1="8" y1="122" x2="468" y2="122" stroke="#333333" stroke-width="2"/>
  <line x1="8" y1="230" x2="468" y2="230" stroke="#333333" stroke-width="2"/>

  <!-- Table Vertical Lines -->
  <line x1="8" y1="46" x2="8" y2="230" stroke="#333333" stroke-width="2"/>
  <line x1="108" y1="46" x2="108" y2="230" stroke="#333333" stroke-width="2"/>
  <line x1="180" y1="46" x2="180" y2="230" stroke="#333333" stroke-width="2"/>
  <line x1="252" y1="46" x2="252" y2="230" stroke="#333333" stroke-width="2"/>
  <line x1="324" y1="46" x2="324" y2="230" stroke="#333333" stroke-width="2"/>
  <line x1="396" y1="46" x2="396" y2="230" stroke="#333333" stroke-width="2"/>
  <line x1="468" y1="46" x2="468" y2="230" stroke="#333333" stroke-width="2"/>

  <!-- Column Headers -->
  <text x="144" y="80" font-family="sans-serif" font-size="14" text-anchor="middle" fill="#000000">Moles</text>
  <text x="140" y="100" font-family="sans-serif" font-size="14" text-anchor="middle" fill="#000000">A</text>
  <text x="148" y="95" font-family="sans-serif" font-size="10" text-anchor="middle" fill="#000000">-</text>

  <text x="216" y="80" font-family="sans-serif" font-size="14" text-anchor="middle" fill="#000000">Moles</text>
  <text x="216" y="100" font-family="sans-serif" font-size="14" text-anchor="middle" fill="#000000">HA</text>

  <text x="288" y="80" font-family="sans-serif" font-size="14" text-anchor="middle" fill="#000000">Ratio</text>
  <text x="272" y="100" font-family="sans-serif" font-size="14" text-anchor="middle" fill="#000000">[A</text>
  <text x="280" y="95" font-family="sans-serif" font-size="10" text-anchor="middle" fill="#000000">-</text>
  <text x="296" y="100" font-family="sans-serif" font-size="14" text-anchor="middle" fill="#000000">]/[HA]</text>

  <text x="360" y="90" font-family="sans-serif" font-size="14" text-anchor="middle" fill="#000000">pH</text>

  <text x="432" y="80" font-family="sans-serif" font-size="14" text-anchor="middle" fill="#000000">Capacity</text>
  <text x="432" y="100" font-family="sans-serif" font-size="14" text-anchor="middle" fill="#000000">vs acid</text>

  <!-- Row Header -->
  <text x="58" y="156" font-family="sans-serif" font-size="13" text-anchor="middle" font-weight="bold" fill="#000000">Buffer</text>
  <text x="58" y="174" font-family="sans-serif" font-size="13" text-anchor="middle" font-weight="bold" fill="#000000">contaminated</text>
  <text x="58" y="192" font-family="sans-serif" font-size="13" text-anchor="middle" font-weight="bold" fill="#000000">with strong</text>
  <text x="58" y="210" font-family="sans-serif" font-size="13" text-anchor="middle" font-weight="bold" fill="#000000">acid</text>

</svg>