<svg xmlns="http://www.w3.org/2000/svg" viewBox="0 0 480 320">
    <rect width="480" height="320" fill="#ffffff" />
    
    <text x="240" y="45" font-family="sans-serif" font-size="20" font-weight="bold" text-anchor="middle" fill="#333333">Exothermic Equilibrium</text>

    <!-- Horizontal lines -->
    <line x1="15" y1="70" x2="463" y2="70" stroke="#333333" stroke-width="2" />
    <line x1="15" y1="130" x2="463" y2="130" stroke="#333333" stroke-width="2" />
    <line x1="15" y1="250" x2="463" y2="250" stroke="#333333" stroke-width="2" />
    
    <!-- Vertical lines -->
    <line x1="15" y1="70" x2="15" y2="250" stroke="#333333" stroke-width="2" />
    <line x1="135" y1="70" x2="135" y2="250" stroke="#333333" stroke-width="2" />
    <line x1="217" y1="70" x2="217" y2="250" stroke="#333333" stroke-width="2" />
    <line x1="299" y1="70" x2="299" y2="250" stroke="#333333" stroke-width="2" />
    <line x1="381" y1="70" x2="381" y2="250" stroke="#333333" stroke-width="2" />
    <line x1="463" y1="70" x2="463" y2="250" stroke="#333333" stroke-width="2" />

    <!-- Column Headers -->
    <text x="176" y="95" font-family="sans-serif" font-size="14" font-weight="bold" text-anchor="middle" fill="#333333">Shift</text>
    <text x="176" y="115" font-family="sans-serif" font-size="14" font-weight="bold" text-anchor="middle" fill="#333333">direction</text>
    
    <text x="258" y="95" font-family="sans-serif" font-size="14" font-weight="bold" text-anchor="middle" fill="#333333">Moles</text>
    <text x="258" y="115" font-family="sans-serif" font-size="14" font-weight="bold" text-anchor="middle" fill="#333333">product</text>

    <text x="340" y="95" font-family="sans-serif" font-size="14" font-weight="bold" text-anchor="middle" fill="#333333">Value</text>
    <text x="340" y="115" font-family="sans-serif" font-size="14" font-weight="bold" text-anchor="middle" fill="#333333">of K</text>

    <text x="422" y="95" font-family="sans-serif" font-size="14" font-weight="bold" text-anchor="middle" fill="#333333">Rate of</text>
    <text x="422" y="115" font-family="sans-serif" font-size="14" font-weight="bold" text-anchor="middle" fill="#333333">reaction</text>

    <!-- Row Header -->
    <text x="75" y="185" font-family="sans-serif" font-size="14" font-weight="bold" text-anchor="middle" fill="#333333">Temperature</text>
    <text x="75" y="205" font-family="sans-serif" font-size="14" font-weight="bold" text-anchor="middle" fill="#333333">increased</text>

    <!-- Target indicators for empty cells (for hotspots/ink threshold) -->
    <line x1="156" y1="190" x2="196" y2="190" stroke="#cccccc" stroke-width="2" stroke-dasharray="4,4" />
    <line x1="238" y1="190" x2="278" y2="190" stroke="#cccccc" stroke-width="2" stroke-dasharray="4,4" />
    <line x1="320" y1="190" x2="360" y2="190" stroke="#cccccc" stroke-width="2" stroke-dasharray="4,4" />
    <line x1="402" y1="190" x2="442" y2="190" stroke="#cccccc" stroke-width="2" stroke-dasharray="4,4" />
</svg>
