<svg xmlns="http://www.w3.org/2000/svg" viewBox="0 0 480 320">
  <rect width="480" height="320" fill="#ffffff"/>
  
  <g stroke="#e2e8f0" stroke-width="1.5" stroke-dasharray="6,6">
    <line x1="50" y1="200" x2="440" y2="200"/>
    <line x1="50" y1="80" x2="440" y2="80"/>
    <line x1="120" y1="30" x2="120" y2="270"/>
    <line x1="200" y1="30" x2="200" y2="270"/>
    <line x1="280" y1="30" x2="280" y2="270"/>
    <line x1="400" y1="30" x2="400" y2="270"/>
  </g>

  <line x1="50" y1="270" x2="440" y2="270" stroke="#334155" stroke-width="2"/>
  <line x1="50" y1="270" x2="50" y2="30" stroke="#334155" stroke-width="2"/>
  
  <path d="M435,266 L442,270 L435,274" fill="none" stroke="#334155" stroke-width="2"/>
  <path d="M46,35 L50,28 L54,35" fill="none" stroke="#334155" stroke-width="2"/>

  <text x="40" y="265" font-family="sans-serif" font-size="14" fill="#475569" text-anchor="end">-20</text>
  <text x="40" y="204" font-family="sans-serif" font-size="14" fill="#475569" text-anchor="end">0</text>
  <text x="40" y="84" font-family="sans-serif" font-size="14" fill="#475569" text-anchor="end">100</text>
  
  <text x="50" y="292" font-family="sans-serif" font-size="14" fill="#475569" text-anchor="middle">0</text>
  <text x="120" y="292" font-family="sans-serif" font-size="14" fill="#475569" text-anchor="middle">30</text>
  <text x="200" y="292" font-family="sans-serif" font-size="14" fill="#475569" text-anchor="middle">90</text>
  <text x="280" y="292" font-family="sans-serif" font-size="14" fill="#475569" text-anchor="middle">180</text>
  <text x="400" y="292" font-family="sans-serif" font-size="14" fill="#475569" text-anchor="middle">320</text>
  
  <text x="445" y="305" font-family="sans-serif" font-size="14" font-weight="bold" fill="#334155" text-anchor="end">q (kJ)</text>
  <text x="30" y="22" font-family="sans-serif" font-size="14" font-weight="bold" fill="#334155">T (°C)</text>

  <line x1="60" y1="260" x2="120" y2="200" stroke="#2563eb" stroke-width="4.5" stroke-linecap="round"/>
  <line x1="120" y1="200" x2="200" y2="200" stroke="#dc2626" stroke-width="4.5" stroke-linecap="round"/>
  <line x1="200" y1="200" x2="280" y2="80" stroke="#2563eb" stroke-width="4.5" stroke-linecap="round"/>
  <line x1="280" y1="80" x2="400" y2="80" stroke="#dc2626" stroke-width="4.5" stroke-linecap="round"/>
</svg>