<svg xmlns="http://www.w3.org/2000/svg" viewBox="0 0 480 320">
<rect x="0" y="0" width="480" height="320" fill="#ffffff"/>
<line x1="240" y1="28" x2="240" y2="300" stroke="#cbd5e1" stroke-width="1"/>
<rect x="20" y="42" width="200" height="66" rx="8" ry="8" fill="none" stroke="#cbd5e1" stroke-width="1"/>
<rect x="260" y="42" width="200" height="66" rx="8" ry="8" fill="none" stroke="#cbd5e1" stroke-width="1"/>
<text x="120" y="70" font-family="Helvetica, Arial, sans-serif" font-size="15" fill="#334155" text-anchor="middle">N₂ + 3H₂ → 2NH₃ + 92 kJ</text>
<text x="360" y="70" font-family="Helvetica, Arial, sans-serif" font-size="15" fill="#334155" text-anchor="middle">CaCO₃ + 178 kJ → CaO + CO₂</text>
<line x1="120" y1="110" x2="120" y2="170" stroke="#e2e8f0" stroke-width="1.5" stroke-dasharray="3 4"/>
<line x1="360" y1="110" x2="360" y2="170" stroke="#e2e8f0" stroke-width="1.5" stroke-dasharray="3 4"/>
<circle cx="120" cy="222" r="32" fill="none" stroke="#334155" stroke-width="1.6"/>
<g>
<polyline points="74.7,193.7 66.7,185.7 54,185.7 54,173 45.3,169.3" fill="none" stroke="#334155" stroke-width="1.6" stroke-linejoin="round" stroke-linecap="round"/>
<polygon points="36,163.3 49.3,166 40,174.7" fill="#334155"/>
<polyline points="165.3,193.7 173.3,189.3 173.3,178 184.7,178 187.3,169.3" fill="none" stroke="#334155" stroke-width="1.6" stroke-linejoin="round" stroke-linecap="round"/>
<polygon points="196,163.3 192,174.7 184,166" fill="#334155"/>
<polyline points="74.7,250.3 65.3,253.3 65.3,264 54,264 50.7,272" fill="none" stroke="#334155" stroke-width="1.6" stroke-linejoin="round" stroke-linecap="round"/>
<polygon points="41.3,280 45.3,268 53.3,276" fill="#334155"/>
<polyline points="165.3,250.3 169.3,258 180,258 180,268.7 188.7,270.7" fill="none" stroke="#334155" stroke-width="1.6" stroke-linejoin="round" stroke-linecap="round"/>
<polygon points="196,280 184,276 192,268" fill="#334155"/>
</g>
<circle cx="360" cy="222" r="32" fill="none" stroke="#334155" stroke-width="1.6"/>
<g>
<polyline points="305.3,163.3 313.3,166 313.3,178 324.7,178 327.3,185.3" fill="none" stroke="#334155" stroke-width="1.6" stroke-linejoin="round" stroke-linecap="round"/>
<polygon points="336,193.7 332,182 324,190.7" fill="#334155"/>
<polyline points="414.7,163.3 410.7,171.3 400,171.3 400,182.7 392,185.3" fill="none" stroke="#334155" stroke-width="1.6" stroke-linejoin="round" stroke-linecap="round"/>
<polygon points="384,193.7 396,190.7 388,182" fill="#334155"/>
<polyline points="305.3,280 308,272 318.7,272 318.7,260.7 327.3,258" fill="none" stroke="#334155" stroke-width="1.6" stroke-linejoin="round" stroke-linecap="round"/>
<polygon points="336,250.3 324,254 332,262" fill="#334155"/>
<polyline points="414.7,280 405.3,276 405.3,265.3 394.7,265.3 392,258" fill="none" stroke="#334155" stroke-width="1.6" stroke-linejoin="round" stroke-linecap="round"/>
<polygon points="384,250.3 388,262 396,254" fill="#334155"/>
</g>
</svg>
